<svg xmlns="http://www.w3.org/2000/svg" viewBox="-264.8 388.6 32.1 32.4"><path d="M-254.3 402.2c.7 0 1.3-.6 1.3-1.3v-5.3c0-2.4 1.9-4.3 4.3-4.3s4.3 1.9 4.3 4.3v5.3c0 .7.6 1.3 1.3 1.3.7 0 1.3-.6 1.3-1.3v-5.3c0-3.8-3.1-7-7-7-3.8 0-7 3.1-7 7v5.3c.1.7.7 1.3 1.5 1.3z"/><path d="M-233.2 399.2h-7.2v1.7c0 1.5-1.2 2.7-2.7 2.7s-2.7-1.2-2.7-2.7v-1.7h-5.8v1.7c0 1.5-1.2 2.7-2.7 2.7-1.5 0-2.7-1.2-2.7-2.7v-1.7h-7.2c-.4 0-.6.3-.5.7l4.7 19.2c.3 1.1 1.4 2 2.5 2h17.5c1.1 0 2.3-.9 2.5-2l4.7-19.2c.2-.4-.1-.7-.4-.7z"/></svg>