<svg id="Слой_1" xmlns="http://www.w3.org/2000/svg" viewBox="0 0 67.1 111"><style>.st0{fill:#FFF}</style><path class="st0" d="M61.4 11.6C55.7 2.6 47.9.2 47.6.1c-.4-.1-.9-.1-1.3.2-.4.3-.6.7-.7 1.1 0 .1-.6 6.1-3.8 9.4-3.5 3.5-8.1 3.3-8.1 3.3h-.1-.1s-4.6.2-8.1-3.3c-3.2-3.2-3.8-9.3-3.8-9.4 0-.4-.3-.9-.7-1.1-.4-.3-.9-.4-1.3-.2-.3.1-8.2 2.5-13.8 11.5C.2 20.5 0 28.7 0 29c0 .6.4 1.2 1 1.4l7.4 2.9c.5.2 1 .1 1.4-.2.1-.1 3.3-2.2 5.5-6.5.3 1 .7 2.1 1.3 3.1 1.7 2.9 3.7 4.5 4.9 5.4l-18.9 66c-.1.5 0 1 .3 1.4.3.3 7.5 8.6 30.8 8.6s30.5-8.2 30.8-8.6c.3-.4.4-.9.3-1.4l-18.9-66c1.2-.8 3.2-2.5 4.9-5.4.6-1 1-2 1.3-3.1 2.2 4.3 5.3 6.4 5.5 6.5.4.3.9.3 1.4.2l7.4-2.9c.6-.2 1-.8 1-1.4-.3-.3-.5-8.5-6-17.4zM24.3 35.9h2.6L16.2 106c-6.3-1.7-9.5-4-10.6-5l18.7-65.1zm7.8 72.1c-5.1-.1-9.4-.6-12.9-1.3L30 35.9h2.1V108zm3-72.1h2.2l10.8 70.8c-3.5.7-7.8 1.2-13 1.3V35.9zm26.4 65.2c-1.2 1-4.3 3.3-10.5 4.9L40.3 35.9h2.5l18.7 65.2zm-3-70.9c-.9-.8-2.7-2.5-4-5.2-1.3-2.6-1.6-4.4-1.7-5.2v-.7c-.1-.8-.8-1.4-1.5-1.3-.8 0-1.4.6-1.5 1.4v.9c.1 1.5 0 5.3-1.7 8.1-1.7 2.9-3.7 4.3-4.4 4.7H23.5c-.7-.4-2.7-1.8-4.4-4.7-1.7-2.8-1.7-6.7-1.7-8.1.1-.5 0-.8 0-.9 0-.8-.7-1.4-1.5-1.4s-1.5.6-1.5 1.3v.7c-.1.8-.5 2.6-1.7 5.2-1.3 2.7-3.1 4.4-4 5.2L3.1 28c.2-2.4 1.2-8.5 5.2-14.9 3.6-5.7 8.1-8.4 10.5-9.6.5 2.4 1.7 6.5 4.4 9.2 4.2 4.2 9.5 4.2 10.3 4.1.8 0 6.1.1 10.3-4.1 2.8-2.8 3.9-6.8 4.4-9.3 2.4 1.1 6.9 3.9 10.5 9.6 4 6.4 5 12.5 5.2 14.9l-5.4 2.3z"/></svg>