<svg id="Слой_1" xmlns="http://www.w3.org/2000/svg" viewBox="0 0 74.1 59.6"><style>.st0{fill:#FFF}</style><path class="st0" d="M36.4 59.6c-.8 0-1.5-.3-2.2-.8L1.3 32.4C.5 31.7 0 30.7 0 29.6c0-1.1.5-2.1 1.4-2.7L34.2 1.4c1.1-.8 2.5-1 3.7-.4 1.2.6 2 1.8 2 3.1v1c0 1.9-1.6 3.5-3.5 3.5h-.1l-27.1 21 29.4 23.7c1.5 1.2 1.7 3.4.5 4.9-.7 1-1.7 1.4-2.7 1.4z"/><path class="st0" d="M33.9 12.6h-6.7c-.8 0-1.5-.7-1.5-1.5s.7-1.5 1.5-1.5h6.7c.8 0 1.5.7 1.5 1.5s-.7 1.5-1.5 1.5zM36.4 18.8H16.1c-.8 0-1.5-.7-1.5-1.5s.7-1.5 1.5-1.5h20.3c.8 0 1.5.7 1.5 1.5s-.7 1.5-1.5 1.5zM36.4 25H12.2c-.8 0-1.5-.7-1.5-1.5s.7-1.5 1.5-1.5h24.2c.8 0 1.5.7 1.5 1.5s-.7 1.5-1.5 1.5zM41.7 31.1H7.5c-.8 0-1.5-.7-1.5-1.5s.7-1.5 1.5-1.5h34.2c.8 0 1.5.7 1.5 1.5s-.7 1.5-1.5 1.5zM35.5 37.4H11.1c-.8 0-1.5-.7-1.5-1.5s.7-1.5 1.5-1.5h24.3c.8 0 1.5.7 1.5 1.5s-.6 1.5-1.4 1.5zM36.4 43.5H18c-.8 0-1.5-.7-1.5-1.5s.7-1.5 1.5-1.5h18.4c.8 0 1.5.7 1.5 1.5s-.7 1.5-1.5 1.5zM34.6 49.7h-10c-.8 0-1.5-.7-1.5-1.5s.7-1.5 1.5-1.5h10c.8 0 1.5.7 1.5 1.5s-.7 1.5-1.5 1.5z"/><path class="st0" d="M36.7 59.6c-1.9 0-3.5-1.6-3.5-3.5V3.5c0-1.9 1.6-3.5 3.5-3.5s3.5 1.6 3.5 3.5v52.6c0 1.9-1.6 3.5-3.5 3.5z"/><path class="st0" d="M37.7 59.6c-1 0-2-.4-2.7-1.3-1.2-1.5-1-3.7.5-4.9l29.4-23.7-27.2-21c-1.9.1-3.6-1.5-3.6-3.5v-1c0-1.3.8-2.6 2-3.1 1.2-.6 2.6-.4 3.7.4L72.7 27c.8.7 1.3 1.7 1.4 2.7s-.5 2.1-1.3 2.8L39.9 58.8c-.7.5-1.5.8-2.2.8z"/><path class="st0" d="M47.8 12.6h-7.7c-.8 0-1.5-.7-1.5-1.5s.7-1.5 1.5-1.5h7.7c.8 0 1.5.7 1.5 1.5s-.6 1.5-1.5 1.5zM58 18.8H37.7c-.8 0-1.5-.7-1.5-1.5s.7-1.5 1.5-1.5H58c.8 0 1.5.7 1.5 1.5s-.7 1.5-1.5 1.5zM61.9 25H37.7c-.8 0-1.5-.7-1.5-1.5s.7-1.5 1.5-1.5h24.2c.8 0 1.5.7 1.5 1.5s-.7 1.5-1.5 1.5zM66.6 31.1H32.4c-.8 0-1.5-.7-1.5-1.5s.7-1.5 1.5-1.5h34.2c.8 0 1.5.7 1.5 1.5s-.7 1.5-1.5 1.5zM58 37.3H38.6c-.8 0-1.5-.7-1.5-1.5s.7-1.5 1.5-1.5H58c.8 0 1.5.7 1.5 1.5s-.7 1.5-1.5 1.5zM56.1 43.5H37.7c-.8 0-1.5-.7-1.5-1.5s.7-1.5 1.5-1.5h18.4c.8 0 1.5.7 1.5 1.5s-.7 1.5-1.5 1.5zM49.5 49.7h-10c-.8 0-1.5-.7-1.5-1.5s.7-1.5 1.5-1.5h10c.8 0 1.5.7 1.5 1.5s-.7 1.5-1.5 1.5z"/></svg>