<svg id="Layer_1" xmlns="http://www.w3.org/2000/svg" viewBox="48 323 707 148"><style>.st0{fill:#d13a3a}</style><path class="st0" d="M188 446.1c.7-.9 1-2.2.1-3.3-1-1.3-2.5-1-2.8-.9l-2.2.2h-.3l-1.5.1-1.5-1.9c-.1-.1-.2-.2-.4-.2l-2.4.2c-.2 0-.3.1-.3.2-.1.1 0 .3.1.4l3.7 4.6-.3 1.2c0 .1 0 .3.1.4.1.1.1.1.2.1.2.1.4-.1.5-.3l.2-.7c1.4 1.1 3.3 1.2 3.5 1.2.6 0 1.7-.1 2.6-.6l1.2.6-.5-1.3zm-3.4-2.4c.1.2.1.4.1.6l-1.1-1.4c.3.1.7.3 1 .8zm-1.5-.8l1.4 1.8-.1.1s-.1.1-.2.1l-1.5-1.9.4-.1zm-.8 0l1.6 2c-.1 0-.2 0-.4.1l-1.6-2 .4-.1zm-1.1.1h.3l1.6 2c-.1 0-.3 0-.4-.1l-1.5-1.9zm-2.3-.6l-1.1-1.4h.5l1.1 1.4h-.5zm1-.1l-1.1-1.3h.5l1.1 1.3h-.5zm-.3.9h.3l.6.8c-.3-.3-.6-.6-.9-.8zm1.8 1.2l-1.1-1.4h.4l1.3 1.7c-.1 0-.4-.1-.6-.3zm3.2 2.2c-.1 0-2.2 0-3.5-1.3 1.5.8 2.9.7 3.7.1.7-.5.9-1.3.5-2.1-.1-.2-.3-.4-.4-.6h.7s1.2-.3 1.9.6c.8 1 .1 2.1-.5 2.6-.8.6-1.9.7-2.4.7z"/><circle class="st0" cx="186.7" cy="444.5" r=".5"/><path class="st0" d="M85.5 373.9c-1.4 0-2.8.6-3.2 2.3-.5 1.9.9 3.1 1.1 3.3l1.8 2c.1.1.2.2.2.3l1.2 1.4-.6 2.8c0 .2 0 .3.1.5l2 2.1c.1.1.3.2.5.1.2 0 .3-.2.4-.4l1.8-6.9 1.4-.6.3-.3v-.3c-.1-.3-.4-.4-.6-.3l-.8.4c0-2.2-1.3-4-1.5-4.2-.4-.6-1.3-1.5-2.5-2l-.3-1.5-1.3 1.3zm.3 4.9c.1-.3.3-.4.5-.5l-.5 2.1c-.2-.3-.3-.9 0-1.6zm.3 2.1l.7-2.6h.1c.1 0 .1 0 .2.1l-.7 2.8-.3-.3zm.6.7l.8-3 .3.3-.8 3.1-.3-.4zm.9 1l-.3-.3.8-3c.1.1.2.3.2.4l-.7 2.9zm1.1 2.6l-.5 2-.4-.5.5-2 .4.5zm-.8-.8l-.5 2-.4-.5.5-2 .4.5zm1-.4l-.2-.2.3-1.1c-.1.3-.1.8-.1 1.3zm-.1-2.6l-.5 2-.3-.4.6-2.5c.1.3.2.5.2.9zm-.3-4.7c0 .1 1.6 2.1 1.2 4.3-.4-2-1.4-3.2-2.6-3.6-1-.3-1.9.1-2.3 1.1-.1.3-.2.6-.2.8l-.5-.6-.1-.1s-1.2-.9-.8-2.3c.4-1.5 2-1.7 2.9-1.5 1.2.4 2.1 1.4 2.4 1.9z"/><circle class="st0" cx="85" cy="376.3" r=".6"/><path class="st0" d="M304 407.3c-.5-1.5-1.8-2.7-3.7-2.5-2.2.2-2.9 2.1-3 2.5l-1.4 2.7c-.1.2-.2.3-.2.3l-1 1.8-3.3.3c-.2 0-.4.1-.4.3l-1.5 2.9c-.1.2-.1.4 0 .6.1.2.3.3.5.2l7.9-.8 1.2 1.2c.1.1.3.2.5.2.1 0 .2-.1.3-.1.2-.2.2-.6 0-.8l-.7-.8c2.3-.8 3.7-2.9 3.9-3.2.4-.6 1.1-2 1.1-3.4l1.5-.9-1.7-.5zm-5.2 2.2c.3 0 .6.1.7.4l-2.4.3c.4-.4.9-.7 1.7-.7zm-2 1.1l3-.3v.4l-3.3.3.3-.4zm-.5.9l3.4-.4c0 .1-.1.3-.2.5l-3.5.4.3-.5zm-.8 1.4l.2-.4 3.4-.4c-.1.1-.2.3-.4.4l-3.2.4zm-2.3 2.1l-2.3.2.3-.6 2.3-.2-.3.6zm.6-1.1l-2.3.2.3-.6 2.3-.2-.3.6zm.8.9l.2-.3 1.3-.1c-.5.1-1 .2-1.5.4zm2.8-1.1l-2.3.2.2-.5 2.9-.3c-.3.2-.5.4-.8.6zm4.8-2.2s-.1.1 0 0c0 .1-1.6 2.6-4 3 2-1.2 2.9-2.8 2.8-4.1-.1-1.2-.9-2-2-2-.4 0-.7 0-1 .1l.4-.7v-.1c0-.1.5-1.6 2.1-1.8 1.7-.2 2.5 1.4 2.6 2.5.1 1.3-.6 2.6-.9 3.1z"/><circle class="st0" cx="301.2" cy="407.7" r=".6"/><path class="st0" d="M160.2 340.3c.1.2.2.4.1.6l-.7 4.7c-.1.4-.4.7-.9.6-.5-.1-.7-.4-.6-.9l.7-4.7c.1-.4.4-.7.9-.6.2 0 .4.1.5.3z"/><path class="st0" d="M164.9 340.9c.1.2.2.3.1.6-.1.4-.4.7-.8.6l-4.7-.6c-.4-.1-.7-.4-.6-.8.1-.4.4-.7.8-.6l4.7.6c.2 0 .4.1.5.2zM162.6 343.5c.1.2.2.4.1.6l-.7 4.7c-.1.4-.4.7-.9.6-.4-.1-.7-.4-.6-.9l.7-4.7c.1-.4.4-.7.9-.6.2.1.4.2.5.3z"/><path class="st0" d="M167.4 344.2c.1.2.2.3.1.6-.1.4-.4.7-.8.6l-4.7-.6c-.4-.1-.7-.4-.6-.8.1-.4.4-.7.8-.6l4.7.6c.2-.1.3 0 .5.2zM165.1 346.8c.1.2.2.4.1.6l-.7 4.7c-.1.4-.4.7-.9.6-.4-.1-.7-.4-.6-.9l.7-4.7c.1-.4.4-.7.9-.6.2 0 .4.1.5.3z"/><path class="st0" d="M169.8 347.4c.1.2.2.3.1.6-.1.4-.4.7-.8.6l-4.7-.6c-.4-.1-.7-.4-.6-.8.1-.4.4-.7.8-.6l4.7.6c.2 0 .4.1.5.2zM385.4 381.8c-.2 0-.4-.1-.5-.3l-2.9-3.8c-.3-.3-.2-.8.1-1.1.3-.3.8-.2 1.1.1l2.9 3.8c.3.3.2.8-.1 1.1-.2.2-.4.3-.6.2z"/><path class="st0" d="M381.7 384.8c-.2 0-.4-.1-.5-.3-.3-.3-.2-.8.1-1.1l3.7-3c.3-.3.8-.2 1.1.1.3.3.2.8-.1 1.1l-3.7 3c-.2.2-.4.2-.6.2zM381.4 381.4c-.2 0-.4-.1-.5-.3l-2.9-3.8c-.3-.3-.2-.8.1-1.1.3-.3.8-.2 1.1.1l2.9 3.8c.3.3.2.8-.1 1.1-.2.1-.4.2-.6.2z"/><path class="st0" d="M377.7 384.3c-.2 0-.4-.1-.5-.3-.3-.3-.2-.8.1-1.1l3.7-3c.3-.3.8-.2 1.1.1.3.3.2.8-.1 1.1l-3.7 3c-.2.2-.4.3-.6.2zM377.4 380.9c-.2 0-.4-.1-.5-.3l-2.9-3.8c-.3-.3-.2-.8.1-1.1.3-.3.8-.2 1.1.1l2.9 3.8c.3.3.2.8-.1 1.1-.3.2-.5.2-.6.2z"/><path class="st0" d="M373.6 383.9c-.2 0-.4-.1-.5-.3-.3-.3-.2-.8.1-1.1l3.7-3c.3-.3.8-.2 1.1.1.3.3.2.8-.1 1.1l-3.7 3c-.2.1-.4.2-.6.2zM240.3 387.7c0-.1-.1-.1 0-.2l.5-1.8c0-.2.2-.3.4-.2.2 0 .3.2.2.4l-.5 1.8c0 .2-.2.3-.4.2l-.2-.2z"/><path class="st0" d="M238.5 387.2c0-.1-.1-.1 0-.2 0-.2.2-.3.4-.2l1.8.5c.2 0 .3.2.2.4 0 .2-.2.3-.4.2l-1.8-.5-.2-.2zM239.5 386.2c0-.1-.1-.1 0-.2l.5-1.8c0-.2.2-.3.4-.2.2 0 .3.2.2.4l-.5 1.8c0 .2-.2.3-.4.2-.1 0-.2-.1-.2-.2z"/><path class="st0" d="M237.7 385.7c0-.1-.1-.1 0-.2 0-.2.2-.3.4-.2l1.8.5c.2 0 .3.2.2.4 0 .2-.2.3-.4.2l-1.8-.5c-.1 0-.2-.1-.2-.2zM238.7 384.8c0-.1-.1-.1 0-.2l.5-1.8c0-.2.2-.3.4-.2.2 0 .3.2.2.4l-.5 1.8c0 .2-.2.3-.4.2-.1-.1-.2-.1-.2-.2z"/><path class="st0" d="M236.9 384.3c0-.1-.1-.1 0-.2 0-.2.2-.3.4-.2l1.8.5c.2 0 .3.2.2.4 0 .2-.2.3-.4.2l-1.8-.5c-.1 0-.2-.1-.2-.2zM264.3 364.7c-.1 0-.2-.1-.3-.3l-1.3-2.9c-.1-.3 0-.6.3-.7.3-.1.6 0 .7.3l1.3 2.9c.1.3 0 .6-.3.7-.1.1-.3.1-.4 0z"/><path class="st0" d="M261.4 366.1c-.1 0-.2-.1-.3-.3-.1-.3 0-.6.2-.7l2.9-1.4c.3-.1.6 0 .7.2.1.3 0 .6-.2.7l-2.9 1.4c-.1.1-.3.1-.4.1zM261.7 363.8c-.1 0-.2-.1-.3-.3l-1.3-2.9c-.1-.3 0-.6.3-.7s.6 0 .7.3l1.3 2.9c.1.3 0 .6-.3.7h-.4z"/><path class="st0" d="M258.8 365.1c-.1 0-.2-.1-.3-.3-.1-.3 0-.6.2-.7l2.9-1.4c.3-.1.6 0 .7.2.1.3 0 .6-.2.7l-2.9 1.4c-.1.2-.2.2-.4.1zM259.2 362.8c-.1 0-.2-.1-.3-.3l-1.3-2.9c-.1-.3 0-.6.3-.7s.6 0 .7.3l1.3 2.9c.1.3 0 .6-.3.7h-.4z"/><path class="st0" d="M256.3 364.2c-.1 0-.2-.1-.3-.3-.1-.3 0-.6.2-.7l2.9-1.4c.3-.1.6 0 .7.2.1.3 0 .6-.2.7l-2.9 1.4c-.2.1-.3.1-.4.1zM241.3 458.8c-.1 0-.3 0-.4-.1l-2.5-2c-.2-.2-.3-.5-.1-.7s.5-.3.7-.1l2.5 2c.2.2.3.5.1.7 0 .2-.2.2-.3.2z"/><path class="st0" d="M239.3 461.4c-.1 0-.3 0-.4-.1-.2-.2-.3-.5-.1-.7l2-2.5c.2-.2.5-.3.7-.1.2.2.3.5.1.7l-2 2.5c0 .1-.1.1-.3.2zM238.6 459.1c-.1 0-.3 0-.4-.1l-2.5-2c-.2-.2-.3-.5-.1-.7.2-.2.5-.3.7-.1l2.5 2c.2.2.3.5.1.7-.1.2-.2.2-.3.2z"/><path class="st0" d="M236.6 461.7c-.1 0-.3 0-.4-.1-.2-.2-.3-.5-.1-.7l2-2.5c.2-.2.5-.3.7-.1s.3.5.1.7l-2 2.5c0 .1-.2.2-.3.2zM235.9 459.4c-.1 0-.3 0-.4-.1l-2.5-2c-.2-.2-.3-.5-.1-.7.2-.2.5-.3.7-.1l2.5 2c.2.2.3.5.1.7-.1.2-.2.2-.3.2z"/><path class="st0" d="M233.9 462c-.1 0-.3 0-.4-.1-.2-.2-.3-.5-.1-.7l2-2.5c.2-.2.5-.3.7-.1.2.2.3.5.1.7l-2 2.5c-.1.1-.2.2-.3.2zM79.5 459.1h.4l2.9 1.5c.3.1.4.4.2.7-.1.3-.4.4-.7.2l-2.9-1.5c-.3-.1-.4-.4-.2-.7.1-.1.2-.2.3-.2z"/><path class="st0" d="M80.9 456.2h.4c.3.1.4.4.2.7l-1.4 2.9c-.1.3-.4.4-.7.2-.3-.1-.4-.4-.2-.7l1.4-2.9c.1-.1.2-.2.3-.2zM82.1 458.2h.4l2.9 1.5c.3.1.4.4.2.7-.1.2-.4.4-.7.2l-2.9-1.5c-.3-.1-.4-.4-.2-.7.1-.1.2-.2.3-.2z"/><path class="st0" d="M83.5 455.3h.4c.3.1.4.4.2.7l-1.4 2.9c-.1.3-.4.4-.7.2-.3-.1-.4-.4-.2-.7l1.4-2.9c.1-.1.2-.2.3-.2zM84.7 457.3h.4l2.9 1.5c.3.1.4.4.2.7s-.4.4-.7.2l-2.9-1.5c-.3-.1-.4-.4-.2-.7.1-.1.2-.1.3-.2z"/><path class="st0" d="M86.1 454.4h.4c.3.1.4.4.2.7l-1.4 2.9c-.1.3-.4.4-.7.2-.3-.1-.4-.4-.2-.7l1.4-2.9c.1-.1.2-.1.3-.2zM72.2 353.9c-.1 0-.2 0-.3-.1l-4.2-4.8c-.1-.1-.1-.2-.1-.3 0-.1.1-.2.2-.3.1-.1 3.3-1.9 5.3.4 1.8 2-.4 4.9-.5 5.1l-.1.1c-.1-.1-.2-.1-.3-.1zm0-1.1c.5-.8 1.3-2.4.3-3.6-1.1-1.3-2.9-.8-3.7-.4l3.4 4z"/><path class="st0" d="M68.8 349.5l1.6-1.4c.1-.1.1-.2 0-.3-.1-.1-.2-.1-.3 0l-1.6 1.4c-.1.1-.1.2 0 .3s.2.1.3 0zM69.3 350.1l2-1.8c.1-.1.1-.2 0-.3-.1-.1-.2-.1-.3 0l-2 1.8c-.1.1-.1.2 0 .3h.3zM69.7 350.6l2.4-2.1c.1-.1.1-.2 0-.3-.1-.1-.2-.1-.3 0l-2.4 2.1c-.1.1-.1.2 0 .3.2.1.3.1.3 0zM70.2 351.2l2.3-2c.1-.1.1-.2 0-.3s-.2-.1-.3 0l-2.3 2c-.1.1-.1.2 0 .3.1 0 .2.1.3 0zM70.7 351.8l2.3-2c.1-.1.1-.2 0-.3s-.2-.1-.3 0l-2.3 2c-.1.1-.1.2 0 .3h.3zM71.2 352.3l2-1.8c.1-.1.1-.2 0-.3-.1-.1-.2-.1-.3 0L71 352c-.1.1-.1.2 0 .3 0 .1.1.1.2 0zM71.7 352.9l1.7-1.5c.1-.1.1-.2 0-.3s-.2-.1-.3 0l-1.7 1.5c-.1.1-.1.2 0 .3h.3zM220.4 348.4c0-.1-.1-.2-.2-.3h-.1c-.2-.1-4.4-1.6-6.2 1.2-2 3.1 1.3 6.3 1.4 6.4.1.1.3.2.4.1.2 0 .3-.1.4-.2l4.2-6.7c.1-.2.1-.4.1-.5zm-1.5.7l-.7-.4c.3 0 .6.1.9.2l-.2.2zm-.5.8l-1.9-1.2c.3 0 .5-.1.8-.1l1.4.9-.3.4zm-.5.8l-2.5-1.6c.2-.1.3-.2.5-.3l2.3 1.4-.3.5zm-.5.8l-2.7-1.7c.1-.1.2-.3.3-.4l2.6 1.7-.2.4zm-.5.7l-2.6-1.6c0-.1.1-.3.2-.4l2.6 1.7-.2.3zm-.5.8l-2.1-1.3v-.6l2.4 1.5-.3.4zm-.4.8l-1.3-.8c-.1-.2-.2-.5-.3-.7l1.8 1.1-.2.4zm-.4.6c-.1-.2-.3-.4-.4-.6l.6.4-.2.2zM284.4 453.5l-.2.2v.1c0 .1-.3 3.7 2.2 4.4 2.7.8 4.4-2.3 4.5-2.4.1-.1.1-.2 0-.3 0-.1-.1-.2-.3-.2l-5.9-1.7c0-.1-.2-.1-.3-.1zm.9 1l-.2.6c0-.3-.1-.5-.1-.7l.3.1zm.7.2l-.5 1.7c-.1-.2-.2-.4-.2-.6l.4-1.2.3.1zm.7.2l-.6 2.2-.3-.3.6-2 .3.1zm.7.2l-.7 2.4c-.1 0-.2-.1-.4-.2l.7-2.3.4.1zm.7.2l-.7 2.3h-.4l.7-2.3h.4zm.7.2l-.6 1.9c-.1.1-.3.1-.4.1l.6-2.1.4.1zm.6.2l-.3 1.1c-.1.1-.3.3-.5.4l.5-1.6.3.1zm.6.1c-.1.1-.2.3-.3.4l.1-.5.2.1zM144.6 385.1l-1.4-2.6h2.9zM69.9 434.5l-5-2.6 4.5-1.9zM263.1 423l-7.8 2.1 2.9-6.3zM333.7 350.3l-1.4-6.1 4.8 2.5zM379.7 421.3l-3.1-1.8 2.9-1.1zM148 425.1c-.2.1-.4 0-.4-.2l-3.6-9c-.1-.2 0-.4.2-.4.2-.1.4 0 .4.2l3.6 9c0 .1-.1.3-.2.4z"/><path class="st0" d="M144.3 416.1h-.2c-.2-.1-.2-.3-.2-.4l.9-2.2c0-.1.2-.6.7-.8.2-.1.5-.1.7 0 .4.1.8.5.5 1.4 0 .2-.2.3-.4.2-.2 0-.3-.2-.2-.4v-.1c.1-.4 0-.5-.1-.6-.3-.1-.5.4-.6.4l-.9 2.2c-.1.2-.1.2-.2.3z"/><path class="st0" d="M145 417.8h-.2c-.2-.1-.2-.3-.2-.4l1.7-4c.1-.2.3-.2.4-.2.2.1.2.3.2.4l-1.7 4c-.1.1-.1.2-.2.2z"/><path class="st0" d="M145.8 419.5h-.2c-.2-.1-.2-.3-.2-.4l2.2-5.4v-.3c0-.1-.1-.1-.2-.1-.3-.1-.6.7-.6.9 0 .2-.2.3-.4.2-.2 0-.3-.2-.2-.4.1-.6.6-1.5 1.4-1.3.4.1.6.3.6.4.1.2.2.5.1.9l-2.3 5.3c0 .1-.1.1-.2.2z"/><path class="st0" d="M146.5 421.5h-.2c-.2-.1-.2-.3-.2-.4l2.8-6.7c.1-.1.2-.5.1-.7l-.2-.2h-.3c-.2.1-.3.3-.3.4 0 .2-.2.3-.4.2-.2 0-.3-.2-.2-.4 0-.1.2-.6.6-.8.2-.1.5-.2.8-.1.4.1.6.3.6.5.2.5 0 1.2-.1 1.3l-2.8 6.7c-.1.1-.2.1-.2.2z"/><path class="st0" d="M147.2 423.3h-.2c-.2-.1-.2-.3-.2-.4l3.1-7.3c.2-.4.3-.8.4-.9 0-.3-.2-.4-.3-.4-.2 0-.5 0-.6.4 0 .2-.2.3-.4.2-.2 0-.3-.2-.2-.4.2-.7.8-1 1.3-.9.5.1.9.6.8 1.1 0 .3-.3.9-.4 1.1l-3.1 7.3c0 .1-.1.2-.2.2z"/><path class="st0" d="M148 425.2h-.2c-.2-.1-.2-.3-.2-.4l3.1-7.3c.2-.4.4-.9.4-1.1s-.2-.3-.3-.3c-.2 0-.4.1-.5.4 0 .2-.2.3-.4.2-.2 0-.3-.2-.2-.4.2-.7.7-.9 1.1-.9.5.1.9.4.9.9 0 .4-.3 1.2-.4 1.4l-3.1 7.3c-.1.1-.1.2-.2.2zM144.3 416.1h-.3l-2.1-.9c-.1 0-.5-.2-.7.1-.1.1-.1.3.3.5h.1c.1.1.2.3.1.4-.1.1-.3.2-.4.1-.8-.5-.7-1-.6-1.3.1-.2.3-.4.5-.5.5-.2.9.1 1 .1l2.1.9c.2.1.2.3.2.4-.1.1-.1.2-.2.2z"/><path class="st0" d="M145 417.8h-.2l-4-1.7c-.2-.1-.2-.3-.2-.4.1-.2.3-.2.4-.2l4 1.7c.2.1.2.3.2.4-.1.1-.1.2-.2.2z"/><path class="st0" d="M145.6 419.6h-.3l-5.3-2.4c-.3-.2-.5-.4-.5-.7 0-.2 0-.4.2-.7.5-.7 1.4-.3 1.9 0 .2.1.2.3.1.4-.1.2-.3.2-.4.1-.2-.1-.9-.5-1.1-.2-.1.1-.1.2-.1.2 0 .1.1.2.2.3l5.3 2.4c.2.1.2.3.2.4-.1.1-.1.2-.2.2z"/><path class="st0" d="M146.5 421.5h-.2l-6.6-2.9c-.1 0-.8-.3-.9-.8-.1-.2-.1-.5.1-.8.1-.2.3-.4.6-.5.5-.1.9.1 1 .2.2.1.2.3.1.4-.1.2-.3.2-.4.1-.1 0-.3-.1-.5-.1-.1 0-.1 0-.2.2-.1.1-.1.2 0 .3.1.2.4.4.6.5l6.6 2.9c.2.1.2.3.2.4-.3 0-.3 0-.4.1z"/><path class="st0" d="M147.2 423.3h-.2l-7.3-3.1c-.2-.1-.9-.3-1.1-.5-.4-.3-.5-.9-.2-1.4.3-.4.9-.7 1.5-.3.2.1.2.3.1.4-.1.2-.3.2-.4.1-.3-.2-.6-.1-.7.1-.1.1-.1.3.1.5.1.1.5.3.9.4l7.3 3.1c.2.1.2.3.2.4 0 .2-.1.3-.2.3z"/><path class="st0" d="M148 425.2h-.2l-7.3-3.1c-.2-.1-1-.4-1.3-.7-.3-.4-.3-.9 0-1.3.3-.3.8-.5 1.4-.2.2.1.2.3.1.4-.1.2-.3.2-.4.1-.3-.2-.5-.1-.6 0s-.1.3 0 .5c.1.1.6.4 1 .6l7.3 3.1c.2.1.2.3.2.4-.1.1-.1.2-.2.2z"/><circle class="st0" cx="143.4" cy="413.9" r=".5"/><path class="st0" d="M382 456.9c0 .1-.2.1-.2.1l-4.7-2.7c-.1 0-.1-.2-.1-.2l.2-.1 4.7 2.7c.2 0 .2.2.1.2z"/><path class="st0" d="M377.3 454.3l-.1.1c-.1 0-.2 0-.2-.1l-.4-1.3s-.1-.3 0-.6l.3-.3c.2-.1.5-.1.7.4 0 .1 0 .2-.1.2s-.2 0-.2-.1c-.1-.2-.2-.2-.3-.2-.2.1-.1.3-.1.4l.4 1.3v.2z"/><path class="st0" d="M378.2 454.8l-.1.1c-.1 0-.2 0-.2-.1l-.6-2.3c0-.1 0-.2.1-.2s.2 0 .2.1l.6 2.4c0-.1 0-.1 0 0z"/><path class="st0" d="M379.1 455.2l-.1.1c-.1 0-.2 0-.2-.1l-.9-3.1c0-.1-.1-.1-.1-.1h-.1c-.2.1 0 .5 0 .6 0 .1 0 .2-.1.2s-.2 0-.2-.1c-.1-.3-.3-.9.1-1.1.2-.1.3-.1.4 0 .1 0 .3.2.3.3l.9 3.1c.1.1.1.2 0 .2z"/><path class="st0" d="M380.1 455.9l-.1.1c-.1 0-.2 0-.2-.1l-1.1-3.9c0-.1-.1-.3-.2-.4h-.2c-.1 0-.1.1-.1.1v.3c0 .1 0 .2-.1.2s-.2 0-.2-.1c0 0-.1-.3 0-.6l.3-.3c.2-.1.4 0 .5 0 .3.1.4.5.4.6l1.1 3.9c0 .1-.1.1-.1.2z"/><path class="st0" d="M381.1 456.4l-.1.1c-.1 0-.2 0-.2-.1l-1.2-4.3c-.1-.2-.1-.5-.2-.5-.1-.1-.2-.1-.3-.1-.1.1-.2.2-.1.4 0 .1 0 .2-.1.2s-.2 0-.2-.1c-.2-.4 0-.7.3-.8.3-.1.6-.1.7.2.1.1.2.5.2.6l1.2 4.3v.1z"/><path class="st0" d="M382.1 457l-.1.1c-.1 0-.2 0-.2-.1l-1.2-4.3c-.1-.2-.2-.5-.2-.6-.1-.1-.2-.1-.3 0-.1.1-.1.2-.1.3s0 .2-.1.2-.2 0-.2-.1c-.2-.4 0-.7.2-.8s.5-.1.7.1.3.7.3.8l1.2 4.3v.1zM377.3 454.3l-.1.1-1.3.3s-.3.1-.3.3c0 .1.1.2.3.1.1 0 .2.1.2.2s-.1.2-.2.2c-.5.1-.7-.2-.7-.4 0-.1 0-.3.1-.4.1-.2.4-.3.5-.3l1.3-.3c.1 0 .2 0 .2.2 0-.1 0-.1 0 0z"/><path class="st0" d="M378.2 454.8l-.1.1-2.3.6c-.1 0-.2 0-.2-.1s0-.2.1-.2l2.3-.6c.1 0 .2 0 .2.2 0-.1 0-.1 0 0z"/><path class="st0" d="M379.1 455.4l-.1.1-3.1.8c-.2 0-.4 0-.5-.1-.1-.1-.2-.2-.2-.4 0-.5.5-.6.8-.7.1 0 .2.1.2.2s-.1.2-.2.2-.5.1-.5.3v.1h.2l3.1-.8c.1 0 .2 0 .2.1.1.1.1.1.1.2z"/><path class="st0" d="M380.1 455.9l-.1.1-3.9 1.1c-.1 0-.4.1-.7 0-.1-.1-.2-.2-.2-.4s0-.3.1-.4c.2-.2.5-.3.5-.3.1 0 .2.1.2.2s-.1.2-.2.2c0 0-.2 0-.2.1v.1c0 .1 0 .1.1.1.1.1.3 0 .4 0l3.9-1.1c.1 0 .2 0 .2.1s0 .1-.1.2z"/><path class="st0" d="M381.1 456.4l-.1.1-4.3 1.2c-.1 0-.5.1-.6.2-.3 0-.5-.2-.6-.5 0-.3.1-.6.6-.7.1 0 .2.1.2.2s-.1.2-.2.2c-.2 0-.3.2-.3.3s.1.2.2.2.3-.1.5-.1l4.3-1.2c.1 0 .2 0 .3.1 0-.1 0 0 0 0z"/><path class="st0" d="M382.1 457l-.1.1-4.3 1.2c-.1 0-.6.2-.8.1-.3-.1-.4-.3-.4-.6 0-.2.2-.5.6-.6.1 0 .2.1.2.2s-.1.2-.2.2c-.2 0-.3.1-.3.2s.1.2.1.2c.1 0 .4 0 .6-.1l4.3-1.2c.1 0 .2 0 .2.1.1.1.1.1.1.2z"/><circle class="st0" cx="376.2" cy="453.6" r=".3"/><path class="st0" d="M294.3 356.4c0 .1-.2.1-.2.1l-4.7-2.7c-.1 0-.1-.2-.1-.2 0-.1.2-.1.2-.1l4.7 2.7c.1 0 .2.1.1.2z"/><path class="st0" d="M289.6 353.7l-.1.1c-.1 0-.2 0-.2-.1l-.4-1.3s-.1-.3 0-.6l.3-.3c.2-.1.5-.1.7.4 0 .1 0 .2-.1.2s-.2 0-.2-.1c-.1-.2-.2-.2-.3-.2-.2.1-.1.3-.1.4l.4 1.3v.2z"/><path class="st0" d="M290.5 354.3l-.1.1c-.1 0-.2 0-.2-.1l-.6-2.3c0-.1 0-.2.1-.2s.2 0 .2.1l.6 2.4c0-.1 0-.1 0 0z"/><path class="st0" d="M291.4 354.7l-.1.1c-.1 0-.2 0-.2-.1l-.9-3.1c0-.1-.1-.1-.1-.1h-.1c-.2.1 0 .5 0 .6s0 .2-.1.2-.2 0-.2-.1c-.1-.3-.3-.9.1-1.1.2-.1.3-.1.4 0 .1 0 .3.2.3.3l.9 3.1c.1.1.1.2 0 .2z"/><path class="st0" d="M292.4 355.3l-.1.1c-.1 0-.2 0-.2-.1l-1.1-3.9c0-.1-.1-.3-.2-.4h-.2c-.1 0-.1.1-.1.1v.3c0 .1 0 .2-.1.2s-.2 0-.2-.1c0 0-.1-.3 0-.6l.3-.3c.2-.1.4 0 .5 0 .3.1.4.5.4.6l1.1 3.9c-.1.1-.1.2-.1.2z"/><path class="st0" d="M293.4 355.9l-.1.1c-.1 0-.2 0-.2-.1l-1.2-4.3c-.1-.2-.1-.5-.2-.5-.1-.1-.2-.1-.3-.1-.1.1-.2.2-.1.4 0 .1 0 .2-.1.2s-.2 0-.2-.1c-.2-.4 0-.7.3-.8.3-.1.6-.1.7.2.1.1.2.5.2.6l1.2 4.3v.1z"/><path class="st0" d="M294.4 356.4l-.1.1c-.1 0-.2 0-.2-.1l-1.2-4.3c-.1-.2-.2-.5-.2-.6-.1-.1-.2-.1-.3 0s-.1.2-.1.3c0 .1 0 .2-.1.2s-.2 0-.2-.1c-.2-.4 0-.7.2-.8s.5-.1.7.1c.2.2.3.7.3.8l1.2 4.3v.1zM289.6 353.7l-.1.1-1.3.3s-.3.1-.3.3c0 .1.1.2.3.1.1 0 .2.1.2.2s-.1.2-.2.2c-.5.1-.7-.2-.7-.4 0-.1 0-.3.1-.4.1-.2.4-.3.5-.3l1.3-.3c.1 0 .2 0 .2.1v.1z"/><path class="st0" d="M290.5 354.3l-.1.1-2.3.6c-.1 0-.2 0-.2-.1s0-.2.1-.2l2.3-.6c.1 0 .2 0 .2.2 0-.1 0-.1 0 0z"/><path class="st0" d="M291.4 354.8l-.1.1-3.1.8c-.2 0-.4 0-.5-.1s-.2-.2-.2-.4c0-.5.5-.6.8-.7.1 0 .2.1.2.2s-.1.2-.2.2-.5.1-.5.3v.1h.2l3.1-.8c.1 0 .2 0 .2.1.1.1.1.2.1.2z"/><path class="st0" d="M292.4 355.3l-.1.1-3.9 1.1c-.1 0-.4.1-.7 0-.1-.1-.2-.2-.2-.4s0-.3.1-.4c.2-.2.5-.3.5-.3.1 0 .2.1.2.2s-.1.2-.2.2c0 0-.2 0-.2.1v.1c0 .1 0 .1.1.1.1.1.3 0 .4 0l3.9-1.1c.1 0 .2 0 .2.1 0 .2-.1.2-.1.2z"/><path class="st0" d="M293.4 355.9l-.1.1-4.3 1.2c-.1 0-.5.1-.6.2-.3 0-.5-.2-.6-.5 0-.3.1-.6.6-.7.1 0 .2.1.2.2s-.1.2-.2.2c-.2 0-.3.2-.3.3s.1.2.2.2.3-.1.5-.1l4.3-1.2c.1 0 .2 0 .2.1.1-.1.1 0 .1 0z"/><path class="st0" d="M294.4 356.5l-.1.1-4.3 1.2c-.1 0-.6.2-.8.1-.3-.1-.4-.3-.4-.6 0-.2.2-.5.6-.6.1 0 .2.1.2.2s-.1.2-.2.2c-.2 0-.3.1-.3.2s.1.2.1.2c.1 0 .4 0 .6-.1l4.3-1.2c.1 0 .2 0 .2.1.1.1.1.1.1.2z"/><circle class="st0" cx="288.5" cy="353.1" r=".3"/><path class="st0" d="M386.2 350.1l-4.4.6c-.1 0-.3 0-.3.1-.1.1-.1.3-.1.4l-.7 4.2c0 .1 0 .2.1.3.1.1.2.1.3.1l4.4-.4c.1.1.3 0 .4-.1.1-.1.1-.2.1-.3l.6-4.6c0-.1 0-.2-.1-.3h-.3zm-.5 1.5l-1.6 1.5-.2-.3.1-.1 1.7-1.7v.6zm-.1 1.1l-1 .9-.2-.3 1.3-1.2-.1.6zm-.2 1l-.3.3-.2-.3.7-.6-.2.6zm-3.9.5l1.4-1.4.2.2-1.7 1.6.1-.4zm.2-1.1l.8-.7.2.3-1.1 1.1.1-.7zm.1-1.1l.1-.1.2.3-.5.4.2-.6zm1.2-.1l.8-.8.6-.1-1.2 1.1-.2-.2zm.3-.8l-.5.5-.2-.3.1-.1.6-.1zm.1 2.3l.2.3-1.5 1.4h-.6l1.9-1.7zm.4.4l.2.3-.9.8h-.6l1.3-1.1zm.5.5l.2.3-.3.3h-.6l.7-.6zm1 0zm-1.6-1.7l-.2-.2 1.5-1.4.6-.1-1.9 1.7zM344 436.2l-1.1-7.9c0-.2 0-.5-.2-.6-.2-.2-.5-.3-.7-.2l-7.6-1.2c-.2 0-.4 0-.5.2-.1.1-.2.3-.2.5l.7 7.9c-.1.3-.1.6.1.8.2.2.4.2.6.2l8.2 1.1c.2 0 .4 0 .5-.2.1-.2.2-.4.2-.6zm-2.7-.8l-2.7-2.8.5-.4.2.3 3 3.1-1-.2zm-2-.2l-1.6-1.7.4-.4 2.2 2.3-1-.2zm-1.9-.3l-.6-.6.4-.4 1.1 1.2-.9-.2zm-.9-7.1l2.5 2.5-.4.4-.1-.1-2.9-3 .9.2zm2 .3l1.3 1.4-.4.4-1.9-2 1 .2zm2 .4l.2.2-.4.4-.8-.8 1 .2zm.3 2l1.4 1.5.1 1.1-2-2.1.5-.5zm1.3.5l-.9-.9.5-.4.2.3.2 1zm-4 .2l-.5.4-2.6-2.6-.1-1 3.2 3.2zm-.9.8l-.4.4-1.5-1.6-.1-1 2 2.2zm-.9.9l-.4.4-.5-.5-.1-1 1 1.1zm.1 1.8zm3-2.9l.4-.4 2.6 2.7.1 1-3.1-3.3zM206.6 388.4l-4.4-.7c-.1-.1-.2-.1-.4 0-.1.1-.2.2-.2.4l-1.9 3.8v.3c0 .1.1.2.2.2l4.3.9c.1.1.3.1.4.1.1-.1.2-.2.2-.3l1.9-4.2v-.3c.1-.1 0-.2-.1-.2zm-.9 1.3l-1.9 1-.2-.3.2-.1 2.1-1.1-.2.5zm-.4 1l-1.2.6-.2-.3 1.6-.8-.2.5zm-.5 1l-.4.2-.2-.3.8-.4-.2.5zm-3.9-.6l1.8-.9.2.3-2.1 1.1.1-.5zm.5-1l.9-.5.2.3-1.4.7.3-.5zm.5-1l.1-.1.2.3-.6.3.3-.5zm1.1.1l1-.5.6.1-1.5.7-.1-.3zm.5-.6l-.6.3-.2-.3.2-.1.6.1zm-.6 2.2l.2.3-1.8.9-.6-.1 2.2-1.1zm.4.6l.2.3-1.1.6-.5-.1 1.4-.8zm.3.6l.2.3-.3.2-.5-.1.6-.4zm.9.2zm-1-2.1l-.2-.3 1.9-1 .6.1-2.3 1.2zM116 448.7l-4.9 2.7c-.2 0-.3.1-.4.3-.1.2 0 .4.1.5l1 5.3c0 .1.1.2.2.3.1.1.2.1.4 0l5-2.4c.2 0 .4-.1.5-.3.1-.1.1-.3 0-.4l-1.3-5.7c0-.1-.1-.2-.2-.3-.1-.1-.2-.1-.4 0zm.2 2l-1.2 2.5-.4-.2.1-.2 1.3-2.7.2.6zm.3 1.3l-.7 1.5-.4-.2 1-2 .1.7zm.3 1.3l-.3.5-.4-.2.5-1 .2.7zm-4.4 2.4l1.1-2.2.4.2v.1l-1.3 2.7-.2-.8zm-.3-1.4l.6-1.2.4.2-.8 1.7-.2-.7zm-.3-1.4l.1-.2.4.2-.3.7-.2-.7zm1.3-.7l.6-1.3.7-.4-.9 1.9-.4-.2zm0-1l-.4.8-.4-.2.1-.2.7-.4zm1.1 2.6l.4.2-1.1 2.3-.6.3 1.3-2.8zm.8.4l.4.2-.7 1.4-.6.3.9-1.9zm.7.3l.4.2-.2.4-.6.3.4-.9zm1.2-.5zm-2.7-1.2l-.4-.2 1.1-2.4.6-.3-1.3 2.9zM533.6 442.1c.7-.9 1-2.2.1-3.3-1-1.3-2.5-1-2.8-.9l-2.2.2h-.3l-1.5.1-1.5-1.9c-.1-.1-.2-.2-.4-.2l-2.4.2c-.2 0-.3.1-.3.2-.1.1 0 .3.1.4l3.7 4.6-.3 1.2c0 .1 0 .3.1.4.1.1.1.1.2.1.2.1.4-.1.5-.3l.2-.7c1.4 1.1 3.3 1.2 3.5 1.2.6 0 1.7-.1 2.6-.6l1.2.6-.5-1.3zm-3.5-2.4c.1.2.1.4.1.6l-1.1-1.4c.3.1.7.3 1 .8zm-1.5-.8l1.4 1.8-.1.1s-.1.1-.2.1l-1.5-1.9.4-.1zm-.8 0l1.6 2c-.1 0-.2 0-.4.1l-1.6-2 .4-.1zm-1.1.1h.3l1.6 2c-.1 0-.3 0-.4-.1l-1.5-1.9zm-2.2-.6l-1.1-1.4h.5l1.1 1.4h-.5zm.9-.1l-1.1-1.3h.5l1.1 1.3h-.5zm-.2.9h.3l.6.8c-.3-.3-.6-.6-.9-.8zm1.7 1.3l-1.1-1.4h.4l1.3 1.7c-.1-.1-.3-.2-.6-.3zm3.3 2.1c-.1 0-2.2 0-3.5-1.3 1.5.8 2.9.7 3.7.1.7-.5.9-1.3.5-2.1-.1-.2-.3-.4-.4-.6h.7s1.2-.3 1.9.6c.8 1 .1 2.1-.5 2.6-.8.6-1.9.7-2.4.7z"/><circle class="st0" cx="532.2" cy="440.5" r=".5"/><path class="st0" d="M431.1 369.9c-1.4 0-2.8.6-3.2 2.3-.5 1.9.9 3.1 1.1 3.3l1.8 2c.1.1.2.2.2.3l1.2 1.4-.7 2.9c0 .2 0 .3.1.5l2 2.1c.1.1.3.2.5.1.2 0 .3-.2.4-.4l1.8-6.9 1.4-.6.3-.3v-.3c-.1-.3-.4-.4-.6-.3l-.8.4c0-2.2-1.3-4-1.5-4.2-.4-.6-1.3-1.5-2.5-2l-.3-1.5-1.2 1.2zm.2 5c.1-.3.3-.4.5-.5l-.5 2.1c-.2-.4-.3-1 0-1.6zm.3 2l.7-2.6h.1c.1 0 .1 0 .2.1l-.7 2.8-.3-.3zm.6.7l.8-3 .3.3-.8 3-.3-.3zm.9 1.1l-.3-.3.8-3c.1.1.2.3.2.4l-.7 2.9zm1.1 2.5l-.5 2-.4-.5.5-2 .4.5zm-.8-.8l-.5 2-.4-.4.5-2 .4.4zm1-.4l-.2-.2.3-1.1c0 .4 0 .8-.1 1.3zm0-2.6l-.5 2-.3-.4.6-2.5c0 .3.1.6.2.9zm-.4-4.7c.1 0 .1 0 0 0 0 .1 1.6 2.1 1.2 4.3-.4-2-1.4-3.2-2.6-3.6-1-.3-1.9.1-2.3 1.1-.1.3-.2.6-.2.8l-.5-.6-.1-.1s-1.2-.9-.8-2.3c.4-1.5 2-1.7 2.9-1.5 1.2.4 2.1 1.4 2.4 1.9z"/><circle class="st0" cx="430.5" cy="372.3" r=".6"/><path class="st0" d="M649.5 403.3c-.5-1.5-1.8-2.7-3.7-2.5-2.2.2-2.9 2.1-3 2.5l-1.4 2.7c-.1.2-.2.3-.2.3l-1 1.8-3.3.3c-.2 0-.4.1-.4.3l-1.5 2.9c-.1.2-.1.4 0 .6s.3.3.5.2l7.9-.8 1.2 1.2c.1.1.3.2.5.2.1 0 .2-.1.3-.1.2-.2.2-.6 0-.8l-.7-.8c2.3-.8 3.7-2.9 3.9-3.2.4-.6 1.1-2 1.1-3.4l1.5-.9-1.7-.5zm-5.1 2.2c.3 0 .6.1.7.4l-2.4.3c.3-.4.8-.7 1.7-.7zm-2.1 1.1l3-.3v.4l-3.3.3.3-.4zm-.5 1l3.4-.4c0 .1-.1.3-.2.5l-3.5.4.3-.5zm-.7 1.3l.2-.4 3.4-.4c-.1.1-.2.3-.4.4l-3.2.4zm-2.3 2.1l-2.3.2.3-.6 2.3-.2-.3.6zm.5-1.1l-2.3.2.3-.6 2.3-.2-.3.6zm.9.9l.2-.3 1.3-.1c-.5.1-1 .2-1.5.4zm2.7-1.1l-2.3.2.2-.5 2.9-.3c-.2.2-.5.4-.8.6zm4.8-2.1c0 .1-1.6 2.6-4 3 2-1.2 2.9-2.8 2.8-4.1-.1-1.2-.9-2-2-2-.4 0-.7 0-1 .1l.4-.7v-.1c0-.1.5-1.6 2.1-1.8 1.7-.2 2.5 1.4 2.6 2.5.2 1.2-.5 2.5-.9 3.1z"/><circle class="st0" cx="646.7" cy="403.7" r=".6"/><path class="st0" d="M505.7 336.3c.1.2.2.4.1.6l-.7 4.7c-.1.4-.4.7-.9.6-.5-.1-.7-.4-.6-.9l.7-4.7c.1-.4.4-.7.9-.6.2 0 .4.1.5.3z"/><path class="st0" d="M510.5 336.9c.1.2.2.3.1.6-.1.4-.4.7-.8.6l-4.7-.6c-.4-.1-.7-.4-.6-.8.1-.4.4-.7.8-.6l4.7.6c.2 0 .3.1.5.2zM508.2 339.6c.1.2.2.4.1.6l-.7 4.7c-.1.4-.4.7-.9.6-.4-.1-.7-.4-.6-.9l.7-4.7c.1-.4.4-.7.9-.6.2 0 .4.1.5.3z"/><path class="st0" d="M512.9 340.2c.1.2.2.3.1.6-.1.4-.4.7-.8.6l-4.7-.6c-.4-.1-.7-.4-.6-.8s.4-.7.8-.6l4.7.6c.2-.1.4 0 .5.2zM510.6 342.8c.1.2.2.4.1.6l-.7 4.7c-.1.4-.4.7-.9.6-.4-.1-.7-.4-.6-.9l.7-4.7c.1-.4.4-.7.9-.6.2.1.4.2.5.3z"/><path class="st0" d="M515.3 343.5c.1.2.2.3.1.6-.1.4-.4.7-.8.6l-4.7-.6c-.4-.1-.7-.4-.6-.8.1-.4.4-.7.8-.6l4.7.6c.2-.1.4 0 .5.2zM731 377.9c-.2 0-.4-.1-.5-.3l-2.9-3.8c-.3-.3-.2-.8.1-1.1.3-.3.8-.2 1.1.1l2.9 3.8c.3.3.2.8-.1 1.1-.2.1-.4.2-.6.2z"/><path class="st0" d="M727.2 380.8c-.2 0-.4-.1-.5-.3-.3-.3-.2-.8.1-1.1l3.7-3c.3-.3.8-.2 1.1.1s.2.8-.1 1.1l-3.7 3c-.2.2-.4.3-.6.2zM726.9 377.4c-.2 0-.4-.1-.5-.3l-2.9-3.8c-.3-.3-.2-.8.1-1.1.3-.3.8-.2 1.1.1l2.9 3.8c.3.3.2.8-.1 1.1-.2.2-.4.2-.6.2z"/><path class="st0" d="M723.2 380.4c-.2 0-.4-.1-.5-.3-.3-.3-.2-.8.1-1.1l3.7-3c.3-.3.8-.2 1.1.1.3.3.2.8-.1 1.1l-3.7 3c-.2.1-.4.2-.6.2zM722.9 376.9c-.2 0-.4-.1-.5-.3l-2.9-3.8c-.3-.3-.2-.8.1-1.1.3-.3.8-.2 1.1.1l2.9 3.8c.3.3.2.8-.1 1.1-.2.2-.4.2-.6.2z"/><path class="st0" d="M719.2 379.9c-.2 0-.4-.1-.5-.3-.3-.3-.2-.8.1-1.1l3.7-3c.3-.3.8-.2 1.1.1.3.3.2.8-.1 1.1l-3.7 3c-.2.1-.4.2-.6.2zM585.8 383.7c0-.1-.1-.1 0-.2l.5-1.8c0-.2.2-.3.4-.2.2 0 .3.2.2.4l-.5 1.8c0 .2-.2.3-.4.2-.1-.1-.1-.2-.2-.2z"/><path class="st0" d="M584 383.2v-.2c0-.2.2-.3.4-.2l1.8.5c.2 0 .3.2.2.4 0 .2-.2.3-.4.2l-1.8-.5-.2-.2zM585 382.3c0-.1-.1-.1 0-.2l.5-1.8c0-.2.2-.3.4-.2.2 0 .3.2.2.4l-.5 1.8c0 .2-.2.3-.4.2-.1-.1-.1-.2-.2-.2z"/><path class="st0" d="M583.2 381.8c0-.1-.1-.1 0-.2 0-.2.2-.3.4-.2l1.8.5c.2 0 .3.2.2.4 0 .2-.2.3-.4.2l-1.8-.5-.2-.2zM584.2 380.8c0-.1-.1-.1 0-.2l.5-1.8c0-.2.2-.3.4-.2.2 0 .3.2.2.4l-.5 1.8c0 .2-.2.3-.4.2-.1 0-.1-.1-.2-.2z"/><path class="st0" d="M582.4 380.3c0-.1-.1-.1 0-.2 0-.2.2-.3.4-.2l1.8.5c.2 0 .3.2.2.4 0 .2-.2.3-.4.2l-1.8-.5c-.1 0-.2-.1-.2-.2zM609.9 360.7c-.1 0-.2-.1-.3-.3l-1.3-2.9c-.1-.3 0-.6.3-.7.3-.1.6 0 .7.3l1.3 2.9c.1.3 0 .6-.3.7-.2.1-.3.1-.4 0z"/><path class="st0" d="M606.9 362.1c-.1 0-.2-.1-.3-.3-.1-.3 0-.6.2-.7l2.9-1.4c.3-.1.6 0 .7.2.1.3 0 .6-.2.7l-2.9 1.4c-.1.1-.2.1-.4.1zM607.3 359.8c-.1 0-.2-.1-.3-.3l-1.3-2.9c-.1-.3 0-.6.3-.7s.6 0 .7.3l1.3 2.9c.1.3 0 .6-.3.7h-.4z"/><path class="st0" d="M604.4 361.1c-.1 0-.2-.1-.3-.3-.1-.3 0-.6.2-.7l2.9-1.4c.3-.1.6 0 .7.2.1.3 0 .6-.2.7l-2.9 1.4c-.2.2-.3.2-.4.1zM604.7 358.8c-.1 0-.2-.1-.3-.3l-1.3-2.9c-.1-.3 0-.6.3-.7s.6 0 .7.3l1.3 2.9c.1.3 0 .6-.3.7-.1.1-.3.1-.4 0z"/><path class="st0" d="M601.8 360.2c-.1 0-.2-.1-.3-.3-.1-.3 0-.6.2-.7l2.9-1.4c.3-.1.6 0 .7.2.1.3 0 .6-.2.7l-2.9 1.4c-.1.1-.3.1-.4.1zM586.9 454.8c-.1 0-.3 0-.4-.1l-2.5-2c-.2-.2-.3-.5-.1-.7s.5-.3.7-.1l2.5 2c.2.2.3.5.1.7-.1.2-.2.2-.3.2z"/><path class="st0" d="M584.9 457.4c-.1 0-.3 0-.4-.1-.2-.2-.3-.5-.1-.7l2-2.5c.2-.2.5-.3.7-.1.2.2.3.5.1.7l-2 2.5c-.1.1-.2.2-.3.2zM584.1 455.2c-.1 0-.3 0-.4-.1l-2.5-2c-.2-.2-.3-.5-.1-.7s.5-.3.7-.1l2.5 2c.2.2.3.5.1.7 0 .1-.1.1-.3.2z"/><path class="st0" d="M582.1 457.7c-.1 0-.3 0-.4-.1-.2-.2-.3-.5-.1-.7l2-2.5c.2-.2.5-.3.7-.1s.3.5.1.7l-2 2.5c0 .1-.1.2-.3.2zM581.4 455.5c-.1 0-.3 0-.4-.1l-2.5-2c-.2-.2-.3-.5-.1-.7.2-.2.5-.3.7-.1l2.5 2c.2.2.3.5.1.7-.1.1-.2.1-.3.2z"/><path class="st0" d="M579.4 458c-.1 0-.3 0-.4-.1-.2-.2-.3-.5-.1-.7l2-2.5c.2-.2.5-.3.7-.1.2.2.3.5.1.7l-2 2.5c0 .1-.2.2-.3.2zM425 455.1h.4l2.9 1.5c.3.1.4.4.2.7-.2.3-.4.4-.7.2l-2.9-1.5c-.3-.1-.4-.4-.2-.7.1-.1.2-.2.3-.2z"/><path class="st0" d="M426.4 452.2h.4c.3.1.4.4.2.7l-1.4 2.9c-.1.3-.4.4-.7.2-.3-.1-.4-.4-.2-.7l1.4-2.9c.1-.1.2-.2.3-.2zM427.6 454.2h.4l2.9 1.5c.3.1.4.4.2.7-.1.2-.4.4-.7.2l-2.9-1.5c-.3-.1-.4-.4-.2-.7.1-.1.2-.2.3-.2z"/><path class="st0" d="M429 451.3h.4c.3.1.4.4.2.7l-1.4 2.9c-.1.3-.4.4-.7.2-.3-.1-.4-.4-.2-.7l1.4-2.9c.1-.1.2-.1.3-.2zM430.2 453.3h.4l2.9 1.5c.3.1.4.4.2.7-.1.3-.4.4-.7.2l-2.9-1.5c-.3-.1-.4-.4-.2-.7.1 0 .2-.1.3-.2z"/><path class="st0" d="M431.6 450.4h.4c.3.1.4.4.2.7l-1.4 2.9c-.1.3-.4.4-.7.2-.3-.1-.4-.4-.2-.7l1.4-2.9c.1 0 .2-.1.3-.2zM417.8 349.9c-.1 0-.2 0-.3-.1l-4.2-4.8c-.1-.1-.1-.2-.1-.3 0-.1.1-.2.2-.3s3.3-1.9 5.3.4c1.8 2-.4 4.9-.5 5.1l-.1.1c-.1-.1-.2-.1-.3-.1zm-.1-1.1c.5-.8 1.3-2.4.3-3.6-1.1-1.3-2.9-.8-3.7-.4l3.4 4z"/><path class="st0" d="M414.3 345.5l1.6-1.4c.1-.1.1-.2 0-.3-.1-.1-.2-.1-.3 0l-1.6 1.4c-.1.1-.1.2 0 .3s.2.1.3 0zM414.8 346.1l2-1.8c.1-.1.1-.2 0-.3s-.2-.1-.3 0l-2 1.8c-.1.1-.1.2 0 .3s.2.1.3 0zM415.3 346.7l2.4-2.1c.1-.1.1-.2 0-.3-.1-.1-.2-.1-.3 0l-2.4 2.1c-.1.1-.1.2 0 .3h.3zM415.8 347.2l2.3-2c.1-.1.1-.2 0-.3s-.2-.1-.3 0l-2.3 2c-.1.1-.1.2 0 .3.1.1.2.1.3 0zM416.2 347.8l2.3-2c.1-.1.1-.2 0-.3s-.2-.1-.3 0l-2.3 2c-.1.1-.1.2 0 .3h.3zM416.7 348.3l2-1.8c.1-.1.1-.2 0-.3-.1-.1-.2-.1-.3 0l-2 1.8c-.1.1-.1.2 0 .3.1.1.3.1.3 0zM417.2 348.9l1.7-1.5c.1-.1.1-.2 0-.3s-.2-.1-.3 0l-1.7 1.5c-.1.1-.1.2 0 .3.1.1.2.1.3 0zM565.9 344.4c0-.1-.1-.2-.2-.3h-.1c-.2-.1-4.4-1.6-6.2 1.2-2 3.1 1.3 6.3 1.4 6.4.1.1.3.2.4.1.2 0 .3-.1.4-.2l4.2-6.7c.1-.2.2-.3.1-.5zm-1.5.7l-.7-.4c.3 0 .6.1.9.2l-.2.2zm-.4.8l-1.9-1.2c.3 0 .5-.1.8-.1l1.4.9-.3.4zm-.5.8l-2.5-1.6c.2-.1.3-.2.5-.3l2.3 1.4-.3.5zm-.5.8l-2.7-1.7c.1-.1.2-.3.3-.4l2.6 1.7-.2.4zm-.5.8l-2.6-1.6c0-.1.1-.3.2-.4l2.6 1.7-.2.3zm-.5.7l-2.1-1.3v-.6l2.4 1.5-.3.4zm-.5.8l-1.3-.8c-.1-.2-.2-.5-.3-.7l1.8 1.1-.2.4zm-.4.6c-.1-.2-.3-.4-.4-.6l.6.4-.2.2zM630 449.6l-.2.2v.1c0 .1-.3 3.7 2.2 4.4 2.7.8 4.4-2.3 4.5-2.4s.1-.2 0-.3c0-.1-.1-.2-.3-.2l-5.9-1.7c-.1-.2-.2-.2-.3-.1zm.8.9l-.2.6c0-.3-.1-.5-.1-.7l.3.1zm.7.2l-.5 1.7c-.1-.2-.2-.4-.2-.6l.4-1.2.3.1zm.7.2l-.6 2.2-.3-.3.6-2 .3.1zm.7.2l-.7 2.4c-.1 0-.2-.1-.4-.2l.7-2.3.4.1zm.7.2l-.7 2.3h-.4l.7-2.3h.4zm.7.2l-.6 1.9c-.1.1-.3.1-.4.1l.6-2.1.4.1zm.7.2l-.3 1.1c-.1.1-.3.3-.5.4l.5-1.6.3.1zm.5.2c-.1.1-.2.3-.3.4l.1-.5.2.1zM490.2 381.1l-1.5-2.6h3zM415.5 430.5l-5.1-2.6 4.6-1.8zM608.6 419l-7.8 2.1 3-6.3zM679.3 346.3l-1.5-6.1 4.9 2.5zM725.2 417.3l-3.1-1.8 2.9-1zM493.5 421.1c-.2.1-.4 0-.4-.2l-3.6-9c-.1-.2 0-.4.2-.4.2-.1.4 0 .4.2l3.6 9c0 .2 0 .4-.2.4z"/><path class="st0" d="M489.8 412.1h-.2c-.2-.1-.2-.3-.2-.4l.9-2.2c0-.1.2-.6.7-.8.2-.1.5-.1.7 0 .4.1.8.5.5 1.4 0 .2-.2.3-.4.2-.2 0-.3-.2-.2-.4v-.1c.1-.4 0-.5-.1-.6-.3-.1-.5.4-.6.4l-.9 2.2c0 .2-.1.3-.2.3z"/><path class="st0" d="M490.5 413.8h-.2c-.2-.1-.2-.3-.2-.4l1.7-4c.1-.2.3-.2.4-.2.2.1.2.3.2.4l-1.7 4c0 .1-.1.2-.2.2z"/><path class="st0" d="M491.3 415.5h-.2c-.2-.1-.2-.3-.2-.4l2.2-5.4v-.3c0-.1-.1-.1-.2-.1-.3-.1-.6.7-.6.9 0 .2-.2.3-.4.2-.2 0-.3-.2-.2-.4.1-.6.6-1.5 1.4-1.3.4.1.6.3.6.4.1.2.2.5.1.9l-2.2 5.4c-.1 0-.2.1-.3.1z"/><path class="st0" d="M492 417.5h-.2c-.2-.1-.2-.3-.2-.4l2.8-6.7c.1-.1.2-.5.1-.7l-.2-.2h-.3c-.2.1-.3.3-.3.4 0 .2-.2.3-.4.2-.2 0-.3-.2-.2-.4 0-.1.2-.6.6-.8.2-.1.5-.2.8-.1.4.1.6.3.6.5.2.5 0 1.2-.1 1.3l-2.8 6.7-.2.2z"/><path class="st0" d="M492.8 419.3h-.2c-.2-.1-.2-.3-.2-.4l3.1-7.3c.2-.4.3-.8.4-.9 0-.3-.2-.4-.3-.4-.2 0-.5 0-.6.4 0 .2-.2.3-.4.2-.2 0-.3-.2-.2-.4.2-.7.8-1 1.3-.9.5.1.9.6.8 1.1 0 .3-.3.9-.4 1.1l-3.1 7.3-.2.2z"/><path class="st0" d="M493.5 421.2h-.2c-.2-.1-.2-.3-.2-.4l3.1-7.3c.2-.4.4-.9.4-1.1s-.2-.3-.3-.3c-.2 0-.4.1-.5.4 0 .2-.2.3-.4.2-.2 0-.3-.2-.2-.4.2-.7.7-.9 1.1-.9.5.1.9.4.9.9 0 .4-.3 1.2-.4 1.4l-3.1 7.3c0 .1-.1.2-.2.2zM489.8 412.1h-.3l-2.1-.9c-.1 0-.5-.2-.7.1-.1.1-.1.3.3.5h.1c.1.1.2.3.1.4-.1.1-.3.2-.4.1-.8-.5-.7-1-.6-1.3.1-.2.3-.4.5-.5.5-.2.9.1 1 .1l2.1.9c.2.1.2.3.2.4s-.1.2-.2.2z"/><path class="st0" d="M490.5 413.8h-.2l-4-1.7c-.2-.1-.2-.3-.2-.4.1-.2.3-.2.4-.2l4 1.7c.2.1.2.3.2.4 0 .2-.1.2-.2.2z"/><path class="st0" d="M491.1 415.6h-.3l-5.3-2.4c-.3-.2-.5-.4-.5-.7 0-.2 0-.4.2-.7.5-.7 1.4-.3 1.9 0 .2.1.2.3.1.4-.1.2-.3.2-.4.1-.2-.1-.9-.5-1.1-.2-.1.1-.1.2-.1.2 0 .1.1.2.2.3l5.3 2.4c.2.1.2.3.2.4 0 .1-.1.2-.2.2z"/><path class="st0" d="M492 417.5h-.2l-6.6-2.9c-.1 0-.8-.3-.9-.8-.1-.2-.1-.5.1-.8.1-.2.3-.4.6-.5.5-.1.9.1 1 .2.2.1.2.3.1.4-.1.2-.3.2-.4.1-.1 0-.3-.1-.5-.1-.1 0-.1 0-.2.2-.1.1-.1.2 0 .3.1.2.4.4.6.5l6.6 2.9c.2.1.2.3.2.4-.2 0-.3.1-.4.1z"/><path class="st0" d="M492.8 419.3h-.2l-7.3-3.1c-.2-.1-.9-.3-1.1-.5-.4-.3-.5-.9-.2-1.4.3-.4.9-.7 1.5-.3.2.1.2.3.1.4-.1.2-.3.2-.4.1-.3-.2-.6-.1-.7.1-.1.1-.1.3.1.5.1.1.5.3.9.4l7.3 3.1c.2.1.2.3.2.4-.1.2-.2.3-.2.3z"/><path class="st0" d="M493.5 421.2h-.2l-7.3-3.1c-.2-.1-1-.4-1.3-.7-.3-.4-.3-.9 0-1.3.3-.3.8-.5 1.4-.2.2.1.2.3.1.4-.1.2-.3.2-.4.1-.3-.2-.5-.1-.6 0s-.1.3 0 .5c.1.1.6.4 1 .6l7.3 3.1c.2.1.2.3.2.4s-.1.2-.2.2z"/><circle class="st0" cx="489" cy="410" r=".5"/><path class="st0" d="M727.6 453c0 .1-.2.1-.2.1l-4.7-2.7c-.1 0-.1-.2-.1-.2l.2-.1 4.7 2.7c.1 0 .1.1.1.2z"/><path class="st0" d="M722.8 450.3l-.1.1c-.1 0-.2 0-.2-.1l-.4-1.3s-.1-.3 0-.6l.3-.3c.2-.1.5-.1.7.4 0 .1 0 .2-.1.2s-.2 0-.2-.1c-.1-.2-.2-.2-.3-.2-.2.1-.1.3-.1.4l.4 1.3c.1.1.1.1 0 .2z"/><path class="st0" d="M723.7 450.8l-.1.1c-.1 0-.2 0-.2-.1l-.6-2.3c0-.1 0-.2.1-.2s.2 0 .2.1l.6 2.4c.1-.1.1-.1 0 0z"/><path class="st0" d="M724.7 451.2c-.2.1-.3.1-.3 0l-.9-3.1c0-.1-.1-.1-.1-.1h-.1c-.2.1 0 .5 0 .6s0 .2-.1.2-.2 0-.2-.1c-.1-.3-.3-.9.1-1.1.2-.1.3-.1.4 0 .1 0 .3.2.3.3l.9 3.1v.2z"/><path class="st0" d="M725.7 451.9l-.1.1c-.1 0-.2 0-.2-.1l-1.1-3.9c0-.1-.1-.3-.2-.4h-.2c-.1 0-.1.1-.1.1v.3c0 .1 0 .2-.1.2s-.2 0-.2-.1c0 0-.1-.3 0-.6l.3-.3c.2-.1.4 0 .5 0 .3.1.4.5.4.6l1.1 3.9c-.1.1-.1.1-.1.2z"/><path class="st0" d="M726.6 452.4l-.1.1c-.1 0-.2 0-.2-.1l-1.2-4.3c-.1-.2-.1-.5-.2-.5-.1-.1-.2-.1-.3-.1-.1.1-.2.2-.1.4 0 .1 0 .2-.1.2s-.2 0-.2-.1c-.2-.4 0-.7.3-.8s.6-.1.7.2c.1.1.2.5.2.6l1.2 4.3c.1 0 0 .1 0 .1z"/><path class="st0" d="M727.6 453l-.1.1c-.1 0-.2 0-.2-.1l-1.2-4.3c-.1-.2-.2-.5-.2-.6-.1-.1-.2-.1-.3 0s-.1.2-.1.3 0 .2-.1.2-.2 0-.2-.1c-.2-.4 0-.7.2-.8.2-.1.5-.1.7.1.2.2.3.7.3.8l1.2 4.3v.1zM722.8 450.3l-.1.1-1.3.3s-.3.1-.3.3c0 .1.1.2.3.1.1 0 .2.1.2.2s-.1.2-.2.2c-.5.1-.7-.2-.7-.4 0-.1 0-.3.1-.4.1-.2.4-.3.5-.3l1.3-.3c.1 0 .2 0 .2.2.1-.1.1-.1 0 0z"/><path class="st0" d="M723.8 450.8l-.1.1-2.3.6c-.1 0-.2 0-.2-.1s0-.2.1-.2l2.3-.6c.1 0 .2 0 .2.2z"/><path class="st0" d="M724.6 451.4l-.1.1-3.1.8c-.2 0-.4 0-.5-.1-.1-.1-.2-.2-.2-.4 0-.5.5-.6.8-.7.1 0 .2.1.2.2s-.1.2-.2.2-.5.1-.5.3v.1h.2l3.1-.8c.1 0 .2 0 .2.1.2.1.1.1.1.2z"/><path class="st0" d="M725.7 451.9l-.1.1-3.9 1.1c-.1 0-.4.1-.7 0-.1-.1-.2-.2-.2-.4s0-.3.1-.4c.2-.2.5-.3.5-.3.1 0 .2.1.2.2s-.1.2-.2.2c0 0-.2 0-.2.1v.1c0 .1 0 .1.1.1.1.1.3 0 .4 0l3.9-1.1c.1 0 .2 0 .2.1-.1.1-.1.1-.1.2z"/><path class="st0" d="M726.6 452.4l-.1.1-4.3 1.2c-.1 0-.5.1-.6.2-.3 0-.5-.2-.6-.5 0-.3.1-.6.6-.7.1 0 .2.1.2.2s-.1.2-.2.2c-.2 0-.3.2-.3.3s.1.2.2.2.3-.1.5-.1l4.3-1.2c.1 0 .2 0 .3.1.1-.1.1 0 0 0z"/><path class="st0" d="M727.6 453l-.1.1-4.3 1.2c-.1 0-.6.2-.8.1-.3-.1-.4-.3-.4-.6 0-.2.2-.5.6-.6.1 0 .2.1.2.2s-.1.2-.2.2c-.2 0-.3.1-.3.2s.1.2.1.2c.1 0 .4 0 .6-.1l4.3-1.2c.1 0 .2 0 .2.1.2.1.1.2.1.2z"/><circle class="st0" cx="721.7" cy="449.6" r=".3"/><path class="st0" d="M639.9 352.4c0 .1-.2.1-.2.1l-4.7-2.7c-.1 0-.1-.2-.1-.2 0-.1.2-.1.2-.1l4.7 2.7c.1 0 .1.2.1.2z"/><path class="st0" d="M635.1 349.8l-.1.1c-.1 0-.2 0-.2-.1l-.4-1.3s-.1-.3 0-.6l.3-.3c.2-.1.5-.1.7.4 0 .1 0 .2-.1.2s-.2 0-.2-.1c-.1-.2-.2-.2-.3-.2-.2.1-.1.3-.1.4l.4 1.3c.1.1.1.1 0 .2z"/><path class="st0" d="M636 350.3l-.1.1c-.1 0-.2 0-.2-.1l-.6-2.3c0-.1 0-.2.1-.2s.2 0 .2.1l.6 2.4c.1-.1.1-.1 0 0z"/><path class="st0" d="M637 350.7c-.2.1-.3.1-.3 0l-.9-3.1c0-.1-.1-.1-.1-.1h-.1c-.2.1 0 .5 0 .6s0 .2-.1.2-.2 0-.2-.1c-.1-.3-.3-.9.1-1.1.2-.1.3-.1.4 0 .1 0 .3.2.3.3l.9 3.1v.2z"/><path class="st0" d="M637.9 351.4l-.1.1c-.1 0-.2 0-.2-.1l-1.1-3.9c0-.1-.1-.3-.2-.4h-.2c-.1 0-.1.1-.1.1v.3c0 .1 0 .2-.1.2s-.2 0-.2-.1c0 0-.1-.3 0-.6l.3-.3c.2-.1.4 0 .5 0 .3.1.4.5.4.6l1.1 3.9c0 .1 0 .1-.1.2z"/><path class="st0" d="M638.9 351.9l-.1.1c-.1 0-.2 0-.2-.1l-1.2-4.3c-.1-.2-.1-.5-.2-.5-.1-.1-.2-.1-.3-.1-.1.1-.2.2-.1.4 0 .1 0 .2-.1.2s-.2 0-.2-.1c-.2-.4 0-.7.3-.8.3-.1.6-.1.7.2.1.1.2.5.2.6l1.2 4.3v.1z"/><path class="st0" d="M639.9 352.5l-.1.1c-.1 0-.2 0-.2-.1l-1.2-4.3c-.1-.2-.2-.5-.2-.6-.1-.1-.2-.1-.3 0s-.1.2-.1.3 0 .2-.1.2-.2 0-.2-.1c-.2-.4 0-.7.2-.8.2-.1.5-.1.7.1.2.2.3.7.3.8l1.2 4.3v.1zM635.1 349.8l-.1.1-1.3.3s-.3.1-.3.3c0 .1.1.2.3.1.1 0 .2.1.2.2s-.1.2-.2.2c-.5.1-.7-.2-.7-.4 0-.1 0-.3.1-.4.1-.2.4-.3.5-.3l1.3-.3c.1 0 .2 0 .2.2.1-.1.1-.1 0 0z"/><path class="st0" d="M636 350.3l-.1.1-2.3.6c-.1 0-.2 0-.2-.1s0-.2.1-.2l2.3-.6c.1 0 .2 0 .2.2.1-.1.1-.1 0 0z"/><path class="st0" d="M636.9 350.8l-.1.1-3.1.8c-.2 0-.4 0-.5-.1s-.2-.2-.2-.4c0-.5.5-.6.8-.7.1 0 .2.1.2.2s-.1.2-.2.2-.5.1-.5.3v.1h.2l3.1-.8c.1 0 .2 0 .2.1l.1.2z"/><path class="st0" d="M638 351.4l-.1.1-3.9 1.1c-.1 0-.4.1-.7 0-.1-.1-.2-.2-.2-.4s0-.3.1-.4c.2-.2.5-.3.5-.3.1 0 .2.1.2.2s-.1.2-.2.2c0 0-.2 0-.2.1v.1c0 .1 0 .1.1.1.1.1.3 0 .4 0l3.9-1.1c.1 0 .2 0 .2.1-.1.1-.1.1-.1.2z"/><path class="st0" d="M638.9 351.9l-.1.1-4.3 1.2c-.1 0-.5.1-.6.2-.3 0-.5-.2-.6-.5 0-.3.1-.6.6-.7.1 0 .2.1.2.2s-.1.2-.2.2c-.2 0-.3.2-.3.3s.1.2.2.2.3-.1.5-.1l4.3-1.2c.1 0 .2 0 .3.1.1-.1.1 0 0 0z"/><path class="st0" d="M639.9 352.5l-.1.1-4.3 1.2c-.1 0-.6.2-.8.1-.3-.1-.4-.3-.4-.6 0-.2.2-.5.6-.6.1 0 .2.1.2.2s-.1.2-.2.2c-.2 0-.3.1-.3.2s.1.2.1.2c.1 0 .4 0 .6-.1l4.3-1.2c.1 0 .2 0 .2.1.1.1.1.1.1.2z"/><circle class="st0" cx="634" cy="349.1" r=".3"/><path class="st0" d="M731.7 346.1l-4.4.6c-.1 0-.3 0-.3.1-.1.1-.1.3-.1.4l-.7 4.2c0 .1 0 .2.1.3.1.1.2.1.3.1l4.4-.4c.1.1.3 0 .4-.1.1-.1.1-.2.1-.3l.6-4.6c0-.1 0-.2-.1-.3h-.3zm-.5 1.5l-1.6 1.5-.2-.3.1-.1 1.7-1.7v.6zm-.1 1.1l-1 .9-.2-.3 1.3-1.2-.1.6zm-.2 1.1l-.3.3-.2-.3.7-.6-.2.6zm-3.9.5l1.4-1.4.2.2-1.7 1.6.1-.4zm.2-1.2l.8-.7.2.3-1.1 1.1.1-.7zm.2-1.1l.1-.1.2.3-.5.4.2-.6zm1.1-.1l.8-.8.6-.1-1.2 1.1-.2-.2zm.3-.7l-.5.5-.2-.3.1-.1.6-.1zm.1 2.2l.2.3-1.5 1.4h-.6l1.9-1.7zm.5.5l.2.3-.9.8h-.6l1.3-1.1zm.4.5l.2.3-.3.3h-.6l.7-.6zm1-.1zm-1.6-1.7l-.2-.2 1.5-1.4.6-.1-1.9 1.7zM689.5 432.2l-1.1-7.9c0-.2 0-.5-.2-.6-.2-.2-.5-.3-.7-.2l-7.6-1.2c-.2 0-.4 0-.5.2-.1.1-.2.3-.2.5l.7 7.9c-.1.3-.1.6.1.8.2.2.4.2.6.2l8.2 1.1c.2 0 .4 0 .5-.2.2-.2.2-.4.2-.6zm-2.7-.8l-2.7-2.8.5-.4.2.3 3 3.1-1-.2zm-1.9-.2l-1.6-1.7.4-.4 2.2 2.3-1-.2zm-2-.3l-.6-.6.4-.4 1.1 1.2-.9-.2zm-.9-7.1l2.5 2.5-.4.4-.1-.1-2.9-3 .9.2zm2 .4l1.3 1.4-.4.4-1.9-2 1 .2zm2 .3l.2.2-.4.4-.8-.8 1 .2zm.3 2l1.4 1.5.1 1.1-2-2.1.5-.5zm1.3.5l-.9-.9.5-.4.2.3.2 1zm-4 .2l-.5.4-2.6-2.6-.1-1 3.2 3.2zm-.9.9l-.4.4-1.5-1.6-.1-1 2 2.2zm-.9.8l-.4.4-.5-.5-.1-1 1 1.1zm.1 1.8zm3.1-2.9l.4-.4 2.6 2.7.1 1-3.1-3.3zM552.1 384.4l-4.4-.7c-.1-.1-.2-.1-.4 0-.1.1-.2.2-.2.4l-1.9 3.8v.3c0 .1.1.2.2.2l4.3.9c.1.1.3.1.4.1.1-.1.2-.2.2-.3l1.9-4.2v-.3c.1-.1 0-.1-.1-.2zm-.9 1.4l-1.9 1-.2-.3.2-.1 2.1-1.1-.2.5zm-.4 1l-1.2.6-.2-.3 1.6-.8-.2.5zm-.5 1l-.4.2-.2-.3.8-.4-.2.5zm-3.9-.7l1.8-.9.2.3-2.1 1.1.1-.5zm.5-1l.9-.5.2.3-1.4.7.3-.5zm.5-1l.1-.1.2.3-.6.3.3-.5zm1.1.2l1-.5.6.1-1.5.7-.1-.3zm.5-.7l-.6.3-.2-.3.2-.1.6.1zm-.5 2.2l.2.3-1.8.9-.6-.1 2.2-1.1zm.3.6l.2.3-1.1.6-.5-.1 1.4-.8zm.3.6l.2.3-.3.2-.5-.1.6-.4zm1 .3zm-1.1-2.1l-.2-.3 1.9-1 .6.1-2.3 1.2zM461.6 444.7l-4.9 2.7c-.2 0-.3.1-.4.3-.1.2 0 .4.1.5l1 5.3c0 .1.1.2.2.3.1.1.2.1.4 0l5-2.4c.2 0 .4-.1.5-.3.1-.1.1-.3 0-.4l-1.3-5.7c0-.1-.1-.2-.2-.3-.2-.1-.3-.1-.4 0zm.1 2l-1.2 2.5-.4-.2.1-.2 1.3-2.7.2.6zm.3 1.3l-.7 1.5-.4-.2 1-2 .1.7zm.3 1.3l-.3.5-.4-.2.5-1 .2.7zm-4.4 2.4l1.1-2.2.4.2v.1l-1.3 2.7-.2-.8zm-.3-1.4l.6-1.2.4.2-.8 1.7-.2-.7zm-.3-1.4l.1-.2.4.2-.3.7-.2-.7zm1.3-.7l.6-1.3.7-.4-.9 1.9-.4-.2zm0-1l-.4.8-.4-.2.1-.2.7-.4zm1.1 2.6l.4.2-1.1 2.3-.6.3 1.3-2.8zm.8.4l.4.2-.7 1.4-.6.3.9-1.9zm.8.4l.4.2-.2.4-.6.3.4-.9zm1.2-.5zm-2.7-1.3l-.4-.2 1.1-2.4.6-.3-1.3 2.9z"/></svg>