<svg id="Layer_1" xmlns="http://www.w3.org/2000/svg" viewBox="0 0 707 148"><style>.st0{fill:#e9e9e9}</style><path class="st0" d="M140 123.1c.7-.9 1-2.2.1-3.3-1-1.3-2.5-1-2.8-.9l-2.2.2h-.3l-1.5.1-1.5-1.9c-.1-.1-.2-.2-.4-.2l-2.4.2c-.2 0-.3.1-.3.2-.1.1 0 .3.1.4l3.7 4.6-.3 1.2c0 .1 0 .3.1.4.1.1.1.1.2.1.2.1.4-.1.5-.3l.2-.7c1.4 1.1 3.3 1.2 3.5 1.2.6 0 1.7-.1 2.6-.6l1.2.6-.5-1.3zm-3.4-2.4c.1.2.1.4.1.6l-1.1-1.4c.3.1.7.3 1 .8zm-1.5-.8l1.4 1.8-.1.1s-.1.1-.2.1l-1.5-1.9.4-.1zm-.8 0l1.6 2c-.1 0-.2 0-.4.1l-1.6-2 .4-.1zm-1.1.1h.3l1.6 2c-.1 0-.3 0-.4-.1l-1.5-1.9zm-2.3-.6l-1.1-1.4h.5l1.1 1.4h-.5zm1-.1l-1.1-1.3h.5l1.1 1.3h-.5zm-.3.9h.3l.6.8c-.3-.3-.6-.6-.9-.8zm1.8 1.2l-1.1-1.4h.4l1.3 1.7c-.1 0-.4-.1-.6-.3zm3.2 2.2c-.1 0-2.2 0-3.5-1.3 1.5.8 2.9.7 3.7.1.7-.5.9-1.3.5-2.1-.1-.2-.3-.4-.4-.6h.7s1.2-.3 1.9.6c.8 1 .1 2.1-.5 2.6-.8.6-1.9.7-2.4.7z"/><circle class="st0" cx="138.7" cy="121.5" r=".5"/><path class="st0" d="M37.5 50.9c-1.4 0-2.8.6-3.2 2.3-.5 1.9.9 3.1 1.1 3.3l1.8 2c.1.1.2.2.2.3l1.2 1.4L38 63c0 .2 0 .3.1.5l2 2.1c.1.1.3.2.5.1.2 0 .3-.2.4-.4l1.8-6.9 1.4-.6.3-.3v-.3c-.1-.3-.4-.4-.6-.3l-.8.4c0-2.2-1.3-4-1.5-4.2-.4-.6-1.3-1.5-2.5-2l-.3-1.5-1.3 1.3zm.3 4.9c.1-.3.3-.4.5-.5l-.5 2.1c-.2-.3-.3-.9 0-1.6zm.3 2.1l.7-2.6h.1c.1 0 .1 0 .2.1l-.7 2.8-.3-.3zm.6.7l.8-3 .3.3L39 59l-.3-.4zm.9 1l-.3-.3.8-3c.1.1.2.3.2.4l-.7 2.9zm1.1 2.6l-.5 2-.4-.5.5-2 .4.5zm-.8-.8l-.5 2-.4-.5.5-2 .4.5zm1-.4l-.2-.2.3-1.1c-.1.3-.1.8-.1 1.3zm-.1-2.6l-.5 2-.3-.4.6-2.5c.1.3.2.5.2.9zm-.3-4.7c0 .1 1.6 2.1 1.2 4.3-.4-2-1.4-3.2-2.6-3.6-1-.3-1.9.1-2.3 1.1-.1.3-.2.6-.2.8l-.5-.6-.1-.1s-1.2-.9-.8-2.3c.4-1.5 2-1.7 2.9-1.5 1.2.4 2.1 1.4 2.4 1.9z"/><circle class="st0" cx="37" cy="53.3" r=".6"/><path class="st0" d="M256 84.3c-.5-1.5-1.8-2.7-3.7-2.5-2.2.2-2.9 2.1-3 2.5l-1.4 2.7c-.1.2-.2.3-.2.3l-1 1.8-3.3.3c-.2 0-.4.1-.4.3l-1.5 2.9c-.1.2-.1.4 0 .6.1.2.3.3.5.2l7.9-.8 1.2 1.2c.1.1.3.2.5.2.1 0 .2-.1.3-.1.2-.2.2-.6 0-.8l-.7-.8c2.3-.8 3.7-2.9 3.9-3.2.4-.6 1.1-2 1.1-3.4l1.5-.9-1.7-.5zm-5.2 2.2c.3 0 .6.1.7.4l-2.4.3c.4-.4.9-.7 1.7-.7zm-2 1.1l3-.3v.4l-3.3.3.3-.4zm-.5.9l3.4-.4c0 .1-.1.3-.2.5l-3.5.4.3-.5zm-.8 1.4l.2-.4 3.4-.4c-.1.1-.2.3-.4.4l-3.2.4zm-2.3 2.1l-2.3.2.3-.6 2.3-.2-.3.6zm.6-1.1l-2.3.2.3-.6 2.3-.2-.3.6zm.8.9l.2-.3 1.3-.1c-.5.1-1 .2-1.5.4zm2.8-1.1l-2.3.2.2-.5 2.9-.3c-.3.2-.5.4-.8.6zm4.8-2.2s-.1.1 0 0c0 .1-1.6 2.6-4 3 2-1.2 2.9-2.8 2.8-4.1-.1-1.2-.9-2-2-2-.4 0-.7 0-1 .1l.4-.7v-.1c0-.1.5-1.6 2.1-1.8 1.7-.2 2.5 1.4 2.6 2.5.1 1.3-.6 2.6-.9 3.1z"/><circle class="st0" cx="253.2" cy="84.7" r=".6"/><path class="st0" d="M112.2 17.3c.1.2.2.4.1.6l-.7 4.7c-.1.4-.4.7-.9.6s-.7-.4-.6-.9l.7-4.7c.1-.4.4-.7.9-.6.2 0 .4.1.5.3z"/><path class="st0" d="M116.9 17.9c.1.2.2.3.1.6-.1.4-.4.7-.8.6l-4.7-.6c-.4-.1-.7-.4-.6-.8.1-.4.4-.7.8-.6l4.7.6c.2 0 .4.1.5.2zM114.6 20.5c.1.2.2.4.1.6l-.7 4.7c-.1.4-.4.7-.9.6-.4-.1-.7-.4-.6-.9l.7-4.7c.1-.4.4-.7.9-.6.2.1.4.2.5.3z"/><path class="st0" d="M119.4 21.2c.1.2.2.3.1.6-.1.4-.4.7-.8.6l-4.7-.6c-.4-.1-.7-.4-.6-.8.1-.4.4-.7.8-.6l4.7.6c.2-.1.3 0 .5.2zM117.1 23.8c.1.2.2.4.1.6l-.7 4.7c-.1.4-.4.7-.9.6-.4-.1-.7-.4-.6-.9l.7-4.7c.1-.4.4-.7.9-.6.2 0 .4.1.5.3z"/><path class="st0" d="M121.8 24.4c.1.2.2.3.1.6-.1.4-.4.7-.8.6l-4.7-.6c-.4-.1-.7-.4-.6-.8.1-.4.4-.7.8-.6l4.7.6c.2 0 .4.1.5.2zM337.4 58.8c-.2 0-.4-.1-.5-.3l-2.9-3.8c-.3-.3-.2-.8.1-1.1.3-.3.8-.2 1.1.1l2.9 3.8c.3.3.2.8-.1 1.1-.2.2-.4.3-.6.2z"/><path class="st0" d="M333.7 61.8c-.2 0-.4-.1-.5-.3-.3-.3-.2-.8.1-1.1l3.7-3c.3-.3.8-.2 1.1.1.3.3.2.8-.1 1.1l-3.7 3c-.2.2-.4.2-.6.2zM333.4 58.4c-.2 0-.4-.1-.5-.3l-2.9-3.8c-.3-.3-.2-.8.1-1.1.3-.3.8-.2 1.1.1l2.9 3.8c.3.3.2.8-.1 1.1-.2.1-.4.2-.6.2z"/><path class="st0" d="M329.7 61.3c-.2 0-.4-.1-.5-.3-.3-.3-.2-.8.1-1.1l3.7-3c.3-.3.8-.2 1.1.1.3.3.2.8-.1 1.1l-3.7 3c-.2.2-.4.3-.6.2zM329.4 57.9c-.2 0-.4-.1-.5-.3l-2.9-3.8c-.3-.3-.2-.8.1-1.1.3-.3.8-.2 1.1.1l2.9 3.8c.3.3.2.8-.1 1.1-.3.2-.5.2-.6.2z"/><path class="st0" d="M325.6 60.9c-.2 0-.4-.1-.5-.3-.3-.3-.2-.8.1-1.1l3.7-3c.3-.3.8-.2 1.1.1.3.3.2.8-.1 1.1l-3.7 3c-.2.1-.4.2-.6.2zM192.3 64.7c0-.1-.1-.1 0-.2l.5-1.8c0-.2.2-.3.4-.2.2 0 .3.2.2.4l-.5 1.8c0 .2-.2.3-.4.2l-.2-.2z"/><path class="st0" d="M190.5 64.2c0-.1-.1-.1 0-.2 0-.2.2-.3.4-.2l1.8.5c.2 0 .3.2.2.4 0 .2-.2.3-.4.2l-1.8-.5-.2-.2zM191.5 63.2c0-.1-.1-.1 0-.2l.5-1.8c0-.2.2-.3.4-.2.2 0 .3.2.2.4l-.5 1.8c0 .2-.2.3-.4.2-.1 0-.2-.1-.2-.2z"/><path class="st0" d="M189.7 62.7c0-.1-.1-.1 0-.2 0-.2.2-.3.4-.2l1.8.5c.2 0 .3.2.2.4 0 .2-.2.3-.4.2l-1.8-.5c-.1 0-.2-.1-.2-.2zM190.7 61.8c0-.1-.1-.1 0-.2l.5-1.8c0-.2.2-.3.4-.2.2 0 .3.2.2.4l-.5 1.8c0 .2-.2.3-.4.2-.1-.1-.2-.1-.2-.2z"/><path class="st0" d="M188.9 61.3c0-.1-.1-.1 0-.2 0-.2.2-.3.4-.2l1.8.5c.2 0 .3.2.2.4 0 .2-.2.3-.4.2l-1.8-.5c-.1 0-.2-.1-.2-.2zM216.3 41.7c-.1 0-.2-.1-.3-.3l-1.3-2.9c-.1-.3 0-.6.3-.7.3-.1.6 0 .7.3L217 41c.1.3 0 .6-.3.7-.1.1-.3.1-.4 0z"/><path class="st0" d="M213.4 43.1c-.1 0-.2-.1-.3-.3-.1-.3 0-.6.2-.7l2.9-1.4c.3-.1.6 0 .7.2.1.3 0 .6-.2.7l-2.9 1.4c-.1.1-.3.1-.4.1zM213.7 40.8c-.1 0-.2-.1-.3-.3l-1.3-2.9c-.1-.3 0-.6.3-.7.3-.1.6 0 .7.3l1.3 2.9c.1.3 0 .6-.3.7h-.4z"/><path class="st0" d="M210.8 42.1c-.1 0-.2-.1-.3-.3-.1-.3 0-.6.2-.7l2.9-1.4c.3-.1.6 0 .7.2.1.3 0 .6-.2.7l-2.9 1.4c-.1.2-.2.2-.4.1zM211.2 39.8c-.1 0-.2-.1-.3-.3l-1.3-2.9c-.1-.3 0-.6.3-.7.3-.1.6 0 .7.3l1.3 2.9c.1.3 0 .6-.3.7h-.4z"/><path class="st0" d="M208.3 41.2c-.1 0-.2-.1-.3-.3-.1-.3 0-.6.2-.7l2.9-1.4c.3-.1.6 0 .7.2.1.3 0 .6-.2.7l-2.9 1.4c-.2.1-.3.1-.4.1zM193.3 135.8c-.1 0-.3 0-.4-.1l-2.5-2c-.2-.2-.3-.5-.1-.7.2-.2.5-.3.7-.1l2.5 2c.2.2.3.5.1.7 0 .2-.2.2-.3.2z"/><path class="st0" d="M191.3 138.4c-.1 0-.3 0-.4-.1-.2-.2-.3-.5-.1-.7l2-2.5c.2-.2.5-.3.7-.1.2.2.3.5.1.7l-2 2.5c0 .1-.1.1-.3.2zM190.6 136.1c-.1 0-.3 0-.4-.1l-2.5-2c-.2-.2-.3-.5-.1-.7.2-.2.5-.3.7-.1l2.5 2c.2.2.3.5.1.7-.1.2-.2.2-.3.2z"/><path class="st0" d="M188.6 138.7c-.1 0-.3 0-.4-.1-.2-.2-.3-.5-.1-.7l2-2.5c.2-.2.5-.3.7-.1.2.2.3.5.1.7l-2 2.5c0 .1-.2.2-.3.2zM187.9 136.4c-.1 0-.3 0-.4-.1l-2.5-2c-.2-.2-.3-.5-.1-.7s.5-.3.7-.1l2.5 2c.2.2.3.5.1.7-.1.2-.2.2-.3.2z"/><path class="st0" d="M185.9 139c-.1 0-.3 0-.4-.1-.2-.2-.3-.5-.1-.7l2-2.5c.2-.2.5-.3.7-.1.2.2.3.5.1.7l-2 2.5c-.1.1-.2.2-.3.2zM31.5 136.1h.4l2.9 1.5c.3.1.4.4.2.7-.1.3-.4.4-.7.2l-2.9-1.5c-.3-.1-.4-.4-.2-.7.1-.1.2-.2.3-.2z"/><path class="st0" d="M32.9 133.2h.4c.3.1.4.4.2.7l-1.4 2.9c-.1.3-.4.4-.7.2-.3-.1-.4-.4-.2-.7l1.4-2.9c.1-.1.2-.2.3-.2zM34.1 135.2h.4l2.9 1.5c.3.1.4.4.2.7-.1.2-.4.4-.7.2l-2.9-1.5c-.3-.1-.4-.4-.2-.7.1-.1.2-.2.3-.2z"/><path class="st0" d="M35.5 132.3h.4c.3.1.4.4.2.7l-1.4 2.9c-.1.3-.4.4-.7.2-.3-.1-.4-.4-.2-.7l1.4-2.9c.1-.1.2-.2.3-.2zM36.7 134.3h.4l2.9 1.5c.3.1.4.4.2.7s-.4.4-.7.2l-2.9-1.5c-.3-.1-.4-.4-.2-.7.1-.1.2-.1.3-.2z"/><path class="st0" d="M38.1 131.4h.4c.3.1.4.4.2.7l-1.4 2.9c-.1.3-.4.4-.7.2-.3-.1-.4-.4-.2-.7l1.4-2.9c.1-.1.2-.1.3-.2zM24.2 30.9c-.1 0-.2 0-.3-.1L19.7 26c-.1-.1-.1-.2-.1-.3 0-.1.1-.2.2-.3.1-.1 3.3-1.9 5.3.4 1.8 2-.4 4.9-.5 5.1l-.1.1c-.1-.1-.2-.1-.3-.1zm0-1.1c.5-.8 1.3-2.4.3-3.6-1.1-1.3-2.9-.8-3.7-.4l3.4 4z"/><path class="st0" d="M20.8 26.5l1.6-1.4c.1-.1.1-.2 0-.3-.1-.1-.2-.1-.3 0l-1.6 1.4c-.1.1-.1.2 0 .3.1.1.2.1.3 0zM21.3 27.1l2-1.8c.1-.1.1-.2 0-.3-.1-.1-.2-.1-.3 0l-2 1.8c-.1.1-.1.2 0 .3h.3zM21.7 27.6l2.4-2.1c.1-.1.1-.2 0-.3-.1-.1-.2-.1-.3 0l-2.4 2.1c-.1.1-.1.2 0 .3.2.1.3.1.3 0zM22.2 28.2l2.3-2c.1-.1.1-.2 0-.3-.1-.1-.2-.1-.3 0l-2.3 2c-.1.1-.1.2 0 .3.1 0 .2.1.3 0zM22.7 28.8l2.3-2c.1-.1.1-.2 0-.3-.1-.1-.2-.1-.3 0l-2.3 2c-.1.1-.1.2 0 .3h.3zM23.2 29.3l2-1.8c.1-.1.1-.2 0-.3-.1-.1-.2-.1-.3 0L23 29c-.1.1-.1.2 0 .3 0 .1.1.1.2 0zM23.7 29.9l1.7-1.5c.1-.1.1-.2 0-.3s-.2-.1-.3 0l-1.7 1.5c-.1.1-.1.2 0 .3h.3zM172.4 25.4c0-.1-.1-.2-.2-.3h-.1c-.2-.1-4.4-1.6-6.2 1.2-2 3.1 1.3 6.3 1.4 6.4.1.1.3.2.4.1.2 0 .3-.1.4-.2l4.2-6.7c.1-.2.1-.4.1-.5zm-1.5.7l-.7-.4c.3 0 .6.1.9.2l-.2.2zm-.5.8l-1.9-1.2c.3 0 .5-.1.8-.1l1.4.9-.3.4zm-.5.8l-2.5-1.6c.2-.1.3-.2.5-.3l2.3 1.4-.3.5zm-.5.8l-2.7-1.7c.1-.1.2-.3.3-.4l2.6 1.7-.2.4zm-.5.7l-2.6-1.6c0-.1.1-.3.2-.4l2.6 1.7-.2.3zm-.5.8l-2.1-1.3v-.6l2.4 1.5-.3.4zm-.4.8l-1.3-.8c-.1-.2-.2-.5-.3-.7l1.8 1.1-.2.4zm-.4.6c-.1-.2-.3-.4-.4-.6l.6.4-.2.2zM236.4 130.5l-.2.2v.1c0 .1-.3 3.7 2.2 4.4 2.7.8 4.4-2.3 4.5-2.4.1-.1.1-.2 0-.3 0-.1-.1-.2-.3-.2l-5.9-1.7c0-.1-.2-.1-.3-.1zm.9 1l-.2.6c0-.3-.1-.5-.1-.7l.3.1zm.7.2l-.5 1.7c-.1-.2-.2-.4-.2-.6l.4-1.2.3.1zm.7.2l-.6 2.2-.3-.3.6-2 .3.1zm.7.2l-.7 2.4c-.1 0-.2-.1-.4-.2l.7-2.3.4.1zm.7.2l-.7 2.3h-.4l.7-2.3h.4zm.7.2l-.6 1.9c-.1.1-.3.1-.4.1l.6-2.1.4.1zm.6.2l-.3 1.1c-.1.1-.3.3-.5.4l.5-1.6.3.1zm.6.1c-.1.1-.2.3-.3.4l.1-.5.2.1zM96.6 62.1l-1.4-2.6h2.9zM21.9 111.5l-5-2.6 4.5-1.9zM215.1 100l-7.8 2.1 2.9-6.3zM285.7 27.3l-1.4-6.1 4.8 2.5zM331.7 98.3l-3.1-1.8 2.9-1.1zM100 102.1c-.2.1-.4 0-.4-.2l-3.6-9c-.1-.2 0-.4.2-.4.2-.1.4 0 .4.2l3.6 9c0 .1-.1.3-.2.4z"/><path class="st0" d="M96.3 93.1h-.2c-.2-.1-.2-.3-.2-.4l.9-2.2c0-.1.2-.6.7-.8.2-.1.5-.1.7 0 .4.1.8.5.5 1.4 0 .2-.2.3-.4.2-.2 0-.3-.2-.2-.4v-.1c.1-.4 0-.5-.1-.6-.3-.1-.5.4-.6.4l-.9 2.2c-.1.2-.1.2-.2.3z"/><path class="st0" d="M97 94.8h-.2c-.2-.1-.2-.3-.2-.4l1.7-4c.1-.2.3-.2.4-.2.2.1.2.3.2.4l-1.7 4c-.1.1-.1.2-.2.2z"/><path class="st0" d="M97.8 96.5h-.2c-.2-.1-.2-.3-.2-.4l2.2-5.4v-.3c0-.1-.1-.1-.2-.1-.3-.1-.6.7-.6.9 0 .2-.2.3-.4.2-.2 0-.3-.2-.2-.4.1-.6.6-1.5 1.4-1.3.4.1.6.3.6.4.1.2.2.5.1.9L98 96.3c0 .1-.1.1-.2.2z"/><path class="st0" d="M98.5 98.5h-.2c-.2-.1-.2-.3-.2-.4l2.8-6.7c.1-.1.2-.5.1-.7l-.2-.2h-.3c-.2.1-.3.3-.3.4 0 .2-.2.3-.4.2-.2 0-.3-.2-.2-.4 0-.1.2-.6.6-.8.2-.1.5-.2.8-.1.4.1.6.3.6.5.2.5 0 1.2-.1 1.3l-2.8 6.7c-.1.1-.2.1-.2.2z"/><path class="st0" d="M99.2 100.3H99c-.2-.1-.2-.3-.2-.4l3.1-7.3c.2-.4.3-.8.4-.9 0-.3-.2-.4-.3-.4-.2 0-.5 0-.6.4 0 .2-.2.3-.4.2-.2 0-.3-.2-.2-.4.2-.7.8-1 1.3-.9.5.1.9.6.8 1.1 0 .3-.3.9-.4 1.1l-3.1 7.3c0 .1-.1.2-.2.2z"/><path class="st0" d="M100 102.2h-.2c-.2-.1-.2-.3-.2-.4l3.1-7.3c.2-.4.4-.9.4-1.1 0-.2-.2-.3-.3-.3-.2 0-.4.1-.5.4 0 .2-.2.3-.4.2-.2 0-.3-.2-.2-.4.2-.7.7-.9 1.1-.9.5.1.9.4.9.9 0 .4-.3 1.2-.4 1.4l-3.1 7.3c-.1.1-.1.2-.2.2zM96.3 93.1H96l-2.1-.9c-.1 0-.5-.2-.7.1-.1.1-.1.3.3.5h.1c.1.1.2.3.1.4-.1.1-.3.2-.4.1-.8-.5-.7-1-.6-1.3.1-.2.3-.4.5-.5.5-.2.9.1 1 .1l2.1.9c.2.1.2.3.2.4-.1.1-.1.2-.2.2z"/><path class="st0" d="M97 94.8h-.2l-4-1.7c-.2-.1-.2-.3-.2-.4.1-.2.3-.2.4-.2l4 1.7c.2.1.2.3.2.4-.1.1-.1.2-.2.2z"/><path class="st0" d="M97.6 96.6h-.3L92 94.2c-.3-.2-.5-.4-.5-.7 0-.2 0-.4.2-.7.5-.7 1.4-.3 1.9 0 .2.1.2.3.1.4-.1.2-.3.2-.4.1-.2-.1-.9-.5-1.1-.2-.1.1-.1.2-.1.2 0 .1.1.2.2.3l5.3 2.4c.2.1.2.3.2.4-.1.1-.1.2-.2.2z"/><path class="st0" d="M98.5 98.5h-.2l-6.6-2.9c-.1 0-.8-.3-.9-.8-.1-.2-.1-.5.1-.8.1-.2.3-.4.6-.5.5-.1.9.1 1 .2.2.1.2.3.1.4-.1.2-.3.2-.4.1-.1 0-.3-.1-.5-.1-.1 0-.1 0-.2.2-.1.1-.1.2 0 .3.1.2.4.4.6.5l6.6 2.9c.2.1.2.3.2.4-.3 0-.3 0-.4.1z"/><path class="st0" d="M99.2 100.3H99l-7.3-3.1c-.2-.1-.9-.3-1.1-.5-.4-.3-.5-.9-.2-1.4.3-.4.9-.7 1.5-.3.2.1.2.3.1.4-.1.2-.3.2-.4.1-.3-.2-.6-.1-.7.1-.1.1-.1.3.1.5.1.1.5.3.9.4l7.3 3.1c.2.1.2.3.2.4 0 .2-.1.3-.2.3z"/><path class="st0" d="M100 102.2h-.2l-7.3-3.1c-.2-.1-1-.4-1.3-.7-.3-.4-.3-.9 0-1.3.3-.3.8-.5 1.4-.2.2.1.2.3.1.4-.1.2-.3.2-.4.1-.3-.2-.5-.1-.6 0-.1.1-.1.3 0 .5.1.1.6.4 1 .6l7.3 3.1c.2.1.2.3.2.4-.1.1-.1.2-.2.2z"/><circle class="st0" cx="95.4" cy="90.9" r=".5"/><path class="st0" d="M334 133.9c0 .1-.2.1-.2.1l-4.7-2.7c-.1 0-.1-.2-.1-.2l.2-.1 4.7 2.7c.2 0 .2.2.1.2z"/><path class="st0" d="M329.3 131.3l-.1.1c-.1 0-.2 0-.2-.1l-.4-1.3s-.1-.3 0-.6l.3-.3c.2-.1.5-.1.7.4 0 .1 0 .2-.1.2s-.2 0-.2-.1c-.1-.2-.2-.2-.3-.2-.2.1-.1.3-.1.4l.4 1.3v.2z"/><path class="st0" d="M330.2 131.8l-.1.1c-.1 0-.2 0-.2-.1l-.6-2.3c0-.1 0-.2.1-.2s.2 0 .2.1l.6 2.3v.1z"/><path class="st0" d="M331.1 132.2l-.1.1c-.1 0-.2 0-.2-.1l-.9-3.1c0-.1-.1-.1-.1-.1h-.1c-.2.1 0 .5 0 .6 0 .1 0 .2-.1.2s-.2 0-.2-.1c-.1-.3-.3-.9.1-1.1.2-.1.3-.1.4 0 .1 0 .3.2.3.3l.9 3.1c.1.1.1.2 0 .2z"/><path class="st0" d="M332.1 132.9l-.1.1c-.1 0-.2 0-.2-.1l-1.1-3.9c0-.1-.1-.3-.2-.4h-.2c-.1 0-.1.1-.1.1v.3c0 .1 0 .2-.1.2s-.2 0-.2-.1c0 0-.1-.3 0-.6l.3-.3c.2-.1.4 0 .5 0 .3.1.4.5.4.6l1.1 3.9c0 .1-.1.1-.1.2z"/><path class="st0" d="M333.1 133.4l-.1.1c-.1 0-.2 0-.2-.1l-1.2-4.3c-.1-.2-.1-.5-.2-.5-.1-.1-.2-.1-.3-.1-.1.1-.2.2-.1.4 0 .1 0 .2-.1.2s-.2 0-.2-.1c-.2-.4 0-.7.3-.8.3-.1.6-.1.7.2.1.1.2.5.2.6l1.2 4.3v.1z"/><path class="st0" d="M334.1 134l-.1.1c-.1 0-.2 0-.2-.1l-1.2-4.3c-.1-.2-.2-.5-.2-.6-.1-.1-.2-.1-.3 0-.1.1-.1.2-.1.3 0 .1 0 .2-.1.2s-.2 0-.2-.1c-.2-.4 0-.7.2-.8.2-.1.5-.1.7.1.2.2.3.7.3.8l1.2 4.3v.1zM329.3 131.3l-.1.1-1.3.3s-.3.1-.3.3c0 .1.1.2.3.1.1 0 .2.1.2.2s-.1.2-.2.2c-.5.1-.7-.2-.7-.4 0-.1 0-.3.1-.4.1-.2.4-.3.5-.3l1.3-.3c.1 0 .2 0 .2.1v.1z"/><path class="st0" d="M330.2 131.8l-.1.1-2.3.6c-.1 0-.2 0-.2-.1s0-.2.1-.2l2.3-.6c.1 0 .2 0 .2.1v.1z"/><path class="st0" d="M331.1 132.4l-.1.1-3.1.8c-.2 0-.4 0-.5-.1-.1-.1-.2-.2-.2-.4 0-.5.5-.6.8-.7.1 0 .2.1.2.2s-.1.2-.2.2-.5.1-.5.3v.1h.2l3.1-.8c.1 0 .2 0 .2.1.1.1.1.1.1.2z"/><path class="st0" d="M332.1 132.9l-.1.1-3.9 1.1c-.1 0-.4.1-.7 0-.1-.1-.2-.2-.2-.4s0-.3.1-.4c.2-.2.5-.3.5-.3.1 0 .2.1.2.2s-.1.2-.2.2c0 0-.2 0-.2.1v.1c0 .1 0 .1.1.1.1.1.3 0 .4 0l3.9-1.1c.1 0 .2 0 .2.1s0 .1-.1.2z"/><path class="st0" d="M333.1 133.4l-.1.1-4.3 1.2c-.1 0-.5.1-.6.2-.3 0-.5-.2-.6-.5 0-.3.1-.6.6-.7.1 0 .2.1.2.2s-.1.2-.2.2c-.2 0-.3.2-.3.3 0 .1.1.2.2.2s.3-.1.5-.1l4.3-1.2c.1 0 .2 0 .2.1.1-.1.1 0 .1 0z"/><path class="st0" d="M334.1 134l-.1.1-4.3 1.2c-.1 0-.6.2-.8.1-.3-.1-.4-.3-.4-.6 0-.2.2-.5.6-.6.1 0 .2.1.2.2s-.1.2-.2.2c-.2 0-.3.1-.3.2s.1.2.1.2c.1 0 .4 0 .6-.1l4.3-1.2c.1 0 .2 0 .2.1.1.1.1.1.1.2z"/><circle class="st0" cx="328.2" cy="130.6" r=".3"/><path class="st0" d="M246.3 33.4c0 .1-.2.1-.2.1l-4.7-2.7c-.1 0-.1-.2-.1-.2 0-.1.2-.1.2-.1l4.7 2.7c.1 0 .2.1.1.2z"/><path class="st0" d="M241.6 30.7l-.1.1c-.1 0-.2 0-.2-.1l-.4-1.3s-.1-.3 0-.6l.3-.3c.2-.1.5-.1.7.4 0 .1 0 .2-.1.2s-.2 0-.2-.1c-.1-.2-.2-.2-.3-.2-.2.1-.1.3-.1.4l.4 1.3v.2z"/><path class="st0" d="M242.5 31.3l-.1.1c-.1 0-.2 0-.2-.1l-.6-2.3c0-.1 0-.2.1-.2s.2 0 .2.1l.6 2.3v.1z"/><path class="st0" d="M243.4 31.7l-.1.1c-.1 0-.2 0-.2-.1l-.9-3.1c0-.1-.1-.1-.1-.1h-.1c-.2.1 0 .5 0 .6 0 .1 0 .2-.1.2s-.2 0-.2-.1c-.1-.3-.3-.9.1-1.1.2-.1.3-.1.4 0 .1 0 .3.2.3.3l.9 3.1c.1.1.1.2 0 .2z"/><path class="st0" d="M244.4 32.3l-.1.1c-.1 0-.2 0-.2-.1l-1.1-3.9c0-.1-.1-.3-.2-.4h-.2c-.1 0-.1.1-.1.1v.3c0 .1 0 .2-.1.2s-.2 0-.2-.1c0 0-.1-.3 0-.6l.3-.3c.2-.1.4 0 .5 0 .3.1.4.5.4.6l1.1 3.9c-.1.1-.1.2-.1.2z"/><path class="st0" d="M245.4 32.9l-.1.1c-.1 0-.2 0-.2-.1l-1.2-4.3c-.1-.2-.1-.5-.2-.5-.1-.1-.2-.1-.3-.1-.1.1-.2.2-.1.4 0 .1 0 .2-.1.2s-.2 0-.2-.1c-.2-.4 0-.7.3-.8.3-.1.6-.1.7.2.1.1.2.5.2.6l1.2 4.3v.1z"/><path class="st0" d="M246.4 33.4l-.1.1c-.1 0-.2 0-.2-.1l-1.2-4.3c-.1-.2-.2-.5-.2-.6-.1-.1-.2-.1-.3 0-.1.1-.1.2-.1.3 0 .1 0 .2-.1.2s-.2 0-.2-.1c-.2-.4 0-.7.2-.8.2-.1.5-.1.7.1.2.2.3.7.3.8l1.2 4.3v.1zM241.6 30.7l-.1.1-1.3.3s-.3.1-.3.3c0 .1.1.2.3.1.1 0 .2.1.2.2s-.1.2-.2.2c-.5.1-.7-.2-.7-.4 0-.1 0-.3.1-.4.1-.2.4-.3.5-.3l1.3-.3c.1 0 .2 0 .2.1v.1z"/><path class="st0" d="M242.5 31.3l-.1.1-2.3.6c-.1 0-.2 0-.2-.1s0-.2.1-.2l2.3-.6c.1 0 .2 0 .2.1v.1z"/><path class="st0" d="M243.4 31.8l-.1.1-3.1.8c-.2 0-.4 0-.5-.1-.1-.1-.2-.2-.2-.4 0-.5.5-.6.8-.7.1 0 .2.1.2.2s-.1.2-.2.2-.5.1-.5.3v.1h.2l3.1-.8c.1 0 .2 0 .2.1.1.1.1.2.1.2z"/><path class="st0" d="M244.4 32.3l-.1.1-3.9 1.1c-.1 0-.4.1-.7 0-.1-.1-.2-.2-.2-.4s0-.3.1-.4c.2-.2.5-.3.5-.3.1 0 .2.1.2.2s-.1.2-.2.2c0 0-.2 0-.2.1v.1c0 .1 0 .1.1.1.1.1.3 0 .4 0l3.9-1.1c.1 0 .2 0 .2.1 0 .2-.1.2-.1.2z"/><path class="st0" d="M245.4 32.9l-.1.1-4.3 1.2c-.1 0-.5.1-.6.2-.3 0-.5-.2-.6-.5 0-.3.1-.6.6-.7.1 0 .2.1.2.2s-.1.2-.2.2c-.2 0-.3.2-.3.3 0 .1.1.2.2.2s.3-.1.5-.1l4.3-1.2c.1 0 .2 0 .2.1.1-.1.1 0 .1 0z"/><path class="st0" d="M246.4 33.5l-.1.1-4.3 1.2c-.1 0-.6.2-.8.1-.3-.1-.4-.3-.4-.6 0-.2.2-.5.6-.6.1 0 .2.1.2.2s-.1.2-.2.2c-.2 0-.3.1-.3.2s.1.2.1.2c.1 0 .4 0 .6-.1l4.3-1.2c.1 0 .2 0 .2.1.1.1.1.1.1.2z"/><circle class="st0" cx="240.5" cy="30.1" r=".3"/><path class="st0" d="M338.2 27.1l-4.4.6c-.1 0-.3 0-.3.1-.1.1-.1.3-.1.4l-.7 4.2c0 .1 0 .2.1.3.1.1.2.1.3.1l4.4-.4c.1.1.3 0 .4-.1.1-.1.1-.2.1-.3l.6-4.6c0-.1 0-.2-.1-.3h-.3zm-.5 1.5l-1.6 1.5-.2-.3.1-.1 1.7-1.7v.6zm-.1 1.1l-1 .9-.2-.3 1.3-1.2-.1.6zm-.2 1l-.3.3-.2-.3.7-.6-.2.6zm-3.9.5l1.4-1.4.2.2-1.7 1.6.1-.4zm.2-1.1l.8-.7.2.3-1.1 1.1.1-.7zm.1-1.1l.1-.1.2.3-.5.4.2-.6zm1.2-.1l.8-.8.6-.1-1.2 1.1-.2-.2zm.3-.8l-.5.5-.2-.3.1-.1.6-.1zm.1 2.3l.2.3-1.5 1.4h-.6l1.9-1.7zm.4.4l.2.3-.9.8h-.6l1.3-1.1zm.5.5l.2.3-.3.3h-.6l.7-.6zm1 0zm-1.6-1.7l-.2-.2L337 28l.6-.1-1.9 1.7zM296 113.2l-1.1-7.9c0-.2 0-.5-.2-.6-.2-.2-.5-.3-.7-.2l-7.6-1.2c-.2 0-.4 0-.5.2-.1.1-.2.3-.2.5l.7 7.9c-.1.3-.1.6.1.8.2.2.4.2.6.2l8.2 1.1c.2 0 .4 0 .5-.2.1-.2.2-.4.2-.6zm-2.7-.8l-2.7-2.8.5-.4.2.3 3 3.1-1-.2zm-2-.2l-1.6-1.7.4-.4 2.2 2.3-1-.2zm-1.9-.3l-.6-.6.4-.4 1.1 1.2-.9-.2zm-.9-7.1l2.5 2.5-.4.4-.1-.1-2.9-3 .9.2zm2 .3l1.3 1.4-.4.4-1.9-2 1 .2zm2 .4l.2.2-.4.4-.8-.8 1 .2zm.3 2l1.4 1.5.1 1.1-2-2.1.5-.5zm1.3.5l-.9-.9.5-.4.2.3.2 1zm-4 .2l-.5.4-2.6-2.6-.1-1 3.2 3.2zm-.9.8l-.4.4-1.5-1.6-.1-1 2 2.2zm-.9.9l-.4.4-.5-.5-.1-1 1 1.1zm.1 1.8zm3-2.9l.4-.4 2.6 2.7.1 1-3.1-3.3zM158.6 65.4l-4.4-.7c-.1-.1-.2-.1-.4 0-.1.1-.2.2-.2.4l-1.9 3.8v.3c0 .1.1.2.2.2l4.3.9c.1.1.3.1.4.1.1-.1.2-.2.2-.3l1.9-4.2v-.3c.1-.1 0-.2-.1-.2zm-.9 1.3l-1.9 1-.2-.3.2-.1 2.1-1.1-.2.5zm-.4 1l-1.2.6-.2-.3 1.6-.8-.2.5zm-.5 1l-.4.2-.2-.3.8-.4-.2.5zm-3.9-.6l1.8-.9.2.3-2.1 1.1.1-.5zm.5-1l.9-.5.2.3-1.4.7.3-.5zm.5-1l.1-.1.2.3-.6.3.3-.5zm1.1.1l1-.5.6.1-1.5.7-.1-.3zm.5-.6l-.6.3-.2-.3.2-.1.6.1zm-.6 2.2l.2.3-1.8.9-.6-.1 2.2-1.1zm.4.6l.2.3-1.1.6-.5-.1 1.4-.8zm.3.6l.2.3-.3.2-.5-.1.6-.4zm.9.2zm-1-2.1l-.2-.3 1.9-1 .6.1-2.3 1.2zM68 125.7l-4.9 2.7c-.2 0-.3.1-.4.3-.1.2 0 .4.1.5l1 5.3c0 .1.1.2.2.3.1.1.2.1.4 0l5-2.4c.2 0 .4-.1.5-.3.1-.1.1-.3 0-.4l-1.3-5.7c0-.1-.1-.2-.2-.3-.1-.1-.2-.1-.4 0zm.2 2l-1.2 2.5-.4-.2.1-.2 1.3-2.7.2.6zm.3 1.3l-.7 1.5-.4-.2 1-2 .1.7zm.3 1.3l-.3.5-.4-.2.5-1 .2.7zm-4.4 2.4l1.1-2.2.4.2v.1l-1.3 2.7-.2-.8zm-.3-1.4l.6-1.2.4.2-.8 1.7-.2-.7zm-.3-1.4l.1-.2.4.2-.3.7-.2-.7zm1.3-.7l.6-1.3.7-.4-.9 1.9-.4-.2zm0-1l-.4.8-.4-.2.1-.2.7-.4zm1.1 2.6l.4.2-1.1 2.3-.6.3 1.3-2.8zm.8.4l.4.2-.7 1.4-.6.3.9-1.9zm.7.3l.4.2-.2.4-.6.3.4-.9zm1.2-.5zm-2.7-1.2l-.4-.2 1.1-2.4.6-.3-1.3 2.9zM485.6 119.1c.7-.9 1-2.2.1-3.3-1-1.3-2.5-1-2.8-.9l-2.2.2h-.3l-1.5.1-1.5-1.9c-.1-.1-.2-.2-.4-.2l-2.4.2c-.2 0-.3.1-.3.2-.1.1 0 .3.1.4l3.7 4.6-.3 1.2c0 .1 0 .3.1.4.1.1.1.1.2.1.2.1.4-.1.5-.3l.2-.7c1.4 1.1 3.3 1.2 3.5 1.2.6 0 1.7-.1 2.6-.6l1.2.6-.5-1.3zm-3.5-2.4c.1.2.1.4.1.6l-1.1-1.4c.3.1.7.3 1 .8zm-1.5-.8l1.4 1.8-.1.1s-.1.1-.2.1l-1.5-1.9.4-.1zm-.8 0l1.6 2c-.1 0-.2 0-.4.1l-1.6-2 .4-.1zm-1.1.1h.3l1.6 2c-.1 0-.3 0-.4-.1l-1.5-1.9zm-2.2-.6l-1.1-1.4h.5l1.1 1.4h-.5zm.9-.1l-1.1-1.3h.5l1.1 1.3h-.5zm-.2.9h.3l.6.8c-.3-.3-.6-.6-.9-.8zm1.7 1.3l-1.1-1.4h.4l1.3 1.7c-.1-.1-.3-.2-.6-.3zm3.3 2.1c-.1 0-2.2 0-3.5-1.3 1.5.8 2.9.7 3.7.1.7-.5.9-1.3.5-2.1-.1-.2-.3-.4-.4-.6h.7s1.2-.3 1.9.6c.8 1 .1 2.1-.5 2.6-.8.6-1.9.7-2.4.7z"/><circle class="st0" cx="484.2" cy="117.5" r=".5"/><path class="st0" d="M383.1 46.9c-1.4 0-2.8.6-3.2 2.3-.5 1.9.9 3.1 1.1 3.3l1.8 2c.1.1.2.2.2.3l1.2 1.4-.7 2.9c0 .2 0 .3.1.5l2 2.1c.1.1.3.2.5.1.2 0 .3-.2.4-.4l1.8-6.9 1.4-.6.3-.3v-.3c-.1-.3-.4-.4-.6-.3l-.8.4c0-2.2-1.3-4-1.5-4.2-.4-.6-1.3-1.5-2.5-2l-.3-1.5-1.2 1.2zm.2 5c.1-.3.3-.4.5-.5l-.5 2.1c-.2-.4-.3-1 0-1.6zm.3 2l.7-2.6h.1c.1 0 .1 0 .2.1l-.7 2.8-.3-.3zm.6.7l.8-3 .3.3-.8 3-.3-.3zm.9 1.1l-.3-.3.8-3c.1.1.2.3.2.4l-.7 2.9zm1.1 2.5l-.5 2-.4-.5.5-2 .4.5zm-.8-.8l-.5 2-.4-.4.5-2 .4.4zm1-.4l-.2-.2.3-1.1c0 .4 0 .8-.1 1.3zm0-2.6l-.5 2-.3-.4.6-2.5c0 .3.1.6.2.9zm-.4-4.7c.1 0 .1 0 0 0 0 .1 1.6 2.1 1.2 4.3-.4-2-1.4-3.2-2.6-3.6-1-.3-1.9.1-2.3 1.1-.1.3-.2.6-.2.8l-.5-.6-.1-.1s-1.2-.9-.8-2.3c.4-1.5 2-1.7 2.9-1.5 1.2.4 2.1 1.4 2.4 1.9z"/><circle class="st0" cx="382.5" cy="49.3" r=".6"/><path class="st0" d="M601.5 80.3c-.5-1.5-1.8-2.7-3.7-2.5-2.2.2-2.9 2.1-3 2.5l-1.4 2.7c-.1.2-.2.3-.2.3l-1 1.8-3.3.3c-.2 0-.4.1-.4.3l-1.5 2.9c-.1.2-.1.4 0 .6.1.2.3.3.5.2l7.9-.8 1.2 1.2c.1.1.3.2.5.2.1 0 .2-.1.3-.1.2-.2.2-.6 0-.8l-.7-.8c2.3-.8 3.7-2.9 3.9-3.2.4-.6 1.1-2 1.1-3.4l1.5-.9-1.7-.5zm-5.1 2.2c.3 0 .6.1.7.4l-2.4.3c.3-.4.8-.7 1.7-.7zm-2.1 1.1l3-.3v.4l-3.3.3.3-.4zm-.5 1l3.4-.4c0 .1-.1.3-.2.5l-3.5.4.3-.5zm-.7 1.3l.2-.4 3.4-.4c-.1.1-.2.3-.4.4l-3.2.4zm-2.3 2.1l-2.3.2.3-.6 2.3-.2-.3.6zm.5-1.1l-2.3.2.3-.6 2.3-.2-.3.6zm.9.9l.2-.3 1.3-.1c-.5.1-1 .2-1.5.4zm2.7-1.1l-2.3.2.2-.5 2.9-.3c-.2.2-.5.4-.8.6zm4.8-2.1c0 .1-1.6 2.6-4 3 2-1.2 2.9-2.8 2.8-4.1-.1-1.2-.9-2-2-2-.4 0-.7 0-1 .1l.4-.7v-.1c0-.1.5-1.6 2.1-1.8 1.7-.2 2.5 1.4 2.6 2.5.2 1.2-.5 2.5-.9 3.1z"/><circle class="st0" cx="598.7" cy="80.7" r=".6"/><path class="st0" d="M457.7 13.3c.1.2.2.4.1.6l-.7 4.7c-.1.4-.4.7-.9.6s-.7-.4-.6-.9l.7-4.7c.1-.4.4-.7.9-.6.2 0 .4.1.5.3z"/><path class="st0" d="M462.5 13.9c.1.2.2.3.1.6-.1.4-.4.7-.8.6l-4.7-.6c-.4-.1-.7-.4-.6-.8.1-.4.4-.7.8-.6l4.7.6c.2 0 .3.1.5.2zM460.2 16.6c.1.2.2.4.1.6l-.7 4.7c-.1.4-.4.7-.9.6-.4-.1-.7-.4-.6-.9l.7-4.7c.1-.4.4-.7.9-.6.2 0 .4.1.5.3z"/><path class="st0" d="M464.9 17.2c.1.2.2.3.1.6-.1.4-.4.7-.8.6l-4.7-.6c-.4-.1-.7-.4-.6-.8.1-.4.4-.7.8-.6l4.7.6c.2-.1.4 0 .5.2zM462.6 19.8c.1.2.2.4.1.6l-.7 4.7c-.1.4-.4.7-.9.6-.4-.1-.7-.4-.6-.9l.7-4.7c.1-.4.4-.7.9-.6.2.1.4.2.5.3z"/><path class="st0" d="M467.3 20.5c.1.2.2.3.1.6-.1.4-.4.7-.8.6l-4.7-.6c-.4-.1-.7-.4-.6-.8.1-.4.4-.7.8-.6l4.7.6c.2-.1.4 0 .5.2zM683 54.9c-.2 0-.4-.1-.5-.3l-2.9-3.8c-.3-.3-.2-.8.1-1.1.3-.3.8-.2 1.1.1l2.9 3.8c.3.3.2.8-.1 1.1-.2.1-.4.2-.6.2z"/><path class="st0" d="M679.2 57.8c-.2 0-.4-.1-.5-.3-.3-.3-.2-.8.1-1.1l3.7-3c.3-.3.8-.2 1.1.1.3.3.2.8-.1 1.1l-3.7 3c-.2.2-.4.3-.6.2zM678.9 54.4c-.2 0-.4-.1-.5-.3l-2.9-3.8c-.3-.3-.2-.8.1-1.1.3-.3.8-.2 1.1.1l2.9 3.8c.3.3.2.8-.1 1.1-.2.2-.4.2-.6.2z"/><path class="st0" d="M675.2 57.4c-.2 0-.4-.1-.5-.3-.3-.3-.2-.8.1-1.1l3.7-3c.3-.3.8-.2 1.1.1.3.3.2.8-.1 1.1l-3.7 3c-.2.1-.4.2-.6.2zM674.9 53.9c-.2 0-.4-.1-.5-.3l-2.9-3.8c-.3-.3-.2-.8.1-1.1.3-.3.8-.2 1.1.1l2.9 3.8c.3.3.2.8-.1 1.1-.2.2-.4.2-.6.2z"/><path class="st0" d="M671.2 56.9c-.2 0-.4-.1-.5-.3-.3-.3-.2-.8.1-1.1l3.7-3c.3-.3.8-.2 1.1.1.3.3.2.8-.1 1.1l-3.7 3c-.2.1-.4.2-.6.2zM537.8 60.7c0-.1-.1-.1 0-.2l.5-1.8c0-.2.2-.3.4-.2.2 0 .3.2.2.4l-.5 1.8c0 .2-.2.3-.4.2-.1-.1-.1-.2-.2-.2z"/><path class="st0" d="M536 60.2V60c0-.2.2-.3.4-.2l1.8.5c.2 0 .3.2.2.4 0 .2-.2.3-.4.2l-1.8-.5-.2-.2zM537 59.3c0-.1-.1-.1 0-.2l.5-1.8c0-.2.2-.3.4-.2.2 0 .3.2.2.4l-.5 1.8c0 .2-.2.3-.4.2-.1-.1-.1-.2-.2-.2z"/><path class="st0" d="M535.2 58.8c0-.1-.1-.1 0-.2 0-.2.2-.3.4-.2l1.8.5c.2 0 .3.2.2.4 0 .2-.2.3-.4.2l-1.8-.5-.2-.2zM536.2 57.8c0-.1-.1-.1 0-.2l.5-1.8c0-.2.2-.3.4-.2.2 0 .3.2.2.4l-.5 1.8c0 .2-.2.3-.4.2-.1 0-.1-.1-.2-.2z"/><path class="st0" d="M534.4 57.3c0-.1-.1-.1 0-.2 0-.2.2-.3.4-.2l1.8.5c.2 0 .3.2.2.4 0 .2-.2.3-.4.2l-1.8-.5c-.1 0-.2-.1-.2-.2zM561.9 37.7c-.1 0-.2-.1-.3-.3l-1.3-2.9c-.1-.3 0-.6.3-.7.3-.1.6 0 .7.3l1.3 2.9c.1.3 0 .6-.3.7-.2.1-.3.1-.4 0z"/><path class="st0" d="M558.9 39.1c-.1 0-.2-.1-.3-.3-.1-.3 0-.6.2-.7l2.9-1.4c.3-.1.6 0 .7.2.1.3 0 .6-.2.7l-2.9 1.4c-.1.1-.2.1-.4.1zM559.3 36.8c-.1 0-.2-.1-.3-.3l-1.3-2.9c-.1-.3 0-.6.3-.7.3-.1.6 0 .7.3l1.3 2.9c.1.3 0 .6-.3.7h-.4z"/><path class="st0" d="M556.4 38.1c-.1 0-.2-.1-.3-.3-.1-.3 0-.6.2-.7l2.9-1.4c.3-.1.6 0 .7.2.1.3 0 .6-.2.7l-2.9 1.4c-.2.2-.3.2-.4.1zM556.7 35.8c-.1 0-.2-.1-.3-.3l-1.3-2.9c-.1-.3 0-.6.3-.7.3-.1.6 0 .7.3l1.3 2.9c.1.3 0 .6-.3.7-.1.1-.3.1-.4 0z"/><path class="st0" d="M553.8 37.2c-.1 0-.2-.1-.3-.3-.1-.3 0-.6.2-.7l2.9-1.4c.3-.1.6 0 .7.2.1.3 0 .6-.2.7l-2.9 1.4c-.1.1-.3.1-.4.1zM538.9 131.8c-.1 0-.3 0-.4-.1l-2.5-2c-.2-.2-.3-.5-.1-.7.2-.2.5-.3.7-.1l2.5 2c.2.2.3.5.1.7-.1.2-.2.2-.3.2z"/><path class="st0" d="M536.9 134.4c-.1 0-.3 0-.4-.1-.2-.2-.3-.5-.1-.7l2-2.5c.2-.2.5-.3.7-.1.2.2.3.5.1.7l-2 2.5c-.1.1-.2.2-.3.2zM536.1 132.2c-.1 0-.3 0-.4-.1l-2.5-2c-.2-.2-.3-.5-.1-.7.2-.2.5-.3.7-.1l2.5 2c.2.2.3.5.1.7 0 .1-.1.1-.3.2z"/><path class="st0" d="M534.1 134.7c-.1 0-.3 0-.4-.1-.2-.2-.3-.5-.1-.7l2-2.5c.2-.2.5-.3.7-.1.2.2.3.5.1.7l-2 2.5c0 .1-.1.2-.3.2zM533.4 132.5c-.1 0-.3 0-.4-.1l-2.5-2c-.2-.2-.3-.5-.1-.7.2-.2.5-.3.7-.1l2.5 2c.2.2.3.5.1.7-.1.1-.2.1-.3.2z"/><path class="st0" d="M531.4 135c-.1 0-.3 0-.4-.1-.2-.2-.3-.5-.1-.7l2-2.5c.2-.2.5-.3.7-.1.2.2.3.5.1.7l-2 2.5c0 .1-.2.2-.3.2zM377 132.1h.4l2.9 1.5c.3.1.4.4.2.7s-.4.4-.7.2l-2.9-1.5c-.3-.1-.4-.4-.2-.7.1-.1.2-.2.3-.2z"/><path class="st0" d="M378.4 129.2h.4c.3.1.4.4.2.7l-1.4 2.9c-.1.3-.4.4-.7.2-.3-.1-.4-.4-.2-.7l1.4-2.9c.1-.1.2-.2.3-.2zM379.6 131.2h.4l2.9 1.5c.3.1.4.4.2.7-.1.2-.4.4-.7.2l-2.9-1.5c-.3-.1-.4-.4-.2-.7.1-.1.2-.2.3-.2z"/><path class="st0" d="M381 128.3h.4c.3.1.4.4.2.7l-1.4 2.9c-.1.3-.4.4-.7.2-.3-.1-.4-.4-.2-.7l1.4-2.9c.1-.1.2-.1.3-.2zM382.2 130.3h.4l2.9 1.5c.3.1.4.4.2.7-.1.3-.4.4-.7.2l-2.9-1.5c-.3-.1-.4-.4-.2-.7.1 0 .2-.1.3-.2z"/><path class="st0" d="M383.6 127.4h.4c.3.1.4.4.2.7l-1.4 2.9c-.1.3-.4.4-.7.2-.3-.1-.4-.4-.2-.7l1.4-2.9c.1 0 .2-.1.3-.2zM369.8 26.9c-.1 0-.2 0-.3-.1l-4.2-4.8c-.1-.1-.1-.2-.1-.3 0-.1.1-.2.2-.3.1-.1 3.3-1.9 5.3.4 1.8 2-.4 4.9-.5 5.1l-.1.1c-.1-.1-.2-.1-.3-.1zm-.1-1.1c.5-.8 1.3-2.4.3-3.6-1.1-1.3-2.9-.8-3.7-.4l3.4 4z"/><path class="st0" d="M366.3 22.5l1.6-1.4c.1-.1.1-.2 0-.3-.1-.1-.2-.1-.3 0l-1.6 1.4c-.1.1-.1.2 0 .3.1.1.2.1.3 0zM366.8 23.1l2-1.8c.1-.1.1-.2 0-.3-.1-.1-.2-.1-.3 0l-2 1.8c-.1.1-.1.2 0 .3.1.1.2.1.3 0zM367.3 23.7l2.4-2.1c.1-.1.1-.2 0-.3-.1-.1-.2-.1-.3 0l-2.4 2.1c-.1.1-.1.2 0 .3h.3zM367.8 24.2l2.3-2c.1-.1.1-.2 0-.3-.1-.1-.2-.1-.3 0l-2.3 2c-.1.1-.1.2 0 .3.1.1.2.1.3 0zM368.2 24.8l2.3-2c.1-.1.1-.2 0-.3-.1-.1-.2-.1-.3 0l-2.3 2c-.1.1-.1.2 0 .3h.3zM368.7 25.3l2-1.8c.1-.1.1-.2 0-.3-.1-.1-.2-.1-.3 0l-2 1.8c-.1.1-.1.2 0 .3s.3.1.3 0zM369.2 25.9l1.7-1.5c.1-.1.1-.2 0-.3-.1-.1-.2-.1-.3 0l-1.7 1.5c-.1.1-.1.2 0 .3.1.1.2.1.3 0zM517.9 21.4c0-.1-.1-.2-.2-.3h-.1c-.2-.1-4.4-1.6-6.2 1.2-2 3.1 1.3 6.3 1.4 6.4.1.1.3.2.4.1.2 0 .3-.1.4-.2l4.2-6.7c.1-.2.2-.3.1-.5zm-1.5.7l-.7-.4c.3 0 .6.1.9.2l-.2.2zm-.4.8l-1.9-1.2c.3 0 .5-.1.8-.1l1.4.9-.3.4zm-.5.8l-2.5-1.6c.2-.1.3-.2.5-.3l2.3 1.4-.3.5zm-.5.8l-2.7-1.7c.1-.1.2-.3.3-.4l2.6 1.7-.2.4zm-.5.8l-2.6-1.6c0-.1.1-.3.2-.4l2.6 1.7-.2.3zm-.5.7l-2.1-1.3v-.6l2.4 1.5-.3.4zm-.5.8l-1.3-.8c-.1-.2-.2-.5-.3-.7l1.8 1.1-.2.4zm-.4.6c-.1-.2-.3-.4-.4-.6l.6.4-.2.2zM582 126.6l-.2.2v.1c0 .1-.3 3.7 2.2 4.4 2.7.8 4.4-2.3 4.5-2.4.1-.1.1-.2 0-.3 0-.1-.1-.2-.3-.2l-5.9-1.7c-.1-.2-.2-.2-.3-.1zm.8.9l-.2.6c0-.3-.1-.5-.1-.7l.3.1zm.7.2l-.5 1.7c-.1-.2-.2-.4-.2-.6l.4-1.2.3.1zm.7.2l-.6 2.2-.3-.3.6-2 .3.1zm.7.2l-.7 2.4c-.1 0-.2-.1-.4-.2l.7-2.3.4.1zm.7.2l-.7 2.3h-.4l.7-2.3h.4zm.7.2l-.6 1.9c-.1.1-.3.1-.4.1l.6-2.1.4.1zm.7.2l-.3 1.1c-.1.1-.3.3-.5.4l.5-1.6.3.1zm.5.2c-.1.1-.2.3-.3.4l.1-.5.2.1zM442.2 58.1l-1.5-2.6h3zM367.5 107.5l-5.1-2.6 4.6-1.8zM560.6 96l-7.8 2.1 3-6.3zM631.3 23.3l-1.5-6.1 4.9 2.5zM677.2 94.3l-3.1-1.8 2.9-1zM445.5 98.1c-.2.1-.4 0-.4-.2l-3.6-9c-.1-.2 0-.4.2-.4.2-.1.4 0 .4.2l3.6 9c0 .2 0 .4-.2.4z"/><path class="st0" d="M441.8 89.1h-.2c-.2-.1-.2-.3-.2-.4l.9-2.2c0-.1.2-.6.7-.8.2-.1.5-.1.7 0 .4.1.8.5.5 1.4 0 .2-.2.3-.4.2-.2 0-.3-.2-.2-.4v-.1c.1-.4 0-.5-.1-.6-.3-.1-.5.4-.6.4l-.9 2.2c0 .2-.1.3-.2.3z"/><path class="st0" d="M442.5 90.8h-.2c-.2-.1-.2-.3-.2-.4l1.7-4c.1-.2.3-.2.4-.2.2.1.2.3.2.4l-1.7 4c0 .1-.1.2-.2.2z"/><path class="st0" d="M443.3 92.5h-.2c-.2-.1-.2-.3-.2-.4l2.2-5.4v-.3c0-.1-.1-.1-.2-.1-.3-.1-.6.7-.6.9 0 .2-.2.3-.4.2-.2 0-.3-.2-.2-.4.1-.6.6-1.5 1.4-1.3.4.1.6.3.6.4.1.2.2.5.1.9l-2.2 5.4c-.1 0-.2.1-.3.1z"/><path class="st0" d="M444 94.5h-.2c-.2-.1-.2-.3-.2-.4l2.8-6.7c.1-.1.2-.5.1-.7l-.2-.2h-.3c-.2.1-.3.3-.3.4 0 .2-.2.3-.4.2-.2 0-.3-.2-.2-.4 0-.1.2-.6.6-.8.2-.1.5-.2.8-.1.4.1.6.3.6.5.2.5 0 1.2-.1 1.3l-2.8 6.7-.2.2z"/><path class="st0" d="M444.8 96.3h-.2c-.2-.1-.2-.3-.2-.4l3.1-7.3c.2-.4.3-.8.4-.9 0-.3-.2-.4-.3-.4-.2 0-.5 0-.6.4 0 .2-.2.3-.4.2-.2 0-.3-.2-.2-.4.2-.7.8-1 1.3-.9.5.1.9.6.8 1.1 0 .3-.3.9-.4 1.1l-3.1 7.3-.2.2z"/><path class="st0" d="M445.5 98.2h-.2c-.2-.1-.2-.3-.2-.4l3.1-7.3c.2-.4.4-.9.4-1.1 0-.2-.2-.3-.3-.3-.2 0-.4.1-.5.4 0 .2-.2.3-.4.2-.2 0-.3-.2-.2-.4.2-.7.7-.9 1.1-.9.5.1.9.4.9.9 0 .4-.3 1.2-.4 1.4l-3.1 7.3c0 .1-.1.2-.2.2zM441.8 89.1h-.3l-2.1-.9c-.1 0-.5-.2-.7.1-.1.1-.1.3.3.5h.1c.1.1.2.3.1.4-.1.1-.3.2-.4.1-.8-.5-.7-1-.6-1.3.1-.2.3-.4.5-.5.5-.2.9.1 1 .1l2.1.9c.2.1.2.3.2.4 0 .1-.1.2-.2.2z"/><path class="st0" d="M442.5 90.8h-.2l-4-1.7c-.2-.1-.2-.3-.2-.4.1-.2.3-.2.4-.2l4 1.7c.2.1.2.3.2.4 0 .2-.1.2-.2.2z"/><path class="st0" d="M443.1 92.6h-.3l-5.3-2.4c-.3-.2-.5-.4-.5-.7 0-.2 0-.4.2-.7.5-.7 1.4-.3 1.9 0 .2.1.2.3.1.4-.1.2-.3.2-.4.1-.2-.1-.9-.5-1.1-.2-.1.1-.1.2-.1.2 0 .1.1.2.2.3l5.3 2.4c.2.1.2.3.2.4 0 .1-.1.2-.2.2z"/><path class="st0" d="M444 94.5h-.2l-6.6-2.9c-.1 0-.8-.3-.9-.8-.1-.2-.1-.5.1-.8.1-.2.3-.4.6-.5.5-.1.9.1 1 .2.2.1.2.3.1.4-.1.2-.3.2-.4.1-.1 0-.3-.1-.5-.1-.1 0-.1 0-.2.2-.1.1-.1.2 0 .3.1.2.4.4.6.5l6.6 2.9c.2.1.2.3.2.4-.2 0-.3.1-.4.1z"/><path class="st0" d="M444.8 96.3h-.2l-7.3-3.1c-.2-.1-.9-.3-1.1-.5-.4-.3-.5-.9-.2-1.4.3-.4.9-.7 1.5-.3.2.1.2.3.1.4-.1.2-.3.2-.4.1-.3-.2-.6-.1-.7.1-.1.1-.1.3.1.5.1.1.5.3.9.4l7.3 3.1c.2.1.2.3.2.4-.1.2-.2.3-.2.3z"/><path class="st0" d="M445.5 98.2h-.2l-7.3-3.1c-.2-.1-1-.4-1.3-.7-.3-.4-.3-.9 0-1.3.3-.3.8-.5 1.4-.2.2.1.2.3.1.4-.1.2-.3.2-.4.1-.3-.2-.5-.1-.6 0-.1.1-.1.3 0 .5.1.1.6.4 1 .6l7.3 3.1c.2.1.2.3.2.4 0 .1-.1.2-.2.2z"/><circle class="st0" cx="441" cy="87" r=".5"/><path class="st0" d="M679.6 130c0 .1-.2.1-.2.1l-4.7-2.7c-.1 0-.1-.2-.1-.2l.2-.1 4.7 2.7c.1 0 .1.1.1.2z"/><path class="st0" d="M674.8 127.3l-.1.1c-.1 0-.2 0-.2-.1l-.4-1.3s-.1-.3 0-.6l.3-.3c.2-.1.5-.1.7.4 0 .1 0 .2-.1.2s-.2 0-.2-.1c-.1-.2-.2-.2-.3-.2-.2.1-.1.3-.1.4l.4 1.3c.1.1.1.1 0 .2z"/><path class="st0" d="M675.7 127.8l-.1.1c-.1 0-.2 0-.2-.1l-.6-2.3c0-.1 0-.2.1-.2s.2 0 .2.1l.6 2.3c.1 0 .1 0 0 .1z"/><path class="st0" d="M676.7 128.2l-.1.1c-.1 0-.2 0-.2-.1l-.9-3.1c0-.1-.1-.1-.1-.1h-.1c-.2.1 0 .5 0 .6 0 .1 0 .2-.1.2s-.2 0-.2-.1c-.1-.3-.3-.9.1-1.1.2-.1.3-.1.4 0 .1 0 .3.2.3.3l.9 3.1v.2z"/><path class="st0" d="M677.7 128.9l-.1.1c-.1 0-.2 0-.2-.1l-1.1-3.9c0-.1-.1-.3-.2-.4h-.2c-.1 0-.1.1-.1.1v.3c0 .1 0 .2-.1.2s-.2 0-.2-.1c0 0-.1-.3 0-.6l.3-.3c.2-.1.4 0 .5 0 .3.1.4.5.4.6l1.1 3.9c-.1.1-.1.1-.1.2z"/><path class="st0" d="M678.6 129.4l-.1.1c-.1 0-.2 0-.2-.1l-1.2-4.3c-.1-.2-.1-.5-.2-.5-.1-.1-.2-.1-.3-.1-.1.1-.2.2-.1.4 0 .1 0 .2-.1.2s-.2 0-.2-.1c-.2-.4 0-.7.3-.8.3-.1.6-.1.7.2.1.1.2.5.2.6l1.2 4.3c.1 0 0 .1 0 .1z"/><path class="st0" d="M679.6 130l-.1.1c-.1 0-.2 0-.2-.1l-1.2-4.3c-.1-.2-.2-.5-.2-.6-.1-.1-.2-.1-.3 0-.1.1-.1.2-.1.3 0 .1 0 .2-.1.2s-.2 0-.2-.1c-.2-.4 0-.7.2-.8.2-.1.5-.1.7.1.2.2.3.7.3.8l1.2 4.3v.1zM674.8 127.3l-.1.1-1.3.3s-.3.1-.3.3c0 .1.1.2.3.1.1 0 .2.1.2.2s-.1.2-.2.2c-.5.1-.7-.2-.7-.4 0-.1 0-.3.1-.4.1-.2.4-.3.5-.3l1.3-.3c.1 0 .2 0 .2.1.1 0 .1 0 0 .1z"/><path class="st0" d="M675.8 127.8l-.1.1-2.3.6c-.1 0-.2 0-.2-.1s0-.2.1-.2l2.3-.6c.1 0 .2 0 .2.1v.1z"/><path class="st0" d="M676.6 128.4l-.1.1-3.1.8c-.2 0-.4 0-.5-.1-.1-.1-.2-.2-.2-.4 0-.5.5-.6.8-.7.1 0 .2.1.2.2s-.1.2-.2.2-.5.1-.5.3v.1h.2l3.1-.8c.1 0 .2 0 .2.1.2.1.1.1.1.2z"/><path class="st0" d="M677.7 128.9l-.1.1-3.9 1.1c-.1 0-.4.1-.7 0-.1-.1-.2-.2-.2-.4s0-.3.1-.4c.2-.2.5-.3.5-.3.1 0 .2.1.2.2s-.1.2-.2.2c0 0-.2 0-.2.1v.1c0 .1 0 .1.1.1.1.1.3 0 .4 0l3.9-1.1c.1 0 .2 0 .2.1-.1.1-.1.1-.1.2z"/><path class="st0" d="M678.6 129.4l-.1.1-4.3 1.2c-.1 0-.5.1-.6.2-.3 0-.5-.2-.6-.5 0-.3.1-.6.6-.7.1 0 .2.1.2.2s-.1.2-.2.2c-.2 0-.3.2-.3.3 0 .1.1.2.2.2s.3-.1.5-.1l4.3-1.2c.1 0 .2 0 .2.1.2-.1.2 0 .1 0z"/><path class="st0" d="M679.6 130l-.1.1-4.3 1.2c-.1 0-.6.2-.8.1-.3-.1-.4-.3-.4-.6 0-.2.2-.5.6-.6.1 0 .2.1.2.2s-.1.2-.2.2c-.2 0-.3.1-.3.2s.1.2.1.2c.1 0 .4 0 .6-.1l4.3-1.2c.1 0 .2 0 .2.1.2.1.1.2.1.2z"/><circle class="st0" cx="673.7" cy="126.6" r=".3"/><path class="st0" d="M591.9 29.4c0 .1-.2.1-.2.1l-4.7-2.7c-.1 0-.1-.2-.1-.2 0-.1.2-.1.2-.1l4.7 2.7c.1 0 .1.2.1.2z"/><path class="st0" d="M587.1 26.8l-.1.1c-.1 0-.2 0-.2-.1l-.4-1.3s-.1-.3 0-.6l.3-.3c.2-.1.5-.1.7.4 0 .1 0 .2-.1.2s-.2 0-.2-.1c-.1-.2-.2-.2-.3-.2-.2.1-.1.3-.1.4l.4 1.3c.1.1.1.1 0 .2z"/><path class="st0" d="M588 27.3l-.1.1c-.1 0-.2 0-.2-.1l-.6-2.3c0-.1 0-.2.1-.2s.2 0 .2.1l.6 2.3c.1 0 .1 0 0 .1z"/><path class="st0" d="M589 27.7l-.1.1c-.1 0-.2 0-.2-.1l-.9-3.1c0-.1-.1-.1-.1-.1h-.1c-.2.1 0 .5 0 .6 0 .1 0 .2-.1.2s-.2 0-.2-.1c-.1-.3-.3-.9.1-1.1.2-.1.3-.1.4 0 .1 0 .3.2.3.3l.9 3.1v.2z"/><path class="st0" d="M589.9 28.4l-.1.1c-.1 0-.2 0-.2-.1l-1.1-3.9c0-.1-.1-.3-.2-.4h-.2c-.1 0-.1.1-.1.1v.3c0 .1 0 .2-.1.2s-.2 0-.2-.1c0 0-.1-.3 0-.6l.3-.3c.2-.1.4 0 .5 0 .3.1.4.5.4.6l1.1 3.9c0 .1 0 .1-.1.2z"/><path class="st0" d="M590.9 28.9l-.1.1c-.1 0-.2 0-.2-.1l-1.2-4.3c-.1-.2-.1-.5-.2-.5-.1-.1-.2-.1-.3-.1-.1.1-.2.2-.1.4 0 .1 0 .2-.1.2s-.2 0-.2-.1c-.2-.4 0-.7.3-.8.3-.1.6-.1.7.2.1.1.2.5.2.6l1.2 4.3v.1z"/><path class="st0" d="M591.9 29.5l-.1.1c-.1 0-.2 0-.2-.1l-1.2-4.3c-.1-.2-.2-.5-.2-.6-.1-.1-.2-.1-.3 0-.1.1-.1.2-.1.3 0 .1 0 .2-.1.2s-.2 0-.2-.1c-.2-.4 0-.7.2-.8.2-.1.5-.1.7.1.2.2.3.7.3.8l1.2 4.3v.1zM587.1 26.8l-.1.1-1.3.3s-.3.1-.3.3c0 .1.1.2.3.1.1 0 .2.1.2.2s-.1.2-.2.2c-.5.1-.7-.2-.7-.4 0-.1 0-.3.1-.4.1-.2.4-.3.5-.3l1.3-.3c.1 0 .2 0 .2.1.1 0 .1 0 0 .1z"/><path class="st0" d="M588 27.3l-.1.1-2.3.6c-.1 0-.2 0-.2-.1s0-.2.1-.2l2.3-.6c.1 0 .2 0 .2.1.1 0 .1 0 0 .1z"/><path class="st0" d="M588.9 27.8l-.1.1-3.1.8c-.2 0-.4 0-.5-.1-.1-.1-.2-.2-.2-.4 0-.5.5-.6.8-.7.1 0 .2.1.2.2s-.1.2-.2.2-.5.1-.5.3v.1h.2l3.1-.8c.1 0 .2 0 .2.1l.1.2z"/><path class="st0" d="M590 28.4l-.1.1-3.9 1.1c-.1 0-.4.1-.7 0-.1-.1-.2-.2-.2-.4s0-.3.1-.4c.2-.2.5-.3.5-.3.1 0 .2.1.2.2s-.1.2-.2.2c0 0-.2 0-.2.1v.1c0 .1 0 .1.1.1.1.1.3 0 .4 0l3.9-1.1c.1 0 .2 0 .2.1-.1.1-.1.1-.1.2z"/><path class="st0" d="M590.9 28.9l-.1.1-4.3 1.2c-.1 0-.5.1-.6.2-.3 0-.5-.2-.6-.5 0-.3.1-.6.6-.7.1 0 .2.1.2.2s-.1.2-.2.2c-.2 0-.3.2-.3.3 0 .1.1.2.2.2s.3-.1.5-.1l4.3-1.2c.1 0 .2 0 .2.1.2-.1.2 0 .1 0z"/><path class="st0" d="M591.9 29.5l-.1.1-4.3 1.2c-.1 0-.6.2-.8.1-.3-.1-.4-.3-.4-.6 0-.2.2-.5.6-.6.1 0 .2.1.2.2s-.1.2-.2.2c-.2 0-.3.1-.3.2s.1.2.1.2c.1 0 .4 0 .6-.1l4.3-1.2c.1 0 .2 0 .2.1.1.1.1.1.1.2z"/><circle class="st0" cx="586" cy="26.1" r=".3"/><path class="st0" d="M683.7 23.1l-4.4.6c-.1 0-.3 0-.3.1-.1.1-.1.3-.1.4l-.7 4.2c0 .1 0 .2.1.3.1.1.2.1.3.1l4.4-.4c.1.1.3 0 .4-.1.1-.1.1-.2.1-.3l.6-4.6c0-.1 0-.2-.1-.3h-.3zm-.5 1.5l-1.6 1.5-.2-.3.1-.1 1.7-1.7v.6zm-.1 1.1l-1 .9-.2-.3 1.3-1.2-.1.6zm-.2 1.1l-.3.3-.2-.3.7-.6-.2.6zm-3.9.5l1.4-1.4.2.2-1.7 1.6.1-.4zm.2-1.2l.8-.7.2.3-1.1 1.1.1-.7zm.2-1.1l.1-.1.2.3-.5.4.2-.6zm1.1-.1l.8-.8.6-.1-1.2 1.1-.2-.2zm.3-.7l-.5.5-.2-.3.1-.1.6-.1zm.1 2.2l.2.3-1.5 1.4h-.6l1.9-1.7zm.5.5l.2.3-.9.8h-.6l1.3-1.1zm.4.5l.2.3-.3.3h-.6l.7-.6zm1-.1zm-1.6-1.7l-.2-.2 1.5-1.4.6-.1-1.9 1.7zM641.5 109.2l-1.1-7.9c0-.2 0-.5-.2-.6-.2-.2-.5-.3-.7-.2l-7.6-1.2c-.2 0-.4 0-.5.2-.1.1-.2.3-.2.5l.7 7.9c-.1.3-.1.6.1.8.2.2.4.2.6.2l8.2 1.1c.2 0 .4 0 .5-.2.2-.2.2-.4.2-.6zm-2.7-.8l-2.7-2.8.5-.4.2.3 3 3.1-1-.2zm-1.9-.2l-1.6-1.7.4-.4 2.2 2.3-1-.2zm-2-.3l-.6-.6.4-.4 1.1 1.2-.9-.2zm-.9-7.1l2.5 2.5-.4.4-.1-.1-2.9-3 .9.2zm2 .4l1.3 1.4-.4.4-1.9-2 1 .2zm2 .3l.2.2-.4.4-.8-.8 1 .2zm.3 2l1.4 1.5.1 1.1-2-2.1.5-.5zm1.3.5l-.9-.9.5-.4.2.3.2 1zm-4 .2l-.5.4-2.6-2.6-.1-1 3.2 3.2zm-.9.9l-.4.4-1.5-1.6-.1-1 2 2.2zm-.9.8l-.4.4-.5-.5-.1-1 1 1.1zm.1 1.8zm3.1-2.9l.4-.4 2.6 2.7.1 1-3.1-3.3zM504.1 61.4l-4.4-.7c-.1-.1-.2-.1-.4 0-.1.1-.2.2-.2.4l-1.9 3.8v.3c0 .1.1.2.2.2l4.3.9c.1.1.3.1.4.1.1-.1.2-.2.2-.3l1.9-4.2v-.3c.1-.1 0-.1-.1-.2zm-.9 1.4l-1.9 1-.2-.3.2-.1 2.1-1.1-.2.5zm-.4 1l-1.2.6-.2-.3 1.6-.8-.2.5zm-.5 1l-.4.2-.2-.3.8-.4-.2.5zm-3.9-.7l1.8-.9.2.3-2.1 1.1.1-.5zm.5-1l.9-.5.2.3-1.4.7.3-.5zm.5-1l.1-.1.2.3-.6.3.3-.5zm1.1.2l1-.5.6.1-1.5.7-.1-.3zm.5-.7l-.6.3-.2-.3.2-.1.6.1zm-.5 2.2l.2.3-1.8.9-.6-.1 2.2-1.1zm.3.6l.2.3-1.1.6-.5-.1 1.4-.8zm.3.6l.2.3-.3.2-.5-.1.6-.4zm1 .3zm-1.1-2.1l-.2-.3 1.9-1 .6.1-2.3 1.2zM413.6 121.7l-4.9 2.7c-.2 0-.3.1-.4.3-.1.2 0 .4.1.5l1 5.3c0 .1.1.2.2.3.1.1.2.1.4 0l5-2.4c.2 0 .4-.1.5-.3.1-.1.1-.3 0-.4l-1.3-5.7c0-.1-.1-.2-.2-.3-.2-.1-.3-.1-.4 0zm.1 2l-1.2 2.5-.4-.2.1-.2 1.3-2.7.2.6zm.3 1.3l-.7 1.5-.4-.2 1-2 .1.7zm.3 1.3l-.3.5-.4-.2.5-1 .2.7zm-4.4 2.4l1.1-2.2.4.2v.1l-1.3 2.7-.2-.8zm-.3-1.4l.6-1.2.4.2-.8 1.7-.2-.7zm-.3-1.4l.1-.2.4.2-.3.7-.2-.7zm1.3-.7l.6-1.3.7-.4-.9 1.9-.4-.2zm0-1l-.4.8-.4-.2.1-.2.7-.4zm1.1 2.6l.4.2-1.1 2.3-.6.3 1.3-2.8zm.8.4l.4.2-.7 1.4-.6.3.9-1.9zm.8.4l.4.2-.2.4-.6.3.4-.9zm1.2-.5zm-2.7-1.3l-.4-.2 1.1-2.4.6-.3-1.3 2.9z"/></svg>