<svg id="Слой_1" xmlns="http://www.w3.org/2000/svg" viewBox="-230 408.6 60.5 49.8"><style>.st0{fill:none;stroke:#FFF;stroke-linecap:round;stroke-linejoin:round;stroke-miterlimit:10}</style><path class="st0" d="M-205.2 421.5l5.6-5.1-8.3-5.8-2.2 3.5zM-194.1 421.5l-5.5-5.1 8.2-5.8 2.3 3.5zM-207.9 410.6h16.5"/><path class="st0" d="M-209.5 414.9l-5 2.7v38.1h29.8v-38.2l-5-2.6"/><path class="st0" d="M-203.8 420.7v17.7h8.5v-18"/><path class="st0" d="M-206.2 420.1v20.6h13.3v-20.9M-214.5 417.6s-3.5 1.1-4.4 4.4c-1 3.6-8.7 29.9-8.7 29.9h5.7l7.3-22.4M-184.6 417.6s3.5 1.1 4.4 4.4c1 3.6 8.7 29.9 8.7 29.9h-5.7l-7.3-22.4M-199.6 416.4v14.7"/></svg>