<svg id="Слой_1" xmlns="http://www.w3.org/2000/svg" viewBox="0 0 104.8 94.8"><style>.st0{fill:#FFF}</style><path class="st0" d="M95.2 36.4c-.1-2.4-1-11.7-7.3-21.7C80.7 3.2 70.7.2 70.3.1c-.4-.2-.9-.1-1.3.2s-.6.7-.7 1.1c0 .1-.8 8-5.1 12.3-4.5 4.6-10.6 4.3-10.6 4.3h-.4c-.1 0-6.1.3-10.8-4.3-4.3-4.3-5.1-12.2-5.1-12.3 0-.4-.3-.9-.7-1.1-.4-.3-.8-.3-1.3-.2-.3.1-10.2 3.1-17.4 14.6-6.3 10-7.2 19.3-7.3 21.7C7.7 38.6 0 48.5 0 62.8c0 16.4 5 18.6 10.4 18.6 2.3 0 10.1-1.3 12.2-17.6 1.5-11.3.1-19.7-.4-22.5 1.4-1.1 4.2-3.8 6.3-8l.3-.6c.4 1.7 1 3.4 2 5 1.9 3.2 4 5.2 5.6 6.3-2.4 2-6.5 6-8.5 11.5-6.1 16.1-1.8 25-1.3 25.9.3 1 6.1 12.6 25.5 12.6h.6c19.9 0 25.6-11.9 25.8-12.3.2-.4 4.8-9.5-1.5-26.2C75 50 70.8 46 68.5 44c1.5-1.1 3.7-3.1 5.6-6.3.9-1.6 1.6-3.3 2-5l.3.6c2.1 4.2 4.9 6.9 6.3 8-.6 2.8-1.9 11.2-.4 22.5 2.1 16.3 9.9 17.6 12.2 17.6 5.4 0 10.4-2.3 10.4-18.6-.1-14.3-7.8-24.2-9.7-26.4zm-75.6 27c-1.8 13.9-7.5 14.9-9.3 14.9-2.9 0-7.4 0-7.4-15.6 0-10.7 4.9-19 7.5-22.7.6 1.1 1.4 2.2 2.8 2.8.8.4 1.8.6 2.7.6 1 0 2.2-.3 3.4-.7.7 3.4 1.6 11 .3 20.7zM52.7 91h-.6c-17.8 0-22.8-10.4-23-10.9 0 0 0-.1-.1-.1 0 0-.9-1.7-1.3-5C31.4 79.7 39 86.5 52 86.5h.6c13.4 0 21-7.7 24.6-12.9-.3 4.3-1.4 6.6-1.4 6.7-.2.4-5.3 10.7-23.1 10.7zm24.4-23c-.3.7-6.6 15.5-24.5 15.5H52c-17.9 0-24.1-13.7-24.3-14.2v-.1c.2-3.4 1-7.7 2.9-12.7.7-2 1.8-3.7 2.9-5.2 2.6 1.6 10 5.5 19.4 5.5 5.6 0 12-1.4 18.5-5.5 1.1 1.5 2.2 3.2 2.9 5.2 1.6 4.4 2.4 8.3 2.8 11.5zm-7.7-19c-15.8 9.6-29.9 2.5-34 0a31 31 0 0 1 3.6-3.3c2 1.2 7.2 3.9 13.7 3.9 4 0 8.5-1 13.1-3.9.8.6 2.2 1.7 3.6 3.3zM79 32c-1.7-3.4-2.2-5.8-2.3-6.8 0-.5-.1-.9-.1-.9-.1-.8-.7-1.4-1.5-1.3-.8 0-1.4.6-1.5 1.4 0 .1 0 .5.1 1.1.1 2 0 7-2.2 10.7-2.8 4.7-6.2 6.4-6.2 6.4h-.1s-.1 0-.1.1c-13.1 8.7-24.8.4-25.3 0-.1-.1-.1-.1-.2-.1 0 0-3.4-1.7-6.2-6.4-2.2-3.7-2.3-8.7-2.2-10.7.1-.6.1-1 .1-1.1 0-.8-.7-1.4-1.5-1.4s-1.5.6-1.5 1.3c0 .1 0 .4-.1.9-.1 1.1-.6 3.4-2.3 6.8-2.2 4.6-5.6 7.1-6.1 7.4-1.5.8-3.6 1.6-5.1.9-1.5-.8-2-2.9-2.1-3.4 0-1.2.6-10.6 6.9-20.6C24.3 8.5 30.7 4.9 33.7 3.6c.5 2.9 2 8.5 5.7 12.2 5.5 5.6 12.6 5.2 13 5.2.4 0 7.5.4 13.1-5.2 3.7-3.7 5.1-9.3 5.7-12.2 3 1.3 9.3 4.9 14.3 12.7 6 9.5 6.8 18.5 6.9 20.4v.1s-.4 2.6-2.1 3.5c-1.4.7-3.4 0-4.9-.8l-.1-.1c-.2 0-3.9-2.5-6.3-7.4zm15.4 46.4c-1.7 0-7.5-1.1-9.3-14.9-1.3-9.7-.3-17.3.2-20.6 1.2.5 2.3.7 3.3.7s1.9-.2 2.7-.6c1.4-.7 2.2-1.8 2.8-2.9 2.6 3.6 7.5 11.9 7.5 22.7.2 15.6-4.3 15.6-7.2 15.6z"/></svg>