<?xml version="1.0" encoding="utf-8"?>
<!-- Generator: Adobe Illustrator 19.1.1, SVG Export Plug-In . SVG Version: 6.00 Build 0)  -->
<svg version="1.1" id="Layer_1" xmlns="http://www.w3.org/2000/svg" xmlns:xlink="http://www.w3.org/1999/xlink" x="0px" y="0px"
	 viewBox="-264.8 388.6 32.1 32.4" style="enable-background:new -264.8 388.6 32.1 32.4;" xml:space="preserve">
<g>
	<path d="M-254.3,402.2c0.7,0,1.3-0.6,1.3-1.3v-5.3c0-2.4,1.9-4.3,4.3-4.3s4.3,1.9,4.3,4.3v5.3c0,0.7,0.6,1.3,1.3,1.3
		c0.7,0,1.3-0.6,1.3-1.3v-5.3c0-3.8-3.1-7-7-7c-3.8,0-7,3.1-7,7v5.3C-255.7,401.6-255.1,402.2-254.3,402.2z"/>
	<path d="M-233.2,399.2h-7.2v1.7c0,1.5-1.2,2.7-2.7,2.7s-2.7-1.2-2.7-2.7v-1.7h-5.8v1.7c0,1.5-1.2,2.7-2.7,2.7
		c-1.5,0-2.7-1.2-2.7-2.7v-1.7h-7.2c-0.4,0-0.6,0.3-0.5,0.7l4.7,19.2c0.3,1.1,1.4,2,2.5,2h17.5c1.1,0,2.3-0.9,2.5-2l4.7-19.2
		C-232.6,399.5-232.9,399.2-233.2,399.2z"/>
</g>
</svg>
