<?xml version="1.0" encoding="utf-8"?>
<!-- Generator: Adobe Illustrator 19.1.1, SVG Export Plug-In . SVG Version: 6.00 Build 0)  -->
<svg version="1.1" id="Слой_1" xmlns="http://www.w3.org/2000/svg" xmlns:xlink="http://www.w3.org/1999/xlink" x="0px" y="0px"
	 viewBox="0 0 67.1 111" style="enable-background:new 0 0 67.1 111;" xml:space="preserve">
<style type="text/css">
	.st0{fill:#FFFFFF;}
</style>
<path class="st0" d="M61.4,11.6c-5.7-9-13.5-11.4-13.8-11.5c-0.4-0.1-0.9-0.1-1.3,0.2c-0.4,0.3-0.6,0.7-0.7,1.1
	c0,0.1-0.6,6.1-3.8,9.4c-3.5,3.5-8.1,3.3-8.1,3.3c0,0-0.1,0-0.1,0c0,0-0.1,0-0.1,0c0,0-4.6,0.2-8.1-3.3c-3.2-3.2-3.8-9.3-3.8-9.4
	c0-0.4-0.3-0.9-0.7-1.1C20.5,0,20-0.1,19.6,0.1c-0.3,0.1-8.2,2.5-13.8,11.5C0.2,20.5,0,28.7,0,29c0,0.6,0.4,1.2,1,1.4l7.4,2.9
	c0.5,0.2,1,0.1,1.4-0.2c0.1-0.1,3.3-2.2,5.5-6.5c0.3,1,0.7,2.1,1.3,3.1c1.7,2.9,3.7,4.5,4.9,5.4l-18.9,66c-0.1,0.5,0,1,0.3,1.4
	c0.3,0.3,7.5,8.6,30.8,8.6s30.5-8.2,30.8-8.6c0.3-0.4,0.4-0.9,0.3-1.4l-18.9-66c1.2-0.8,3.2-2.5,4.9-5.4c0.6-1,1-2,1.3-3.1
	c2.2,4.3,5.3,6.4,5.5,6.5c0.4,0.3,0.9,0.3,1.4,0.2l7.4-2.9c0.6-0.2,1-0.8,1-1.4C67.1,28.7,66.9,20.5,61.4,11.6z M24.3,35.9h2.6
	L16.2,106c-6.3-1.7-9.5-4-10.6-5L24.3,35.9z M32.1,108c-5.1-0.1-9.4-0.6-12.9-1.3l10.8-70.8h2.1V108z M35.1,35.9h2.2l10.8,70.8
	c-3.5,0.7-7.8,1.2-13,1.3V35.9z M61.5,101.1c-1.2,1-4.3,3.3-10.5,4.9L40.3,35.9h2.5L61.5,101.1z M58.5,30.2c-0.9-0.8-2.7-2.5-4-5.2
	c-1.3-2.6-1.6-4.4-1.7-5.2c0-0.4,0-0.7,0-0.7c-0.1-0.8-0.8-1.4-1.5-1.3c-0.8,0-1.4,0.6-1.5,1.4c0,0.1,0,0.4,0,0.9
	c0.1,1.5,0,5.3-1.7,8.1c-1.7,2.9-3.7,4.3-4.4,4.7H23.5c-0.7-0.4-2.7-1.8-4.4-4.7c-1.7-2.8-1.7-6.7-1.7-8.1c0.1-0.5,0-0.8,0-0.9
	c0-0.8-0.7-1.4-1.5-1.4c-0.8,0-1.5,0.6-1.5,1.3c0,0,0,0.3,0,0.7c-0.1,0.8-0.5,2.6-1.7,5.2c-1.3,2.7-3.1,4.4-4,5.2l-5.6-2.2
	c0.2-2.4,1.2-8.5,5.2-14.9c3.6-5.7,8.1-8.4,10.5-9.6c0.5,2.4,1.7,6.5,4.4,9.2c4.2,4.2,9.5,4.2,10.3,4.1c0.8,0,6.1,0.1,10.3-4.1
	c2.8-2.8,3.9-6.8,4.4-9.3c2.4,1.1,6.9,3.9,10.5,9.6c4,6.4,5,12.5,5.2,14.9L58.5,30.2z"/>
</svg>
