<?xml version="1.0" encoding="utf-8"?>
<!-- Generator: Adobe Illustrator 19.1.1, SVG Export Plug-In . SVG Version: 6.00 Build 0)  -->
<svg version="1.1" id="Слой_1" xmlns="http://www.w3.org/2000/svg" xmlns:xlink="http://www.w3.org/1999/xlink" x="0px" y="0px"
	 viewBox="0 0 74.1 59.6" style="enable-background:new 0 0 74.1 59.6;" xml:space="preserve">
<style type="text/css">
	.st0{fill:#FFFFFF;}
</style>
<path class="st0" d="M36.4,59.6c-0.8,0-1.5-0.3-2.2-0.8L1.3,32.4C0.5,31.7,0,30.7,0,29.6c0-1.1,0.5-2.1,1.4-2.7L34.2,1.4
	c1.1-0.8,2.5-1,3.7-0.4c1.2,0.6,2,1.8,2,3.1v1c0,1.9-1.6,3.5-3.5,3.5c0,0-0.1,0-0.1,0l-27.1,21l29.4,23.7c1.5,1.2,1.7,3.4,0.5,4.9
	C38.4,59.2,37.4,59.6,36.4,59.6z"/>
<path class="st0" d="M33.9,12.6h-6.7c-0.8,0-1.5-0.7-1.5-1.5s0.7-1.5,1.5-1.5h6.7c0.8,0,1.5,0.7,1.5,1.5S34.7,12.6,33.9,12.6z"/>
<path class="st0" d="M36.4,18.8H16.1c-0.8,0-1.5-0.7-1.5-1.5s0.7-1.5,1.5-1.5h20.3c0.8,0,1.5,0.7,1.5,1.5S37.2,18.8,36.4,18.8z"/>
<path class="st0" d="M36.4,25H12.2c-0.8,0-1.5-0.7-1.5-1.5s0.7-1.5,1.5-1.5h24.2c0.8,0,1.5,0.7,1.5,1.5S37.2,25,36.4,25z"/>
<path class="st0" d="M41.7,31.1H7.5c-0.8,0-1.5-0.7-1.5-1.5s0.7-1.5,1.5-1.5h34.2c0.8,0,1.5,0.7,1.5,1.5S42.5,31.1,41.7,31.1z"/>
<path class="st0" d="M35.5,37.4H11.1c-0.8,0-1.5-0.7-1.5-1.5s0.7-1.5,1.5-1.5h24.3c0.8,0,1.5,0.7,1.5,1.5S36.3,37.4,35.5,37.4z"/>
<path class="st0" d="M36.4,43.5H18c-0.8,0-1.5-0.7-1.5-1.5s0.7-1.5,1.5-1.5h18.4c0.8,0,1.5,0.7,1.5,1.5S37.2,43.5,36.4,43.5z"/>
<path class="st0" d="M34.6,49.7h-10c-0.8,0-1.5-0.7-1.5-1.5s0.7-1.5,1.5-1.5h10c0.8,0,1.5,0.7,1.5,1.5S35.4,49.7,34.6,49.7z"/>
<path class="st0" d="M36.7,59.6c-1.9,0-3.5-1.6-3.5-3.5V3.5c0-1.9,1.6-3.5,3.5-3.5s3.5,1.6,3.5,3.5v52.6
	C40.2,58,38.6,59.6,36.7,59.6z"/>
<path class="st0" d="M37.7,59.6c-1,0-2-0.4-2.7-1.3c-1.2-1.5-1-3.7,0.5-4.9l29.4-23.7l-27.2-21c-1.9,0.1-3.6-1.5-3.6-3.5v-1
	c0-1.3,0.8-2.6,2-3.1c1.2-0.6,2.6-0.4,3.7,0.4l32.9,25.5c0.8,0.7,1.3,1.7,1.4,2.7s-0.5,2.1-1.3,2.8L39.9,58.8
	C39.2,59.3,38.4,59.6,37.7,59.6z"/>
<path class="st0" d="M47.8,12.6h-7.7c-0.8,0-1.5-0.7-1.5-1.5s0.7-1.5,1.5-1.5h7.7c0.8,0,1.5,0.7,1.5,1.5S48.7,12.6,47.8,12.6z"/>
<path class="st0" d="M58,18.8H37.7c-0.8,0-1.5-0.7-1.5-1.5s0.7-1.5,1.5-1.5H58c0.8,0,1.5,0.7,1.5,1.5S58.8,18.8,58,18.8z"/>
<path class="st0" d="M61.9,25H37.7c-0.8,0-1.5-0.7-1.5-1.5s0.7-1.5,1.5-1.5h24.2c0.8,0,1.5,0.7,1.5,1.5S62.7,25,61.9,25z"/>
<path class="st0" d="M66.6,31.1H32.4c-0.8,0-1.5-0.7-1.5-1.5s0.7-1.5,1.5-1.5h34.2c0.8,0,1.5,0.7,1.5,1.5S67.4,31.1,66.6,31.1z"/>
<path class="st0" d="M58,37.3H38.6c-0.8,0-1.5-0.7-1.5-1.5s0.7-1.5,1.5-1.5H58c0.8,0,1.5,0.7,1.5,1.5S58.8,37.3,58,37.3z"/>
<path class="st0" d="M56.1,43.5H37.7c-0.8,0-1.5-0.7-1.5-1.5s0.7-1.5,1.5-1.5h18.4c0.8,0,1.5,0.7,1.5,1.5S56.9,43.5,56.1,43.5z"/>
<path class="st0" d="M49.5,49.7h-10c-0.8,0-1.5-0.7-1.5-1.5s0.7-1.5,1.5-1.5h10c0.8,0,1.5,0.7,1.5,1.5S50.3,49.7,49.5,49.7z"/>
</svg>
