<?xml version="1.0" encoding="utf-8"?>
<!-- Generator: Adobe Illustrator 19.1.1, SVG Export Plug-In . SVG Version: 6.00 Build 0)  -->
<svg version="1.1" id="Layer_1" xmlns="http://www.w3.org/2000/svg" xmlns:xlink="http://www.w3.org/1999/xlink" x="0px" y="0px"
	 viewBox="48 323 707 148" style="enable-background:new 48 323 707 148;" xml:space="preserve">
<style type="text/css">
	.st0{fill:#D13A3A;}
</style>
<g>
	<path class="st0" d="M188,446.1c0.7-0.9,1-2.2,0.1-3.3c-1-1.3-2.5-1-2.8-0.9l-2.2,0.2c-0.1,0-0.2,0-0.3,0l-1.5,0.1l-1.5-1.9
		c-0.1-0.1-0.2-0.2-0.4-0.2l-2.4,0.2c-0.2,0-0.3,0.1-0.3,0.2c-0.1,0.1,0,0.3,0.1,0.4l3.7,4.6l-0.3,1.2c0,0.1,0,0.3,0.1,0.4
		c0.1,0.1,0.1,0.1,0.2,0.1c0.2,0.1,0.4-0.1,0.5-0.3l0.2-0.7c1.4,1.1,3.3,1.2,3.5,1.2c0.6,0,1.7-0.1,2.6-0.6l1.2,0.6L188,446.1z
		 M184.6,443.7c0.1,0.2,0.1,0.4,0.1,0.6l-1.1-1.4C183.9,443,184.3,443.2,184.6,443.7z M183.1,442.9l1.4,1.8l0,0l-0.1,0.1
		c0,0-0.1,0.1-0.2,0.1l-1.5-1.9L183.1,442.9z M182.3,442.9l1.6,2c-0.1,0-0.2,0-0.4,0.1l-1.6-2L182.3,442.9z M181.2,443h0.3l1.6,2
		c-0.1,0-0.3,0-0.4-0.1L181.2,443L181.2,443z M178.9,442.4l-1.1-1.4h0.5l1.1,1.4H178.9z M179.9,442.3l-1.1-1.3h0.5l1.1,1.3H179.9z
		 M179.6,443.2h0.3l0.6,0.8C180.2,443.7,179.9,443.4,179.6,443.2z M181.4,444.4l-1.1-1.4h0.4l1.3,1.7
		C181.9,444.7,181.6,444.6,181.4,444.4z M184.6,446.6L184.6,446.6c-0.1,0-2.2,0-3.5-1.3c1.5,0.8,2.9,0.7,3.7,0.1
		c0.7-0.5,0.9-1.3,0.5-2.1c-0.1-0.2-0.3-0.4-0.4-0.6h0.6h0.1c0,0,1.2-0.3,1.9,0.6c0.8,1,0.1,2.1-0.5,2.6
		C186.2,446.5,185.1,446.6,184.6,446.6z"/>
	<circle class="st0" cx="186.7" cy="444.5" r="0.5"/>
</g>
<g>
	<path class="st0" d="M85.5,373.9c-1.4,0-2.8,0.6-3.2,2.3c-0.5,1.9,0.9,3.1,1.1,3.3l1.8,2c0.1,0.1,0.2,0.2,0.2,0.3l1.2,1.4L86,386
		c0,0.2,0,0.3,0.1,0.5l2,2.1c0.1,0.1,0.3,0.2,0.5,0.1c0.2,0,0.3-0.2,0.4-0.4l1.8-6.9l1.4-0.6c0.1-0.1,0.2-0.2,0.3-0.3
		c0-0.1,0-0.2,0-0.3c-0.1-0.3-0.4-0.4-0.6-0.3l-0.8,0.4c0-2.2-1.3-4-1.5-4.2c-0.4-0.6-1.3-1.5-2.5-2l-0.3-1.5L85.5,373.9z
		 M85.8,378.8c0.1-0.3,0.3-0.4,0.5-0.5l-0.5,2.1C85.6,380.1,85.5,379.5,85.8,378.8z M86.1,380.9l0.7-2.6l0,0h0.1
		c0.1,0,0.1,0,0.2,0.1l-0.7,2.8L86.1,380.9z M86.7,381.6l0.8-3c0.1,0.1,0.2,0.2,0.3,0.3L87,382L86.7,381.6z M87.6,382.6l-0.3-0.3
		l0.8-3c0.1,0.1,0.2,0.3,0.2,0.4L87.6,382.6L87.6,382.6z M88.7,385.2l-0.5,2l-0.4-0.5l0.5-2L88.7,385.2z M87.9,384.4l-0.5,2
		l-0.4-0.5l0.5-2L87.9,384.4z M88.9,384l-0.2-0.2l0.3-1.1C88.9,383,88.9,383.5,88.9,384z M88.8,381.4l-0.5,2L88,383l0.6-2.5
		C88.7,380.8,88.8,381,88.8,381.4z M88.5,376.7L88.5,376.7c0,0.1,1.6,2.1,1.2,4.3c-0.4-2-1.4-3.2-2.6-3.6c-1-0.3-1.9,0.1-2.3,1.1
		c-0.1,0.3-0.2,0.6-0.2,0.8l-0.5-0.6c0,0,0,0-0.1-0.1c0,0-1.2-0.9-0.8-2.3c0.4-1.5,2-1.7,2.9-1.5C87.3,375.2,88.2,376.2,88.5,376.7z
		"/>
	<circle class="st0" cx="85" cy="376.3" r="0.6"/>
</g>
<g>
	<path class="st0" d="M304,407.3c-0.5-1.5-1.8-2.7-3.7-2.5c-2.2,0.2-2.9,2.1-3,2.5l-1.4,2.7c-0.1,0.2-0.2,0.3-0.2,0.3l-1,1.8
		l-3.3,0.3c-0.2,0-0.4,0.1-0.4,0.3l-1.5,2.9c-0.1,0.2-0.1,0.4,0,0.6c0.1,0.2,0.3,0.3,0.5,0.2l7.9-0.8l1.2,1.2
		c0.1,0.1,0.3,0.2,0.5,0.2c0.1,0,0.2-0.1,0.3-0.1c0.2-0.2,0.2-0.6,0-0.8l-0.7-0.8c2.3-0.8,3.7-2.9,3.9-3.2c0.4-0.6,1.1-2,1.1-3.4
		l1.5-0.9L304,407.3z M298.8,409.5c0.3,0,0.6,0.1,0.7,0.4l-2.4,0.3C297.5,409.8,298,409.5,298.8,409.5z M296.8,410.6l3-0.3l0,0
		c0,0,0,0.1,0,0.2c0,0.1,0,0.2,0,0.2l-3.3,0.3L296.8,410.6z M296.3,411.5l3.4-0.4c0,0.1-0.1,0.3-0.2,0.5L296,412L296.3,411.5z
		 M295.5,412.9l0.2-0.4l3.4-0.4c-0.1,0.1-0.2,0.3-0.4,0.4L295.5,412.9L295.5,412.9z M293.2,415l-2.3,0.2l0.3-0.6l2.3-0.2L293.2,415z
		 M293.8,413.9l-2.3,0.2l0.3-0.6l2.3-0.2L293.8,413.9z M294.6,414.8l0.2-0.3l1.3-0.1C295.6,414.5,295.1,414.6,294.6,414.8z
		 M297.4,413.7l-2.3,0.2l0.2-0.5l2.9-0.3C297.9,413.3,297.7,413.5,297.4,413.7z M302.2,411.5C302.2,411.5,302.1,411.6,302.2,411.5
		c0,0.1-1.6,2.6-4,3c2-1.2,2.9-2.8,2.8-4.1c-0.1-1.2-0.9-2-2-2c-0.4,0-0.7,0-1,0.1l0.4-0.7v-0.1c0-0.1,0.5-1.6,2.1-1.8
		c1.7-0.2,2.5,1.4,2.6,2.5C303.2,409.7,302.5,411,302.2,411.5z"/>
	<circle class="st0" cx="301.2" cy="407.7" r="0.6"/>
</g>
<path class="st0" d="M160.2,340.3c0.1,0.2,0.2,0.4,0.1,0.6l-0.7,4.7c-0.1,0.4-0.4,0.7-0.9,0.6c-0.5-0.1-0.7-0.4-0.6-0.9l0.7-4.7
	c0.1-0.4,0.4-0.7,0.9-0.6C159.9,340,160.1,340.1,160.2,340.3z"/>
<path class="st0" d="M164.9,340.9c0.1,0.2,0.2,0.3,0.1,0.6c-0.1,0.4-0.4,0.7-0.8,0.6l-4.7-0.6c-0.4-0.1-0.7-0.4-0.6-0.8
	c0.1-0.4,0.4-0.7,0.8-0.6l4.7,0.6C164.6,340.7,164.8,340.8,164.9,340.9z"/>
<path class="st0" d="M162.6,343.5c0.1,0.2,0.2,0.4,0.1,0.6l-0.7,4.7c-0.1,0.4-0.4,0.7-0.9,0.6c-0.4-0.1-0.7-0.4-0.6-0.9l0.7-4.7
	c0.1-0.4,0.4-0.7,0.9-0.6C162.3,343.3,162.5,343.4,162.6,343.5z"/>
<path class="st0" d="M167.4,344.2c0.1,0.2,0.2,0.3,0.1,0.6c-0.1,0.4-0.4,0.7-0.8,0.6l-4.7-0.6c-0.4-0.1-0.7-0.4-0.6-0.8
	c0.1-0.4,0.4-0.7,0.8-0.6l4.7,0.6C167.1,343.9,167.2,344,167.4,344.2z"/>
<path class="st0" d="M165.1,346.8c0.1,0.2,0.2,0.4,0.1,0.6l-0.7,4.7c-0.1,0.4-0.4,0.7-0.9,0.6c-0.4-0.1-0.7-0.4-0.6-0.9l0.7-4.7
	c0.1-0.4,0.4-0.7,0.9-0.6C164.8,346.5,165,346.6,165.1,346.8z"/>
<path class="st0" d="M169.8,347.4c0.1,0.2,0.2,0.3,0.1,0.6c-0.1,0.4-0.4,0.7-0.8,0.6l-4.7-0.6c-0.4-0.1-0.7-0.4-0.6-0.8
	c0.1-0.4,0.4-0.7,0.8-0.6l4.7,0.6C169.5,347.2,169.7,347.3,169.8,347.4z"/>
<path class="st0" d="M385.4,381.8c-0.2,0-0.4-0.1-0.5-0.3l-2.9-3.8c-0.3-0.3-0.2-0.8,0.1-1.1c0.3-0.3,0.8-0.2,1.1,0.1l2.9,3.8
	c0.3,0.3,0.2,0.8-0.1,1.1C385.8,381.8,385.6,381.9,385.4,381.8z"/>
<path class="st0" d="M381.7,384.8c-0.2,0-0.4-0.1-0.5-0.3c-0.3-0.3-0.2-0.8,0.1-1.1l3.7-3c0.3-0.3,0.8-0.2,1.1,0.1
	c0.3,0.3,0.2,0.8-0.1,1.1l-3.7,3C382.1,384.8,381.9,384.8,381.7,384.8z"/>
<path class="st0" d="M381.4,381.4c-0.2,0-0.4-0.1-0.5-0.3l-2.9-3.8c-0.3-0.3-0.2-0.8,0.1-1.1c0.3-0.3,0.8-0.2,1.1,0.1l2.9,3.8
	c0.3,0.3,0.2,0.8-0.1,1.1C381.8,381.3,381.6,381.4,381.4,381.4z"/>
<path class="st0" d="M377.7,384.3c-0.2,0-0.4-0.1-0.5-0.3c-0.3-0.3-0.2-0.8,0.1-1.1l3.7-3c0.3-0.3,0.8-0.2,1.1,0.1
	c0.3,0.3,0.2,0.8-0.1,1.1l-3.7,3C378.1,384.3,377.9,384.4,377.7,384.3z"/>
<path class="st0" d="M377.4,380.9c-0.2,0-0.4-0.1-0.5-0.3l-2.9-3.8c-0.3-0.3-0.2-0.8,0.1-1.1c0.3-0.3,0.8-0.2,1.1,0.1l2.9,3.8
	c0.3,0.3,0.2,0.8-0.1,1.1C377.7,380.9,377.5,380.9,377.4,380.9z"/>
<path class="st0" d="M373.6,383.9c-0.2,0-0.4-0.1-0.5-0.3c-0.3-0.3-0.2-0.8,0.1-1.1l3.7-3c0.3-0.3,0.8-0.2,1.1,0.1
	c0.3,0.3,0.2,0.8-0.1,1.1l-3.7,3C374,383.8,373.8,383.9,373.6,383.9z"/>
<path class="st0" d="M240.3,387.7c0-0.1-0.1-0.1,0-0.2l0.5-1.8c0-0.2,0.2-0.3,0.4-0.2c0.2,0,0.3,0.2,0.2,0.4l-0.5,1.8
	c0,0.2-0.2,0.3-0.4,0.2C240.4,387.8,240.3,387.7,240.3,387.7z"/>
<path class="st0" d="M238.5,387.2c0-0.1-0.1-0.1,0-0.2c0-0.2,0.2-0.3,0.4-0.2l1.8,0.5c0.2,0,0.3,0.2,0.2,0.4c0,0.2-0.2,0.3-0.4,0.2
	l-1.8-0.5C238.6,387.3,238.5,387.2,238.5,387.2z"/>
<path class="st0" d="M239.5,386.2c0-0.1-0.1-0.1,0-0.2l0.5-1.8c0-0.2,0.2-0.3,0.4-0.2c0.2,0,0.3,0.2,0.2,0.4l-0.5,1.8
	c0,0.2-0.2,0.3-0.4,0.2C239.6,386.4,239.5,386.3,239.5,386.2z"/>
<path class="st0" d="M237.7,385.7c0-0.1-0.1-0.1,0-0.2c0-0.2,0.2-0.3,0.4-0.2l1.8,0.5c0.2,0,0.3,0.2,0.2,0.4c0,0.2-0.2,0.3-0.4,0.2
	l-1.8-0.5C237.8,385.9,237.7,385.8,237.7,385.7z"/>
<path class="st0" d="M238.7,384.8c0-0.1-0.1-0.1,0-0.2l0.5-1.8c0-0.2,0.2-0.3,0.4-0.2c0.2,0,0.3,0.2,0.2,0.4l-0.5,1.8
	c0,0.2-0.2,0.3-0.4,0.2C238.8,384.9,238.7,384.9,238.7,384.8z"/>
<path class="st0" d="M236.9,384.3c0-0.1-0.1-0.1,0-0.2c0-0.2,0.2-0.3,0.4-0.2l1.8,0.5c0.2,0,0.3,0.2,0.2,0.4c0,0.2-0.2,0.3-0.4,0.2
	l-1.8-0.5C237,384.5,236.9,384.4,236.9,384.3z"/>
<path class="st0" d="M264.3,364.7c-0.1,0-0.2-0.1-0.3-0.3l-1.3-2.9c-0.1-0.3,0-0.6,0.3-0.7c0.3-0.1,0.6,0,0.7,0.3l1.3,2.9
	c0.1,0.3,0,0.6-0.3,0.7C264.6,364.8,264.4,364.8,264.3,364.7z"/>
<path class="st0" d="M261.4,366.1c-0.1,0-0.2-0.1-0.3-0.3c-0.1-0.3,0-0.6,0.2-0.7l2.9-1.4c0.3-0.1,0.6,0,0.7,0.2
	c0.1,0.3,0,0.6-0.2,0.7l-2.9,1.4C261.7,366.1,261.5,366.1,261.4,366.1z"/>
<path class="st0" d="M261.7,363.8c-0.1,0-0.2-0.1-0.3-0.3l-1.3-2.9c-0.1-0.3,0-0.6,0.3-0.7s0.6,0,0.7,0.3l1.3,2.9
	c0.1,0.3,0,0.6-0.3,0.7C262,363.8,261.9,363.8,261.7,363.8z"/>
<path class="st0" d="M258.8,365.1c-0.1,0-0.2-0.1-0.3-0.3c-0.1-0.3,0-0.6,0.2-0.7l2.9-1.4c0.3-0.1,0.6,0,0.7,0.2
	c0.1,0.3,0,0.6-0.2,0.7l-2.9,1.4C259.1,365.2,259,365.2,258.8,365.1z"/>
<path class="st0" d="M259.2,362.8c-0.1,0-0.2-0.1-0.3-0.3l-1.3-2.9c-0.1-0.3,0-0.6,0.3-0.7s0.6,0,0.7,0.3l1.3,2.9
	c0.1,0.3,0,0.6-0.3,0.7C259.4,362.8,259.3,362.8,259.2,362.8z"/>
<path class="st0" d="M256.3,364.2c-0.1,0-0.2-0.1-0.3-0.3c-0.1-0.3,0-0.6,0.2-0.7l2.9-1.4c0.3-0.1,0.6,0,0.7,0.2
	c0.1,0.3,0,0.6-0.2,0.7l-2.9,1.4C256.5,364.2,256.4,364.2,256.3,364.2z"/>
<path class="st0" d="M241.3,458.8c-0.1,0-0.3,0-0.4-0.1l-2.5-2c-0.2-0.2-0.3-0.5-0.1-0.7s0.5-0.3,0.7-0.1l2.5,2
	c0.2,0.2,0.3,0.5,0.1,0.7C241.6,458.8,241.4,458.8,241.3,458.8z"/>
<path class="st0" d="M239.3,461.4c-0.1,0-0.3,0-0.4-0.1c-0.2-0.2-0.3-0.5-0.1-0.7l2-2.5c0.2-0.2,0.5-0.3,0.7-0.1
	c0.2,0.2,0.3,0.5,0.1,0.7l-2,2.5C239.6,461.3,239.5,461.3,239.3,461.4z"/>
<path class="st0" d="M238.6,459.1c-0.1,0-0.3,0-0.4-0.1l-2.5-2c-0.2-0.2-0.3-0.5-0.1-0.7c0.2-0.2,0.5-0.3,0.7-0.1l2.5,2
	c0.2,0.2,0.3,0.5,0.1,0.7C238.8,459.1,238.7,459.1,238.6,459.1z"/>
<path class="st0" d="M236.6,461.7c-0.1,0-0.3,0-0.4-0.1c-0.2-0.2-0.3-0.5-0.1-0.7l2-2.5c0.2-0.2,0.5-0.3,0.7-0.1s0.3,0.5,0.1,0.7
	l-2,2.5C236.9,461.6,236.7,461.7,236.6,461.7z"/>
<path class="st0" d="M235.9,459.4c-0.1,0-0.3,0-0.4-0.1l-2.5-2c-0.2-0.2-0.3-0.5-0.1-0.7c0.2-0.2,0.5-0.3,0.7-0.1l2.5,2
	c0.2,0.2,0.3,0.5,0.1,0.7C236.1,459.4,236,459.4,235.9,459.4z"/>
<path class="st0" d="M233.9,462c-0.1,0-0.3,0-0.4-0.1c-0.2-0.2-0.3-0.5-0.1-0.7l2-2.5c0.2-0.2,0.5-0.3,0.7-0.1
	c0.2,0.2,0.3,0.5,0.1,0.7l-2,2.5C234.1,461.9,234,462,233.9,462z"/>
<path class="st0" d="M79.5,459.1c0.1,0,0.3,0,0.4,0l2.9,1.5c0.3,0.1,0.4,0.4,0.2,0.7c-0.1,0.3-0.4,0.4-0.7,0.2l-2.9-1.5
	c-0.3-0.1-0.4-0.4-0.2-0.7C79.3,459.2,79.4,459.1,79.5,459.1z"/>
<path class="st0" d="M80.9,456.2c0.1,0,0.3,0,0.4,0c0.3,0.1,0.4,0.4,0.2,0.7l-1.4,2.9c-0.1,0.3-0.4,0.4-0.7,0.2
	c-0.3-0.1-0.4-0.4-0.2-0.7l1.4-2.9C80.7,456.3,80.8,456.2,80.9,456.2z"/>
<path class="st0" d="M82.1,458.2c0.1,0,0.3,0,0.4,0l2.9,1.5c0.3,0.1,0.4,0.4,0.2,0.7c-0.1,0.2-0.4,0.4-0.7,0.2l-2.9-1.5
	c-0.3-0.1-0.4-0.4-0.2-0.7C81.9,458.3,82,458.2,82.1,458.2z"/>
<path class="st0" d="M83.5,455.3c0.1,0,0.3,0,0.4,0c0.3,0.1,0.4,0.4,0.2,0.7l-1.4,2.9c-0.1,0.3-0.4,0.4-0.7,0.2
	c-0.3-0.1-0.4-0.4-0.2-0.7l1.4-2.9C83.3,455.4,83.4,455.3,83.5,455.3z"/>
<path class="st0" d="M84.7,457.3c0.1,0,0.3,0,0.4,0l2.9,1.5c0.3,0.1,0.4,0.4,0.2,0.7s-0.4,0.4-0.7,0.2l-2.9-1.5
	c-0.3-0.1-0.4-0.4-0.2-0.7C84.5,457.4,84.6,457.4,84.7,457.3z"/>
<path class="st0" d="M86.1,454.4c0.1,0,0.3,0,0.4,0c0.3,0.1,0.4,0.4,0.2,0.7l-1.4,2.9c-0.1,0.3-0.4,0.4-0.7,0.2
	c-0.3-0.1-0.4-0.4-0.2-0.7l1.4-2.9C85.9,454.5,86,454.5,86.1,454.4z"/>
<path class="st0" d="M72.2,353.9c-0.1,0-0.2,0-0.3-0.1l-4.2-4.8c-0.1-0.1-0.1-0.2-0.1-0.3c0-0.1,0.1-0.2,0.2-0.3
	c0.1-0.1,3.3-1.9,5.3,0.4c1.8,2-0.4,4.9-0.5,5.1c0,0,0,0-0.1,0.1C72.4,353.9,72.3,353.9,72.2,353.9z M72.2,352.8
	c0.5-0.8,1.3-2.4,0.3-3.6c-1.1-1.3-2.9-0.8-3.7-0.4L72.2,352.8z"/>
<path class="st0" d="M68.8,349.5l1.6-1.4c0.1-0.1,0.1-0.2,0-0.3c-0.1-0.1-0.2-0.1-0.3,0l-1.6,1.4c-0.1,0.1-0.1,0.2,0,0.3
	S68.7,349.6,68.8,349.5z"/>
<path class="st0" d="M69.3,350.1l2-1.8c0.1-0.1,0.1-0.2,0-0.3c-0.1-0.1-0.2-0.1-0.3,0l-2,1.8c-0.1,0.1-0.1,0.2,0,0.3
	C69.1,350.1,69.2,350.1,69.3,350.1z"/>
<path class="st0" d="M69.7,350.6l2.4-2.1c0.1-0.1,0.1-0.2,0-0.3c-0.1-0.1-0.2-0.1-0.3,0l-2.4,2.1c-0.1,0.1-0.1,0.2,0,0.3
	C69.6,350.7,69.7,350.7,69.7,350.6z"/>
<path class="st0" d="M70.2,351.2l2.3-2c0.1-0.1,0.1-0.2,0-0.3s-0.2-0.1-0.3,0l-2.3,2c-0.1,0.1-0.1,0.2,0,0.3
	C70,351.2,70.1,351.3,70.2,351.2z"/>
<path class="st0" d="M70.7,351.8l2.3-2c0.1-0.1,0.1-0.2,0-0.3s-0.2-0.1-0.3,0l-2.3,2c-0.1,0.1-0.1,0.2,0,0.3
	C70.5,351.8,70.6,351.8,70.7,351.8z"/>
<path class="st0" d="M71.2,352.3l2-1.8c0.1-0.1,0.1-0.2,0-0.3c-0.1-0.1-0.2-0.1-0.3,0L71,352c-0.1,0.1-0.1,0.2,0,0.3
	C71,352.4,71.1,352.4,71.2,352.3z"/>
<path class="st0" d="M71.7,352.9l1.7-1.5c0.1-0.1,0.1-0.2,0-0.3s-0.2-0.1-0.3,0l-1.7,1.5c-0.1,0.1-0.1,0.2,0,0.3
	C71.5,352.9,71.6,352.9,71.7,352.9z"/>
<path class="st0" d="M72.8,349"/>
<path class="st0" d="M220.4,348.4c0-0.1-0.1-0.2-0.2-0.3h-0.1c-0.2-0.1-4.4-1.6-6.2,1.2c-2,3.1,1.3,6.3,1.4,6.4
	c0.1,0.1,0.3,0.2,0.4,0.1c0.2,0,0.3-0.1,0.4-0.2l4.2-6.7C220.4,348.7,220.4,348.5,220.4,348.4z M218.9,349.1l-0.7-0.4
	c0.3,0,0.6,0.1,0.9,0.2L218.9,349.1z M218.4,349.9l-1.9-1.2c0.3,0,0.5-0.1,0.8-0.1l1.4,0.9L218.4,349.9z M217.9,350.7l-2.5-1.6
	c0.2-0.1,0.3-0.2,0.5-0.3l2.3,1.4L217.9,350.7z M217.4,351.5l-2.7-1.7c0.1-0.1,0.2-0.3,0.3-0.4l2.6,1.7L217.4,351.5z M216.9,352.2
	l-2.6-1.6c0-0.1,0.1-0.3,0.2-0.4l2.6,1.7L216.9,352.2z M216.4,353l-2.1-1.3c0-0.2,0-0.4,0-0.6l2.4,1.5L216.4,353z M216,353.8
	l-1.3-0.8c-0.1-0.2-0.2-0.5-0.3-0.7l1.8,1.1L216,353.8z M215.6,354.4c-0.1-0.2-0.3-0.4-0.4-0.6l0.6,0.4L215.6,354.4z"/>
<path class="st0" d="M284.4,453.5c-0.1,0.1-0.1,0.1-0.2,0.2v0.1c0,0.1-0.3,3.7,2.2,4.4c2.7,0.8,4.4-2.3,4.5-2.4
	c0.1-0.1,0.1-0.2,0-0.3c0-0.1-0.1-0.2-0.3-0.2l-5.9-1.7C284.7,453.5,284.5,453.5,284.4,453.5z M285.3,454.5l-0.2,0.6
	c0-0.3-0.1-0.5-0.1-0.7L285.3,454.5z M286,454.7l-0.5,1.7c-0.1-0.2-0.2-0.4-0.2-0.6l0.4-1.2L286,454.7z M286.7,454.9l-0.6,2.2
	c-0.1-0.1-0.2-0.2-0.3-0.3l0.6-2L286.7,454.9z M287.4,455.1l-0.7,2.4c-0.1,0-0.2-0.1-0.4-0.2l0.7-2.3L287.4,455.1z M288.1,455.3
	l-0.7,2.3c-0.1,0-0.2,0-0.4,0l0.7-2.3H288.1z M288.8,455.5l-0.6,1.9c-0.1,0.1-0.3,0.1-0.4,0.1l0.6-2.1L288.8,455.5z M289.4,455.7
	l-0.3,1.1c-0.1,0.1-0.3,0.3-0.5,0.4l0.5-1.6L289.4,455.7z M290,455.8c-0.1,0.1-0.2,0.3-0.3,0.4l0.1-0.5L290,455.8z"/>
<polygon class="st0" points="144.6,385.1 143.2,382.5 146.1,382.5 "/>
<polygon class="st0" points="69.9,434.5 64.9,431.9 69.4,430 "/>
<polygon class="st0" points="263.1,423 255.3,425.1 258.2,418.8 "/>
<polygon class="st0" points="333.7,350.3 332.3,344.2 337.1,346.7 "/>
<polygon class="st0" points="379.7,421.3 376.6,419.5 379.5,418.4 "/>
<path class="st0" d="M148,425.1c-0.2,0.1-0.4,0-0.4-0.2l-3.6-9c-0.1-0.2,0-0.4,0.2-0.4c0.2-0.1,0.4,0,0.4,0.2l3.6,9
	C148.2,424.8,148.1,425,148,425.1z"/>
<path class="st0" d="M144.3,416.1c-0.1,0-0.2,0-0.2,0c-0.2-0.1-0.2-0.3-0.2-0.4l0.9-2.2c0-0.1,0.2-0.6,0.7-0.8
	c0.2-0.1,0.5-0.1,0.7,0c0.4,0.1,0.8,0.5,0.5,1.4l0,0c0,0.2-0.2,0.3-0.4,0.2c-0.2,0-0.3-0.2-0.2-0.4c0,0,0,0,0-0.1
	c0.1-0.4,0-0.5-0.1-0.6c-0.3-0.1-0.5,0.4-0.6,0.4l0,0l-0.9,2.2C144.4,416,144.4,416,144.3,416.1z"/>
<path class="st0" d="M145,417.8c-0.1,0-0.2,0-0.2,0c-0.2-0.1-0.2-0.3-0.2-0.4l1.7-4c0.1-0.2,0.3-0.2,0.4-0.2
	c0.2,0.1,0.2,0.3,0.2,0.4l-1.7,4C145.1,417.7,145.1,417.8,145,417.8z"/>
<path class="st0" d="M145.8,419.5c-0.1,0-0.2,0-0.2,0c-0.2-0.1-0.2-0.3-0.2-0.4l2.2-5.4c0-0.1,0-0.3,0-0.3c0-0.1-0.1-0.1-0.2-0.1
	c-0.3-0.1-0.6,0.7-0.6,0.9c0,0.2-0.2,0.3-0.4,0.2c-0.2,0-0.3-0.2-0.2-0.4c0.1-0.6,0.6-1.5,1.4-1.3c0.4,0.1,0.6,0.3,0.6,0.4
	c0.1,0.2,0.2,0.5,0.1,0.9l0,0l-2.3,5.3C146,419.4,145.9,419.4,145.8,419.5z"/>
<path class="st0" d="M146.5,421.5c-0.1,0-0.2,0-0.2,0c-0.2-0.1-0.2-0.3-0.2-0.4l2.8-6.7l0,0c0.1-0.1,0.2-0.5,0.1-0.7
	c0,0-0.1-0.1-0.2-0.2c-0.1,0-0.2,0-0.3,0c-0.2,0.1-0.3,0.3-0.3,0.4c0,0.2-0.2,0.3-0.4,0.2c-0.2,0-0.3-0.2-0.2-0.4
	c0-0.1,0.2-0.6,0.6-0.8c0.2-0.1,0.5-0.2,0.8-0.1c0.4,0.1,0.6,0.3,0.6,0.5c0.2,0.5,0,1.2-0.1,1.3l-2.8,6.7
	C146.6,421.4,146.5,421.4,146.5,421.5z"/>
<path class="st0" d="M147.2,423.3c-0.1,0-0.2,0-0.2,0c-0.2-0.1-0.2-0.3-0.2-0.4l3.1-7.3l0,0c0.2-0.4,0.3-0.8,0.4-0.9
	c0-0.3-0.2-0.4-0.3-0.4c-0.2,0-0.5,0-0.6,0.4c0,0.2-0.2,0.3-0.4,0.2c-0.2,0-0.3-0.2-0.2-0.4c0.2-0.7,0.8-1,1.3-0.9
	c0.5,0.1,0.9,0.6,0.8,1.1c0,0.3-0.3,0.9-0.4,1.1l-3.1,7.3C147.4,423.2,147.3,423.3,147.2,423.3z"/>
<path class="st0" d="M148,425.2c-0.1,0-0.2,0-0.2,0c-0.2-0.1-0.2-0.3-0.2-0.4l3.1-7.3l0,0c0.2-0.4,0.4-0.9,0.4-1.1s-0.2-0.3-0.3-0.3
	c-0.2,0-0.4,0.1-0.5,0.4c0,0.2-0.2,0.3-0.4,0.2c-0.2,0-0.3-0.2-0.2-0.4c0.2-0.7,0.7-0.9,1.1-0.9c0.5,0.1,0.9,0.4,0.9,0.9
	c0,0.4-0.3,1.2-0.4,1.4l-3.1,7.3C148.1,425.1,148.1,425.2,148,425.2z"/>
<path class="st0" d="M144.3,416.1c-0.1,0-0.2,0-0.3,0l-2.1-0.9l0,0c-0.1,0-0.5-0.2-0.7,0.1c-0.1,0.1-0.1,0.3,0.3,0.5h0.1
	c0.1,0.1,0.2,0.3,0.1,0.4c-0.1,0.1-0.3,0.2-0.4,0.1l0,0c-0.8-0.5-0.7-1-0.6-1.3c0.1-0.2,0.3-0.4,0.5-0.5c0.5-0.2,0.9,0.1,1,0.1
	l2.1,0.9c0.2,0.1,0.2,0.3,0.2,0.4C144.4,416,144.4,416.1,144.3,416.1z"/>
<path class="st0" d="M145,417.8c-0.1,0-0.2,0-0.2,0l-4-1.7c-0.2-0.1-0.2-0.3-0.2-0.4c0.1-0.2,0.3-0.2,0.4-0.2l4,1.7
	c0.2,0.1,0.2,0.3,0.2,0.4C145.1,417.7,145.1,417.8,145,417.8z"/>
<path class="st0" d="M145.6,419.6c-0.1,0-0.2,0-0.3,0l-5.3-2.4l0,0c-0.3-0.2-0.5-0.4-0.5-0.7c0-0.2,0-0.4,0.2-0.7
	c0.5-0.7,1.4-0.3,1.9,0c0.2,0.1,0.2,0.3,0.1,0.4c-0.1,0.2-0.3,0.2-0.4,0.1l0,0c-0.2-0.1-0.9-0.5-1.1-0.2c-0.1,0.1-0.1,0.2-0.1,0.2
	c0,0.1,0.1,0.2,0.2,0.3l5.3,2.4c0.2,0.1,0.2,0.3,0.2,0.4C145.7,419.5,145.7,419.6,145.6,419.6z"/>
<path class="st0" d="M146.5,421.5c-0.1,0-0.2,0-0.2,0l-6.6-2.9c-0.1,0-0.8-0.3-0.9-0.8c-0.1-0.2-0.1-0.5,0.1-0.8
	c0.1-0.2,0.3-0.4,0.6-0.5c0.5-0.1,0.9,0.1,1,0.2c0.2,0.1,0.2,0.3,0.1,0.4c-0.1,0.2-0.3,0.2-0.4,0.1c-0.1,0-0.3-0.1-0.5-0.1
	c-0.1,0-0.1,0-0.2,0.2c-0.1,0.1-0.1,0.2,0,0.3c0.1,0.2,0.4,0.4,0.6,0.5l0,0l6.6,2.9c0.2,0.1,0.2,0.3,0.2,0.4
	C146.6,421.4,146.6,421.4,146.5,421.5z"/>
<path class="st0" d="M147.2,423.3c-0.1,0-0.2,0-0.2,0l-7.3-3.1c-0.2-0.1-0.9-0.3-1.1-0.5c-0.4-0.3-0.5-0.9-0.2-1.4
	c0.3-0.4,0.9-0.7,1.5-0.3c0.2,0.1,0.2,0.3,0.1,0.4c-0.1,0.2-0.3,0.2-0.4,0.1c-0.3-0.2-0.6-0.1-0.7,0.1c-0.1,0.1-0.1,0.3,0.1,0.5
	c0.1,0.1,0.5,0.3,0.9,0.4l0,0l7.3,3.1c0.2,0.1,0.2,0.3,0.2,0.4C147.4,423.2,147.3,423.3,147.2,423.3z"/>
<path class="st0" d="M148,425.2c-0.1,0-0.2,0-0.2,0l-7.3-3.1c-0.2-0.1-1-0.4-1.3-0.7c-0.3-0.4-0.3-0.9,0-1.3
	c0.3-0.3,0.8-0.5,1.4-0.2c0.2,0.1,0.2,0.3,0.1,0.4c-0.1,0.2-0.3,0.2-0.4,0.1c-0.3-0.2-0.5-0.1-0.6,0s-0.1,0.3,0,0.5
	c0.1,0.1,0.6,0.4,1,0.6l0,0l7.3,3.1c0.2,0.1,0.2,0.3,0.2,0.4C148.1,425.1,148.1,425.2,148,425.2z"/>
<circle class="st0" cx="143.4" cy="413.9" r="0.5"/>
<path class="st0" d="M382,456.9c0,0.1-0.2,0.1-0.2,0.1l-4.7-2.7c-0.1,0-0.1-0.2-0.1-0.2l0.2-0.1l4.7,2.7
	C382.1,456.7,382.1,456.9,382,456.9z"/>
<path class="st0" d="M377.3,454.3l-0.1,0.1c-0.1,0-0.2,0-0.2-0.1l-0.4-1.3c0,0-0.1-0.3,0-0.6c0.1-0.1,0.2-0.2,0.3-0.3
	c0.2-0.1,0.5-0.1,0.7,0.4l0,0c0,0.1,0,0.2-0.1,0.2s-0.2,0-0.2-0.1l0,0c-0.1-0.2-0.2-0.2-0.3-0.2c-0.2,0.1-0.1,0.3-0.1,0.4l0,0
	l0.4,1.3C377.3,454.2,377.3,454.2,377.3,454.3z"/>
<path class="st0" d="M378.2,454.8l-0.1,0.1c-0.1,0-0.2,0-0.2-0.1l-0.6-2.3c0-0.1,0-0.2,0.1-0.2s0.2,0,0.2,0.1L378.2,454.8
	C378.2,454.7,378.2,454.7,378.2,454.8z"/>
<path class="st0" d="M379.1,455.2l-0.1,0.1c-0.1,0-0.2,0-0.2-0.1l-0.9-3.1c0-0.1-0.1-0.1-0.1-0.1h-0.1c-0.2,0.1,0,0.5,0,0.6
	c0,0.1,0,0.2-0.1,0.2s-0.2,0-0.2-0.1c-0.1-0.3-0.3-0.9,0.1-1.1c0.2-0.1,0.3-0.1,0.4,0c0.1,0,0.3,0.2,0.3,0.3l0,0l0.9,3.1
	C379.2,455.1,379.2,455.2,379.1,455.2z"/>
<path class="st0" d="M380.1,455.9L380,456c-0.1,0-0.2,0-0.2-0.1l-1.1-3.9l0,0c0-0.1-0.1-0.3-0.2-0.4c0,0-0.1,0-0.2,0
	s-0.1,0.1-0.1,0.1c0,0.1,0,0.2,0,0.3c0,0.1,0,0.2-0.1,0.2s-0.2,0-0.2-0.1c0,0-0.1-0.3,0-0.6c0.1-0.1,0.2-0.2,0.3-0.3
	c0.2-0.1,0.4,0,0.5,0c0.3,0.1,0.4,0.5,0.4,0.6l1.1,3.9C380.2,455.8,380.1,455.8,380.1,455.9z"/>
<path class="st0" d="M381.1,456.4l-0.1,0.1c-0.1,0-0.2,0-0.2-0.1l-1.2-4.3l0,0c-0.1-0.2-0.1-0.5-0.2-0.5c-0.1-0.1-0.2-0.1-0.3-0.1
	c-0.1,0.1-0.2,0.2-0.1,0.4c0,0.1,0,0.2-0.1,0.2s-0.2,0-0.2-0.1c-0.2-0.4,0-0.7,0.3-0.8c0.3-0.1,0.6-0.1,0.7,0.2
	c0.1,0.1,0.2,0.5,0.2,0.6l1.2,4.3C381.1,456.3,381.1,456.4,381.1,456.4z"/>
<path class="st0" d="M382.1,457l-0.1,0.1c-0.1,0-0.2,0-0.2-0.1l-1.2-4.3l0,0c-0.1-0.2-0.2-0.5-0.2-0.6c-0.1-0.1-0.2-0.1-0.3,0
	c-0.1,0.1-0.1,0.2-0.1,0.3s0,0.2-0.1,0.2s-0.2,0-0.2-0.1c-0.2-0.4,0-0.7,0.2-0.8s0.5-0.1,0.7,0.1s0.3,0.7,0.3,0.8l1.2,4.3
	C382.1,456.9,382.1,456.9,382.1,457z"/>
<path class="st0" d="M377.3,454.3l-0.1,0.1l-1.3,0.3l0,0c0,0-0.3,0.1-0.3,0.3c0,0.1,0.1,0.2,0.3,0.1l0,0c0.1,0,0.2,0.1,0.2,0.2
	s-0.1,0.2-0.2,0.2l0,0c-0.5,0.1-0.7-0.2-0.7-0.4c0-0.1,0-0.3,0.1-0.4c0.1-0.2,0.4-0.3,0.5-0.3l1.3-0.3
	C377.2,454.1,377.3,454.1,377.3,454.3C377.3,454.2,377.3,454.2,377.3,454.3z"/>
<path class="st0" d="M378.2,454.8l-0.1,0.1l-2.3,0.6c-0.1,0-0.2,0-0.2-0.1c0-0.1,0-0.2,0.1-0.2l2.3-0.6
	C378.1,454.6,378.2,454.6,378.2,454.8C378.2,454.7,378.2,454.7,378.2,454.8z"/>
<path class="st0" d="M379.1,455.4l-0.1,0.1l-3.1,0.8l0,0c-0.2,0-0.4,0-0.5-0.1c-0.1-0.1-0.2-0.2-0.2-0.4c0-0.5,0.5-0.6,0.8-0.7
	c0.1,0,0.2,0.1,0.2,0.2c0,0.1-0.1,0.2-0.2,0.2l0,0c-0.1,0-0.5,0.1-0.5,0.3c0,0.1,0,0.1,0,0.1s0.1,0,0.2,0l3.1-0.8
	c0.1,0,0.2,0,0.2,0.1C379.1,455.3,379.1,455.3,379.1,455.4z"/>
<path class="st0" d="M380.1,455.9L380,456l-3.9,1.1c-0.1,0-0.4,0.1-0.7,0c-0.1-0.1-0.2-0.2-0.2-0.4s0-0.3,0.1-0.4
	c0.2-0.2,0.5-0.3,0.5-0.3c0.1,0,0.2,0.1,0.2,0.2c0,0.1-0.1,0.2-0.2,0.2c0,0-0.2,0-0.2,0.1v0.1c0,0.1,0,0.1,0.1,0.1
	c0.1,0.1,0.3,0,0.4,0l0,0l3.9-1.1c0.1,0,0.2,0,0.2,0.1C380.2,455.8,380.2,455.8,380.1,455.9z"/>
<path class="st0" d="M381.1,456.4l-0.1,0.1l-4.3,1.2c-0.1,0-0.5,0.1-0.6,0.2c-0.3,0-0.5-0.2-0.6-0.5c0-0.3,0.1-0.6,0.6-0.7
	c0.1,0,0.2,0.1,0.2,0.2s-0.1,0.2-0.2,0.2c-0.2,0-0.3,0.2-0.3,0.3s0.1,0.2,0.2,0.2s0.3-0.1,0.5-0.1l0,0l4.3-1.2
	C380.9,456.3,381,456.3,381.1,456.4C381.1,456.3,381.1,456.4,381.1,456.4z"/>
<path class="st0" d="M382.1,457l-0.1,0.1l-4.3,1.2c-0.1,0-0.6,0.2-0.8,0.1c-0.3-0.1-0.4-0.3-0.4-0.6c0-0.2,0.2-0.5,0.6-0.6
	c0.1,0,0.2,0.1,0.2,0.2s-0.1,0.2-0.2,0.2c-0.2,0-0.3,0.1-0.3,0.2c0,0.1,0.1,0.2,0.1,0.2c0.1,0,0.4,0,0.6-0.1l0,0l4.3-1.2
	c0.1,0,0.2,0,0.2,0.1C382.1,456.9,382.1,456.9,382.1,457z"/>
<circle class="st0" cx="376.2" cy="453.6" r="0.3"/>
<path class="st0" d="M294.3,356.4c0,0.1-0.2,0.1-0.2,0.1l-4.7-2.7c-0.1,0-0.1-0.2-0.1-0.2c0-0.1,0.2-0.1,0.2-0.1l4.7,2.7
	C294.3,356.2,294.4,356.3,294.3,356.4z"/>
<path class="st0" d="M289.6,353.7l-0.1,0.1c-0.1,0-0.2,0-0.2-0.1l-0.4-1.3c0,0-0.1-0.3,0-0.6c0.1-0.1,0.2-0.2,0.3-0.3
	c0.2-0.1,0.5-0.1,0.7,0.4l0,0c0,0.1,0,0.2-0.1,0.2c-0.1,0-0.2,0-0.2-0.1l0,0c-0.1-0.2-0.2-0.2-0.3-0.2c-0.2,0.1-0.1,0.3-0.1,0.4l0,0
	l0.4,1.3C289.6,353.6,289.6,353.7,289.6,353.7z"/>
<path class="st0" d="M290.5,354.3l-0.1,0.1c-0.1,0-0.2,0-0.2-0.1l-0.6-2.3c0-0.1,0-0.2,0.1-0.2c0.1,0,0.2,0,0.2,0.1L290.5,354.3
	C290.5,354.2,290.5,354.2,290.5,354.3z"/>
<path class="st0" d="M291.4,354.7l-0.1,0.1c-0.1,0-0.2,0-0.2-0.1l-0.9-3.1c0-0.1-0.1-0.1-0.1-0.1H290c-0.2,0.1,0,0.5,0,0.6
	s0,0.2-0.1,0.2c-0.1,0-0.2,0-0.2-0.1c-0.1-0.3-0.3-0.9,0.1-1.1c0.2-0.1,0.3-0.1,0.4,0c0.1,0,0.3,0.2,0.3,0.3l0,0l0.9,3.1
	C291.5,354.6,291.5,354.7,291.4,354.7z"/>
<path class="st0" d="M292.4,355.3l-0.1,0.1c-0.1,0-0.2,0-0.2-0.1l-1.1-3.9l0,0c0-0.1-0.1-0.3-0.2-0.4c0,0-0.1,0-0.2,0
	c-0.1,0-0.1,0.1-0.1,0.1c0,0.1,0,0.2,0,0.3s0,0.2-0.1,0.2c-0.1,0-0.2,0-0.2-0.1c0,0-0.1-0.3,0-0.6c0.1-0.1,0.2-0.2,0.3-0.3
	c0.2-0.1,0.4,0,0.5,0c0.3,0.1,0.4,0.5,0.4,0.6l1.1,3.9C292.4,355.2,292.4,355.3,292.4,355.3z"/>
<path class="st0" d="M293.4,355.9l-0.1,0.1c-0.1,0-0.2,0-0.2-0.1l-1.2-4.3l0,0c-0.1-0.2-0.1-0.5-0.2-0.5c-0.1-0.1-0.2-0.1-0.3-0.1
	c-0.1,0.1-0.2,0.2-0.1,0.4c0,0.1,0,0.2-0.1,0.2s-0.2,0-0.2-0.1c-0.2-0.4,0-0.7,0.3-0.8c0.3-0.1,0.6-0.1,0.7,0.2
	c0.1,0.1,0.2,0.5,0.2,0.6l1.2,4.3C293.4,355.8,293.4,355.8,293.4,355.9z"/>
<path class="st0" d="M294.4,356.4l-0.1,0.1c-0.1,0-0.2,0-0.2-0.1l-1.2-4.3l0,0c-0.1-0.2-0.2-0.5-0.2-0.6c-0.1-0.1-0.2-0.1-0.3,0
	s-0.1,0.2-0.1,0.3c0,0.1,0,0.2-0.1,0.2s-0.2,0-0.2-0.1c-0.2-0.4,0-0.7,0.2-0.8s0.5-0.1,0.7,0.1c0.2,0.2,0.3,0.7,0.3,0.8l1.2,4.3
	C294.4,356.4,294.4,356.4,294.4,356.4z"/>
<path class="st0" d="M289.6,353.7l-0.1,0.1l-1.3,0.3l0,0c0,0-0.3,0.1-0.3,0.3c0,0.1,0.1,0.2,0.3,0.1l0,0c0.1,0,0.2,0.1,0.2,0.2
	c0,0.1-0.1,0.2-0.2,0.2l0,0c-0.5,0.1-0.7-0.2-0.7-0.4c0-0.1,0-0.3,0.1-0.4c0.1-0.2,0.4-0.3,0.5-0.3l1.3-0.3c0.1,0,0.2,0,0.2,0.1
	S289.6,353.7,289.6,353.7z"/>
<path class="st0" d="M290.5,354.3l-0.1,0.1l-2.3,0.6c-0.1,0-0.2,0-0.2-0.1s0-0.2,0.1-0.2l2.3-0.6
	C290.4,354.1,290.5,354.1,290.5,354.3C290.5,354.2,290.5,354.2,290.5,354.3z"/>
<path class="st0" d="M291.4,354.8l-0.1,0.1l-3.1,0.8l0,0c-0.2,0-0.4,0-0.5-0.1s-0.2-0.2-0.2-0.4c0-0.5,0.5-0.6,0.8-0.7
	c0.1,0,0.2,0.1,0.2,0.2c0,0.1-0.1,0.2-0.2,0.2l0,0c-0.1,0-0.5,0.1-0.5,0.3c0,0.1,0,0.1,0,0.1s0.1,0,0.2,0l3.1-0.8
	c0.1,0,0.2,0,0.2,0.1C291.4,354.7,291.4,354.8,291.4,354.8z"/>
<path class="st0" d="M292.4,355.3l-0.1,0.1l-3.9,1.1c-0.1,0-0.4,0.1-0.7,0c-0.1-0.1-0.2-0.2-0.2-0.4c0-0.2,0-0.3,0.1-0.4
	c0.2-0.2,0.5-0.3,0.5-0.3c0.1,0,0.2,0.1,0.2,0.2c0,0.1-0.1,0.2-0.2,0.2c0,0-0.2,0-0.2,0.1v0.1c0,0.1,0,0.1,0.1,0.1
	c0.1,0.1,0.3,0,0.4,0l0,0l3.9-1.1c0.1,0,0.2,0,0.2,0.1C292.5,355.3,292.4,355.3,292.4,355.3z"/>
<path class="st0" d="M293.4,355.9l-0.1,0.1l-4.3,1.2c-0.1,0-0.5,0.1-0.6,0.2c-0.3,0-0.5-0.2-0.6-0.5c0-0.3,0.1-0.6,0.6-0.7
	c0.1,0,0.2,0.1,0.2,0.2s-0.1,0.2-0.2,0.2c-0.2,0-0.3,0.2-0.3,0.3s0.1,0.2,0.2,0.2c0.1,0,0.3-0.1,0.5-0.1l0,0l4.3-1.2
	c0.1,0,0.2,0,0.2,0.1C293.4,355.8,293.4,355.9,293.4,355.9z"/>
<path class="st0" d="M294.4,356.5l-0.1,0.1l-4.3,1.2c-0.1,0-0.6,0.2-0.8,0.1c-0.3-0.1-0.4-0.3-0.4-0.6c0-0.2,0.2-0.5,0.6-0.6
	c0.1,0,0.2,0.1,0.2,0.2s-0.1,0.2-0.2,0.2c-0.2,0-0.3,0.1-0.3,0.2c0,0.1,0.1,0.2,0.1,0.2c0.1,0,0.4,0,0.6-0.1l0,0l4.3-1.2
	c0.1,0,0.2,0,0.2,0.1C294.4,356.4,294.4,356.4,294.4,356.5z"/>
<circle class="st0" cx="288.5" cy="353.1" r="0.3"/>
<path class="st0" d="M386.2,350.1l-4.4,0.6c-0.1,0-0.3,0-0.3,0.1c-0.1,0.1-0.1,0.3-0.1,0.4l-0.7,4.2c0,0.1,0,0.2,0.1,0.3
	c0.1,0.1,0.2,0.1,0.3,0.1l4.4-0.4c0.1,0.1,0.3,0,0.4-0.1c0.1-0.1,0.1-0.2,0.1-0.3l0.6-4.6c0-0.1,0-0.2-0.1-0.3
	C386.4,350.1,386.3,350.1,386.2,350.1z M385.7,351.6l-1.6,1.5l-0.2-0.3l0.1-0.1l0,0l1.7-1.7V351.6z M385.6,352.7l-1,0.9l-0.2-0.3
	l1.3-1.2L385.6,352.7z M385.4,353.7l-0.3,0.3l-0.2-0.3l0.7-0.6L385.4,353.7z M381.5,354.2l1.4-1.4l0.2,0.2l0,0l0,0l-1.7,1.6
	L381.5,354.2z M381.7,353.1l0.8-0.7l0.2,0.3l-1.1,1.1L381.7,353.1z M381.8,352l0.1-0.1l0.2,0.3l-0.5,0.4L381.8,352z M383,351.9
	l0.8-0.8l0.6-0.1l-1.2,1.1L383,351.9z M383.3,351.1l-0.5,0.5l-0.2-0.3l0,0l0.1-0.1L383.3,351.1z M383.4,353.4l0.2,0.3l-1.5,1.4h-0.6
	L383.4,353.4z M383.8,353.8l0.2,0.3l-0.9,0.8h-0.6L383.8,353.8z M384.3,354.3l0.2,0.3l-0.3,0.3h-0.6L384.3,354.3z M385.3,354.3
	L385.3,354.3L385.3,354.3L385.3,354.3z M383.7,352.6l-0.2-0.2l1.5-1.4l0.6-0.1L383.7,352.6z"/>
<path class="st0" d="M344,436.2l-1.1-7.9c0-0.2,0-0.5-0.2-0.6c-0.2-0.2-0.5-0.3-0.7-0.2l-7.6-1.2c-0.2,0-0.4,0-0.5,0.2
	c-0.1,0.1-0.2,0.3-0.2,0.5l0.7,7.9c-0.1,0.3-0.1,0.6,0.1,0.8c0.2,0.2,0.4,0.2,0.6,0.2l8.2,1.1c0.2,0,0.4,0,0.5-0.2
	C343.9,436.6,344,436.4,344,436.2z M341.3,435.4l-2.7-2.8l0.5-0.4l0.2,0.3l0,0l3,3.1L341.3,435.4z M339.3,435.2l-1.6-1.7l0.4-0.4
	l2.2,2.3L339.3,435.2z M337.4,434.9l-0.6-0.6l0.4-0.4l1.1,1.2L337.4,434.9z M336.5,427.8l2.5,2.5l-0.4,0.4l-0.1-0.1l0,0l-2.9-3
	L336.5,427.8z M338.5,428.1l1.3,1.4l-0.4,0.4l-1.9-2L338.5,428.1z M340.5,428.5l0.2,0.2l-0.4,0.4l-0.8-0.8L340.5,428.5z
	 M340.8,430.5l1.4,1.5l0.1,1.1l-2-2.1L340.8,430.5z M342.1,431l-0.9-0.9l0.5-0.4l0,0l0.2,0.3L342.1,431z M338.1,431.2l-0.5,0.4
	L335,429l-0.1-1L338.1,431.2z M337.2,432l-0.4,0.4l-1.5-1.6l-0.1-1L337.2,432z M336.3,432.9l-0.4,0.4l-0.5-0.5l-0.1-1L336.3,432.9z
	 M336.4,434.7L336.4,434.7L336.4,434.7L336.4,434.7z M339.4,431.8l0.4-0.4l2.6,2.7l0.1,1L339.4,431.8z"/>
<path class="st0" d="M206.6,388.4l-4.4-0.7c-0.1-0.1-0.2-0.1-0.4,0c-0.1,0.1-0.2,0.2-0.2,0.4l-1.9,3.8c0,0.1,0,0.2,0,0.3
	s0.1,0.2,0.2,0.2l4.3,0.9c0.1,0.1,0.3,0.1,0.4,0.1c0.1-0.1,0.2-0.2,0.2-0.3l1.9-4.2c0-0.1,0-0.2,0-0.3
	C206.8,388.5,206.7,388.4,206.6,388.4z M205.7,389.7l-1.9,1l-0.2-0.3l0.2-0.1l0,0l2.1-1.1L205.7,389.7z M205.3,390.7l-1.2,0.6
	l-0.2-0.3l1.6-0.8L205.3,390.7z M204.8,391.7l-0.4,0.2l-0.2-0.3l0.8-0.4L204.8,391.7z M200.9,391.1l1.8-0.9l0.2,0.3l0,0l0,0
	l-2.1,1.1L200.9,391.1z M201.4,390.1l0.9-0.5l0.2,0.3l-1.4,0.7L201.4,390.1z M201.9,389.1l0.1-0.1l0.2,0.3l-0.6,0.3L201.9,389.1z
	 M203,389.2l1-0.5l0.6,0.1l-1.5,0.7L203,389.2z M203.5,388.6l-0.6,0.3l-0.2-0.3l0,0l0.2-0.1L203.5,388.6z M202.9,390.8l0.2,0.3
	l-1.8,0.9l-0.6-0.1L202.9,390.8z M203.3,391.4l0.2,0.3l-1.1,0.6l-0.5-0.1L203.3,391.4z M203.6,392l0.2,0.3l-0.3,0.2l-0.5-0.1
	L203.6,392z M204.5,392.2L204.5,392.2L204.5,392.2L204.5,392.2z M203.5,390.1l-0.2-0.3l1.9-1l0.6,0.1L203.5,390.1z"/>
<path class="st0" d="M116,448.7l-4.9,2.7c-0.2,0-0.3,0.1-0.4,0.3c-0.1,0.2,0,0.4,0.1,0.5l1,5.3c0,0.1,0.1,0.2,0.2,0.3
	c0.1,0.1,0.2,0.1,0.4,0l5-2.4c0.2,0,0.4-0.1,0.5-0.3c0.1-0.1,0.1-0.3,0-0.4l-1.3-5.7c0-0.1-0.1-0.2-0.2-0.3
	C116.3,448.6,116.2,448.6,116,448.7z M116.2,450.7l-1.2,2.5l-0.4-0.2l0.1-0.2l0,0l1.3-2.7L116.2,450.7z M116.5,452l-0.7,1.5
	l-0.4-0.2l1-2L116.5,452z M116.8,453.3l-0.3,0.5l-0.4-0.2l0.5-1L116.8,453.3z M112.4,455.7l1.1-2.2l0.4,0.2v0.1l0,0l-1.3,2.7
	L112.4,455.7z M112.1,454.3l0.6-1.2l0.4,0.2l-0.8,1.7L112.1,454.3z M111.8,452.9l0.1-0.2l0.4,0.2l-0.3,0.7L111.8,452.9z
	 M113.1,452.2l0.6-1.3l0.7-0.4l-0.9,1.9L113.1,452.2z M113.1,451.2l-0.4,0.8l-0.4-0.2l0,0l0.1-0.2L113.1,451.2z M114.2,453.8
	l0.4,0.2l-1.1,2.3l-0.6,0.3L114.2,453.8z M115,454.2l0.4,0.2l-0.7,1.4l-0.6,0.3L115,454.2z M115.7,454.5l0.4,0.2l-0.2,0.4l-0.6,0.3
	L115.7,454.5z M116.9,454L116.9,454L116.9,454L116.9,454z M114.2,452.8l-0.4-0.2l1.1-2.4l0.6-0.3L114.2,452.8z"/>
<g>
	<path class="st0" d="M533.6,442.1c0.7-0.9,1-2.2,0.1-3.3c-1-1.3-2.5-1-2.8-0.9l-2.2,0.2c-0.1,0-0.2,0-0.3,0l-1.5,0.1l-1.5-1.9
		c-0.1-0.1-0.2-0.2-0.4-0.2l-2.4,0.2c-0.2,0-0.3,0.1-0.3,0.2c-0.1,0.1,0,0.3,0.1,0.4l3.7,4.6l-0.3,1.2c0,0.1,0,0.3,0.1,0.4
		c0.1,0.1,0.1,0.1,0.2,0.1c0.2,0.1,0.4-0.1,0.5-0.3l0.2-0.7c1.4,1.1,3.3,1.2,3.5,1.2c0.6,0,1.7-0.1,2.6-0.6l1.2,0.6L533.6,442.1z
		 M530.1,439.7c0.1,0.2,0.1,0.4,0.1,0.6l-1.1-1.4C529.4,439,529.8,439.2,530.1,439.7z M528.6,438.9l1.4,1.8l0,0l-0.1,0.1
		c0,0-0.1,0.1-0.2,0.1l-1.5-1.9L528.6,438.9z M527.8,438.9l1.6,2c-0.1,0-0.2,0-0.4,0.1l-1.6-2L527.8,438.9z M526.7,439h0.3l1.6,2
		c-0.1,0-0.3,0-0.4-0.1L526.7,439L526.7,439z M524.5,438.4l-1.1-1.4h0.5l1.1,1.4H524.5z M525.4,438.3l-1.1-1.3h0.5l1.1,1.3H525.4z
		 M525.2,439.2h0.3l0.6,0.8C525.8,439.7,525.5,439.4,525.2,439.2z M526.9,440.5l-1.1-1.4h0.4l1.3,1.7
		C527.4,440.7,527.2,440.6,526.9,440.5z M530.2,442.6L530.2,442.6c-0.1,0-2.2,0-3.5-1.3c1.5,0.8,2.9,0.7,3.7,0.1
		c0.7-0.5,0.9-1.3,0.5-2.1c-0.1-0.2-0.3-0.4-0.4-0.6h0.6h0.1c0,0,1.2-0.3,1.9,0.6c0.8,1,0.1,2.1-0.5,2.6
		C531.8,442.5,530.7,442.6,530.2,442.6z"/>
	<circle class="st0" cx="532.2" cy="440.5" r="0.5"/>
</g>
<g>
	<path class="st0" d="M431.1,369.9c-1.4,0-2.8,0.6-3.2,2.3c-0.5,1.9,0.9,3.1,1.1,3.3l1.8,2c0.1,0.1,0.2,0.2,0.2,0.3l1.2,1.4
		l-0.7,2.9c0,0.2,0,0.3,0.1,0.5l2,2.1c0.1,0.1,0.3,0.2,0.5,0.1c0.2,0,0.3-0.2,0.4-0.4l1.8-6.9l1.4-0.6c0.1-0.1,0.2-0.2,0.3-0.3
		c0-0.1,0-0.2,0-0.3c-0.1-0.3-0.4-0.4-0.6-0.3l-0.8,0.4c0-2.2-1.3-4-1.5-4.2c-0.4-0.6-1.3-1.5-2.5-2l-0.3-1.5L431.1,369.9z
		 M431.3,374.9c0.1-0.3,0.3-0.4,0.5-0.5l-0.5,2.1C431.1,376.1,431,375.5,431.3,374.9z M431.6,376.9l0.7-2.6l0,0h0.1
		c0.1,0,0.1,0,0.2,0.1l-0.7,2.8L431.6,376.9z M432.2,377.6l0.8-3c0.1,0.1,0.2,0.2,0.3,0.3l-0.8,3L432.2,377.6z M433.1,378.7
		l-0.3-0.3l0.8-3c0.1,0.1,0.2,0.3,0.2,0.4L433.1,378.7L433.1,378.7z M434.2,381.2l-0.5,2l-0.4-0.5l0.5-2L434.2,381.2z M433.4,380.4
		l-0.5,2l-0.4-0.4l0.5-2L433.4,380.4z M434.4,380l-0.2-0.2l0.3-1.1C434.5,379.1,434.5,379.5,434.4,380z M434.4,377.4l-0.5,2
		l-0.3-0.4l0.6-2.5C434.2,376.8,434.3,377.1,434.4,377.4z M434,372.7C434.1,372.7,434.1,372.7,434,372.7c0,0.1,1.6,2.1,1.2,4.3
		c-0.4-2-1.4-3.2-2.6-3.6c-1-0.3-1.9,0.1-2.3,1.1c-0.1,0.3-0.2,0.6-0.2,0.8l-0.5-0.6c0,0,0,0-0.1-0.1c0,0-1.2-0.9-0.8-2.3
		c0.4-1.5,2-1.7,2.9-1.5C432.8,371.2,433.7,372.2,434,372.7z"/>
	<circle class="st0" cx="430.5" cy="372.3" r="0.6"/>
</g>
<g>
	<path class="st0" d="M649.5,403.3c-0.5-1.5-1.8-2.7-3.7-2.5c-2.2,0.2-2.9,2.1-3,2.5l-1.4,2.7c-0.1,0.2-0.2,0.3-0.2,0.3l-1,1.8
		l-3.3,0.3c-0.2,0-0.4,0.1-0.4,0.3l-1.5,2.9c-0.1,0.2-0.1,0.4,0,0.6s0.3,0.3,0.5,0.2l7.9-0.8l1.2,1.2c0.1,0.1,0.3,0.2,0.5,0.2
		c0.1,0,0.2-0.1,0.3-0.1c0.2-0.2,0.2-0.6,0-0.8l-0.7-0.8c2.3-0.8,3.7-2.9,3.9-3.2c0.4-0.6,1.1-2,1.1-3.4l1.5-0.9L649.5,403.3z
		 M644.4,405.5c0.3,0,0.6,0.1,0.7,0.4l-2.4,0.3C643,405.8,643.5,405.5,644.4,405.5z M642.3,406.6l3-0.3l0,0c0,0,0,0.1,0,0.2
		c0,0.1,0,0.2,0,0.2L642,407L642.3,406.6z M641.8,407.6l3.4-0.4c0,0.1-0.1,0.3-0.2,0.5l-3.5,0.4L641.8,407.6z M641.1,408.9l0.2-0.4
		l3.4-0.4c-0.1,0.1-0.2,0.3-0.4,0.4L641.1,408.9L641.1,408.9z M638.8,411l-2.3,0.2l0.3-0.6l2.3-0.2L638.8,411z M639.3,409.9
		l-2.3,0.2l0.3-0.6l2.3-0.2L639.3,409.9z M640.2,410.8l0.2-0.3l1.3-0.1C641.2,410.5,640.7,410.6,640.2,410.8z M642.9,409.7l-2.3,0.2
		l0.2-0.5l2.9-0.3C643.5,409.3,643.2,409.5,642.9,409.7z M647.7,407.6L647.7,407.6c0,0.1-1.6,2.6-4,3c2-1.2,2.9-2.8,2.8-4.1
		c-0.1-1.2-0.9-2-2-2c-0.4,0-0.7,0-1,0.1l0.4-0.7v-0.1c0-0.1,0.5-1.6,2.1-1.8c1.7-0.2,2.5,1.4,2.6,2.5
		C648.8,405.7,648.1,407,647.7,407.6z"/>
	<circle class="st0" cx="646.7" cy="403.7" r="0.6"/>
</g>
<path class="st0" d="M505.7,336.3c0.1,0.2,0.2,0.4,0.1,0.6l-0.7,4.7c-0.1,0.4-0.4,0.7-0.9,0.6c-0.5-0.1-0.7-0.4-0.6-0.9l0.7-4.7
	c0.1-0.4,0.4-0.7,0.9-0.6C505.4,336,505.6,336.1,505.7,336.3z"/>
<path class="st0" d="M510.5,336.9c0.1,0.2,0.2,0.3,0.1,0.6c-0.1,0.4-0.4,0.7-0.8,0.6l-4.7-0.6c-0.4-0.1-0.7-0.4-0.6-0.8
	c0.1-0.4,0.4-0.7,0.8-0.6l4.7,0.6C510.2,336.7,510.3,336.8,510.5,336.9z"/>
<path class="st0" d="M508.2,339.6c0.1,0.2,0.2,0.4,0.1,0.6l-0.7,4.7c-0.1,0.4-0.4,0.7-0.9,0.6c-0.4-0.1-0.7-0.4-0.6-0.9l0.7-4.7
	c0.1-0.4,0.4-0.7,0.9-0.6C507.9,339.3,508.1,339.4,508.2,339.6z"/>
<path class="st0" d="M512.9,340.2c0.1,0.2,0.2,0.3,0.1,0.6c-0.1,0.4-0.4,0.7-0.8,0.6l-4.7-0.6c-0.4-0.1-0.7-0.4-0.6-0.8
	s0.4-0.7,0.8-0.6l4.7,0.6C512.6,339.9,512.8,340,512.9,340.2z"/>
<path class="st0" d="M510.6,342.8c0.1,0.2,0.2,0.4,0.1,0.6l-0.7,4.7c-0.1,0.4-0.4,0.7-0.9,0.6c-0.4-0.1-0.7-0.4-0.6-0.9l0.7-4.7
	c0.1-0.4,0.4-0.7,0.9-0.6C510.3,342.6,510.5,342.7,510.6,342.8z"/>
<path class="st0" d="M515.3,343.5c0.1,0.2,0.2,0.3,0.1,0.6c-0.1,0.4-0.4,0.7-0.8,0.6l-4.7-0.6c-0.4-0.1-0.7-0.4-0.6-0.8
	c0.1-0.4,0.4-0.7,0.8-0.6l4.7,0.6C515,343.2,515.2,343.3,515.3,343.5z"/>
<path class="st0" d="M731,377.9c-0.2,0-0.4-0.1-0.5-0.3l-2.9-3.8c-0.3-0.3-0.2-0.8,0.1-1.1c0.3-0.3,0.8-0.2,1.1,0.1l2.9,3.8
	c0.3,0.3,0.2,0.8-0.1,1.1C731.4,377.8,731.2,377.9,731,377.9z"/>
<path class="st0" d="M727.2,380.8c-0.2,0-0.4-0.1-0.5-0.3c-0.3-0.3-0.2-0.8,0.1-1.1l3.7-3c0.3-0.3,0.8-0.2,1.1,0.1s0.2,0.8-0.1,1.1
	l-3.7,3C727.6,380.8,727.4,380.9,727.2,380.8z"/>
<path class="st0" d="M726.9,377.4c-0.2,0-0.4-0.1-0.5-0.3l-2.9-3.8c-0.3-0.3-0.2-0.8,0.1-1.1c0.3-0.3,0.8-0.2,1.1,0.1l2.9,3.8
	c0.3,0.3,0.2,0.8-0.1,1.1C727.3,377.4,727.1,377.4,726.9,377.4z"/>
<path class="st0" d="M723.2,380.4c-0.2,0-0.4-0.1-0.5-0.3c-0.3-0.3-0.2-0.8,0.1-1.1l3.7-3c0.3-0.3,0.8-0.2,1.1,0.1
	c0.3,0.3,0.2,0.8-0.1,1.1l-3.7,3C723.6,380.3,723.4,380.4,723.2,380.4z"/>
<path class="st0" d="M722.9,376.9c-0.2,0-0.4-0.1-0.5-0.3l-2.9-3.8c-0.3-0.3-0.2-0.8,0.1-1.1c0.3-0.3,0.8-0.2,1.1,0.1l2.9,3.8
	c0.3,0.3,0.2,0.8-0.1,1.1C723.3,376.9,723.1,376.9,722.9,376.9z"/>
<path class="st0" d="M719.2,379.9c-0.2,0-0.4-0.1-0.5-0.3c-0.3-0.3-0.2-0.8,0.1-1.1l3.7-3c0.3-0.3,0.8-0.2,1.1,0.1
	c0.3,0.3,0.2,0.8-0.1,1.1l-3.7,3C719.6,379.8,719.4,379.9,719.2,379.9z"/>
<path class="st0" d="M585.8,383.7c0-0.1-0.1-0.1,0-0.2l0.5-1.8c0-0.2,0.2-0.3,0.4-0.2c0.2,0,0.3,0.2,0.2,0.4l-0.5,1.8
	c0,0.2-0.2,0.3-0.4,0.2C585.9,383.8,585.9,383.7,585.8,383.7z"/>
<path class="st0" d="M584,383.2c0-0.1,0-0.1,0-0.2c0-0.2,0.2-0.3,0.4-0.2l1.8,0.5c0.2,0,0.3,0.2,0.2,0.4c0,0.2-0.2,0.3-0.4,0.2
	l-1.8-0.5C584.1,383.3,584,383.2,584,383.2z"/>
<path class="st0" d="M585,382.3c0-0.1-0.1-0.1,0-0.2l0.5-1.8c0-0.2,0.2-0.3,0.4-0.2c0.2,0,0.3,0.2,0.2,0.4l-0.5,1.8
	c0,0.2-0.2,0.3-0.4,0.2C585.1,382.4,585.1,382.3,585,382.3z"/>
<path class="st0" d="M583.2,381.8c0-0.1-0.1-0.1,0-0.2c0-0.2,0.2-0.3,0.4-0.2l1.8,0.5c0.2,0,0.3,0.2,0.2,0.4c0,0.2-0.2,0.3-0.4,0.2
	l-1.8-0.5C583.3,381.9,583.2,381.8,583.2,381.8z"/>
<path class="st0" d="M584.2,380.8c0-0.1-0.1-0.1,0-0.2l0.5-1.8c0-0.2,0.2-0.3,0.4-0.2c0.2,0,0.3,0.2,0.2,0.4l-0.5,1.8
	c0,0.2-0.2,0.3-0.4,0.2C584.3,381,584.3,380.9,584.2,380.8z"/>
<path class="st0" d="M582.4,380.3c0-0.1-0.1-0.1,0-0.2c0-0.2,0.2-0.3,0.4-0.2l1.8,0.5c0.2,0,0.3,0.2,0.2,0.4c0,0.2-0.2,0.3-0.4,0.2
	l-1.8-0.5C582.5,380.5,582.4,380.4,582.4,380.3z"/>
<path class="st0" d="M609.9,360.7c-0.1,0-0.2-0.1-0.3-0.3l-1.3-2.9c-0.1-0.3,0-0.6,0.3-0.7c0.3-0.1,0.6,0,0.7,0.3l1.3,2.9
	c0.1,0.3,0,0.6-0.3,0.7C610.1,360.8,610,360.8,609.9,360.7z"/>
<path class="st0" d="M606.9,362.1c-0.1,0-0.2-0.1-0.3-0.3c-0.1-0.3,0-0.6,0.2-0.7l2.9-1.4c0.3-0.1,0.6,0,0.7,0.2
	c0.1,0.3,0,0.6-0.2,0.7l-2.9,1.4C607.2,362.1,607.1,362.1,606.9,362.1z"/>
<path class="st0" d="M607.3,359.8c-0.1,0-0.2-0.1-0.3-0.3l-1.3-2.9c-0.1-0.3,0-0.6,0.3-0.7s0.6,0,0.7,0.3l1.3,2.9
	c0.1,0.3,0,0.6-0.3,0.7C607.5,359.8,607.4,359.8,607.3,359.8z"/>
<path class="st0" d="M604.4,361.1c-0.1,0-0.2-0.1-0.3-0.3c-0.1-0.3,0-0.6,0.2-0.7l2.9-1.4c0.3-0.1,0.6,0,0.7,0.2
	c0.1,0.3,0,0.6-0.2,0.7l-2.9,1.4C604.6,361.2,604.5,361.2,604.4,361.1z"/>
<path class="st0" d="M604.7,358.8c-0.1,0-0.2-0.1-0.3-0.3l-1.3-2.9c-0.1-0.3,0-0.6,0.3-0.7s0.6,0,0.7,0.3l1.3,2.9
	c0.1,0.3,0,0.6-0.3,0.7C605,358.9,604.8,358.9,604.7,358.8z"/>
<path class="st0" d="M601.8,360.2c-0.1,0-0.2-0.1-0.3-0.3c-0.1-0.3,0-0.6,0.2-0.7l2.9-1.4c0.3-0.1,0.6,0,0.7,0.2
	c0.1,0.3,0,0.6-0.2,0.7l-2.9,1.4C602.1,360.2,601.9,360.2,601.8,360.2z"/>
<path class="st0" d="M586.9,454.8c-0.1,0-0.3,0-0.4-0.1l-2.5-2c-0.2-0.2-0.3-0.5-0.1-0.7s0.5-0.3,0.7-0.1l2.5,2
	c0.2,0.2,0.3,0.5,0.1,0.7C587.1,454.8,587,454.8,586.9,454.8z"/>
<path class="st0" d="M584.9,457.4c-0.1,0-0.3,0-0.4-0.1c-0.2-0.2-0.3-0.5-0.1-0.7l2-2.5c0.2-0.2,0.5-0.3,0.7-0.1
	c0.2,0.2,0.3,0.5,0.1,0.7l-2,2.5C585.1,457.3,585,457.4,584.9,457.4z"/>
<path class="st0" d="M584.1,455.2c-0.1,0-0.3,0-0.4-0.1l-2.5-2c-0.2-0.2-0.3-0.5-0.1-0.7s0.5-0.3,0.7-0.1l2.5,2
	c0.2,0.2,0.3,0.5,0.1,0.7C584.4,455.1,584.3,455.1,584.1,455.2z"/>
<path class="st0" d="M582.1,457.7c-0.1,0-0.3,0-0.4-0.1c-0.2-0.2-0.3-0.5-0.1-0.7l2-2.5c0.2-0.2,0.5-0.3,0.7-0.1s0.3,0.5,0.1,0.7
	l-2,2.5C582.4,457.6,582.3,457.7,582.1,457.7z"/>
<path class="st0" d="M581.4,455.5c-0.1,0-0.3,0-0.4-0.1l-2.5-2c-0.2-0.2-0.3-0.5-0.1-0.7c0.2-0.2,0.5-0.3,0.7-0.1l2.5,2
	c0.2,0.2,0.3,0.5,0.1,0.7C581.6,455.4,581.5,455.4,581.4,455.5z"/>
<path class="st0" d="M579.4,458c-0.1,0-0.3,0-0.4-0.1c-0.2-0.2-0.3-0.5-0.1-0.7l2-2.5c0.2-0.2,0.5-0.3,0.7-0.1
	c0.2,0.2,0.3,0.5,0.1,0.7l-2,2.5C579.7,457.9,579.5,458,579.4,458z"/>
<path class="st0" d="M425,455.1c0.1,0,0.3,0,0.4,0l2.9,1.5c0.3,0.1,0.4,0.4,0.2,0.7c-0.2,0.3-0.4,0.4-0.7,0.2l-2.9-1.5
	c-0.3-0.1-0.4-0.4-0.2-0.7C424.8,455.2,424.9,455.1,425,455.1z"/>
<path class="st0" d="M426.4,452.2c0.1,0,0.3,0,0.4,0c0.3,0.1,0.4,0.4,0.2,0.7l-1.4,2.9c-0.1,0.3-0.4,0.4-0.7,0.2
	c-0.3-0.1-0.4-0.4-0.2-0.7l1.4-2.9C426.2,452.3,426.3,452.2,426.4,452.2z"/>
<path class="st0" d="M427.6,454.2c0.1,0,0.3,0,0.4,0l2.9,1.5c0.3,0.1,0.4,0.4,0.2,0.7c-0.1,0.2-0.4,0.4-0.7,0.2l-2.9-1.5
	c-0.3-0.1-0.4-0.4-0.2-0.7C427.4,454.3,427.5,454.2,427.6,454.2z"/>
<path class="st0" d="M429,451.3c0.1,0,0.3,0,0.4,0c0.3,0.1,0.4,0.4,0.2,0.7l-1.4,2.9c-0.1,0.3-0.4,0.4-0.7,0.2
	c-0.3-0.1-0.4-0.4-0.2-0.7l1.4-2.9C428.8,451.4,428.9,451.4,429,451.3z"/>
<path class="st0" d="M430.2,453.3c0.1,0,0.3,0,0.4,0l2.9,1.5c0.3,0.1,0.4,0.4,0.2,0.7c-0.1,0.3-0.4,0.4-0.7,0.2l-2.9-1.5
	c-0.3-0.1-0.4-0.4-0.2-0.7C430,453.5,430.1,453.4,430.2,453.3z"/>
<path class="st0" d="M431.6,450.4c0.1,0,0.3,0,0.4,0c0.3,0.1,0.4,0.4,0.2,0.7l-1.4,2.9c-0.1,0.3-0.4,0.4-0.7,0.2
	c-0.3-0.1-0.4-0.4-0.2-0.7l1.4-2.9C431.4,450.6,431.5,450.5,431.6,450.4z"/>
<path class="st0" d="M417.8,349.9c-0.1,0-0.2,0-0.3-0.1l-4.2-4.8c-0.1-0.1-0.1-0.2-0.1-0.3c0-0.1,0.1-0.2,0.2-0.3s3.3-1.9,5.3,0.4
	c1.8,2-0.4,4.9-0.5,5.1c0,0,0,0-0.1,0.1C418,349.9,417.9,349.9,417.8,349.9z M417.7,348.8c0.5-0.8,1.3-2.4,0.3-3.6
	c-1.1-1.3-2.9-0.8-3.7-0.4L417.7,348.8z"/>
<path class="st0" d="M414.3,345.5l1.6-1.4c0.1-0.1,0.1-0.2,0-0.3c-0.1-0.1-0.2-0.1-0.3,0l-1.6,1.4c-0.1,0.1-0.1,0.2,0,0.3
	S414.2,345.6,414.3,345.5z"/>
<path class="st0" d="M414.8,346.1l2-1.8c0.1-0.1,0.1-0.2,0-0.3s-0.2-0.1-0.3,0l-2,1.8c-0.1,0.1-0.1,0.2,0,0.3
	S414.7,346.2,414.8,346.1z"/>
<path class="st0" d="M415.3,346.7l2.4-2.1c0.1-0.1,0.1-0.2,0-0.3c-0.1-0.1-0.2-0.1-0.3,0l-2.4,2.1c-0.1,0.1-0.1,0.2,0,0.3
	C415.1,346.7,415.2,346.7,415.3,346.7z"/>
<path class="st0" d="M415.8,347.2l2.3-2c0.1-0.1,0.1-0.2,0-0.3s-0.2-0.1-0.3,0l-2.3,2c-0.1,0.1-0.1,0.2,0,0.3
	C415.6,347.3,415.7,347.3,415.8,347.2z"/>
<path class="st0" d="M416.2,347.8l2.3-2c0.1-0.1,0.1-0.2,0-0.3s-0.2-0.1-0.3,0l-2.3,2c-0.1,0.1-0.1,0.2,0,0.3
	C416.1,347.8,416.2,347.8,416.2,347.8z"/>
<path class="st0" d="M416.7,348.3l2-1.8c0.1-0.1,0.1-0.2,0-0.3c-0.1-0.1-0.2-0.1-0.3,0l-2,1.8c-0.1,0.1-0.1,0.2,0,0.3
	C416.5,348.4,416.7,348.4,416.7,348.3z"/>
<path class="st0" d="M417.2,348.9l1.7-1.5c0.1-0.1,0.1-0.2,0-0.3s-0.2-0.1-0.3,0l-1.7,1.5c-0.1,0.1-0.1,0.2,0,0.3
	C417,349,417.1,349,417.2,348.9z"/>
<path class="st0" d="M418.3,345"/>
<path class="st0" d="M565.9,344.4c0-0.1-0.1-0.2-0.2-0.3h-0.1c-0.2-0.1-4.4-1.6-6.2,1.2c-2,3.1,1.3,6.3,1.4,6.4
	c0.1,0.1,0.3,0.2,0.4,0.1c0.2,0,0.3-0.1,0.4-0.2l4.2-6.7C565.9,344.7,566,344.6,565.9,344.4z M564.4,345.1l-0.7-0.4
	c0.3,0,0.6,0.1,0.9,0.2L564.4,345.1z M564,345.9l-1.9-1.2c0.3,0,0.5-0.1,0.8-0.1l1.4,0.9L564,345.9z M563.5,346.7l-2.5-1.6
	c0.2-0.1,0.3-0.2,0.5-0.3l2.3,1.4L563.5,346.7z M563,347.5l-2.7-1.7c0.1-0.1,0.2-0.3,0.3-0.4l2.6,1.7L563,347.5z M562.5,348.3
	l-2.6-1.6c0-0.1,0.1-0.3,0.2-0.4l2.6,1.7L562.5,348.3z M562,349l-2.1-1.3c0-0.2,0-0.4,0-0.6l2.4,1.5L562,349z M561.5,349.8l-1.3-0.8
	c-0.1-0.2-0.2-0.5-0.3-0.7l1.8,1.1L561.5,349.8z M561.1,350.4c-0.1-0.2-0.3-0.4-0.4-0.6l0.6,0.4L561.1,350.4z"/>
<path class="st0" d="M630,449.6c-0.1,0.1-0.1,0.1-0.2,0.2v0.1c0,0.1-0.3,3.7,2.2,4.4c2.7,0.8,4.4-2.3,4.5-2.4s0.1-0.2,0-0.3
	c0-0.1-0.1-0.2-0.3-0.2l-5.9-1.7C630.2,449.5,630.1,449.5,630,449.6z M630.8,450.5l-0.2,0.6c0-0.3-0.1-0.5-0.1-0.7L630.8,450.5z
	 M631.5,450.7l-0.5,1.7c-0.1-0.2-0.2-0.4-0.2-0.6l0.4-1.2L631.5,450.7z M632.2,450.9l-0.6,2.2c-0.1-0.1-0.2-0.2-0.3-0.3l0.6-2
	L632.2,450.9z M632.9,451.1l-0.7,2.4c-0.1,0-0.2-0.1-0.4-0.2l0.7-2.3L632.9,451.1z M633.6,451.3l-0.7,2.3c-0.1,0-0.2,0-0.4,0
	l0.7-2.3H633.6z M634.3,451.5l-0.6,1.9c-0.1,0.1-0.3,0.1-0.4,0.1l0.6-2.1L634.3,451.5z M635,451.7l-0.3,1.1
	c-0.1,0.1-0.3,0.3-0.5,0.4l0.5-1.6L635,451.7z M635.5,451.9c-0.1,0.1-0.2,0.3-0.3,0.4l0.1-0.5L635.5,451.9z"/>
<polygon class="st0" points="490.2,381.1 488.7,378.5 491.7,378.5 "/>
<polygon class="st0" points="415.5,430.5 410.4,427.9 415,426.1 "/>
<polygon class="st0" points="608.6,419 600.8,421.1 603.8,414.8 "/>
<polygon class="st0" points="679.3,346.3 677.8,340.2 682.7,342.7 "/>
<polygon class="st0" points="725.2,417.3 722.1,415.5 725,414.5 "/>
<path class="st0" d="M493.5,421.1c-0.2,0.1-0.4,0-0.4-0.2l-3.6-9c-0.1-0.2,0-0.4,0.2-0.4c0.2-0.1,0.4,0,0.4,0.2l3.6,9
	C493.7,420.9,493.7,421.1,493.5,421.1z"/>
<path class="st0" d="M489.8,412.1c-0.1,0-0.2,0-0.2,0c-0.2-0.1-0.2-0.3-0.2-0.4l0.9-2.2c0-0.1,0.2-0.6,0.7-0.8
	c0.2-0.1,0.5-0.1,0.7,0c0.4,0.1,0.8,0.5,0.5,1.4l0,0c0,0.2-0.2,0.3-0.4,0.2c-0.2,0-0.3-0.2-0.2-0.4c0,0,0,0,0-0.1
	c0.1-0.4,0-0.5-0.1-0.6c-0.3-0.1-0.5,0.4-0.6,0.4l0,0l-0.9,2.2C490,412,489.9,412.1,489.8,412.1z"/>
<path class="st0" d="M490.5,413.8c-0.1,0-0.2,0-0.2,0c-0.2-0.1-0.2-0.3-0.2-0.4l1.7-4c0.1-0.2,0.3-0.2,0.4-0.2
	c0.2,0.1,0.2,0.3,0.2,0.4l-1.7,4C490.7,413.7,490.6,413.8,490.5,413.8z"/>
<path class="st0" d="M491.3,415.5c-0.1,0-0.2,0-0.2,0c-0.2-0.1-0.2-0.3-0.2-0.4l2.2-5.4c0-0.1,0-0.3,0-0.3c0-0.1-0.1-0.1-0.2-0.1
	c-0.3-0.1-0.6,0.7-0.6,0.9c0,0.2-0.2,0.3-0.4,0.2c-0.2,0-0.3-0.2-0.2-0.4c0.1-0.6,0.6-1.5,1.4-1.3c0.4,0.1,0.6,0.3,0.6,0.4
	c0.1,0.2,0.2,0.5,0.1,0.9l0,0l-2.2,5.4C491.5,415.4,491.4,415.5,491.3,415.5z"/>
<path class="st0" d="M492,417.5c-0.1,0-0.2,0-0.2,0c-0.2-0.1-0.2-0.3-0.2-0.4l2.8-6.7l0,0c0.1-0.1,0.2-0.5,0.1-0.7
	c0,0-0.1-0.1-0.2-0.2c-0.1,0-0.2,0-0.3,0c-0.2,0.1-0.3,0.3-0.3,0.4c0,0.2-0.2,0.3-0.4,0.2c-0.2,0-0.3-0.2-0.2-0.4
	c0-0.1,0.2-0.6,0.6-0.8c0.2-0.1,0.5-0.2,0.8-0.1c0.4,0.1,0.6,0.3,0.6,0.5c0.2,0.5,0,1.2-0.1,1.3l-2.8,6.7
	C492.1,417.4,492.1,417.4,492,417.5z"/>
<path class="st0" d="M492.8,419.3c-0.1,0-0.2,0-0.2,0c-0.2-0.1-0.2-0.3-0.2-0.4l3.1-7.3l0,0c0.2-0.4,0.3-0.8,0.4-0.9
	c0-0.3-0.2-0.4-0.3-0.4c-0.2,0-0.5,0-0.6,0.4c0,0.2-0.2,0.3-0.4,0.2c-0.2,0-0.3-0.2-0.2-0.4c0.2-0.7,0.8-1,1.3-0.9
	c0.5,0.1,0.9,0.6,0.8,1.1c0,0.3-0.3,0.9-0.4,1.1l-3.1,7.3C492.9,419.2,492.8,419.3,492.8,419.3z"/>
<path class="st0" d="M493.5,421.2c-0.1,0-0.2,0-0.2,0c-0.2-0.1-0.2-0.3-0.2-0.4l3.1-7.3l0,0c0.2-0.4,0.4-0.9,0.4-1.1
	s-0.2-0.3-0.3-0.3c-0.2,0-0.4,0.1-0.5,0.4c0,0.2-0.2,0.3-0.4,0.2c-0.2,0-0.3-0.2-0.2-0.4c0.2-0.7,0.7-0.9,1.1-0.9
	c0.5,0.1,0.9,0.4,0.9,0.9c0,0.4-0.3,1.2-0.4,1.4l-3.1,7.3C493.7,421.1,493.6,421.2,493.5,421.2z"/>
<path class="st0" d="M489.8,412.1c-0.1,0-0.2,0-0.3,0l-2.1-0.9l0,0c-0.1,0-0.5-0.2-0.7,0.1c-0.1,0.1-0.1,0.3,0.3,0.5h0.1
	c0.1,0.1,0.2,0.3,0.1,0.4c-0.1,0.1-0.3,0.2-0.4,0.1l0,0c-0.8-0.5-0.7-1-0.6-1.3c0.1-0.2,0.3-0.4,0.5-0.5c0.5-0.2,0.9,0.1,1,0.1
	l2.1,0.9c0.2,0.1,0.2,0.3,0.2,0.4S489.9,412.1,489.8,412.1z"/>
<path class="st0" d="M490.5,413.8c-0.1,0-0.2,0-0.2,0l-4-1.7c-0.2-0.1-0.2-0.3-0.2-0.4c0.1-0.2,0.3-0.2,0.4-0.2l4,1.7
	c0.2,0.1,0.2,0.3,0.2,0.4C490.7,413.8,490.6,413.8,490.5,413.8z"/>
<path class="st0" d="M491.1,415.6c-0.1,0-0.2,0-0.3,0l-5.3-2.4l0,0c-0.3-0.2-0.5-0.4-0.5-0.7c0-0.2,0-0.4,0.2-0.7
	c0.5-0.7,1.4-0.3,1.9,0c0.2,0.1,0.2,0.3,0.1,0.4c-0.1,0.2-0.3,0.2-0.4,0.1l0,0c-0.2-0.1-0.9-0.5-1.1-0.2c-0.1,0.1-0.1,0.2-0.1,0.2
	c0,0.1,0.1,0.2,0.2,0.3l5.3,2.4c0.2,0.1,0.2,0.3,0.2,0.4C491.3,415.5,491.2,415.6,491.1,415.6z"/>
<path class="st0" d="M492,417.5c-0.1,0-0.2,0-0.2,0l-6.6-2.9c-0.1,0-0.8-0.3-0.9-0.8c-0.1-0.2-0.1-0.5,0.1-0.8
	c0.1-0.2,0.3-0.4,0.6-0.5c0.5-0.1,0.9,0.1,1,0.2c0.2,0.1,0.2,0.3,0.1,0.4c-0.1,0.2-0.3,0.2-0.4,0.1c-0.1,0-0.3-0.1-0.5-0.1
	c-0.1,0-0.1,0-0.2,0.2c-0.1,0.1-0.1,0.2,0,0.3c0.1,0.2,0.4,0.4,0.6,0.5l0,0l6.6,2.9c0.2,0.1,0.2,0.3,0.2,0.4
	C492.2,417.4,492.1,417.5,492,417.5z"/>
<path class="st0" d="M492.8,419.3c-0.1,0-0.2,0-0.2,0l-7.3-3.1c-0.2-0.1-0.9-0.3-1.1-0.5c-0.4-0.3-0.5-0.9-0.2-1.4
	c0.3-0.4,0.9-0.7,1.5-0.3c0.2,0.1,0.2,0.3,0.1,0.4c-0.1,0.2-0.3,0.2-0.4,0.1c-0.3-0.2-0.6-0.1-0.7,0.1c-0.1,0.1-0.1,0.3,0.1,0.5
	c0.1,0.1,0.5,0.3,0.9,0.4l0,0l7.3,3.1c0.2,0.1,0.2,0.3,0.2,0.4C492.9,419.2,492.8,419.3,492.8,419.3z"/>
<path class="st0" d="M493.5,421.2c-0.1,0-0.2,0-0.2,0l-7.3-3.1c-0.2-0.1-1-0.4-1.3-0.7c-0.3-0.4-0.3-0.9,0-1.3
	c0.3-0.3,0.8-0.5,1.4-0.2c0.2,0.1,0.2,0.3,0.1,0.4c-0.1,0.2-0.3,0.2-0.4,0.1c-0.3-0.2-0.5-0.1-0.6,0s-0.1,0.3,0,0.5
	c0.1,0.1,0.6,0.4,1,0.6l0,0l7.3,3.1c0.2,0.1,0.2,0.3,0.2,0.4S493.6,421.2,493.5,421.2z"/>
<circle class="st0" cx="489" cy="410" r="0.5"/>
<path class="st0" d="M727.6,453c0,0.1-0.2,0.1-0.2,0.1l-4.7-2.7c-0.1,0-0.1-0.2-0.1-0.2l0.2-0.1l4.7,2.7
	C727.6,452.8,727.6,452.9,727.6,453z"/>
<path class="st0" d="M722.8,450.3l-0.1,0.1c-0.1,0-0.2,0-0.2-0.1l-0.4-1.3c0,0-0.1-0.3,0-0.6c0.1-0.1,0.2-0.2,0.3-0.3
	c0.2-0.1,0.5-0.1,0.7,0.4l0,0c0,0.1,0,0.2-0.1,0.2s-0.2,0-0.2-0.1l0,0c-0.1-0.2-0.2-0.2-0.3-0.2c-0.2,0.1-0.1,0.3-0.1,0.4l0,0
	l0.4,1.3C722.9,450.2,722.9,450.2,722.8,450.3z"/>
<path class="st0" d="M723.7,450.8l-0.1,0.1c-0.1,0-0.2,0-0.2-0.1l-0.6-2.3c0-0.1,0-0.2,0.1-0.2s0.2,0,0.2,0.1L723.7,450.8
	C723.8,450.7,723.8,450.7,723.7,450.8z"/>
<path class="st0" d="M724.7,451.2L724.7,451.2c-0.2,0.1-0.3,0.1-0.3,0l-0.9-3.1c0-0.1-0.1-0.1-0.1-0.1h-0.1c-0.2,0.1,0,0.5,0,0.6
	s0,0.2-0.1,0.2s-0.2,0-0.2-0.1c-0.1-0.3-0.3-0.9,0.1-1.1c0.2-0.1,0.3-0.1,0.4,0c0.1,0,0.3,0.2,0.3,0.3l0,0l0.9,3.1
	C724.7,451.1,724.7,451.2,724.7,451.2z"/>
<path class="st0" d="M725.7,451.9l-0.1,0.1c-0.1,0-0.2,0-0.2-0.1l-1.1-3.9l0,0c0-0.1-0.1-0.3-0.2-0.4c0,0-0.1,0-0.2,0
	c-0.1,0-0.1,0.1-0.1,0.1c0,0.1,0,0.2,0,0.3c0,0.1,0,0.2-0.1,0.2s-0.2,0-0.2-0.1c0,0-0.1-0.3,0-0.6c0.1-0.1,0.2-0.2,0.3-0.3
	c0.2-0.1,0.4,0,0.5,0c0.3,0.1,0.4,0.5,0.4,0.6l1.1,3.9C725.7,451.8,725.7,451.8,725.7,451.9z"/>
<path class="st0" d="M726.6,452.4l-0.1,0.1c-0.1,0-0.2,0-0.2-0.1l-1.2-4.3l0,0c-0.1-0.2-0.1-0.5-0.2-0.5c-0.1-0.1-0.2-0.1-0.3-0.1
	c-0.1,0.1-0.2,0.2-0.1,0.4c0,0.1,0,0.2-0.1,0.2s-0.2,0-0.2-0.1c-0.2-0.4,0-0.7,0.3-0.8s0.6-0.1,0.7,0.2c0.1,0.1,0.2,0.5,0.2,0.6
	l1.2,4.3C726.7,452.3,726.6,452.4,726.6,452.4z"/>
<path class="st0" d="M727.6,453l-0.1,0.1c-0.1,0-0.2,0-0.2-0.1l-1.2-4.3l0,0c-0.1-0.2-0.2-0.5-0.2-0.6c-0.1-0.1-0.2-0.1-0.3,0
	s-0.1,0.2-0.1,0.3s0,0.2-0.1,0.2s-0.2,0-0.2-0.1c-0.2-0.4,0-0.7,0.2-0.8c0.2-0.1,0.5-0.1,0.7,0.1c0.2,0.2,0.3,0.7,0.3,0.8l1.2,4.3
	C727.6,452.9,727.6,452.9,727.6,453z"/>
<path class="st0" d="M722.8,450.3l-0.1,0.1l-1.3,0.3l0,0c0,0-0.3,0.1-0.3,0.3c0,0.1,0.1,0.2,0.3,0.1l0,0c0.1,0,0.2,0.1,0.2,0.2
	c0,0.1-0.1,0.2-0.2,0.2l0,0c-0.5,0.1-0.7-0.2-0.7-0.4c0-0.1,0-0.3,0.1-0.4c0.1-0.2,0.4-0.3,0.5-0.3l1.3-0.3
	C722.7,450.1,722.8,450.1,722.8,450.3C722.9,450.2,722.9,450.2,722.8,450.3z"/>
<path class="st0" d="M723.8,450.8l-0.1,0.1l-2.3,0.6c-0.1,0-0.2,0-0.2-0.1s0-0.2,0.1-0.2l2.3-0.6
	C723.7,450.6,723.8,450.6,723.8,450.8L723.8,450.8z"/>
<path class="st0" d="M724.6,451.4l-0.1,0.1l-3.1,0.8l0,0c-0.2,0-0.4,0-0.5-0.1c-0.1-0.1-0.2-0.2-0.2-0.4c0-0.5,0.5-0.6,0.8-0.7
	c0.1,0,0.2,0.1,0.2,0.2c0,0.1-0.1,0.2-0.2,0.2l0,0c-0.1,0-0.5,0.1-0.5,0.3c0,0.1,0,0.1,0,0.1s0.1,0,0.2,0l3.1-0.8
	c0.1,0,0.2,0,0.2,0.1C724.7,451.3,724.6,451.3,724.6,451.4z"/>
<path class="st0" d="M725.7,451.9l-0.1,0.1l-3.9,1.1c-0.1,0-0.4,0.1-0.7,0c-0.1-0.1-0.2-0.2-0.2-0.4s0-0.3,0.1-0.4
	c0.2-0.2,0.5-0.3,0.5-0.3c0.1,0,0.2,0.1,0.2,0.2c0,0.1-0.1,0.2-0.2,0.2c0,0-0.2,0-0.2,0.1v0.1c0,0.1,0,0.1,0.1,0.1
	c0.1,0.1,0.3,0,0.4,0l0,0l3.9-1.1c0.1,0,0.2,0,0.2,0.1C725.7,451.8,725.7,451.8,725.7,451.9z"/>
<path class="st0" d="M726.6,452.4l-0.1,0.1l-4.3,1.2c-0.1,0-0.5,0.1-0.6,0.2c-0.3,0-0.5-0.2-0.6-0.5c0-0.3,0.1-0.6,0.6-0.7
	c0.1,0,0.2,0.1,0.2,0.2s-0.1,0.2-0.2,0.2c-0.2,0-0.3,0.2-0.3,0.3s0.1,0.2,0.2,0.2c0.1,0,0.3-0.1,0.5-0.1l0,0l4.3-1.2
	C726.4,452.3,726.5,452.3,726.6,452.4C726.7,452.3,726.7,452.4,726.6,452.4z"/>
<path class="st0" d="M727.6,453l-0.1,0.1l-4.3,1.2c-0.1,0-0.6,0.2-0.8,0.1c-0.3-0.1-0.4-0.3-0.4-0.6c0-0.2,0.2-0.5,0.6-0.6
	c0.1,0,0.2,0.1,0.2,0.2s-0.1,0.2-0.2,0.2c-0.2,0-0.3,0.1-0.3,0.2c0,0.1,0.1,0.2,0.1,0.2c0.1,0,0.4,0,0.6-0.1l0,0l4.3-1.2
	c0.1,0,0.2,0,0.2,0.1C727.7,452.9,727.6,453,727.6,453z"/>
<circle class="st0" cx="721.7" cy="449.6" r="0.3"/>
<path class="st0" d="M639.9,352.4c0,0.1-0.2,0.1-0.2,0.1l-4.7-2.7c-0.1,0-0.1-0.2-0.1-0.2c0-0.1,0.2-0.1,0.2-0.1l4.7,2.7
	C639.9,352.2,639.9,352.4,639.9,352.4z"/>
<path class="st0" d="M635.1,349.8l-0.1,0.1c-0.1,0-0.2,0-0.2-0.1l-0.4-1.3c0,0-0.1-0.3,0-0.6c0.1-0.1,0.2-0.2,0.3-0.3
	c0.2-0.1,0.5-0.1,0.7,0.4l0,0c0,0.1,0,0.2-0.1,0.2s-0.2,0-0.2-0.1l0,0c-0.1-0.2-0.2-0.2-0.3-0.2c-0.2,0.1-0.1,0.3-0.1,0.4l0,0
	l0.4,1.3C635.2,349.7,635.2,349.7,635.1,349.8z"/>
<path class="st0" d="M636,350.3l-0.1,0.1c-0.1,0-0.2,0-0.2-0.1l-0.6-2.3c0-0.1,0-0.2,0.1-0.2s0.2,0,0.2,0.1L636,350.3
	C636.1,350.2,636.1,350.2,636,350.3z"/>
<path class="st0" d="M637,350.7L637,350.7c-0.2,0.1-0.3,0.1-0.3,0l-0.9-3.1c0-0.1-0.1-0.1-0.1-0.1h-0.1c-0.2,0.1,0,0.5,0,0.6
	s0,0.2-0.1,0.2s-0.2,0-0.2-0.1c-0.1-0.3-0.3-0.9,0.1-1.1c0.2-0.1,0.3-0.1,0.4,0c0.1,0,0.3,0.2,0.3,0.3l0,0l0.9,3.1
	C637,350.6,637,350.7,637,350.7z"/>
<path class="st0" d="M637.9,351.4l-0.1,0.1c-0.1,0-0.2,0-0.2-0.1l-1.1-3.9l0,0c0-0.1-0.1-0.3-0.2-0.4c0,0-0.1,0-0.2,0
	c-0.1,0-0.1,0.1-0.1,0.1c0,0.1,0,0.2,0,0.3s0,0.2-0.1,0.2s-0.2,0-0.2-0.1c0,0-0.1-0.3,0-0.6c0.1-0.1,0.2-0.2,0.3-0.3
	c0.2-0.1,0.4,0,0.5,0c0.3,0.1,0.4,0.5,0.4,0.6l1.1,3.9C638,351.3,638,351.3,637.9,351.4z"/>
<path class="st0" d="M638.9,351.9l-0.1,0.1c-0.1,0-0.2,0-0.2-0.1l-1.2-4.3l0,0c-0.1-0.2-0.1-0.5-0.2-0.5c-0.1-0.1-0.2-0.1-0.3-0.1
	c-0.1,0.1-0.2,0.2-0.1,0.4c0,0.1,0,0.2-0.1,0.2s-0.2,0-0.2-0.1c-0.2-0.4,0-0.7,0.3-0.8c0.3-0.1,0.6-0.1,0.7,0.2
	c0.1,0.1,0.2,0.5,0.2,0.6l1.2,4.3C638.9,351.8,638.9,351.9,638.9,351.9z"/>
<path class="st0" d="M639.9,352.5l-0.1,0.1c-0.1,0-0.2,0-0.2-0.1l-1.2-4.3l0,0c-0.1-0.2-0.2-0.5-0.2-0.6c-0.1-0.1-0.2-0.1-0.3,0
	s-0.1,0.2-0.1,0.3s0,0.2-0.1,0.2s-0.2,0-0.2-0.1c-0.2-0.4,0-0.7,0.2-0.8c0.2-0.1,0.5-0.1,0.7,0.1c0.2,0.2,0.3,0.7,0.3,0.8l1.2,4.3
	C639.9,352.4,639.9,352.4,639.9,352.5z"/>
<path class="st0" d="M635.1,349.8l-0.1,0.1l-1.3,0.3l0,0c0,0-0.3,0.1-0.3,0.3c0,0.1,0.1,0.2,0.3,0.1l0,0c0.1,0,0.2,0.1,0.2,0.2
	c0,0.1-0.1,0.2-0.2,0.2l0,0c-0.5,0.1-0.7-0.2-0.7-0.4c0-0.1,0-0.3,0.1-0.4c0.1-0.2,0.4-0.3,0.5-0.3l1.3-0.3
	C635,349.6,635.1,349.6,635.1,349.8C635.2,349.7,635.2,349.7,635.1,349.8z"/>
<path class="st0" d="M636,350.3l-0.1,0.1l-2.3,0.6c-0.1,0-0.2,0-0.2-0.1s0-0.2,0.1-0.2l2.3-0.6C635.9,350.1,636,350.1,636,350.3
	C636.1,350.2,636.1,350.2,636,350.3z"/>
<path class="st0" d="M636.9,350.8l-0.1,0.1l-3.1,0.8l0,0c-0.2,0-0.4,0-0.5-0.1s-0.2-0.2-0.2-0.4c0-0.5,0.5-0.6,0.8-0.7
	c0.1,0,0.2,0.1,0.2,0.2c0,0.1-0.1,0.2-0.2,0.2l0,0c-0.1,0-0.5,0.1-0.5,0.3c0,0.1,0,0.1,0,0.1s0.1,0,0.2,0l3.1-0.8
	c0.1,0,0.2,0,0.2,0.1C636.9,350.8,636.9,350.8,636.9,350.8z"/>
<path class="st0" d="M638,351.4l-0.1,0.1l-3.9,1.1c-0.1,0-0.4,0.1-0.7,0c-0.1-0.1-0.2-0.2-0.2-0.4c0-0.2,0-0.3,0.1-0.4
	c0.2-0.2,0.5-0.3,0.5-0.3c0.1,0,0.2,0.1,0.2,0.2c0,0.1-0.1,0.2-0.2,0.2c0,0-0.2,0-0.2,0.1v0.1c0,0.1,0,0.1,0.1,0.1
	c0.1,0.1,0.3,0,0.4,0l0,0l3.9-1.1c0.1,0,0.2,0,0.2,0.1C638,351.3,638,351.3,638,351.4z"/>
<path class="st0" d="M638.9,351.9l-0.1,0.1l-4.3,1.2c-0.1,0-0.5,0.1-0.6,0.2c-0.3,0-0.5-0.2-0.6-0.5c0-0.3,0.1-0.6,0.6-0.7
	c0.1,0,0.2,0.1,0.2,0.2s-0.1,0.2-0.2,0.2c-0.2,0-0.3,0.2-0.3,0.3s0.1,0.2,0.2,0.2c0.1,0,0.3-0.1,0.5-0.1l0,0l4.3-1.2
	C638.7,351.8,638.8,351.8,638.9,351.9C639,351.8,639,351.9,638.9,351.9z"/>
<path class="st0" d="M639.9,352.5l-0.1,0.1l-4.3,1.2c-0.1,0-0.6,0.2-0.8,0.1c-0.3-0.1-0.4-0.3-0.4-0.6c0-0.2,0.2-0.5,0.6-0.6
	c0.1,0,0.2,0.1,0.2,0.2s-0.1,0.2-0.2,0.2c-0.2,0-0.3,0.1-0.3,0.2c0,0.1,0.1,0.2,0.1,0.2c0.1,0,0.4,0,0.6-0.1l0,0l4.3-1.2
	c0.1,0,0.2,0,0.2,0.1C639.9,352.4,639.9,352.4,639.9,352.5z"/>
<circle class="st0" cx="634" cy="349.1" r="0.3"/>
<path class="st0" d="M731.7,346.1l-4.4,0.6c-0.1,0-0.3,0-0.3,0.1c-0.1,0.1-0.1,0.3-0.1,0.4l-0.7,4.2c0,0.1,0,0.2,0.1,0.3
	c0.1,0.1,0.2,0.1,0.3,0.1l4.4-0.4c0.1,0.1,0.3,0,0.4-0.1c0.1-0.1,0.1-0.2,0.1-0.3l0.6-4.6c0-0.1,0-0.2-0.1-0.3
	C731.9,346.1,731.8,346.1,731.7,346.1z M731.2,347.6l-1.6,1.5l-0.2-0.3l0.1-0.1l0,0l1.7-1.7V347.6z M731.1,348.7l-1,0.9l-0.2-0.3
	l1.3-1.2L731.1,348.7z M730.9,349.8l-0.3,0.3l-0.2-0.3l0.7-0.6L730.9,349.8z M727,350.3l1.4-1.4l0.2,0.2l0,0l0,0l-1.7,1.6L727,350.3
	z M727.2,349.1l0.8-0.7l0.2,0.3l-1.1,1.1L727.2,349.1z M727.4,348l0.1-0.1l0.2,0.3l-0.5,0.4L727.4,348z M728.5,347.9l0.8-0.8
	l0.6-0.1l-1.2,1.1L728.5,347.9z M728.8,347.2l-0.5,0.5l-0.2-0.3l0,0l0.1-0.1L728.8,347.2z M728.9,349.4l0.2,0.3l-1.5,1.4H727
	L728.9,349.4z M729.4,349.9l0.2,0.3l-0.9,0.8h-0.6L729.4,349.9z M729.8,350.4l0.2,0.3l-0.3,0.3h-0.6L729.8,350.4z M730.8,350.3
	L730.8,350.3L730.8,350.3L730.8,350.3z M729.2,348.6l-0.2-0.2l1.5-1.4l0.6-0.1L729.2,348.6z"/>
<path class="st0" d="M689.5,432.2l-1.1-7.9c0-0.2,0-0.5-0.2-0.6c-0.2-0.2-0.5-0.3-0.7-0.2l-7.6-1.2c-0.2,0-0.4,0-0.5,0.2
	c-0.1,0.1-0.2,0.3-0.2,0.5l0.7,7.9c-0.1,0.3-0.1,0.6,0.1,0.8c0.2,0.2,0.4,0.2,0.6,0.2l8.2,1.1c0.2,0,0.4,0,0.5-0.2
	C689.5,432.6,689.5,432.4,689.5,432.2z M686.8,431.4l-2.7-2.8l0.5-0.4l0.2,0.3l0,0l3,3.1L686.8,431.4z M684.9,431.2l-1.6-1.7
	l0.4-0.4l2.2,2.3L684.9,431.2z M682.9,430.9l-0.6-0.6l0.4-0.4l1.1,1.2L682.9,430.9z M682,423.8l2.5,2.5l-0.4,0.4l-0.1-0.1l0,0
	l-2.9-3L682,423.8z M684,424.2l1.3,1.4l-0.4,0.4l-1.9-2L684,424.2z M686,424.5l0.2,0.2l-0.4,0.4l-0.8-0.8L686,424.5z M686.3,426.5
	l1.4,1.5l0.1,1.1l-2-2.1L686.3,426.5z M687.6,427l-0.9-0.9l0.5-0.4l0,0l0.2,0.3L687.6,427z M683.6,427.2l-0.5,0.4l-2.6-2.6l-0.1-1
	L683.6,427.2z M682.7,428.1l-0.4,0.4l-1.5-1.6l-0.1-1L682.7,428.1z M681.8,428.9l-0.4,0.4l-0.5-0.5l-0.1-1L681.8,428.9z
	 M681.9,430.7L681.9,430.7L681.9,430.7L681.9,430.7z M685,427.8l0.4-0.4l2.6,2.7l0.1,1L685,427.8z"/>
<path class="st0" d="M552.1,384.4l-4.4-0.7c-0.1-0.1-0.2-0.1-0.4,0c-0.1,0.1-0.2,0.2-0.2,0.4l-1.9,3.8c0,0.1,0,0.2,0,0.3
	c0,0.1,0.1,0.2,0.2,0.2l4.3,0.9c0.1,0.1,0.3,0.1,0.4,0.1c0.1-0.1,0.2-0.2,0.2-0.3l1.9-4.2c0-0.1,0-0.2,0-0.3
	C552.3,384.5,552.2,384.5,552.1,384.4z M551.2,385.8l-1.9,1l-0.2-0.3l0.2-0.1l0,0l2.1-1.1L551.2,385.8z M550.8,386.8l-1.2,0.6
	l-0.2-0.3l1.6-0.8L550.8,386.8z M550.3,387.8l-0.4,0.2l-0.2-0.3l0.8-0.4L550.3,387.8z M546.4,387.1l1.8-0.9l0.2,0.3l0,0l0,0
	l-2.1,1.1L546.4,387.1z M546.9,386.1l0.9-0.5l0.2,0.3l-1.4,0.7L546.9,386.1z M547.4,385.1l0.1-0.1l0.2,0.3l-0.6,0.3L547.4,385.1z
	 M548.5,385.3l1-0.5l0.6,0.1l-1.5,0.7L548.5,385.3z M549,384.6l-0.6,0.3l-0.2-0.3l0,0l0.2-0.1L549,384.6z M548.5,386.8l0.2,0.3
	l-1.8,0.9l-0.6-0.1L548.5,386.8z M548.8,387.4l0.2,0.3l-1.1,0.6l-0.5-0.1L548.8,387.4z M549.1,388l0.2,0.3l-0.3,0.2l-0.5-0.1
	L549.1,388z M550.1,388.3L550.1,388.3L550.1,388.3L550.1,388.3z M549,386.2l-0.2-0.3l1.9-1l0.6,0.1L549,386.2z"/>
<path class="st0" d="M461.6,444.7l-4.9,2.7c-0.2,0-0.3,0.1-0.4,0.3c-0.1,0.2,0,0.4,0.1,0.5l1,5.3c0,0.1,0.1,0.2,0.2,0.3
	c0.1,0.1,0.2,0.1,0.4,0l5-2.4c0.2,0,0.4-0.1,0.5-0.3c0.1-0.1,0.1-0.3,0-0.4l-1.3-5.7c0-0.1-0.1-0.2-0.2-0.3
	C461.8,444.6,461.7,444.6,461.6,444.7z M461.7,446.7l-1.2,2.5l-0.4-0.2l0.1-0.2l0,0l1.3-2.7L461.7,446.7z M462,448l-0.7,1.5
	l-0.4-0.2l1-2L462,448z M462.3,449.3l-0.3,0.5l-0.4-0.2l0.5-1L462.3,449.3z M457.9,451.7l1.1-2.2l0.4,0.2v0.1l0,0l-1.3,2.7
	L457.9,451.7z M457.6,450.3l0.6-1.2l0.4,0.2l-0.8,1.7L457.6,450.3z M457.3,448.9l0.1-0.2l0.4,0.2l-0.3,0.7L457.3,448.9z
	 M458.6,448.2l0.6-1.3l0.7-0.4l-0.9,1.9L458.6,448.2z M458.6,447.2l-0.4,0.8l-0.4-0.2l0,0l0.1-0.2L458.6,447.2z M459.7,449.8
	l0.4,0.2l-1.1,2.3l-0.6,0.3L459.7,449.8z M460.5,450.2l0.4,0.2l-0.7,1.4l-0.6,0.3L460.5,450.2z M461.3,450.6l0.4,0.2l-0.2,0.4
	l-0.6,0.3L461.3,450.6z M462.5,450.1L462.5,450.1L462.5,450.1L462.5,450.1z M459.8,448.8l-0.4-0.2l1.1-2.4l0.6-0.3L459.8,448.8z"/>
</svg>
