<?xml version="1.0" encoding="utf-8"?>
<!-- Generator: Adobe Illustrator 19.1.1, SVG Export Plug-In . SVG Version: 6.00 Build 0)  -->
<svg version="1.1" id="Layer_1" xmlns="http://www.w3.org/2000/svg" xmlns:xlink="http://www.w3.org/1999/xlink" x="0px" y="0px"
	 viewBox="0 0 707 148" style="enable-background:new 0 0 707 148;" xml:space="preserve">
<style type="text/css">
	.st0{fill:#DE5555;}
</style>
<g>
	<path class="st0" d="M140,123.1c0.7-0.9,1-2.2,0.1-3.3c-1-1.3-2.5-1-2.8-0.9l-2.2,0.2c-0.1,0-0.2,0-0.3,0l-1.5,0.1l-1.5-1.9
		c-0.1-0.1-0.2-0.2-0.4-0.2l-2.4,0.2c-0.2,0-0.3,0.1-0.3,0.2c-0.1,0.1,0,0.3,0.1,0.4l3.7,4.6l-0.3,1.2c0,0.1,0,0.3,0.1,0.4
		c0.1,0.1,0.1,0.1,0.2,0.1c0.2,0.1,0.4-0.1,0.5-0.3l0.2-0.7c1.4,1.1,3.3,1.2,3.5,1.2c0.6,0,1.7-0.1,2.6-0.6l1.2,0.6L140,123.1z
		 M136.6,120.7c0.1,0.2,0.1,0.4,0.1,0.6l-1.1-1.4C135.9,120,136.3,120.2,136.6,120.7z M135.1,119.9l1.4,1.8c0,0,0,0,0,0
		c0,0-0.1,0.1-0.1,0.1c0,0-0.1,0.1-0.2,0.1l-1.5-1.9L135.1,119.9z M134.3,119.9l1.6,2c-0.1,0-0.2,0-0.4,0.1l-1.6-2L134.3,119.9z
		 M133.2,120l0.3,0l1.6,2c-0.1,0-0.3,0-0.4-0.1L133.2,120L133.2,120z M130.9,119.4l-1.1-1.4l0.5,0l1.1,1.4L130.9,119.4z
		 M131.9,119.3l-1.1-1.3l0.5,0l1.1,1.3L131.9,119.3z M131.6,120.2l0.3,0l0.6,0.8C132.2,120.7,131.9,120.4,131.6,120.2z M133.4,121.4
		l-1.1-1.4l0.4,0l1.3,1.7C133.9,121.7,133.6,121.6,133.4,121.4z M136.6,123.6C136.6,123.6,136.6,123.6,136.6,123.6
		c-0.1,0-2.2,0-3.5-1.3c1.5,0.8,2.9,0.7,3.7,0.1c0.7-0.5,0.9-1.3,0.5-2.1c-0.1-0.2-0.3-0.4-0.4-0.6l0.6,0c0,0,0.1,0,0.1,0
		c0,0,1.2-0.3,1.9,0.6c0.8,1,0.1,2.1-0.5,2.6C138.2,123.5,137.1,123.6,136.6,123.6z"/>
	<circle class="st0" cx="138.7" cy="121.5" r="0.5"/>
</g>
<g>
	<path class="st0" d="M37.5,50.9c-1.4,0-2.8,0.6-3.2,2.3c-0.5,1.9,0.9,3.1,1.1,3.3l1.8,2c0.1,0.1,0.2,0.2,0.2,0.3l1.2,1.4L38,63
		c0,0.2,0,0.3,0.1,0.5l2,2.1c0.1,0.1,0.3,0.2,0.5,0.1c0.2,0,0.3-0.2,0.4-0.4l1.8-6.9l1.4-0.6c0.1-0.1,0.2-0.2,0.3-0.3
		c0-0.1,0-0.2,0-0.3c-0.1-0.3-0.4-0.4-0.6-0.3l-0.8,0.4c0-2.2-1.3-4-1.5-4.2c-0.4-0.6-1.3-1.5-2.5-2l-0.3-1.5L37.5,50.9z M37.8,55.8
		c0.1-0.3,0.3-0.4,0.5-0.5l-0.5,2.1C37.6,57.1,37.5,56.5,37.8,55.8z M38.1,57.9l0.7-2.6c0,0,0,0,0,0c0,0,0.1,0,0.1,0
		c0.1,0,0.1,0,0.2,0.1l-0.7,2.8L38.1,57.9z M38.7,58.6l0.8-3c0.1,0.1,0.2,0.2,0.3,0.3L39,59L38.7,58.6z M39.6,59.6l-0.3-0.3l0.8-3
		c0.1,0.1,0.2,0.3,0.2,0.4L39.6,59.6L39.6,59.6z M40.7,62.2l-0.5,2l-0.4-0.5l0.5-2L40.7,62.2z M39.9,61.4l-0.5,2L39,62.9l0.5-2
		L39.9,61.4z M40.9,61l-0.2-0.2l0.3-1.1C40.9,60,40.9,60.5,40.9,61z M40.8,58.4l-0.5,2L40,60l0.6-2.5C40.7,57.8,40.8,58,40.8,58.4z
		 M40.5,53.7C40.5,53.7,40.5,53.7,40.5,53.7c0,0.1,1.6,2.1,1.2,4.3c-0.4-2-1.4-3.2-2.6-3.6c-1-0.3-1.9,0.1-2.3,1.1
		c-0.1,0.3-0.2,0.6-0.2,0.8l-0.5-0.6c0,0,0,0-0.1-0.1c0,0-1.2-0.9-0.8-2.3c0.4-1.5,2-1.7,2.9-1.5C39.3,52.2,40.2,53.2,40.5,53.7z"/>
	<circle class="st0" cx="37" cy="53.3" r="0.6"/>
</g>
<g>
	<path class="st0" d="M256,84.3c-0.5-1.5-1.8-2.7-3.7-2.5c-2.2,0.2-2.9,2.1-3,2.5l-1.4,2.7c-0.1,0.2-0.2,0.3-0.2,0.3l-1,1.8
		l-3.3,0.3c-0.2,0-0.4,0.1-0.4,0.3l-1.5,2.9c-0.1,0.2-0.1,0.4,0,0.6c0.1,0.2,0.3,0.3,0.5,0.2l7.9-0.8l1.2,1.2
		c0.1,0.1,0.3,0.2,0.5,0.2c0.1,0,0.2-0.1,0.3-0.1c0.2-0.2,0.2-0.6,0-0.8l-0.7-0.8c2.3-0.8,3.7-2.9,3.9-3.2c0.4-0.6,1.1-2,1.1-3.4
		l1.5-0.9L256,84.3z M250.8,86.5c0.3,0,0.6,0.1,0.7,0.4l-2.4,0.3C249.5,86.8,250,86.5,250.8,86.5z M248.8,87.6l3-0.3c0,0,0,0,0,0
		c0,0,0,0.1,0,0.2c0,0.1,0,0.2,0,0.2l-3.3,0.3L248.8,87.6z M248.3,88.5l3.4-0.4c0,0.1-0.1,0.3-0.2,0.5L248,89L248.3,88.5z
		 M247.5,89.9l0.2-0.4l3.4-0.4c-0.1,0.1-0.2,0.3-0.4,0.4L247.5,89.9L247.5,89.9z M245.2,92l-2.3,0.2l0.3-0.6l2.3-0.2L245.2,92z
		 M245.8,90.9l-2.3,0.2l0.3-0.6l2.3-0.2L245.8,90.9z M246.6,91.8l0.2-0.3l1.3-0.1C247.6,91.5,247.1,91.6,246.6,91.8z M249.4,90.7
		l-2.3,0.2l0.2-0.5l2.9-0.3C249.9,90.3,249.7,90.5,249.4,90.7z M254.2,88.5C254.2,88.5,254.1,88.6,254.2,88.5c0,0.1-1.6,2.6-4,3
		c2-1.2,2.9-2.8,2.8-4.1c-0.1-1.2-0.9-2-2-2c-0.4,0-0.7,0-1,0.1l0.4-0.7c0,0,0-0.1,0-0.1c0-0.1,0.5-1.6,2.1-1.8
		c1.7-0.2,2.5,1.4,2.6,2.5C255.2,86.7,254.5,88,254.2,88.5z"/>
	<circle class="st0" cx="253.2" cy="84.7" r="0.6"/>
</g>
<path class="st0" d="M112.2,17.3c0.1,0.2,0.2,0.4,0.1,0.6l-0.7,4.7c-0.1,0.4-0.4,0.7-0.9,0.6s-0.7-0.4-0.6-0.9l0.7-4.7
	c0.1-0.4,0.4-0.7,0.9-0.6C111.9,17,112.1,17.1,112.2,17.3z"/>
<path class="st0" d="M116.9,17.9c0.1,0.2,0.2,0.3,0.1,0.6c-0.1,0.4-0.4,0.7-0.8,0.6l-4.7-0.6c-0.4-0.1-0.7-0.4-0.6-0.8
	c0.1-0.4,0.4-0.7,0.8-0.6l4.7,0.6C116.6,17.7,116.8,17.8,116.9,17.9z"/>
<path class="st0" d="M114.6,20.5c0.1,0.2,0.2,0.4,0.1,0.6l-0.7,4.7c-0.1,0.4-0.4,0.7-0.9,0.6c-0.4-0.1-0.7-0.4-0.6-0.9l0.7-4.7
	c0.1-0.4,0.4-0.7,0.9-0.6C114.3,20.3,114.5,20.4,114.6,20.5z"/>
<path class="st0" d="M119.4,21.2c0.1,0.2,0.2,0.3,0.1,0.6c-0.1,0.4-0.4,0.7-0.8,0.6l-4.7-0.6c-0.4-0.1-0.7-0.4-0.6-0.8
	c0.1-0.4,0.4-0.7,0.8-0.6l4.7,0.6C119.1,20.9,119.2,21,119.4,21.2z"/>
<path class="st0" d="M117.1,23.8c0.1,0.2,0.2,0.4,0.1,0.6l-0.7,4.7c-0.1,0.4-0.4,0.7-0.9,0.6c-0.4-0.1-0.7-0.4-0.6-0.9l0.7-4.7
	c0.1-0.4,0.4-0.7,0.9-0.6C116.8,23.5,117,23.6,117.1,23.8z"/>
<path class="st0" d="M121.8,24.4c0.1,0.2,0.2,0.3,0.1,0.6c-0.1,0.4-0.4,0.7-0.8,0.6l-4.7-0.6c-0.4-0.1-0.7-0.4-0.6-0.8
	c0.1-0.4,0.4-0.7,0.8-0.6l4.7,0.6C121.5,24.2,121.7,24.3,121.8,24.4z"/>
<path class="st0" d="M337.4,58.8c-0.2,0-0.4-0.1-0.5-0.3l-2.9-3.8c-0.3-0.3-0.2-0.8,0.1-1.1c0.3-0.3,0.8-0.2,1.1,0.1l2.9,3.8
	c0.3,0.3,0.2,0.8-0.1,1.1C337.8,58.8,337.6,58.9,337.4,58.8z"/>
<path class="st0" d="M333.7,61.8c-0.2,0-0.4-0.1-0.5-0.3c-0.3-0.3-0.2-0.8,0.1-1.1l3.7-3c0.3-0.3,0.8-0.2,1.1,0.1
	c0.3,0.3,0.2,0.8-0.1,1.1l-3.7,3C334.1,61.8,333.9,61.8,333.7,61.8z"/>
<path class="st0" d="M333.4,58.4c-0.2,0-0.4-0.1-0.5-0.3l-2.9-3.8c-0.3-0.3-0.2-0.8,0.1-1.1c0.3-0.3,0.8-0.2,1.1,0.1l2.9,3.8
	c0.3,0.3,0.2,0.8-0.1,1.1C333.8,58.3,333.6,58.4,333.4,58.4z"/>
<path class="st0" d="M329.7,61.3c-0.2,0-0.4-0.1-0.5-0.3c-0.3-0.3-0.2-0.8,0.1-1.1l3.7-3c0.3-0.3,0.8-0.2,1.1,0.1
	c0.3,0.3,0.2,0.8-0.1,1.1l-3.7,3C330.1,61.3,329.9,61.4,329.7,61.3z"/>
<path class="st0" d="M329.4,57.9c-0.2,0-0.4-0.1-0.5-0.3l-2.9-3.8c-0.3-0.3-0.2-0.8,0.1-1.1c0.3-0.3,0.8-0.2,1.1,0.1l2.9,3.8
	c0.3,0.3,0.2,0.8-0.1,1.1C329.7,57.9,329.5,57.9,329.4,57.9z"/>
<path class="st0" d="M325.6,60.9c-0.2,0-0.4-0.1-0.5-0.3c-0.3-0.3-0.2-0.8,0.1-1.1l3.7-3c0.3-0.3,0.8-0.2,1.1,0.1
	c0.3,0.3,0.2,0.8-0.1,1.1l-3.7,3C326,60.8,325.8,60.9,325.6,60.9z"/>
<path class="st0" d="M192.3,64.7c0-0.1-0.1-0.1,0-0.2l0.5-1.8c0-0.2,0.2-0.3,0.4-0.2c0.2,0,0.3,0.2,0.2,0.4l-0.5,1.8
	c0,0.2-0.2,0.3-0.4,0.2C192.4,64.8,192.3,64.7,192.3,64.7z"/>
<path class="st0" d="M190.5,64.2c0-0.1-0.1-0.1,0-0.2c0-0.2,0.2-0.3,0.4-0.2l1.8,0.5c0.2,0,0.3,0.2,0.2,0.4c0,0.2-0.2,0.3-0.4,0.2
	l-1.8-0.5C190.6,64.3,190.5,64.2,190.5,64.2z"/>
<path class="st0" d="M191.5,63.2c0-0.1-0.1-0.1,0-0.2l0.5-1.8c0-0.2,0.2-0.3,0.4-0.2c0.2,0,0.3,0.2,0.2,0.4l-0.5,1.8
	c0,0.2-0.2,0.3-0.4,0.2C191.6,63.4,191.5,63.3,191.5,63.2z"/>
<path class="st0" d="M189.7,62.7c0-0.1-0.1-0.1,0-0.2c0-0.2,0.2-0.3,0.4-0.2l1.8,0.5c0.2,0,0.3,0.2,0.2,0.4c0,0.2-0.2,0.3-0.4,0.2
	l-1.8-0.5C189.8,62.9,189.7,62.8,189.7,62.7z"/>
<path class="st0" d="M190.7,61.8c0-0.1-0.1-0.1,0-0.2l0.5-1.8c0-0.2,0.2-0.3,0.4-0.2c0.2,0,0.3,0.2,0.2,0.4l-0.5,1.8
	c0,0.2-0.2,0.3-0.4,0.2C190.8,61.9,190.7,61.9,190.7,61.8z"/>
<path class="st0" d="M188.9,61.3c0-0.1-0.1-0.1,0-0.2c0-0.2,0.2-0.3,0.4-0.2l1.8,0.5c0.2,0,0.3,0.2,0.2,0.4c0,0.2-0.2,0.3-0.4,0.2
	l-1.8-0.5C189,61.5,188.9,61.4,188.9,61.3z"/>
<path class="st0" d="M216.3,41.7c-0.1,0-0.2-0.1-0.3-0.3l-1.3-2.9c-0.1-0.3,0-0.6,0.3-0.7c0.3-0.1,0.6,0,0.7,0.3L217,41
	c0.1,0.3,0,0.6-0.3,0.7C216.6,41.8,216.4,41.8,216.3,41.7z"/>
<path class="st0" d="M213.4,43.1c-0.1,0-0.2-0.1-0.3-0.3c-0.1-0.3,0-0.6,0.2-0.7l2.9-1.4c0.3-0.1,0.6,0,0.7,0.2
	c0.1,0.3,0,0.6-0.2,0.7l-2.9,1.4C213.7,43.1,213.5,43.1,213.4,43.1z"/>
<path class="st0" d="M213.7,40.8c-0.1,0-0.2-0.1-0.3-0.3l-1.3-2.9c-0.1-0.3,0-0.6,0.3-0.7c0.3-0.1,0.6,0,0.7,0.3l1.3,2.9
	c0.1,0.3,0,0.6-0.3,0.7C214,40.8,213.9,40.8,213.7,40.8z"/>
<path class="st0" d="M210.8,42.1c-0.1,0-0.2-0.1-0.3-0.3c-0.1-0.3,0-0.6,0.2-0.7l2.9-1.4c0.3-0.1,0.6,0,0.7,0.2
	c0.1,0.3,0,0.6-0.2,0.7l-2.9,1.4C211.1,42.2,211,42.2,210.8,42.1z"/>
<path class="st0" d="M211.2,39.8c-0.1,0-0.2-0.1-0.3-0.3l-1.3-2.9c-0.1-0.3,0-0.6,0.3-0.7c0.3-0.1,0.6,0,0.7,0.3l1.3,2.9
	c0.1,0.3,0,0.6-0.3,0.7C211.4,39.8,211.3,39.8,211.2,39.8z"/>
<path class="st0" d="M208.3,41.2c-0.1,0-0.2-0.1-0.3-0.3c-0.1-0.3,0-0.6,0.2-0.7l2.9-1.4c0.3-0.1,0.6,0,0.7,0.2
	c0.1,0.3,0,0.6-0.2,0.7l-2.9,1.4C208.5,41.2,208.4,41.2,208.3,41.2z"/>
<path class="st0" d="M193.3,135.8c-0.1,0-0.3,0-0.4-0.1l-2.5-2c-0.2-0.2-0.3-0.5-0.1-0.7c0.2-0.2,0.5-0.3,0.7-0.1l2.5,2
	c0.2,0.2,0.3,0.5,0.1,0.7C193.6,135.8,193.4,135.8,193.3,135.8z"/>
<path class="st0" d="M191.3,138.4c-0.1,0-0.3,0-0.4-0.1c-0.2-0.2-0.3-0.5-0.1-0.7l2-2.5c0.2-0.2,0.5-0.3,0.7-0.1
	c0.2,0.2,0.3,0.5,0.1,0.7l-2,2.5C191.6,138.3,191.5,138.3,191.3,138.4z"/>
<path class="st0" d="M190.6,136.1c-0.1,0-0.3,0-0.4-0.1l-2.5-2c-0.2-0.2-0.3-0.5-0.1-0.7c0.2-0.2,0.5-0.3,0.7-0.1l2.5,2
	c0.2,0.2,0.3,0.5,0.1,0.7C190.8,136.1,190.7,136.1,190.6,136.1z"/>
<path class="st0" d="M188.6,138.7c-0.1,0-0.3,0-0.4-0.1c-0.2-0.2-0.3-0.5-0.1-0.7l2-2.5c0.2-0.2,0.5-0.3,0.7-0.1
	c0.2,0.2,0.3,0.5,0.1,0.7l-2,2.5C188.9,138.6,188.7,138.7,188.6,138.7z"/>
<path class="st0" d="M187.9,136.4c-0.1,0-0.3,0-0.4-0.1l-2.5-2c-0.2-0.2-0.3-0.5-0.1-0.7s0.5-0.3,0.7-0.1l2.5,2
	c0.2,0.2,0.3,0.5,0.1,0.7C188.1,136.4,188,136.4,187.9,136.4z"/>
<path class="st0" d="M185.9,139c-0.1,0-0.3,0-0.4-0.1c-0.2-0.2-0.3-0.5-0.1-0.7l2-2.5c0.2-0.2,0.5-0.3,0.7-0.1
	c0.2,0.2,0.3,0.5,0.1,0.7l-2,2.5C186.1,138.9,186,139,185.9,139z"/>
<path class="st0" d="M31.5,136.1c0.1,0,0.3,0,0.4,0l2.9,1.5c0.3,0.1,0.4,0.4,0.2,0.7c-0.1,0.3-0.4,0.4-0.7,0.2l-2.9-1.5
	c-0.3-0.1-0.4-0.4-0.2-0.7C31.3,136.2,31.4,136.1,31.5,136.1z"/>
<path class="st0" d="M32.9,133.2c0.1,0,0.3,0,0.4,0c0.3,0.1,0.4,0.4,0.2,0.7l-1.4,2.9c-0.1,0.3-0.4,0.4-0.7,0.2
	c-0.3-0.1-0.4-0.4-0.2-0.7l1.4-2.9C32.7,133.3,32.8,133.2,32.9,133.2z"/>
<path class="st0" d="M34.1,135.2c0.1,0,0.3,0,0.4,0l2.9,1.5c0.3,0.1,0.4,0.4,0.2,0.7c-0.1,0.2-0.4,0.4-0.7,0.2l-2.9-1.5
	c-0.3-0.1-0.4-0.4-0.2-0.7C33.9,135.3,34,135.2,34.1,135.2z"/>
<path class="st0" d="M35.5,132.3c0.1,0,0.3,0,0.4,0c0.3,0.1,0.4,0.4,0.2,0.7l-1.4,2.9c-0.1,0.3-0.4,0.4-0.7,0.2
	c-0.3-0.1-0.4-0.4-0.2-0.7l1.4-2.9C35.3,132.4,35.4,132.3,35.5,132.3z"/>
<path class="st0" d="M36.7,134.3c0.1,0,0.3,0,0.4,0l2.9,1.5c0.3,0.1,0.4,0.4,0.2,0.7s-0.4,0.4-0.7,0.2l-2.9-1.5
	c-0.3-0.1-0.4-0.4-0.2-0.7C36.5,134.4,36.6,134.4,36.7,134.3z"/>
<path class="st0" d="M38.1,131.4c0.1,0,0.3,0,0.4,0c0.3,0.1,0.4,0.4,0.2,0.7l-1.4,2.9c-0.1,0.3-0.4,0.4-0.7,0.2
	c-0.3-0.1-0.4-0.4-0.2-0.7l1.4-2.9C37.9,131.5,38,131.5,38.1,131.4z"/>
<path class="st0" d="M24.2,30.9c-0.1,0-0.2,0-0.3-0.1L19.7,26c-0.1-0.1-0.1-0.2-0.1-0.3c0-0.1,0.1-0.2,0.2-0.3
	c0.1-0.1,3.3-1.9,5.3,0.4c1.8,2-0.4,4.9-0.5,5.1c0,0,0,0-0.1,0.1C24.4,30.9,24.3,30.9,24.2,30.9z M24.2,29.8
	c0.5-0.8,1.3-2.4,0.3-3.6c-1.1-1.3-2.9-0.8-3.7-0.4L24.2,29.8z"/>
<path class="st0" d="M20.8,26.5l1.6-1.4c0.1-0.1,0.1-0.2,0-0.3c-0.1-0.1-0.2-0.1-0.3,0l-1.6,1.4c-0.1,0.1-0.1,0.2,0,0.3
	C20.6,26.6,20.7,26.6,20.8,26.5z"/>
<path class="st0" d="M21.3,27.1l2-1.8c0.1-0.1,0.1-0.2,0-0.3c-0.1-0.1-0.2-0.1-0.3,0l-2,1.8c-0.1,0.1-0.1,0.2,0,0.3
	C21.1,27.1,21.2,27.1,21.3,27.1z"/>
<path class="st0" d="M21.7,27.6l2.4-2.1c0.1-0.1,0.1-0.2,0-0.3c-0.1-0.1-0.2-0.1-0.3,0l-2.4,2.1c-0.1,0.1-0.1,0.2,0,0.3
	C21.6,27.7,21.7,27.7,21.7,27.6z"/>
<path class="st0" d="M22.2,28.2l2.3-2c0.1-0.1,0.1-0.2,0-0.3c-0.1-0.1-0.2-0.1-0.3,0l-2.3,2c-0.1,0.1-0.1,0.2,0,0.3
	C22,28.2,22.1,28.3,22.2,28.2z"/>
<path class="st0" d="M22.7,28.8l2.3-2c0.1-0.1,0.1-0.2,0-0.3c-0.1-0.1-0.2-0.1-0.3,0l-2.3,2c-0.1,0.1-0.1,0.2,0,0.3
	C22.5,28.8,22.6,28.8,22.7,28.8z"/>
<path class="st0" d="M23.2,29.3l2-1.8c0.1-0.1,0.1-0.2,0-0.3c-0.1-0.1-0.2-0.1-0.3,0L23,29c-0.1,0.1-0.1,0.2,0,0.3
	C23,29.4,23.1,29.4,23.2,29.3z"/>
<path class="st0" d="M23.7,29.9l1.7-1.5c0.1-0.1,0.1-0.2,0-0.3s-0.2-0.1-0.3,0l-1.7,1.5c-0.1,0.1-0.1,0.2,0,0.3
	C23.5,29.9,23.6,29.9,23.7,29.9z"/>
<path class="st0" d="M24.8,26"/>
<path class="st0" d="M172.4,25.4c0-0.1-0.1-0.2-0.2-0.3c0,0-0.1,0-0.1,0c-0.2-0.1-4.4-1.6-6.2,1.2c-2,3.1,1.3,6.3,1.4,6.4
	c0.1,0.1,0.3,0.2,0.4,0.1c0.2,0,0.3-0.1,0.4-0.2l4.2-6.7C172.4,25.7,172.4,25.5,172.4,25.4z M170.9,26.1l-0.7-0.4
	c0.3,0,0.6,0.1,0.9,0.2L170.9,26.1z M170.4,26.9l-1.9-1.2c0.3,0,0.5-0.1,0.8-0.1l1.4,0.9L170.4,26.9z M169.9,27.7l-2.5-1.6
	c0.2-0.1,0.3-0.2,0.5-0.3l2.3,1.4L169.9,27.7z M169.4,28.5l-2.7-1.7c0.1-0.1,0.2-0.3,0.3-0.4l2.6,1.7L169.4,28.5z M168.9,29.2
	l-2.6-1.6c0-0.1,0.1-0.3,0.2-0.4l2.6,1.7L168.9,29.2z M168.4,30l-2.1-1.3c0-0.2,0-0.4,0-0.6l2.4,1.5L168.4,30z M168,30.8l-1.3-0.8
	c-0.1-0.2-0.2-0.5-0.3-0.7l1.8,1.1L168,30.8z M167.6,31.4c-0.1-0.2-0.3-0.4-0.4-0.6l0.6,0.4L167.6,31.4z"/>
<path class="st0" d="M236.4,130.5c-0.1,0.1-0.1,0.1-0.2,0.2c0,0,0,0.1,0,0.1c0,0.1-0.3,3.7,2.2,4.4c2.7,0.8,4.4-2.3,4.5-2.4
	c0.1-0.1,0.1-0.2,0-0.3c0-0.1-0.1-0.2-0.3-0.2l-5.9-1.7C236.7,130.5,236.5,130.5,236.4,130.5z M237.3,131.5l-0.2,0.6
	c0-0.3-0.1-0.5-0.1-0.7L237.3,131.5z M238,131.7l-0.5,1.7c-0.1-0.2-0.2-0.4-0.2-0.6l0.4-1.2L238,131.7z M238.7,131.9l-0.6,2.2
	c-0.1-0.1-0.2-0.2-0.3-0.3l0.6-2L238.7,131.9z M239.4,132.1l-0.7,2.4c-0.1,0-0.2-0.1-0.4-0.2l0.7-2.3L239.4,132.1z M240.1,132.3
	l-0.7,2.3c-0.1,0-0.2,0-0.4,0l0.7-2.3L240.1,132.3z M240.8,132.5l-0.6,1.9c-0.1,0.1-0.3,0.1-0.4,0.1l0.6-2.1L240.8,132.5z
	 M241.4,132.7l-0.3,1.1c-0.1,0.1-0.3,0.3-0.5,0.4l0.5-1.6L241.4,132.7z M242,132.8c-0.1,0.1-0.2,0.3-0.3,0.4l0.1-0.5L242,132.8z"/>
<polygon class="st0" points="96.6,62.1 95.2,59.5 98.1,59.5 "/>
<polygon class="st0" points="21.9,111.5 16.9,108.9 21.4,107 "/>
<polygon class="st0" points="215.1,100 207.3,102.1 210.2,95.8 "/>
<polygon class="st0" points="285.7,27.3 284.3,21.2 289.1,23.7 "/>
<polygon class="st0" points="331.7,98.3 328.6,96.5 331.5,95.4 "/>
<path class="st0" d="M100,102.1c-0.2,0.1-0.4,0-0.4-0.2l-3.6-9c-0.1-0.2,0-0.4,0.2-0.4c0.2-0.1,0.4,0,0.4,0.2l3.6,9
	C100.2,101.8,100.1,102,100,102.1z"/>
<path class="st0" d="M96.3,93.1c-0.1,0-0.2,0-0.2,0c-0.2-0.1-0.2-0.3-0.2-0.4l0.9-2.2c0-0.1,0.2-0.6,0.7-0.8c0.2-0.1,0.5-0.1,0.7,0
	c0.4,0.1,0.8,0.5,0.5,1.4c0,0,0,0,0,0c0,0.2-0.2,0.3-0.4,0.2c-0.2,0-0.3-0.2-0.2-0.4c0,0,0,0,0-0.1c0.1-0.4,0-0.5-0.1-0.6
	c-0.3-0.1-0.5,0.4-0.6,0.4c0,0,0,0,0,0l-0.9,2.2C96.4,93,96.4,93,96.3,93.1z"/>
<path class="st0" d="M97,94.8c-0.1,0-0.2,0-0.2,0c-0.2-0.1-0.2-0.3-0.2-0.4l1.7-4c0.1-0.2,0.3-0.2,0.4-0.2c0.2,0.1,0.2,0.3,0.2,0.4
	l-1.7,4C97.1,94.7,97.1,94.8,97,94.8z"/>
<path class="st0" d="M97.8,96.5c-0.1,0-0.2,0-0.2,0c-0.2-0.1-0.2-0.3-0.2-0.4l2.2-5.4c0-0.1,0-0.3,0-0.3c0-0.1-0.1-0.1-0.2-0.1
	c-0.3-0.1-0.6,0.7-0.6,0.9c0,0.2-0.2,0.3-0.4,0.2c-0.2,0-0.3-0.2-0.2-0.4c0.1-0.6,0.6-1.5,1.4-1.3c0.4,0.1,0.6,0.3,0.6,0.4
	c0.1,0.2,0.2,0.5,0.1,0.9c0,0,0,0,0,0L98,96.3C98,96.4,97.9,96.4,97.8,96.5z"/>
<path class="st0" d="M98.5,98.5c-0.1,0-0.2,0-0.2,0c-0.2-0.1-0.2-0.3-0.2-0.4l2.8-6.7c0,0,0,0,0,0c0.1-0.1,0.2-0.5,0.1-0.7
	c0,0-0.1-0.1-0.2-0.2c-0.1,0-0.2,0-0.3,0c-0.2,0.1-0.3,0.3-0.3,0.4c0,0.2-0.2,0.3-0.4,0.2c-0.2,0-0.3-0.2-0.2-0.4
	c0-0.1,0.2-0.6,0.6-0.8c0.2-0.1,0.5-0.2,0.8-0.1c0.4,0.1,0.6,0.3,0.6,0.5c0.2,0.5,0,1.2-0.1,1.3l-2.8,6.7
	C98.6,98.4,98.5,98.4,98.5,98.5z"/>
<path class="st0" d="M99.2,100.3c-0.1,0-0.2,0-0.2,0c-0.2-0.1-0.2-0.3-0.2-0.4l3.1-7.3c0,0,0,0,0,0c0.2-0.4,0.3-0.8,0.4-0.9
	c0-0.3-0.2-0.4-0.3-0.4c-0.2,0-0.5,0-0.6,0.4c0,0.2-0.2,0.3-0.4,0.2c-0.2,0-0.3-0.2-0.2-0.4c0.2-0.7,0.8-1,1.3-0.9
	c0.5,0.1,0.9,0.6,0.8,1.1c0,0.3-0.3,0.9-0.4,1.1l-3.1,7.3C99.4,100.2,99.3,100.3,99.2,100.3z"/>
<path class="st0" d="M100,102.2c-0.1,0-0.2,0-0.2,0c-0.2-0.1-0.2-0.3-0.2-0.4l3.1-7.3c0,0,0,0,0,0c0.2-0.4,0.4-0.9,0.4-1.1
	c0-0.2-0.2-0.3-0.3-0.3c-0.2,0-0.4,0.1-0.5,0.4c0,0.2-0.2,0.3-0.4,0.2c-0.2,0-0.3-0.2-0.2-0.4c0.2-0.7,0.7-0.9,1.1-0.9
	c0.5,0.1,0.9,0.4,0.9,0.9c0,0.4-0.3,1.2-0.4,1.4l-3.1,7.3C100.1,102.1,100.1,102.2,100,102.2z"/>
<path class="st0" d="M96.3,93.1c-0.1,0-0.2,0-0.3,0l-2.1-0.9c0,0,0,0,0,0c-0.1,0-0.5-0.2-0.7,0.1c-0.1,0.1-0.1,0.3,0.3,0.5
	c0,0,0.1,0,0.1,0c0.1,0.1,0.2,0.3,0.1,0.4c-0.1,0.1-0.3,0.2-0.4,0.1c0,0,0,0,0,0c-0.8-0.5-0.7-1-0.6-1.3c0.1-0.2,0.3-0.4,0.5-0.5
	c0.5-0.2,0.9,0.1,1,0.1l2.1,0.9c0.2,0.1,0.2,0.3,0.2,0.4C96.4,93,96.4,93.1,96.3,93.1z"/>
<path class="st0" d="M97,94.8c-0.1,0-0.2,0-0.2,0l-4-1.7c-0.2-0.1-0.2-0.3-0.2-0.4c0.1-0.2,0.3-0.2,0.4-0.2l4,1.7
	c0.2,0.1,0.2,0.3,0.2,0.4C97.1,94.7,97.1,94.8,97,94.8z"/>
<path class="st0" d="M97.6,96.6c-0.1,0-0.2,0-0.3,0L92,94.2c0,0,0,0,0,0c-0.3-0.2-0.5-0.4-0.5-0.7c0-0.2,0-0.4,0.2-0.7
	c0.5-0.7,1.4-0.3,1.9,0c0.2,0.1,0.2,0.3,0.1,0.4c-0.1,0.2-0.3,0.2-0.4,0.1l0,0c-0.2-0.1-0.9-0.5-1.1-0.2c-0.1,0.1-0.1,0.2-0.1,0.2
	c0,0.1,0.1,0.2,0.2,0.3l5.3,2.4c0.2,0.1,0.2,0.3,0.2,0.4C97.7,96.5,97.7,96.6,97.6,96.6z"/>
<path class="st0" d="M98.5,98.5c-0.1,0-0.2,0-0.2,0l-6.6-2.9c-0.1,0-0.8-0.3-0.9-0.8c-0.1-0.2-0.1-0.5,0.1-0.8
	c0.1-0.2,0.3-0.4,0.6-0.5c0.5-0.1,0.9,0.1,1,0.2c0.2,0.1,0.2,0.3,0.1,0.4c-0.1,0.2-0.3,0.2-0.4,0.1c-0.1,0-0.3-0.1-0.5-0.1
	c-0.1,0-0.1,0-0.2,0.2c-0.1,0.1-0.1,0.2,0,0.3c0.1,0.2,0.4,0.4,0.6,0.5c0,0,0,0,0,0l6.6,2.9c0.2,0.1,0.2,0.3,0.2,0.4
	C98.6,98.4,98.6,98.4,98.5,98.5z"/>
<path class="st0" d="M99.2,100.3c-0.1,0-0.2,0-0.2,0l-7.3-3.1c-0.2-0.1-0.9-0.3-1.1-0.5c-0.4-0.3-0.5-0.9-0.2-1.4
	c0.3-0.4,0.9-0.7,1.5-0.3c0.2,0.1,0.2,0.3,0.1,0.4c-0.1,0.2-0.3,0.2-0.4,0.1c-0.3-0.2-0.6-0.1-0.7,0.1c-0.1,0.1-0.1,0.3,0.1,0.5
	c0.1,0.1,0.5,0.3,0.9,0.4c0,0,0,0,0,0l7.3,3.1c0.2,0.1,0.2,0.3,0.2,0.4C99.4,100.2,99.3,100.3,99.2,100.3z"/>
<path class="st0" d="M100,102.2c-0.1,0-0.2,0-0.2,0l-7.3-3.1c-0.2-0.1-1-0.4-1.3-0.7c-0.3-0.4-0.3-0.9,0-1.3
	c0.3-0.3,0.8-0.5,1.4-0.2c0.2,0.1,0.2,0.3,0.1,0.4c-0.1,0.2-0.3,0.2-0.4,0.1c-0.3-0.2-0.5-0.1-0.6,0c-0.1,0.1-0.1,0.3,0,0.5
	c0.1,0.1,0.6,0.4,1,0.6c0,0,0,0,0,0l7.3,3.1c0.2,0.1,0.2,0.3,0.2,0.4C100.1,102.1,100.1,102.2,100,102.2z"/>
<circle class="st0" cx="95.4" cy="90.9" r="0.5"/>
<path class="st0" d="M334,133.9c0,0.1-0.2,0.1-0.2,0.1l-4.7-2.7c-0.1,0-0.1-0.2-0.1-0.2s0.2-0.1,0.2-0.1l4.7,2.7
	C334.1,133.7,334.1,133.9,334,133.9z"/>
<path class="st0" d="M329.3,131.3c0,0-0.1,0.1-0.1,0.1c-0.1,0-0.2,0-0.2-0.1l-0.4-1.3c0,0-0.1-0.3,0-0.6c0.1-0.1,0.2-0.2,0.3-0.3
	c0.2-0.1,0.5-0.1,0.7,0.4c0,0,0,0,0,0c0,0.1,0,0.2-0.1,0.2c-0.1,0-0.2,0-0.2-0.1c0,0,0,0,0,0c-0.1-0.2-0.2-0.2-0.3-0.2
	c-0.2,0.1-0.1,0.3-0.1,0.4c0,0,0,0,0,0l0.4,1.3C329.3,131.2,329.3,131.2,329.3,131.3z"/>
<path class="st0" d="M330.2,131.8c0,0-0.1,0.1-0.1,0.1c-0.1,0-0.2,0-0.2-0.1l-0.6-2.3c0-0.1,0-0.2,0.1-0.2s0.2,0,0.2,0.1l0.6,2.3
	C330.2,131.7,330.2,131.7,330.2,131.8z"/>
<path class="st0" d="M331.1,132.2c0,0-0.1,0.1-0.1,0.1c-0.1,0-0.2,0-0.2-0.1l-0.9-3.1c0-0.1-0.1-0.1-0.1-0.1c0,0-0.1,0-0.1,0
	c-0.2,0.1,0,0.5,0,0.6c0,0.1,0,0.2-0.1,0.2c-0.1,0-0.2,0-0.2-0.1c-0.1-0.3-0.3-0.9,0.1-1.1c0.2-0.1,0.3-0.1,0.4,0
	c0.1,0,0.3,0.2,0.3,0.3c0,0,0,0,0,0l0.9,3.1C331.2,132.1,331.2,132.2,331.1,132.2z"/>
<path class="st0" d="M332.1,132.9c0,0-0.1,0.1-0.1,0.1c-0.1,0-0.2,0-0.2-0.1l-1.1-3.9c0,0,0,0,0,0c0-0.1-0.1-0.3-0.2-0.4
	c0,0-0.1,0-0.2,0c-0.1,0-0.1,0.1-0.1,0.1c0,0.1,0,0.2,0,0.3c0,0.1,0,0.2-0.1,0.2c-0.1,0-0.2,0-0.2-0.1c0,0-0.1-0.3,0-0.6
	c0.1-0.1,0.2-0.2,0.3-0.3c0.2-0.1,0.4,0,0.5,0c0.3,0.1,0.4,0.5,0.4,0.6l1.1,3.9C332.2,132.8,332.1,132.8,332.1,132.9z"/>
<path class="st0" d="M333.1,133.4c0,0-0.1,0.1-0.1,0.1c-0.1,0-0.2,0-0.2-0.1l-1.2-4.3c0,0,0,0,0,0c-0.1-0.2-0.1-0.5-0.2-0.5
	c-0.1-0.1-0.2-0.1-0.3-0.1c-0.1,0.1-0.2,0.2-0.1,0.4c0,0.1,0,0.2-0.1,0.2c-0.1,0-0.2,0-0.2-0.1c-0.2-0.4,0-0.7,0.3-0.8
	c0.3-0.1,0.6-0.1,0.7,0.2c0.1,0.1,0.2,0.5,0.2,0.6l1.2,4.3C333.1,133.3,333.1,133.4,333.1,133.4z"/>
<path class="st0" d="M334.1,134c0,0-0.1,0.1-0.1,0.1c-0.1,0-0.2,0-0.2-0.1l-1.2-4.3c0,0,0,0,0,0c-0.1-0.2-0.2-0.5-0.2-0.6
	c-0.1-0.1-0.2-0.1-0.3,0c-0.1,0.1-0.1,0.2-0.1,0.3c0,0.1,0,0.2-0.1,0.2c-0.1,0-0.2,0-0.2-0.1c-0.2-0.4,0-0.7,0.2-0.8
	c0.2-0.1,0.5-0.1,0.7,0.1c0.2,0.2,0.3,0.7,0.3,0.8l1.2,4.3C334.1,133.9,334.1,133.9,334.1,134z"/>
<path class="st0" d="M329.3,131.3c0,0-0.1,0.1-0.1,0.1l-1.3,0.3c0,0,0,0,0,0c0,0-0.3,0.1-0.3,0.3c0,0.1,0.1,0.2,0.3,0.1c0,0,0,0,0,0
	c0.1,0,0.2,0.1,0.2,0.2c0,0.1-0.1,0.2-0.2,0.2c0,0,0,0,0,0c-0.5,0.1-0.7-0.2-0.7-0.4c0-0.1,0-0.3,0.1-0.4c0.1-0.2,0.4-0.3,0.5-0.3
	l1.3-0.3c0.1,0,0.2,0,0.2,0.1C329.3,131.2,329.3,131.2,329.3,131.3z"/>
<path class="st0" d="M330.2,131.8c0,0-0.1,0.1-0.1,0.1l-2.3,0.6c-0.1,0-0.2,0-0.2-0.1s0-0.2,0.1-0.2l2.3-0.6c0.1,0,0.2,0,0.2,0.1
	C330.2,131.7,330.2,131.7,330.2,131.8z"/>
<path class="st0" d="M331.1,132.4c0,0-0.1,0.1-0.1,0.1l-3.1,0.8c0,0,0,0,0,0c-0.2,0-0.4,0-0.5-0.1c-0.1-0.1-0.2-0.2-0.2-0.4
	c0-0.5,0.5-0.6,0.8-0.7c0.1,0,0.2,0.1,0.2,0.2c0,0.1-0.1,0.2-0.2,0.2l0,0c-0.1,0-0.5,0.1-0.5,0.3c0,0.1,0,0.1,0,0.1c0,0,0.1,0,0.2,0
	l3.1-0.8c0.1,0,0.2,0,0.2,0.1C331.1,132.3,331.1,132.3,331.1,132.4z"/>
<path class="st0" d="M332.1,132.9c0,0-0.1,0.1-0.1,0.1l-3.9,1.1c-0.1,0-0.4,0.1-0.7,0c-0.1-0.1-0.2-0.2-0.2-0.4c0-0.2,0-0.3,0.1-0.4
	c0.2-0.2,0.5-0.3,0.5-0.3c0.1,0,0.2,0.1,0.2,0.2c0,0.1-0.1,0.2-0.2,0.2c0,0-0.2,0-0.2,0.1c0,0,0,0.1,0,0.1c0,0.1,0,0.1,0.1,0.1
	c0.1,0.1,0.3,0,0.4,0c0,0,0,0,0,0l3.9-1.1c0.1,0,0.2,0,0.2,0.1C332.2,132.8,332.2,132.8,332.1,132.9z"/>
<path class="st0" d="M333.1,133.4c0,0-0.1,0.1-0.1,0.1l-4.3,1.2c-0.1,0-0.5,0.1-0.6,0.2c-0.3,0-0.5-0.2-0.6-0.5
	c0-0.3,0.1-0.6,0.6-0.7c0.1,0,0.2,0.1,0.2,0.2c0,0.1-0.1,0.2-0.2,0.2c-0.2,0-0.3,0.2-0.3,0.3c0,0.1,0.1,0.2,0.2,0.2
	c0.1,0,0.3-0.1,0.5-0.1c0,0,0,0,0,0l4.3-1.2c0.1,0,0.2,0,0.2,0.1C333.1,133.3,333.1,133.4,333.1,133.4z"/>
<path class="st0" d="M334.1,134c0,0-0.1,0.1-0.1,0.1l-4.3,1.2c-0.1,0-0.6,0.2-0.8,0.1c-0.3-0.1-0.4-0.3-0.4-0.6
	c0-0.2,0.2-0.5,0.6-0.6c0.1,0,0.2,0.1,0.2,0.2c0,0.1-0.1,0.2-0.2,0.2c-0.2,0-0.3,0.1-0.3,0.2c0,0.1,0.1,0.2,0.1,0.2
	c0.1,0,0.4,0,0.6-0.1c0,0,0,0,0,0l4.3-1.2c0.1,0,0.2,0,0.2,0.1C334.1,133.9,334.1,133.9,334.1,134z"/>
<circle class="st0" cx="328.2" cy="130.6" r="0.3"/>
<path class="st0" d="M246.3,33.4c0,0.1-0.2,0.1-0.2,0.1l-4.7-2.7c-0.1,0-0.1-0.2-0.1-0.2c0-0.1,0.2-0.1,0.2-0.1l4.7,2.7
	C246.3,33.2,246.4,33.3,246.3,33.4z"/>
<path class="st0" d="M241.6,30.7c0,0-0.1,0.1-0.1,0.1c-0.1,0-0.2,0-0.2-0.1l-0.4-1.3c0,0-0.1-0.3,0-0.6c0.1-0.1,0.2-0.2,0.3-0.3
	c0.2-0.1,0.5-0.1,0.7,0.4c0,0,0,0,0,0c0,0.1,0,0.2-0.1,0.2c-0.1,0-0.2,0-0.2-0.1c0,0,0,0,0,0c-0.1-0.2-0.2-0.2-0.3-0.2
	c-0.2,0.1-0.1,0.3-0.1,0.4c0,0,0,0,0,0l0.4,1.3C241.6,30.6,241.6,30.7,241.6,30.7z"/>
<path class="st0" d="M242.5,31.3c0,0-0.1,0.1-0.1,0.1c-0.1,0-0.2,0-0.2-0.1l-0.6-2.3c0-0.1,0-0.2,0.1-0.2c0.1,0,0.2,0,0.2,0.1
	l0.6,2.3C242.5,31.2,242.5,31.2,242.5,31.3z"/>
<path class="st0" d="M243.4,31.7c0,0-0.1,0.1-0.1,0.1c-0.1,0-0.2,0-0.2-0.1l-0.9-3.1c0-0.1-0.1-0.1-0.1-0.1c0,0-0.1,0-0.1,0
	c-0.2,0.1,0,0.5,0,0.6c0,0.1,0,0.2-0.1,0.2c-0.1,0-0.2,0-0.2-0.1c-0.1-0.3-0.3-0.9,0.1-1.1c0.2-0.1,0.3-0.1,0.4,0
	c0.1,0,0.3,0.2,0.3,0.3c0,0,0,0,0,0l0.9,3.1C243.5,31.6,243.5,31.7,243.4,31.7z"/>
<path class="st0" d="M244.4,32.3c0,0-0.1,0.1-0.1,0.1c-0.1,0-0.2,0-0.2-0.1l-1.1-3.9c0,0,0,0,0,0c0-0.1-0.1-0.3-0.2-0.4
	c0,0-0.1,0-0.2,0c-0.1,0-0.1,0.1-0.1,0.1c0,0.1,0,0.2,0,0.3c0,0.1,0,0.2-0.1,0.2c-0.1,0-0.2,0-0.2-0.1c0,0-0.1-0.3,0-0.6
	c0.1-0.1,0.2-0.2,0.3-0.3c0.2-0.1,0.4,0,0.5,0c0.3,0.1,0.4,0.5,0.4,0.6l1.1,3.9C244.4,32.2,244.4,32.3,244.4,32.3z"/>
<path class="st0" d="M245.4,32.9c0,0-0.1,0.1-0.1,0.1c-0.1,0-0.2,0-0.2-0.1l-1.2-4.3c0,0,0,0,0,0c-0.1-0.2-0.1-0.5-0.2-0.5
	c-0.1-0.1-0.2-0.1-0.3-0.1c-0.1,0.1-0.2,0.2-0.1,0.4c0,0.1,0,0.2-0.1,0.2c-0.1,0-0.2,0-0.2-0.1c-0.2-0.4,0-0.7,0.3-0.8
	c0.3-0.1,0.6-0.1,0.7,0.2c0.1,0.1,0.2,0.5,0.2,0.6l1.2,4.3C245.4,32.8,245.4,32.8,245.4,32.9z"/>
<path class="st0" d="M246.4,33.4c0,0-0.1,0.1-0.1,0.1c-0.1,0-0.2,0-0.2-0.1l-1.2-4.3c0,0,0,0,0,0c-0.1-0.2-0.2-0.5-0.2-0.6
	c-0.1-0.1-0.2-0.1-0.3,0c-0.1,0.1-0.1,0.2-0.1,0.3c0,0.1,0,0.2-0.1,0.2c-0.1,0-0.2,0-0.2-0.1c-0.2-0.4,0-0.7,0.2-0.8
	c0.2-0.1,0.5-0.1,0.7,0.1c0.2,0.2,0.3,0.7,0.3,0.8l1.2,4.3C246.4,33.4,246.4,33.4,246.4,33.4z"/>
<path class="st0" d="M241.6,30.7c0,0-0.1,0.1-0.1,0.1l-1.3,0.3c0,0,0,0,0,0c0,0-0.3,0.1-0.3,0.3c0,0.1,0.1,0.2,0.3,0.1c0,0,0,0,0,0
	c0.1,0,0.2,0.1,0.2,0.2c0,0.1-0.1,0.2-0.2,0.2c0,0,0,0,0,0c-0.5,0.1-0.7-0.2-0.7-0.4c0-0.1,0-0.3,0.1-0.4c0.1-0.2,0.4-0.3,0.5-0.3
	l1.3-0.3c0.1,0,0.2,0,0.2,0.1C241.6,30.7,241.6,30.7,241.6,30.7z"/>
<path class="st0" d="M242.5,31.3c0,0-0.1,0.1-0.1,0.1l-2.3,0.6c-0.1,0-0.2,0-0.2-0.1c0-0.1,0-0.2,0.1-0.2l2.3-0.6
	c0.1,0,0.2,0,0.2,0.1C242.5,31.2,242.5,31.2,242.5,31.3z"/>
<path class="st0" d="M243.4,31.8c0,0-0.1,0.1-0.1,0.1l-3.1,0.8c0,0,0,0,0,0c-0.2,0-0.4,0-0.5-0.1c-0.1-0.1-0.2-0.2-0.2-0.4
	c0-0.5,0.5-0.6,0.8-0.7c0.1,0,0.2,0.1,0.2,0.2c0,0.1-0.1,0.2-0.2,0.2l0,0c-0.1,0-0.5,0.1-0.5,0.3c0,0.1,0,0.1,0,0.1c0,0,0.1,0,0.2,0
	l3.1-0.8c0.1,0,0.2,0,0.2,0.1C243.4,31.7,243.4,31.8,243.4,31.8z"/>
<path class="st0" d="M244.4,32.3c0,0-0.1,0.1-0.1,0.1l-3.9,1.1c-0.1,0-0.4,0.1-0.7,0c-0.1-0.1-0.2-0.2-0.2-0.4c0-0.2,0-0.3,0.1-0.4
	c0.2-0.2,0.5-0.3,0.5-0.3c0.1,0,0.2,0.1,0.2,0.2c0,0.1-0.1,0.2-0.2,0.2c0,0-0.2,0-0.2,0.1c0,0,0,0.1,0,0.1c0,0.1,0,0.1,0.1,0.1
	c0.1,0.1,0.3,0,0.4,0c0,0,0,0,0,0l3.9-1.1c0.1,0,0.2,0,0.2,0.1C244.5,32.3,244.4,32.3,244.4,32.3z"/>
<path class="st0" d="M245.4,32.9c0,0-0.1,0.1-0.1,0.1l-4.3,1.2c-0.1,0-0.5,0.1-0.6,0.2c-0.3,0-0.5-0.2-0.6-0.5
	c0-0.3,0.1-0.6,0.6-0.7c0.1,0,0.2,0.1,0.2,0.2c0,0.1-0.1,0.2-0.2,0.2c-0.2,0-0.3,0.2-0.3,0.3c0,0.1,0.1,0.2,0.2,0.2
	c0.1,0,0.3-0.1,0.5-0.1c0,0,0,0,0,0l4.3-1.2c0.1,0,0.2,0,0.2,0.1C245.4,32.8,245.4,32.9,245.4,32.9z"/>
<path class="st0" d="M246.4,33.5c0,0-0.1,0.1-0.1,0.1l-4.3,1.2c-0.1,0-0.6,0.2-0.8,0.1c-0.3-0.1-0.4-0.3-0.4-0.6
	c0-0.2,0.2-0.5,0.6-0.6c0.1,0,0.2,0.1,0.2,0.2c0,0.1-0.1,0.2-0.2,0.2c-0.2,0-0.3,0.1-0.3,0.2c0,0.1,0.1,0.2,0.1,0.2
	c0.1,0,0.4,0,0.6-0.1c0,0,0,0,0,0l4.3-1.2c0.1,0,0.2,0,0.2,0.1C246.4,33.4,246.4,33.4,246.4,33.5z"/>
<circle class="st0" cx="240.5" cy="30.1" r="0.3"/>
<path class="st0" d="M338.2,27.1l-4.4,0.6c-0.1,0-0.3,0-0.3,0.1c-0.1,0.1-0.1,0.3-0.1,0.4l-0.7,4.2c0,0.1,0,0.2,0.1,0.3
	c0.1,0.1,0.2,0.1,0.3,0.1l4.4-0.4c0.1,0.1,0.3,0,0.4-0.1c0.1-0.1,0.1-0.2,0.1-0.3l0.6-4.6c0-0.1,0-0.2-0.1-0.3
	C338.4,27.1,338.3,27.1,338.2,27.1z M337.7,28.6l-1.6,1.5l-0.2-0.3l0.1-0.1c0,0,0,0,0,0l1.7-1.7L337.7,28.6z M337.6,29.7l-1,0.9
	l-0.2-0.3l1.3-1.2L337.6,29.7z M337.4,30.7l-0.3,0.3l-0.2-0.3l0.7-0.6L337.4,30.7z M333.5,31.2l1.4-1.4l0.2,0.2l0,0c0,0,0,0,0,0
	l-1.7,1.6L333.5,31.2z M333.7,30.1l0.8-0.7l0.2,0.3l-1.1,1.1L333.7,30.1z M333.8,29l0.1-0.1l0.2,0.3l-0.5,0.4L333.8,29z M335,28.9
	l0.8-0.8l0.6-0.1l-1.2,1.1L335,28.9z M335.3,28.1l-0.5,0.5l-0.2-0.3c0,0,0,0,0,0l0.1-0.1L335.3,28.1z M335.4,30.4l0.2,0.3l-1.5,1.4
	l-0.6,0L335.4,30.4z M335.8,30.8l0.2,0.3l-0.9,0.8l-0.6,0L335.8,30.8z M336.3,31.3l0.2,0.3l-0.3,0.3l-0.6,0L336.3,31.3z M337.3,31.3
	L337.3,31.3L337.3,31.3L337.3,31.3z M335.7,29.6l-0.2-0.2l1.5-1.4l0.6-0.1L335.7,29.6z"/>
<path class="st0" d="M296,113.2l-1.1-7.9c0-0.2,0-0.5-0.2-0.6c-0.2-0.2-0.5-0.3-0.7-0.2l-7.6-1.2c-0.2,0-0.4,0-0.5,0.2
	c-0.1,0.1-0.2,0.3-0.2,0.5l0.7,7.9c-0.1,0.3-0.1,0.6,0.1,0.8c0.2,0.2,0.4,0.2,0.6,0.2l8.2,1.1c0.2,0,0.4,0,0.5-0.2
	C295.9,113.6,296,113.4,296,113.2z M293.3,112.4l-2.7-2.8l0.5-0.4l0.2,0.3c0,0,0,0,0,0l3,3.1L293.3,112.4z M291.3,112.2l-1.6-1.7
	l0.4-0.4l2.2,2.3L291.3,112.2z M289.4,111.9l-0.6-0.6l0.4-0.4l1.1,1.2L289.4,111.9z M288.5,104.8l2.5,2.5l-0.4,0.4l-0.1-0.1
	c0,0,0,0,0,0l-2.9-3L288.5,104.8z M290.5,105.1l1.3,1.4l-0.4,0.4l-1.9-2L290.5,105.1z M292.5,105.5l0.2,0.2l-0.4,0.4l-0.8-0.8
	L292.5,105.5z M292.8,107.5l1.4,1.5l0.1,1.1l-2-2.1L292.8,107.5z M294.1,108l-0.9-0.9l0.5-0.4c0,0,0,0,0,0l0.2,0.3L294.1,108z
	 M290.1,108.2l-0.5,0.4L287,106l-0.1-1L290.1,108.2z M289.2,109l-0.4,0.4l-1.5-1.6l-0.1-1L289.2,109z M288.3,109.9l-0.4,0.4
	l-0.5-0.5l-0.1-1L288.3,109.9z M288.4,111.7L288.4,111.7L288.4,111.7L288.4,111.7z M291.4,108.8l0.4-0.4l2.6,2.7l0.1,1L291.4,108.8z
	"/>
<path class="st0" d="M158.6,65.4l-4.4-0.7c-0.1-0.1-0.2-0.1-0.4,0c-0.1,0.1-0.2,0.2-0.2,0.4l-1.9,3.8c0,0.1,0,0.2,0,0.3
	c0,0.1,0.1,0.2,0.2,0.2l4.3,0.9c0.1,0.1,0.3,0.1,0.4,0.1c0.1-0.1,0.2-0.2,0.2-0.3l1.9-4.2c0-0.1,0-0.2,0-0.3
	C158.8,65.5,158.7,65.4,158.6,65.4z M157.7,66.7l-1.9,1l-0.2-0.3l0.2-0.1c0,0,0,0,0,0l2.1-1.1L157.7,66.7z M157.3,67.7l-1.2,0.6
	l-0.2-0.3l1.6-0.8L157.3,67.7z M156.8,68.7l-0.4,0.2l-0.2-0.3l0.8-0.4L156.8,68.7z M152.9,68.1l1.8-0.9l0.2,0.3l0,0c0,0,0,0,0,0
	l-2.1,1.1L152.9,68.1z M153.4,67.1l0.9-0.5l0.2,0.3l-1.4,0.7L153.4,67.1z M153.9,66.1L154,66l0.2,0.3l-0.6,0.3L153.9,66.1z
	 M155,66.2l1-0.5l0.6,0.1l-1.5,0.7L155,66.2z M155.5,65.6l-0.6,0.3l-0.2-0.3c0,0,0,0,0,0l0.2-0.1L155.5,65.6z M154.9,67.8l0.2,0.3
	l-1.8,0.9l-0.6-0.1L154.9,67.8z M155.3,68.4l0.2,0.3l-1.1,0.6l-0.5-0.1L155.3,68.4z M155.6,69l0.2,0.3l-0.3,0.2l-0.5-0.1L155.6,69z
	 M156.5,69.2L156.5,69.2L156.5,69.2L156.5,69.2z M155.5,67.1l-0.2-0.3l1.9-1l0.6,0.1L155.5,67.1z"/>
<path class="st0" d="M68,125.7l-4.9,2.7c-0.2,0-0.3,0.1-0.4,0.3c-0.1,0.2,0,0.4,0.1,0.5l1,5.3c0,0.1,0.1,0.2,0.2,0.3
	c0.1,0.1,0.2,0.1,0.4,0l5-2.4c0.2,0,0.4-0.1,0.5-0.3c0.1-0.1,0.1-0.3,0-0.4l-1.3-5.7c0-0.1-0.1-0.2-0.2-0.3
	C68.3,125.6,68.2,125.6,68,125.7z M68.2,127.7l-1.2,2.5l-0.4-0.2l0.1-0.2c0,0,0,0,0,0l1.3-2.7L68.2,127.7z M68.5,129l-0.7,1.5
	l-0.4-0.2l1-2L68.5,129z M68.8,130.3l-0.3,0.5l-0.4-0.2l0.5-1L68.8,130.3z M64.4,132.7l1.1-2.2l0.4,0.2l0,0.1c0,0,0,0,0,0l-1.3,2.7
	L64.4,132.7z M64.1,131.3l0.6-1.2l0.4,0.2l-0.8,1.7L64.1,131.3z M63.8,129.9l0.1-0.2l0.4,0.2l-0.3,0.7L63.8,129.9z M65.1,129.2
	l0.6-1.3l0.7-0.4l-0.9,1.9L65.1,129.2z M65.1,128.2l-0.4,0.8l-0.4-0.2c0,0,0,0,0,0l0.1-0.2L65.1,128.2z M66.2,130.8l0.4,0.2
	l-1.1,2.3l-0.6,0.3L66.2,130.8z M67,131.2l0.4,0.2l-0.7,1.4l-0.6,0.3L67,131.2z M67.7,131.5l0.4,0.2l-0.2,0.4l-0.6,0.3L67.7,131.5z
	 M68.9,131L68.9,131L68.9,131L68.9,131z M66.2,129.8l-0.4-0.2l1.1-2.4l0.6-0.3L66.2,129.8z"/>
<g>
	<path class="st0" d="M485.6,119.1c0.7-0.9,1-2.2,0.1-3.3c-1-1.3-2.5-1-2.8-0.9l-2.2,0.2c-0.1,0-0.2,0-0.3,0l-1.5,0.1l-1.5-1.9
		c-0.1-0.1-0.2-0.2-0.4-0.2l-2.4,0.2c-0.2,0-0.3,0.1-0.3,0.2c-0.1,0.1,0,0.3,0.1,0.4l3.7,4.6l-0.3,1.2c0,0.1,0,0.3,0.1,0.4
		c0.1,0.1,0.1,0.1,0.2,0.1c0.2,0.1,0.4-0.1,0.5-0.3l0.2-0.7c1.4,1.1,3.3,1.2,3.5,1.2c0.6,0,1.7-0.1,2.6-0.6l1.2,0.6L485.6,119.1z
		 M482.1,116.7c0.1,0.2,0.1,0.4,0.1,0.6l-1.1-1.4C481.4,116,481.8,116.2,482.1,116.7z M480.6,115.9l1.4,1.8c0,0,0,0,0,0
		c0,0-0.1,0.1-0.1,0.1c0,0-0.1,0.1-0.2,0.1l-1.5-1.9L480.6,115.9z M479.8,115.9l1.6,2c-0.1,0-0.2,0-0.4,0.1l-1.6-2L479.8,115.9z
		 M478.7,116l0.3,0l1.6,2c-0.1,0-0.3,0-0.4-0.1L478.7,116L478.7,116z M476.5,115.4l-1.1-1.4l0.5,0l1.1,1.4L476.5,115.4z
		 M477.4,115.3l-1.1-1.3l0.5,0l1.1,1.3L477.4,115.3z M477.2,116.2l0.3,0l0.6,0.8C477.8,116.7,477.5,116.4,477.2,116.2z M478.9,117.5
		l-1.1-1.4l0.4,0l1.3,1.7C479.4,117.7,479.2,117.6,478.9,117.5z M482.2,119.6C482.2,119.6,482.2,119.6,482.2,119.6
		c-0.1,0-2.2,0-3.5-1.3c1.5,0.8,2.9,0.7,3.7,0.1c0.7-0.5,0.9-1.3,0.5-2.1c-0.1-0.2-0.3-0.4-0.4-0.6l0.6,0c0,0,0.1,0,0.1,0
		c0,0,1.2-0.3,1.9,0.6c0.8,1,0.1,2.1-0.5,2.6C483.8,119.5,482.7,119.6,482.2,119.6z"/>
	<circle class="st0" cx="484.2" cy="117.5" r="0.5"/>
</g>
<g>
	<path class="st0" d="M383.1,46.9c-1.4,0-2.8,0.6-3.2,2.3c-0.5,1.9,0.9,3.1,1.1,3.3l1.8,2c0.1,0.1,0.2,0.2,0.2,0.3l1.2,1.4l-0.7,2.9
		c0,0.2,0,0.3,0.1,0.5l2,2.1c0.1,0.1,0.3,0.2,0.5,0.1c0.2,0,0.3-0.2,0.4-0.4l1.8-6.9l1.4-0.6c0.1-0.1,0.2-0.2,0.3-0.3
		c0-0.1,0-0.2,0-0.3c-0.1-0.3-0.4-0.4-0.6-0.3l-0.8,0.4c0-2.2-1.3-4-1.5-4.2c-0.4-0.6-1.3-1.5-2.5-2l-0.3-1.5L383.1,46.9z
		 M383.3,51.9c0.1-0.3,0.3-0.4,0.5-0.5l-0.5,2.1C383.1,53.1,383,52.5,383.3,51.9z M383.6,53.9l0.7-2.6c0,0,0,0,0,0c0,0,0.1,0,0.1,0
		c0.1,0,0.1,0,0.2,0.1l-0.7,2.8L383.6,53.9z M384.2,54.6l0.8-3c0.1,0.1,0.2,0.2,0.3,0.3l-0.8,3L384.2,54.6z M385.1,55.7l-0.3-0.3
		l0.8-3c0.1,0.1,0.2,0.3,0.2,0.4L385.1,55.7L385.1,55.7z M386.2,58.2l-0.5,2l-0.4-0.5l0.5-2L386.2,58.2z M385.4,57.4l-0.5,2
		l-0.4-0.4l0.5-2L385.4,57.4z M386.4,57l-0.2-0.2l0.3-1.1C386.5,56.1,386.5,56.5,386.4,57z M386.4,54.4l-0.5,2l-0.3-0.4l0.6-2.5
		C386.2,53.8,386.3,54.1,386.4,54.4z M386,49.7C386.1,49.7,386.1,49.7,386,49.7c0,0.1,1.6,2.1,1.2,4.3c-0.4-2-1.4-3.2-2.6-3.6
		c-1-0.3-1.9,0.1-2.3,1.1c-0.1,0.3-0.2,0.6-0.2,0.8l-0.5-0.6c0,0,0,0-0.1-0.1c0,0-1.2-0.9-0.8-2.3c0.4-1.5,2-1.7,2.9-1.5
		C384.8,48.2,385.7,49.2,386,49.7z"/>
	<circle class="st0" cx="382.5" cy="49.3" r="0.6"/>
</g>
<g>
	<path class="st0" d="M601.5,80.3c-0.5-1.5-1.8-2.7-3.7-2.5c-2.2,0.2-2.9,2.1-3,2.5l-1.4,2.7c-0.1,0.2-0.2,0.3-0.2,0.3l-1,1.8
		l-3.3,0.3c-0.2,0-0.4,0.1-0.4,0.3l-1.5,2.9c-0.1,0.2-0.1,0.4,0,0.6c0.1,0.2,0.3,0.3,0.5,0.2l7.9-0.8l1.2,1.2
		c0.1,0.1,0.3,0.2,0.5,0.2c0.1,0,0.2-0.1,0.3-0.1c0.2-0.2,0.2-0.6,0-0.8l-0.7-0.8c2.3-0.8,3.7-2.9,3.9-3.2c0.4-0.6,1.1-2,1.1-3.4
		l1.5-0.9L601.5,80.3z M596.4,82.5c0.3,0,0.6,0.1,0.7,0.4l-2.4,0.3C595,82.8,595.5,82.5,596.4,82.5z M594.3,83.6l3-0.3c0,0,0,0,0,0
		c0,0,0,0.1,0,0.2c0,0.1,0,0.2,0,0.2l-3.3,0.3L594.3,83.6z M593.8,84.6l3.4-0.4c0,0.1-0.1,0.3-0.2,0.5l-3.5,0.4L593.8,84.6z
		 M593.1,85.9l0.2-0.4l3.4-0.4c-0.1,0.1-0.2,0.3-0.4,0.4L593.1,85.9L593.1,85.9z M590.8,88l-2.3,0.2l0.3-0.6l2.3-0.2L590.8,88z
		 M591.3,86.9l-2.3,0.2l0.3-0.6l2.3-0.2L591.3,86.9z M592.2,87.8l0.2-0.3l1.3-0.1C593.2,87.5,592.7,87.6,592.2,87.8z M594.9,86.7
		l-2.3,0.2l0.2-0.5l2.9-0.3C595.5,86.3,595.2,86.5,594.9,86.7z M599.7,84.6C599.7,84.6,599.7,84.6,599.7,84.6c0,0.1-1.6,2.6-4,3
		c2-1.2,2.9-2.8,2.8-4.1c-0.1-1.2-0.9-2-2-2c-0.4,0-0.7,0-1,0.1l0.4-0.7c0,0,0-0.1,0-0.1c0-0.1,0.5-1.6,2.1-1.8
		c1.7-0.2,2.5,1.4,2.6,2.5C600.8,82.7,600.1,84,599.7,84.6z"/>
	<circle class="st0" cx="598.7" cy="80.7" r="0.6"/>
</g>
<path class="st0" d="M457.7,13.3c0.1,0.2,0.2,0.4,0.1,0.6l-0.7,4.7c-0.1,0.4-0.4,0.7-0.9,0.6s-0.7-0.4-0.6-0.9l0.7-4.7
	c0.1-0.4,0.4-0.7,0.9-0.6C457.4,13,457.6,13.1,457.7,13.3z"/>
<path class="st0" d="M462.5,13.9c0.1,0.2,0.2,0.3,0.1,0.6c-0.1,0.4-0.4,0.7-0.8,0.6l-4.7-0.6c-0.4-0.1-0.7-0.4-0.6-0.8
	c0.1-0.4,0.4-0.7,0.8-0.6l4.7,0.6C462.2,13.7,462.3,13.8,462.5,13.9z"/>
<path class="st0" d="M460.2,16.6c0.1,0.2,0.2,0.4,0.1,0.6l-0.7,4.7c-0.1,0.4-0.4,0.7-0.9,0.6c-0.4-0.1-0.7-0.4-0.6-0.9l0.7-4.7
	c0.1-0.4,0.4-0.7,0.9-0.6C459.9,16.3,460.1,16.4,460.2,16.6z"/>
<path class="st0" d="M464.9,17.2c0.1,0.2,0.2,0.3,0.1,0.6c-0.1,0.4-0.4,0.7-0.8,0.6l-4.7-0.6c-0.4-0.1-0.7-0.4-0.6-0.8
	c0.1-0.4,0.4-0.7,0.8-0.6l4.7,0.6C464.6,16.9,464.8,17,464.9,17.2z"/>
<path class="st0" d="M462.6,19.8c0.1,0.2,0.2,0.4,0.1,0.6l-0.7,4.7c-0.1,0.4-0.4,0.7-0.9,0.6c-0.4-0.1-0.7-0.4-0.6-0.9l0.7-4.7
	c0.1-0.4,0.4-0.7,0.9-0.6C462.3,19.6,462.5,19.7,462.6,19.8z"/>
<path class="st0" d="M467.3,20.5c0.1,0.2,0.2,0.3,0.1,0.6c-0.1,0.4-0.4,0.7-0.8,0.6l-4.7-0.6c-0.4-0.1-0.7-0.4-0.6-0.8
	c0.1-0.4,0.4-0.7,0.8-0.6l4.7,0.6C467,20.2,467.2,20.3,467.3,20.5z"/>
<path class="st0" d="M683,54.9c-0.2,0-0.4-0.1-0.5-0.3l-2.9-3.8c-0.3-0.3-0.2-0.8,0.1-1.1c0.3-0.3,0.8-0.2,1.1,0.1l2.9,3.8
	c0.3,0.3,0.2,0.8-0.1,1.1C683.4,54.8,683.2,54.9,683,54.9z"/>
<path class="st0" d="M679.2,57.8c-0.2,0-0.4-0.1-0.5-0.3c-0.3-0.3-0.2-0.8,0.1-1.1l3.7-3c0.3-0.3,0.8-0.2,1.1,0.1
	c0.3,0.3,0.2,0.8-0.1,1.1l-3.7,3C679.6,57.8,679.4,57.9,679.2,57.8z"/>
<path class="st0" d="M678.9,54.4c-0.2,0-0.4-0.1-0.5-0.3l-2.9-3.8c-0.3-0.3-0.2-0.8,0.1-1.1c0.3-0.3,0.8-0.2,1.1,0.1l2.9,3.8
	c0.3,0.3,0.2,0.8-0.1,1.1C679.3,54.4,679.1,54.4,678.9,54.4z"/>
<path class="st0" d="M675.2,57.4c-0.2,0-0.4-0.1-0.5-0.3c-0.3-0.3-0.2-0.8,0.1-1.1l3.7-3c0.3-0.3,0.8-0.2,1.1,0.1
	c0.3,0.3,0.2,0.8-0.1,1.1l-3.7,3C675.6,57.3,675.4,57.4,675.2,57.4z"/>
<path class="st0" d="M674.9,53.9c-0.2,0-0.4-0.1-0.5-0.3l-2.9-3.8c-0.3-0.3-0.2-0.8,0.1-1.1c0.3-0.3,0.8-0.2,1.1,0.1l2.9,3.8
	c0.3,0.3,0.2,0.8-0.1,1.1C675.3,53.9,675.1,53.9,674.9,53.9z"/>
<path class="st0" d="M671.2,56.9c-0.2,0-0.4-0.1-0.5-0.3c-0.3-0.3-0.2-0.8,0.1-1.1l3.7-3c0.3-0.3,0.8-0.2,1.1,0.1
	c0.3,0.3,0.2,0.8-0.1,1.1l-3.7,3C671.6,56.8,671.4,56.9,671.2,56.9z"/>
<path class="st0" d="M537.8,60.7c0-0.1-0.1-0.1,0-0.2l0.5-1.8c0-0.2,0.2-0.3,0.4-0.2c0.2,0,0.3,0.2,0.2,0.4l-0.5,1.8
	c0,0.2-0.2,0.3-0.4,0.2C537.9,60.8,537.9,60.7,537.8,60.7z"/>
<path class="st0" d="M536,60.2c0-0.1,0-0.1,0-0.2c0-0.2,0.2-0.3,0.4-0.2l1.8,0.5c0.2,0,0.3,0.2,0.2,0.4c0,0.2-0.2,0.3-0.4,0.2
	l-1.8-0.5C536.1,60.3,536,60.2,536,60.2z"/>
<path class="st0" d="M537,59.3c0-0.1-0.1-0.1,0-0.2l0.5-1.8c0-0.2,0.2-0.3,0.4-0.2c0.2,0,0.3,0.2,0.2,0.4l-0.5,1.8
	c0,0.2-0.2,0.3-0.4,0.2C537.1,59.4,537.1,59.3,537,59.3z"/>
<path class="st0" d="M535.2,58.8c0-0.1-0.1-0.1,0-0.2c0-0.2,0.2-0.3,0.4-0.2l1.8,0.5c0.2,0,0.3,0.2,0.2,0.4c0,0.2-0.2,0.3-0.4,0.2
	l-1.8-0.5C535.3,58.9,535.2,58.8,535.2,58.8z"/>
<path class="st0" d="M536.2,57.8c0-0.1-0.1-0.1,0-0.2l0.5-1.8c0-0.2,0.2-0.3,0.4-0.2c0.2,0,0.3,0.2,0.2,0.4l-0.5,1.8
	c0,0.2-0.2,0.3-0.4,0.2C536.3,58,536.3,57.9,536.2,57.8z"/>
<path class="st0" d="M534.4,57.3c0-0.1-0.1-0.1,0-0.2c0-0.2,0.2-0.3,0.4-0.2l1.8,0.5c0.2,0,0.3,0.2,0.2,0.4c0,0.2-0.2,0.3-0.4,0.2
	l-1.8-0.5C534.5,57.5,534.4,57.4,534.4,57.3z"/>
<path class="st0" d="M561.9,37.7c-0.1,0-0.2-0.1-0.3-0.3l-1.3-2.9c-0.1-0.3,0-0.6,0.3-0.7c0.3-0.1,0.6,0,0.7,0.3l1.3,2.9
	c0.1,0.3,0,0.6-0.3,0.7C562.1,37.8,562,37.8,561.9,37.7z"/>
<path class="st0" d="M558.9,39.1c-0.1,0-0.2-0.1-0.3-0.3c-0.1-0.3,0-0.6,0.2-0.7l2.9-1.4c0.3-0.1,0.6,0,0.7,0.2
	c0.1,0.3,0,0.6-0.2,0.7l-2.9,1.4C559.2,39.1,559.1,39.1,558.9,39.1z"/>
<path class="st0" d="M559.3,36.8c-0.1,0-0.2-0.1-0.3-0.3l-1.3-2.9c-0.1-0.3,0-0.6,0.3-0.7c0.3-0.1,0.6,0,0.7,0.3l1.3,2.9
	c0.1,0.3,0,0.6-0.3,0.7C559.5,36.8,559.4,36.8,559.3,36.8z"/>
<path class="st0" d="M556.4,38.1c-0.1,0-0.2-0.1-0.3-0.3c-0.1-0.3,0-0.6,0.2-0.7l2.9-1.4c0.3-0.1,0.6,0,0.7,0.2
	c0.1,0.3,0,0.6-0.2,0.7l-2.9,1.4C556.6,38.2,556.5,38.2,556.4,38.1z"/>
<path class="st0" d="M556.7,35.8c-0.1,0-0.2-0.1-0.3-0.3l-1.3-2.9c-0.1-0.3,0-0.6,0.3-0.7c0.3-0.1,0.6,0,0.7,0.3l1.3,2.9
	c0.1,0.3,0,0.6-0.3,0.7C557,35.9,556.8,35.9,556.7,35.8z"/>
<path class="st0" d="M553.8,37.2c-0.1,0-0.2-0.1-0.3-0.3c-0.1-0.3,0-0.6,0.2-0.7l2.9-1.4c0.3-0.1,0.6,0,0.7,0.2
	c0.1,0.3,0,0.6-0.2,0.7l-2.9,1.4C554.1,37.2,553.9,37.2,553.8,37.2z"/>
<path class="st0" d="M538.9,131.8c-0.1,0-0.3,0-0.4-0.1l-2.5-2c-0.2-0.2-0.3-0.5-0.1-0.7c0.2-0.2,0.5-0.3,0.7-0.1l2.5,2
	c0.2,0.2,0.3,0.5,0.1,0.7C539.1,131.8,539,131.8,538.9,131.8z"/>
<path class="st0" d="M536.9,134.4c-0.1,0-0.3,0-0.4-0.1c-0.2-0.2-0.3-0.5-0.1-0.7l2-2.5c0.2-0.2,0.5-0.3,0.7-0.1
	c0.2,0.2,0.3,0.5,0.1,0.7l-2,2.5C537.1,134.3,537,134.4,536.9,134.4z"/>
<path class="st0" d="M536.1,132.2c-0.1,0-0.3,0-0.4-0.1l-2.5-2c-0.2-0.2-0.3-0.5-0.1-0.7c0.2-0.2,0.5-0.3,0.7-0.1l2.5,2
	c0.2,0.2,0.3,0.5,0.1,0.7C536.4,132.1,536.3,132.1,536.1,132.2z"/>
<path class="st0" d="M534.1,134.7c-0.1,0-0.3,0-0.4-0.1c-0.2-0.2-0.3-0.5-0.1-0.7l2-2.5c0.2-0.2,0.5-0.3,0.7-0.1
	c0.2,0.2,0.3,0.5,0.1,0.7l-2,2.5C534.4,134.6,534.3,134.7,534.1,134.7z"/>
<path class="st0" d="M533.4,132.5c-0.1,0-0.3,0-0.4-0.1l-2.5-2c-0.2-0.2-0.3-0.5-0.1-0.7c0.2-0.2,0.5-0.3,0.7-0.1l2.5,2
	c0.2,0.2,0.3,0.5,0.1,0.7C533.6,132.4,533.5,132.4,533.4,132.5z"/>
<path class="st0" d="M531.4,135c-0.1,0-0.3,0-0.4-0.1c-0.2-0.2-0.3-0.5-0.1-0.7l2-2.5c0.2-0.2,0.5-0.3,0.7-0.1
	c0.2,0.2,0.3,0.5,0.1,0.7l-2,2.5C531.7,134.9,531.5,135,531.4,135z"/>
<path class="st0" d="M377,132.1c0.1,0,0.3,0,0.4,0l2.9,1.5c0.3,0.1,0.4,0.4,0.2,0.7s-0.4,0.4-0.7,0.2l-2.9-1.5
	c-0.3-0.1-0.4-0.4-0.2-0.7C376.8,132.2,376.9,132.1,377,132.1z"/>
<path class="st0" d="M378.4,129.2c0.1,0,0.3,0,0.4,0c0.3,0.1,0.4,0.4,0.2,0.7l-1.4,2.9c-0.1,0.3-0.4,0.4-0.7,0.2
	c-0.3-0.1-0.4-0.4-0.2-0.7l1.4-2.9C378.2,129.3,378.3,129.2,378.4,129.2z"/>
<path class="st0" d="M379.6,131.2c0.1,0,0.3,0,0.4,0l2.9,1.5c0.3,0.1,0.4,0.4,0.2,0.7c-0.1,0.2-0.4,0.4-0.7,0.2l-2.9-1.5
	c-0.3-0.1-0.4-0.4-0.2-0.7C379.4,131.3,379.5,131.2,379.6,131.2z"/>
<path class="st0" d="M381,128.3c0.1,0,0.3,0,0.4,0c0.3,0.1,0.4,0.4,0.2,0.7l-1.4,2.9c-0.1,0.3-0.4,0.4-0.7,0.2
	c-0.3-0.1-0.4-0.4-0.2-0.7l1.4-2.9C380.8,128.4,380.9,128.4,381,128.3z"/>
<path class="st0" d="M382.2,130.3c0.1,0,0.3,0,0.4,0l2.9,1.5c0.3,0.1,0.4,0.4,0.2,0.7c-0.1,0.3-0.4,0.4-0.7,0.2l-2.9-1.5
	c-0.3-0.1-0.4-0.4-0.2-0.7C382,130.5,382.1,130.4,382.2,130.3z"/>
<path class="st0" d="M383.6,127.4c0.1,0,0.3,0,0.4,0c0.3,0.1,0.4,0.4,0.2,0.7l-1.4,2.9c-0.1,0.3-0.4,0.4-0.7,0.2
	c-0.3-0.1-0.4-0.4-0.2-0.7l1.4-2.9C383.4,127.6,383.5,127.5,383.6,127.4z"/>
<path class="st0" d="M369.8,26.9c-0.1,0-0.2,0-0.3-0.1l-4.2-4.8c-0.1-0.1-0.1-0.2-0.1-0.3c0-0.1,0.1-0.2,0.2-0.3
	c0.1-0.1,3.3-1.9,5.3,0.4c1.8,2-0.4,4.9-0.5,5.1c0,0,0,0-0.1,0.1C370,26.9,369.9,26.9,369.8,26.9z M369.7,25.8
	c0.5-0.8,1.3-2.4,0.3-3.6c-1.1-1.3-2.9-0.8-3.7-0.4L369.7,25.8z"/>
<path class="st0" d="M366.3,22.5l1.6-1.4c0.1-0.1,0.1-0.2,0-0.3c-0.1-0.1-0.2-0.1-0.3,0l-1.6,1.4c-0.1,0.1-0.1,0.2,0,0.3
	C366.1,22.6,366.2,22.6,366.3,22.5z"/>
<path class="st0" d="M366.8,23.1l2-1.8c0.1-0.1,0.1-0.2,0-0.3c-0.1-0.1-0.2-0.1-0.3,0l-2,1.8c-0.1,0.1-0.1,0.2,0,0.3
	C366.6,23.2,366.7,23.2,366.8,23.1z"/>
<path class="st0" d="M367.3,23.7l2.4-2.1c0.1-0.1,0.1-0.2,0-0.3c-0.1-0.1-0.2-0.1-0.3,0l-2.4,2.1c-0.1,0.1-0.1,0.2,0,0.3
	C367.1,23.7,367.2,23.7,367.3,23.7z"/>
<path class="st0" d="M367.8,24.2l2.3-2c0.1-0.1,0.1-0.2,0-0.3c-0.1-0.1-0.2-0.1-0.3,0l-2.3,2c-0.1,0.1-0.1,0.2,0,0.3
	C367.6,24.3,367.7,24.3,367.8,24.2z"/>
<path class="st0" d="M368.2,24.8l2.3-2c0.1-0.1,0.1-0.2,0-0.3c-0.1-0.1-0.2-0.1-0.3,0l-2.3,2c-0.1,0.1-0.1,0.2,0,0.3
	C368.1,24.8,368.2,24.8,368.2,24.8z"/>
<path class="st0" d="M368.7,25.3l2-1.8c0.1-0.1,0.1-0.2,0-0.3c-0.1-0.1-0.2-0.1-0.3,0l-2,1.8c-0.1,0.1-0.1,0.2,0,0.3
	S368.7,25.4,368.7,25.3z"/>
<path class="st0" d="M369.2,25.9l1.7-1.5c0.1-0.1,0.1-0.2,0-0.3c-0.1-0.1-0.2-0.1-0.3,0l-1.7,1.5c-0.1,0.1-0.1,0.2,0,0.3
	C369,26,369.1,26,369.2,25.9z"/>
<path class="st0" d="M370.3,22"/>
<path class="st0" d="M517.9,21.4c0-0.1-0.1-0.2-0.2-0.3c0,0-0.1,0-0.1,0c-0.2-0.1-4.4-1.6-6.2,1.2c-2,3.1,1.3,6.3,1.4,6.4
	c0.1,0.1,0.3,0.2,0.4,0.1c0.2,0,0.3-0.1,0.4-0.2l4.2-6.7C517.9,21.7,518,21.6,517.9,21.4z M516.4,22.1l-0.7-0.4
	c0.3,0,0.6,0.1,0.9,0.2L516.4,22.1z M516,22.9l-1.9-1.2c0.3,0,0.5-0.1,0.8-0.1l1.4,0.9L516,22.9z M515.5,23.7l-2.5-1.6
	c0.2-0.1,0.3-0.2,0.5-0.3l2.3,1.4L515.5,23.7z M515,24.5l-2.7-1.7c0.1-0.1,0.2-0.3,0.3-0.4l2.6,1.7L515,24.5z M514.5,25.3l-2.6-1.6
	c0-0.1,0.1-0.3,0.2-0.4l2.6,1.7L514.5,25.3z M514,26l-2.1-1.3c0-0.2,0-0.4,0-0.6l2.4,1.5L514,26z M513.5,26.8l-1.3-0.8
	c-0.1-0.2-0.2-0.5-0.3-0.7l1.8,1.1L513.5,26.8z M513.1,27.4c-0.1-0.2-0.3-0.4-0.4-0.6l0.6,0.4L513.1,27.4z"/>
<path class="st0" d="M582,126.6c-0.1,0.1-0.1,0.1-0.2,0.2c0,0,0,0.1,0,0.1c0,0.1-0.3,3.7,2.2,4.4c2.7,0.8,4.4-2.3,4.5-2.4
	c0.1-0.1,0.1-0.2,0-0.3c0-0.1-0.1-0.2-0.3-0.2l-5.9-1.7C582.2,126.5,582.1,126.5,582,126.6z M582.8,127.5l-0.2,0.6
	c0-0.3-0.1-0.5-0.1-0.7L582.8,127.5z M583.5,127.7l-0.5,1.7c-0.1-0.2-0.2-0.4-0.2-0.6l0.4-1.2L583.5,127.7z M584.2,127.9l-0.6,2.2
	c-0.1-0.1-0.2-0.2-0.3-0.3l0.6-2L584.2,127.9z M584.9,128.1l-0.7,2.4c-0.1,0-0.2-0.1-0.4-0.2l0.7-2.3L584.9,128.1z M585.6,128.3
	l-0.7,2.3c-0.1,0-0.2,0-0.4,0l0.7-2.3L585.6,128.3z M586.3,128.5l-0.6,1.9c-0.1,0.1-0.3,0.1-0.4,0.1l0.6-2.1L586.3,128.5z
	 M587,128.7l-0.3,1.1c-0.1,0.1-0.3,0.3-0.5,0.4l0.5-1.6L587,128.7z M587.5,128.9c-0.1,0.1-0.2,0.3-0.3,0.4l0.1-0.5L587.5,128.9z"/>
<polygon class="st0" points="442.2,58.1 440.7,55.5 443.7,55.5 "/>
<polygon class="st0" points="367.5,107.5 362.4,104.9 367,103.1 "/>
<polygon class="st0" points="560.6,96 552.8,98.1 555.8,91.8 "/>
<polygon class="st0" points="631.3,23.3 629.8,17.2 634.7,19.7 "/>
<polygon class="st0" points="677.2,94.3 674.1,92.5 677,91.5 "/>
<path class="st0" d="M445.5,98.1c-0.2,0.1-0.4,0-0.4-0.2l-3.6-9c-0.1-0.2,0-0.4,0.2-0.4c0.2-0.1,0.4,0,0.4,0.2l3.6,9
	C445.7,97.9,445.7,98.1,445.5,98.1z"/>
<path class="st0" d="M441.8,89.1c-0.1,0-0.2,0-0.2,0c-0.2-0.1-0.2-0.3-0.2-0.4l0.9-2.2c0-0.1,0.2-0.6,0.7-0.8c0.2-0.1,0.5-0.1,0.7,0
	c0.4,0.1,0.8,0.5,0.5,1.4c0,0,0,0,0,0c0,0.2-0.2,0.3-0.4,0.2c-0.2,0-0.3-0.2-0.2-0.4c0,0,0,0,0-0.1c0.1-0.4,0-0.5-0.1-0.6
	c-0.3-0.1-0.5,0.4-0.6,0.4c0,0,0,0,0,0l-0.9,2.2C442,89,441.9,89.1,441.8,89.1z"/>
<path class="st0" d="M442.5,90.8c-0.1,0-0.2,0-0.2,0c-0.2-0.1-0.2-0.3-0.2-0.4l1.7-4c0.1-0.2,0.3-0.2,0.4-0.2
	c0.2,0.1,0.2,0.3,0.2,0.4l-1.7,4C442.7,90.7,442.6,90.8,442.5,90.8z"/>
<path class="st0" d="M443.3,92.5c-0.1,0-0.2,0-0.2,0c-0.2-0.1-0.2-0.3-0.2-0.4l2.2-5.4c0-0.1,0-0.3,0-0.3c0-0.1-0.1-0.1-0.2-0.1
	c-0.3-0.1-0.6,0.7-0.6,0.9c0,0.2-0.2,0.3-0.4,0.2c-0.2,0-0.3-0.2-0.2-0.4c0.1-0.6,0.6-1.5,1.4-1.3c0.4,0.1,0.6,0.3,0.6,0.4
	c0.1,0.2,0.2,0.5,0.1,0.9c0,0,0,0,0,0l-2.2,5.4C443.5,92.4,443.4,92.5,443.3,92.5z"/>
<path class="st0" d="M444,94.5c-0.1,0-0.2,0-0.2,0c-0.2-0.1-0.2-0.3-0.2-0.4l2.8-6.7c0,0,0,0,0,0c0.1-0.1,0.2-0.5,0.1-0.7
	c0,0-0.1-0.1-0.2-0.2c-0.1,0-0.2,0-0.3,0c-0.2,0.1-0.3,0.3-0.3,0.4c0,0.2-0.2,0.3-0.4,0.2c-0.2,0-0.3-0.2-0.2-0.4
	c0-0.1,0.2-0.6,0.6-0.8c0.2-0.1,0.5-0.2,0.8-0.1c0.4,0.1,0.6,0.3,0.6,0.5c0.2,0.5,0,1.2-0.1,1.3l-2.8,6.7
	C444.1,94.4,444.1,94.4,444,94.5z"/>
<path class="st0" d="M444.8,96.3c-0.1,0-0.2,0-0.2,0c-0.2-0.1-0.2-0.3-0.2-0.4l3.1-7.3c0,0,0,0,0,0c0.2-0.4,0.3-0.8,0.4-0.9
	c0-0.3-0.2-0.4-0.3-0.4c-0.2,0-0.5,0-0.6,0.4c0,0.2-0.2,0.3-0.4,0.2c-0.2,0-0.3-0.2-0.2-0.4c0.2-0.7,0.8-1,1.3-0.9
	c0.5,0.1,0.9,0.6,0.8,1.1c0,0.3-0.3,0.9-0.4,1.1l-3.1,7.3C444.9,96.2,444.8,96.3,444.8,96.3z"/>
<path class="st0" d="M445.5,98.2c-0.1,0-0.2,0-0.2,0c-0.2-0.1-0.2-0.3-0.2-0.4l3.1-7.3c0,0,0,0,0,0c0.2-0.4,0.4-0.9,0.4-1.1
	c0-0.2-0.2-0.3-0.3-0.3c-0.2,0-0.4,0.1-0.5,0.4c0,0.2-0.2,0.3-0.4,0.2c-0.2,0-0.3-0.2-0.2-0.4c0.2-0.7,0.7-0.9,1.1-0.9
	c0.5,0.1,0.9,0.4,0.9,0.9c0,0.4-0.3,1.2-0.4,1.4l-3.1,7.3C445.7,98.1,445.6,98.2,445.5,98.2z"/>
<path class="st0" d="M441.8,89.1c-0.1,0-0.2,0-0.3,0l-2.1-0.9c0,0,0,0,0,0c-0.1,0-0.5-0.2-0.7,0.1c-0.1,0.1-0.1,0.3,0.3,0.5
	c0,0,0.1,0,0.1,0c0.1,0.1,0.2,0.3,0.1,0.4c-0.1,0.1-0.3,0.2-0.4,0.1c0,0,0,0,0,0c-0.8-0.5-0.7-1-0.6-1.3c0.1-0.2,0.3-0.4,0.5-0.5
	c0.5-0.2,0.9,0.1,1,0.1l2.1,0.9c0.2,0.1,0.2,0.3,0.2,0.4C442,89,441.9,89.1,441.8,89.1z"/>
<path class="st0" d="M442.5,90.8c-0.1,0-0.2,0-0.2,0l-4-1.7c-0.2-0.1-0.2-0.3-0.2-0.4c0.1-0.2,0.3-0.2,0.4-0.2l4,1.7
	c0.2,0.1,0.2,0.3,0.2,0.4C442.7,90.8,442.6,90.8,442.5,90.8z"/>
<path class="st0" d="M443.1,92.6c-0.1,0-0.2,0-0.3,0l-5.3-2.4c0,0,0,0,0,0c-0.3-0.2-0.5-0.4-0.5-0.7c0-0.2,0-0.4,0.2-0.7
	c0.5-0.7,1.4-0.3,1.9,0c0.2,0.1,0.2,0.3,0.1,0.4c-0.1,0.2-0.3,0.2-0.4,0.1l0,0c-0.2-0.1-0.9-0.5-1.1-0.2c-0.1,0.1-0.1,0.2-0.1,0.2
	c0,0.1,0.1,0.2,0.2,0.3l5.3,2.4c0.2,0.1,0.2,0.3,0.2,0.4C443.3,92.5,443.2,92.6,443.1,92.6z"/>
<path class="st0" d="M444,94.5c-0.1,0-0.2,0-0.2,0l-6.6-2.9c-0.1,0-0.8-0.3-0.9-0.8c-0.1-0.2-0.1-0.5,0.1-0.8
	c0.1-0.2,0.3-0.4,0.6-0.5c0.5-0.1,0.9,0.1,1,0.2c0.2,0.1,0.2,0.3,0.1,0.4c-0.1,0.2-0.3,0.2-0.4,0.1c-0.1,0-0.3-0.1-0.5-0.1
	c-0.1,0-0.1,0-0.2,0.2c-0.1,0.1-0.1,0.2,0,0.3c0.1,0.2,0.4,0.4,0.6,0.5c0,0,0,0,0,0l6.6,2.9c0.2,0.1,0.2,0.3,0.2,0.4
	C444.2,94.4,444.1,94.5,444,94.5z"/>
<path class="st0" d="M444.8,96.3c-0.1,0-0.2,0-0.2,0l-7.3-3.1c-0.2-0.1-0.9-0.3-1.1-0.5c-0.4-0.3-0.5-0.9-0.2-1.4
	c0.3-0.4,0.9-0.7,1.5-0.3c0.2,0.1,0.2,0.3,0.1,0.4c-0.1,0.2-0.3,0.2-0.4,0.1c-0.3-0.2-0.6-0.1-0.7,0.1c-0.1,0.1-0.1,0.3,0.1,0.5
	c0.1,0.1,0.5,0.3,0.9,0.4c0,0,0,0,0,0l7.3,3.1c0.2,0.1,0.2,0.3,0.2,0.4C444.9,96.2,444.8,96.3,444.8,96.3z"/>
<path class="st0" d="M445.5,98.2c-0.1,0-0.2,0-0.2,0l-7.3-3.1c-0.2-0.1-1-0.4-1.3-0.7c-0.3-0.4-0.3-0.9,0-1.3
	c0.3-0.3,0.8-0.5,1.4-0.2c0.2,0.1,0.2,0.3,0.1,0.4c-0.1,0.2-0.3,0.2-0.4,0.1c-0.3-0.2-0.5-0.1-0.6,0c-0.1,0.1-0.1,0.3,0,0.5
	c0.1,0.1,0.6,0.4,1,0.6c0,0,0,0,0,0l7.3,3.1c0.2,0.1,0.2,0.3,0.2,0.4C445.7,98.1,445.6,98.2,445.5,98.2z"/>
<circle class="st0" cx="441" cy="87" r="0.5"/>
<path class="st0" d="M679.6,130c0,0.1-0.2,0.1-0.2,0.1l-4.7-2.7c-0.1,0-0.1-0.2-0.1-0.2s0.2-0.1,0.2-0.1l4.7,2.7
	C679.6,129.8,679.6,129.9,679.6,130z"/>
<path class="st0" d="M674.8,127.3c0,0-0.1,0.1-0.1,0.1c-0.1,0-0.2,0-0.2-0.1l-0.4-1.3c0,0-0.1-0.3,0-0.6c0.1-0.1,0.2-0.2,0.3-0.3
	c0.2-0.1,0.5-0.1,0.7,0.4c0,0,0,0,0,0c0,0.1,0,0.2-0.1,0.2c-0.1,0-0.2,0-0.2-0.1c0,0,0,0,0,0c-0.1-0.2-0.2-0.2-0.3-0.2
	c-0.2,0.1-0.1,0.3-0.1,0.4c0,0,0,0,0,0l0.4,1.3C674.9,127.2,674.9,127.2,674.8,127.3z"/>
<path class="st0" d="M675.7,127.8c0,0-0.1,0.1-0.1,0.1c-0.1,0-0.2,0-0.2-0.1l-0.6-2.3c0-0.1,0-0.2,0.1-0.2c0.1,0,0.2,0,0.2,0.1
	l0.6,2.3C675.8,127.7,675.8,127.7,675.7,127.8z"/>
<path class="st0" d="M676.7,128.2c0,0-0.1,0.1-0.1,0.1c-0.1,0-0.2,0-0.2-0.1l-0.9-3.1c0-0.1-0.1-0.1-0.1-0.1c0,0-0.1,0-0.1,0
	c-0.2,0.1,0,0.5,0,0.6c0,0.1,0,0.2-0.1,0.2c-0.1,0-0.2,0-0.2-0.1c-0.1-0.3-0.3-0.9,0.1-1.1c0.2-0.1,0.3-0.1,0.4,0
	c0.1,0,0.3,0.2,0.3,0.3c0,0,0,0,0,0l0.9,3.1C676.7,128.1,676.7,128.2,676.7,128.2z"/>
<path class="st0" d="M677.7,128.9c0,0-0.1,0.1-0.1,0.1c-0.1,0-0.2,0-0.2-0.1l-1.1-3.9c0,0,0,0,0,0c0-0.1-0.1-0.3-0.2-0.4
	c0,0-0.1,0-0.2,0c-0.1,0-0.1,0.1-0.1,0.1c0,0.1,0,0.2,0,0.3c0,0.1,0,0.2-0.1,0.2c-0.1,0-0.2,0-0.2-0.1c0,0-0.1-0.3,0-0.6
	c0.1-0.1,0.2-0.2,0.3-0.3c0.2-0.1,0.4,0,0.5,0c0.3,0.1,0.4,0.5,0.4,0.6l1.1,3.9C677.7,128.8,677.7,128.8,677.7,128.9z"/>
<path class="st0" d="M678.6,129.4c0,0-0.1,0.1-0.1,0.1c-0.1,0-0.2,0-0.2-0.1l-1.2-4.3c0,0,0,0,0,0c-0.1-0.2-0.1-0.5-0.2-0.5
	c-0.1-0.1-0.2-0.1-0.3-0.1c-0.1,0.1-0.2,0.2-0.1,0.4c0,0.1,0,0.2-0.1,0.2c-0.1,0-0.2,0-0.2-0.1c-0.2-0.4,0-0.7,0.3-0.8
	c0.3-0.1,0.6-0.1,0.7,0.2c0.1,0.1,0.2,0.5,0.2,0.6l1.2,4.3C678.7,129.3,678.6,129.4,678.6,129.4z"/>
<path class="st0" d="M679.6,130c0,0-0.1,0.1-0.1,0.1c-0.1,0-0.2,0-0.2-0.1l-1.2-4.3c0,0,0,0,0,0c-0.1-0.2-0.2-0.5-0.2-0.6
	c-0.1-0.1-0.2-0.1-0.3,0c-0.1,0.1-0.1,0.2-0.1,0.3c0,0.1,0,0.2-0.1,0.2c-0.1,0-0.2,0-0.2-0.1c-0.2-0.4,0-0.7,0.2-0.8
	c0.2-0.1,0.5-0.1,0.7,0.1c0.2,0.2,0.3,0.7,0.3,0.8l1.2,4.3C679.6,129.9,679.6,129.9,679.6,130z"/>
<path class="st0" d="M674.8,127.3c0,0-0.1,0.1-0.1,0.1l-1.3,0.3c0,0,0,0,0,0c0,0-0.3,0.1-0.3,0.3c0,0.1,0.1,0.2,0.3,0.1c0,0,0,0,0,0
	c0.1,0,0.2,0.1,0.2,0.2c0,0.1-0.1,0.2-0.2,0.2c0,0,0,0,0,0c-0.5,0.1-0.7-0.2-0.7-0.4c0-0.1,0-0.3,0.1-0.4c0.1-0.2,0.4-0.3,0.5-0.3
	l1.3-0.3c0.1,0,0.2,0,0.2,0.1C674.9,127.2,674.9,127.2,674.8,127.3z"/>
<path class="st0" d="M675.8,127.8c0,0-0.1,0.1-0.1,0.1l-2.3,0.6c-0.1,0-0.2,0-0.2-0.1c0-0.1,0-0.2,0.1-0.2l2.3-0.6
	c0.1,0,0.2,0,0.2,0.1C675.8,127.7,675.8,127.8,675.8,127.8z"/>
<path class="st0" d="M676.6,128.4c0,0-0.1,0.1-0.1,0.1l-3.1,0.8c0,0,0,0,0,0c-0.2,0-0.4,0-0.5-0.1c-0.1-0.1-0.2-0.2-0.2-0.4
	c0-0.5,0.5-0.6,0.8-0.7c0.1,0,0.2,0.1,0.2,0.2c0,0.1-0.1,0.2-0.2,0.2l0,0c-0.1,0-0.5,0.1-0.5,0.3c0,0.1,0,0.1,0,0.1c0,0,0.1,0,0.2,0
	l3.1-0.8c0.1,0,0.2,0,0.2,0.1C676.7,128.3,676.6,128.3,676.6,128.4z"/>
<path class="st0" d="M677.7,128.9c0,0-0.1,0.1-0.1,0.1l-3.9,1.1c-0.1,0-0.4,0.1-0.7,0c-0.1-0.1-0.2-0.2-0.2-0.4c0-0.2,0-0.3,0.1-0.4
	c0.2-0.2,0.5-0.3,0.5-0.3c0.1,0,0.2,0.1,0.2,0.2c0,0.1-0.1,0.2-0.2,0.2c0,0-0.2,0-0.2,0.1c0,0,0,0.1,0,0.1c0,0.1,0,0.1,0.1,0.1
	c0.1,0.1,0.3,0,0.4,0c0,0,0,0,0,0l3.9-1.1c0.1,0,0.2,0,0.2,0.1C677.7,128.8,677.7,128.8,677.7,128.9z"/>
<path class="st0" d="M678.6,129.4c0,0-0.1,0.1-0.1,0.1l-4.3,1.2c-0.1,0-0.5,0.1-0.6,0.2c-0.3,0-0.5-0.2-0.6-0.5
	c0-0.3,0.1-0.6,0.6-0.7c0.1,0,0.2,0.1,0.2,0.2c0,0.1-0.1,0.2-0.2,0.2c-0.2,0-0.3,0.2-0.3,0.3c0,0.1,0.1,0.2,0.2,0.2
	c0.1,0,0.3-0.1,0.5-0.1c0,0,0,0,0,0l4.3-1.2c0.1,0,0.2,0,0.2,0.1C678.7,129.3,678.7,129.4,678.6,129.4z"/>
<path class="st0" d="M679.6,130c0,0-0.1,0.1-0.1,0.1l-4.3,1.2c-0.1,0-0.6,0.2-0.8,0.1c-0.3-0.1-0.4-0.3-0.4-0.6
	c0-0.2,0.2-0.5,0.6-0.6c0.1,0,0.2,0.1,0.2,0.2c0,0.1-0.1,0.2-0.2,0.2c-0.2,0-0.3,0.1-0.3,0.2c0,0.1,0.1,0.2,0.1,0.2
	c0.1,0,0.4,0,0.6-0.1c0,0,0,0,0,0l4.3-1.2c0.1,0,0.2,0,0.2,0.1C679.7,129.9,679.6,130,679.6,130z"/>
<circle class="st0" cx="673.7" cy="126.6" r="0.3"/>
<path class="st0" d="M591.9,29.4c0,0.1-0.2,0.1-0.2,0.1l-4.7-2.7c-0.1,0-0.1-0.2-0.1-0.2c0-0.1,0.2-0.1,0.2-0.1l4.7,2.7
	C591.9,29.2,591.9,29.4,591.9,29.4z"/>
<path class="st0" d="M587.1,26.8c0,0-0.1,0.1-0.1,0.1c-0.1,0-0.2,0-0.2-0.1l-0.4-1.3c0,0-0.1-0.3,0-0.6c0.1-0.1,0.2-0.2,0.3-0.3
	c0.2-0.1,0.5-0.1,0.7,0.4c0,0,0,0,0,0c0,0.1,0,0.2-0.1,0.2c-0.1,0-0.2,0-0.2-0.1c0,0,0,0,0,0c-0.1-0.2-0.2-0.2-0.3-0.2
	c-0.2,0.1-0.1,0.3-0.1,0.4c0,0,0,0,0,0l0.4,1.3C587.2,26.7,587.2,26.7,587.1,26.8z"/>
<path class="st0" d="M588,27.3c0,0-0.1,0.1-0.1,0.1c-0.1,0-0.2,0-0.2-0.1l-0.6-2.3c0-0.1,0-0.2,0.1-0.2c0.1,0,0.2,0,0.2,0.1l0.6,2.3
	C588.1,27.2,588.1,27.2,588,27.3z"/>
<path class="st0" d="M589,27.7c0,0-0.1,0.1-0.1,0.1c-0.1,0-0.2,0-0.2-0.1l-0.9-3.1c0-0.1-0.1-0.1-0.1-0.1c0,0-0.1,0-0.1,0
	c-0.2,0.1,0,0.5,0,0.6c0,0.1,0,0.2-0.1,0.2c-0.1,0-0.2,0-0.2-0.1c-0.1-0.3-0.3-0.9,0.1-1.1c0.2-0.1,0.3-0.1,0.4,0
	c0.1,0,0.3,0.2,0.3,0.3c0,0,0,0,0,0l0.9,3.1C589,27.6,589,27.7,589,27.7z"/>
<path class="st0" d="M589.9,28.4c0,0-0.1,0.1-0.1,0.1c-0.1,0-0.2,0-0.2-0.1l-1.1-3.9c0,0,0,0,0,0c0-0.1-0.1-0.3-0.2-0.4
	c0,0-0.1,0-0.2,0c-0.1,0-0.1,0.1-0.1,0.1c0,0.1,0,0.2,0,0.3c0,0.1,0,0.2-0.1,0.2c-0.1,0-0.2,0-0.2-0.1c0,0-0.1-0.3,0-0.6
	c0.1-0.1,0.2-0.2,0.3-0.3c0.2-0.1,0.4,0,0.5,0c0.3,0.1,0.4,0.5,0.4,0.6l1.1,3.9C590,28.3,590,28.3,589.9,28.4z"/>
<path class="st0" d="M590.9,28.9c0,0-0.1,0.1-0.1,0.1c-0.1,0-0.2,0-0.2-0.1l-1.2-4.3c0,0,0,0,0,0c-0.1-0.2-0.1-0.5-0.2-0.5
	c-0.1-0.1-0.2-0.1-0.3-0.1c-0.1,0.1-0.2,0.2-0.1,0.4c0,0.1,0,0.2-0.1,0.2c-0.1,0-0.2,0-0.2-0.1c-0.2-0.4,0-0.7,0.3-0.8
	c0.3-0.1,0.6-0.1,0.7,0.2c0.1,0.1,0.2,0.5,0.2,0.6l1.2,4.3C590.9,28.8,590.9,28.9,590.9,28.9z"/>
<path class="st0" d="M591.9,29.5c0,0-0.1,0.1-0.1,0.1c-0.1,0-0.2,0-0.2-0.1l-1.2-4.3c0,0,0,0,0,0c-0.1-0.2-0.2-0.5-0.2-0.6
	c-0.1-0.1-0.2-0.1-0.3,0c-0.1,0.1-0.1,0.2-0.1,0.3c0,0.1,0,0.2-0.1,0.2c-0.1,0-0.2,0-0.2-0.1c-0.2-0.4,0-0.7,0.2-0.8
	c0.2-0.1,0.5-0.1,0.7,0.1c0.2,0.2,0.3,0.7,0.3,0.8l1.2,4.3C591.9,29.4,591.9,29.4,591.9,29.5z"/>
<path class="st0" d="M587.1,26.8c0,0-0.1,0.1-0.1,0.1l-1.3,0.3c0,0,0,0,0,0c0,0-0.3,0.1-0.3,0.3c0,0.1,0.1,0.2,0.3,0.1c0,0,0,0,0,0
	c0.1,0,0.2,0.1,0.2,0.2c0,0.1-0.1,0.2-0.2,0.2c0,0,0,0,0,0c-0.5,0.1-0.7-0.2-0.7-0.4c0-0.1,0-0.3,0.1-0.4c0.1-0.2,0.4-0.3,0.5-0.3
	l1.3-0.3c0.1,0,0.2,0,0.2,0.1C587.2,26.7,587.2,26.7,587.1,26.8z"/>
<path class="st0" d="M588,27.3c0,0-0.1,0.1-0.1,0.1l-2.3,0.6c-0.1,0-0.2,0-0.2-0.1c0-0.1,0-0.2,0.1-0.2l2.3-0.6c0.1,0,0.2,0,0.2,0.1
	C588.1,27.2,588.1,27.2,588,27.3z"/>
<path class="st0" d="M588.9,27.8c0,0-0.1,0.1-0.1,0.1l-3.1,0.8c0,0,0,0,0,0c-0.2,0-0.4,0-0.5-0.1c-0.1-0.1-0.2-0.2-0.2-0.4
	c0-0.5,0.5-0.6,0.8-0.7c0.1,0,0.2,0.1,0.2,0.2c0,0.1-0.1,0.2-0.2,0.2l0,0c-0.1,0-0.5,0.1-0.5,0.3c0,0.1,0,0.1,0,0.1c0,0,0.1,0,0.2,0
	l3.1-0.8c0.1,0,0.2,0,0.2,0.1C588.9,27.8,588.9,27.8,588.9,27.8z"/>
<path class="st0" d="M590,28.4c0,0-0.1,0.1-0.1,0.1l-3.9,1.1c-0.1,0-0.4,0.1-0.7,0c-0.1-0.1-0.2-0.2-0.2-0.4c0-0.2,0-0.3,0.1-0.4
	c0.2-0.2,0.5-0.3,0.5-0.3c0.1,0,0.2,0.1,0.2,0.2c0,0.1-0.1,0.2-0.2,0.2c0,0-0.2,0-0.2,0.1c0,0,0,0.1,0,0.1c0,0.1,0,0.1,0.1,0.1
	c0.1,0.1,0.3,0,0.4,0c0,0,0,0,0,0l3.9-1.1c0.1,0,0.2,0,0.2,0.1C590,28.3,590,28.3,590,28.4z"/>
<path class="st0" d="M590.9,28.9c0,0-0.1,0.1-0.1,0.1l-4.3,1.2c-0.1,0-0.5,0.1-0.6,0.2c-0.3,0-0.5-0.2-0.6-0.5
	c0-0.3,0.1-0.6,0.6-0.7c0.1,0,0.2,0.1,0.2,0.2c0,0.1-0.1,0.2-0.2,0.2c-0.2,0-0.3,0.2-0.3,0.3c0,0.1,0.1,0.2,0.2,0.2
	c0.1,0,0.3-0.1,0.5-0.1c0,0,0,0,0,0l4.3-1.2c0.1,0,0.2,0,0.2,0.1C591,28.8,591,28.9,590.9,28.9z"/>
<path class="st0" d="M591.9,29.5c0,0-0.1,0.1-0.1,0.1l-4.3,1.2c-0.1,0-0.6,0.2-0.8,0.1c-0.3-0.1-0.4-0.3-0.4-0.6
	c0-0.2,0.2-0.5,0.6-0.6c0.1,0,0.2,0.1,0.2,0.2c0,0.1-0.1,0.2-0.2,0.2c-0.2,0-0.3,0.1-0.3,0.2c0,0.1,0.1,0.2,0.1,0.2
	c0.1,0,0.4,0,0.6-0.1c0,0,0,0,0,0l4.3-1.2c0.1,0,0.2,0,0.2,0.1C591.9,29.4,591.9,29.4,591.9,29.5z"/>
<circle class="st0" cx="586" cy="26.1" r="0.3"/>
<path class="st0" d="M683.7,23.1l-4.4,0.6c-0.1,0-0.3,0-0.3,0.1c-0.1,0.1-0.1,0.3-0.1,0.4l-0.7,4.2c0,0.1,0,0.2,0.1,0.3
	c0.1,0.1,0.2,0.1,0.3,0.1l4.4-0.4c0.1,0.1,0.3,0,0.4-0.1c0.1-0.1,0.1-0.2,0.1-0.3l0.6-4.6c0-0.1,0-0.2-0.1-0.3
	C683.9,23.1,683.8,23.1,683.7,23.1z M683.2,24.6l-1.6,1.5l-0.2-0.3l0.1-0.1c0,0,0,0,0,0l1.7-1.7L683.2,24.6z M683.1,25.7l-1,0.9
	l-0.2-0.3l1.3-1.2L683.1,25.7z M682.9,26.8l-0.3,0.3l-0.2-0.3l0.7-0.6L682.9,26.8z M679,27.3l1.4-1.4l0.2,0.2l0,0c0,0,0,0,0,0
	l-1.7,1.6L679,27.3z M679.2,26.1l0.8-0.7l0.2,0.3l-1.1,1.1L679.2,26.1z M679.4,25l0.1-0.1l0.2,0.3l-0.5,0.4L679.4,25z M680.5,24.9
	l0.8-0.8l0.6-0.1l-1.2,1.1L680.5,24.9z M680.8,24.2l-0.5,0.5l-0.2-0.3c0,0,0,0,0,0l0.1-0.1L680.8,24.2z M680.9,26.4l0.2,0.3
	l-1.5,1.4l-0.6,0L680.9,26.4z M681.4,26.9l0.2,0.3l-0.9,0.8l-0.6,0L681.4,26.9z M681.8,27.4l0.2,0.3l-0.3,0.3l-0.6,0L681.8,27.4z
	 M682.8,27.3L682.8,27.3L682.8,27.3L682.8,27.3z M681.2,25.6l-0.2-0.2l1.5-1.4l0.6-0.1L681.2,25.6z"/>
<path class="st0" d="M641.5,109.2l-1.1-7.9c0-0.2,0-0.5-0.2-0.6c-0.2-0.2-0.5-0.3-0.7-0.2l-7.6-1.2c-0.2,0-0.4,0-0.5,0.2
	c-0.1,0.1-0.2,0.3-0.2,0.5l0.7,7.9c-0.1,0.3-0.1,0.6,0.1,0.8c0.2,0.2,0.4,0.2,0.6,0.2l8.2,1.1c0.2,0,0.4,0,0.5-0.2
	C641.5,109.6,641.5,109.4,641.5,109.2z M638.8,108.4l-2.7-2.8l0.5-0.4l0.2,0.3c0,0,0,0,0,0l3,3.1L638.8,108.4z M636.9,108.2
	l-1.6-1.7l0.4-0.4l2.2,2.3L636.9,108.2z M634.9,107.9l-0.6-0.6l0.4-0.4l1.1,1.2L634.9,107.9z M634,100.8l2.5,2.5l-0.4,0.4l-0.1-0.1
	c0,0,0,0,0,0l-2.9-3L634,100.8z M636,101.2l1.3,1.4l-0.4,0.4l-1.9-2L636,101.2z M638,101.5l0.2,0.2l-0.4,0.4l-0.8-0.8L638,101.5z
	 M638.3,103.5l1.4,1.5l0.1,1.1l-2-2.1L638.3,103.5z M639.6,104l-0.9-0.9l0.5-0.4c0,0,0,0,0,0l0.2,0.3L639.6,104z M635.6,104.2
	l-0.5,0.4l-2.6-2.6l-0.1-1L635.6,104.2z M634.7,105.1l-0.4,0.4l-1.5-1.6l-0.1-1L634.7,105.1z M633.8,105.9l-0.4,0.4l-0.5-0.5l-0.1-1
	L633.8,105.9z M633.9,107.7L633.9,107.7L633.9,107.7L633.9,107.7z M637,104.8l0.4-0.4l2.6,2.7l0.1,1L637,104.8z"/>
<path class="st0" d="M504.1,61.4l-4.4-0.7c-0.1-0.1-0.2-0.1-0.4,0c-0.1,0.1-0.2,0.2-0.2,0.4l-1.9,3.8c0,0.1,0,0.2,0,0.3
	c0,0.1,0.1,0.2,0.2,0.2l4.3,0.9c0.1,0.1,0.3,0.1,0.4,0.1c0.1-0.1,0.2-0.2,0.2-0.3l1.9-4.2c0-0.1,0-0.2,0-0.3
	C504.3,61.5,504.2,61.5,504.1,61.4z M503.2,62.8l-1.9,1l-0.2-0.3l0.2-0.1c0,0,0,0,0,0l2.1-1.1L503.2,62.8z M502.8,63.8l-1.2,0.6
	l-0.2-0.3l1.6-0.8L502.8,63.8z M502.3,64.8l-0.4,0.2l-0.2-0.3l0.8-0.4L502.3,64.8z M498.4,64.1l1.8-0.9l0.2,0.3l0,0c0,0,0,0,0,0
	l-2.1,1.1L498.4,64.1z M498.9,63.1l0.9-0.5l0.2,0.3l-1.4,0.7L498.9,63.1z M499.4,62.1l0.1-0.1l0.2,0.3l-0.6,0.3L499.4,62.1z
	 M500.5,62.3l1-0.5l0.6,0.1l-1.5,0.7L500.5,62.3z M501,61.6l-0.6,0.3l-0.2-0.3c0,0,0,0,0,0l0.2-0.1L501,61.6z M500.5,63.8l0.2,0.3
	l-1.8,0.9l-0.6-0.1L500.5,63.8z M500.8,64.4l0.2,0.3l-1.1,0.6l-0.5-0.1L500.8,64.4z M501.1,65l0.2,0.3l-0.3,0.2l-0.5-0.1L501.1,65z
	 M502.1,65.3L502.1,65.3L502.1,65.3L502.1,65.3z M501,63.2l-0.2-0.3l1.9-1l0.6,0.1L501,63.2z"/>
<path class="st0" d="M413.6,121.7l-4.9,2.7c-0.2,0-0.3,0.1-0.4,0.3c-0.1,0.2,0,0.4,0.1,0.5l1,5.3c0,0.1,0.1,0.2,0.2,0.3
	c0.1,0.1,0.2,0.1,0.4,0l5-2.4c0.2,0,0.4-0.1,0.5-0.3c0.1-0.1,0.1-0.3,0-0.4l-1.3-5.7c0-0.1-0.1-0.2-0.2-0.3
	C413.8,121.6,413.7,121.6,413.6,121.7z M413.7,123.7l-1.2,2.5l-0.4-0.2l0.1-0.2c0,0,0,0,0,0l1.3-2.7L413.7,123.7z M414,125l-0.7,1.5
	l-0.4-0.2l1-2L414,125z M414.3,126.3l-0.3,0.5l-0.4-0.2l0.5-1L414.3,126.3z M409.9,128.7l1.1-2.2l0.4,0.2l0,0.1c0,0,0,0,0,0
	l-1.3,2.7L409.9,128.7z M409.6,127.3l0.6-1.2l0.4,0.2l-0.8,1.7L409.6,127.3z M409.3,125.9l0.1-0.2l0.4,0.2l-0.3,0.7L409.3,125.9z
	 M410.6,125.2l0.6-1.3l0.7-0.4l-0.9,1.9L410.6,125.2z M410.6,124.2l-0.4,0.8l-0.4-0.2c0,0,0,0,0,0l0.1-0.2L410.6,124.2z
	 M411.7,126.8l0.4,0.2l-1.1,2.3l-0.6,0.3L411.7,126.8z M412.5,127.2l0.4,0.2l-0.7,1.4l-0.6,0.3L412.5,127.2z M413.3,127.6l0.4,0.2
	l-0.2,0.4l-0.6,0.3L413.3,127.6z M414.5,127.1L414.5,127.1L414.5,127.1L414.5,127.1z M411.8,125.8l-0.4-0.2l1.1-2.4l0.6-0.3
	L411.8,125.8z"/>
</svg>
