<?xml version="1.0" encoding="utf-8"?>
<!-- Generator: Adobe Illustrator 19.1.1, SVG Export Plug-In . SVG Version: 6.00 Build 0)  -->
<svg version="1.1" id="Layer_1" xmlns="http://www.w3.org/2000/svg" xmlns:xlink="http://www.w3.org/1999/xlink" x="0px" y="0px"
	 viewBox="-49 620.9 32.1 32.1" style="enable-background:new -49 620.9 32.1 32.1;" xml:space="preserve">
<path d="M-17.8,652.1c-1.2,1.2-3.1,1.2-4.3,0l-5.3-5.3c-2.2,1.4-4.8,2.2-7.6,2.2c-7.8,0-14-6.3-14-14c0-7.8,6.3-14,14-14
	c7.8,0,14,6.3,14,14c0,2.8-0.8,5.4-2.2,7.6l5.3,5.3C-16.7,649-16.7,650.9-17.8,652.1z M-35,625c-5.5,0-10,4.5-10,10
	c0,5.5,4.5,10,10,10c5.5,0,10-4.5,10-10C-24.9,629.5-29.4,625-35,625z"/>
</svg>
