<?xml version="1.0" encoding="utf-8"?>
<!-- Generator: Adobe Illustrator 19.1.1, SVG Export Plug-In . SVG Version: 6.00 Build 0)  -->
<svg version="1.1" id="Слой_1" xmlns="http://www.w3.org/2000/svg" xmlns:xlink="http://www.w3.org/1999/xlink" x="0px" y="0px"
	 viewBox="-230 408.6 60.5 49.8" style="enable-background:new -230 408.6 60.5 49.8;" xml:space="preserve">
<style type="text/css">
	.st0{fill:none;stroke:#FFFFFF;stroke-linecap:round;stroke-linejoin:round;stroke-miterlimit:10;}
</style>
<polygon class="st0" points="-205.2,421.5 -199.6,416.4 -207.9,410.6 -210.1,414.1 "/>
<polygon class="st0" points="-194.1,421.5 -199.6,416.4 -191.4,410.6 -189.1,414.1 "/>
<line class="st0" x1="-207.9" y1="410.6" x2="-191.4" y2="410.6"/>
<polyline class="st0" points="-209.5,414.9 -214.5,417.6 -214.5,455.7 -184.7,455.7 -184.7,417.5 -189.7,414.9 "/>
<polyline class="st0" points="-203.8,420.7 -203.8,438.4 -195.3,438.4 -195.3,420.4 "/>
<polyline class="st0" points="-206.2,420.1 -206.2,440.7 -192.9,440.7 -192.9,419.8 "/>
<path class="st0" d="M-214.5,417.6c0,0-3.5,1.1-4.4,4.4c-1,3.6-8.7,29.9-8.7,29.9h5.7l7.3-22.4"/>
<path class="st0" d="M-184.6,417.6c0,0,3.5,1.1,4.4,4.4c1,3.6,8.7,29.9,8.7,29.9h-5.7l-7.3-22.4"/>
<line class="st0" x1="-199.6" y1="416.4" x2="-199.6" y2="431.1"/>
</svg>
