<?xml version="1.0" encoding="utf-8"?>
<!-- Generator: Adobe Illustrator 19.1.1, SVG Export Plug-In . SVG Version: 6.00 Build 0)  -->
<svg version="1.1" id="Слой_1" xmlns="http://www.w3.org/2000/svg" xmlns:xlink="http://www.w3.org/1999/xlink" x="0px" y="0px"
	 viewBox="0 0 104.8 94.8" style="enable-background:new 0 0 104.8 94.8;" xml:space="preserve">
<style type="text/css">
	.st0{fill:#FFFFFF;}
</style>
<path class="st0" d="M95.2,36.4c-0.1-2.4-1-11.7-7.3-21.7C80.7,3.2,70.7,0.2,70.3,0.1C69.9-0.1,69.4,0,69,0.3s-0.6,0.7-0.7,1.1
	c0,0.1-0.8,8-5.1,12.3C58.7,18.3,52.6,18,52.6,18c-0.1,0-0.1,0-0.2,0c-0.1,0-0.1,0-0.2,0c-0.1,0-6.1,0.3-10.8-4.3
	c-4.3-4.3-5.1-12.2-5.1-12.3c0-0.4-0.3-0.9-0.7-1.1c-0.4-0.3-0.8-0.3-1.3-0.2C34,0.2,24.1,3.2,16.9,14.7c-6.3,10-7.2,19.3-7.3,21.7
	C7.7,38.6,0,48.5,0,62.8c0,16.4,5,18.6,10.4,18.6c2.3,0,10.1-1.3,12.2-17.6c1.5-11.3,0.1-19.7-0.4-22.5c1.4-1.1,4.2-3.8,6.3-8
	c0.1-0.2,0.2-0.4,0.3-0.6c0.4,1.7,1,3.4,2,5c1.9,3.2,4,5.2,5.6,6.3c-2.4,2-6.5,6-8.5,11.5c-6.1,16.1-1.8,25-1.3,25.9
	C26.9,82.4,32.7,94,52.1,94c0.1,0,0.2,0,0.3,0c0.1,0,0.2,0,0.3,0c19.9,0,25.6-11.9,25.8-12.3c0.2-0.4,4.8-9.5-1.5-26.2
	C75,50,70.8,46,68.5,44c1.5-1.1,3.7-3.1,5.6-6.3c0.9-1.6,1.6-3.3,2-5c0.1,0.2,0.2,0.4,0.3,0.6c2.1,4.2,4.9,6.9,6.3,8
	c-0.6,2.8-1.9,11.2-0.4,22.5c2.1,16.3,9.9,17.6,12.2,17.6c5.4,0,10.4-2.3,10.4-18.6C104.8,48.5,97.1,38.6,95.2,36.4z M19.6,63.4
	c-1.8,13.9-7.5,14.9-9.3,14.9c-2.9,0-7.4,0-7.4-15.6c0-10.7,4.9-19,7.5-22.7c0.6,1.1,1.4,2.2,2.8,2.8c0.8,0.4,1.8,0.6,2.7,0.6
	c1,0,2.2-0.3,3.4-0.7C20,46.1,20.9,53.7,19.6,63.4z M52.7,91c-0.1,0-0.2,0-0.3,0c-0.1,0-0.2,0-0.3,0c-17.8,0-22.8-10.4-23-10.9
	c0,0,0-0.1-0.1-0.1c0,0-0.9-1.7-1.3-5C31.4,79.7,39,86.5,52,86.5c0.1,0,0.2,0,0.3,0c0.1,0,0.2,0,0.3,0c13.4,0,21-7.7,24.6-12.9
	c-0.3,4.3-1.4,6.6-1.4,6.7C75.6,80.7,70.5,91,52.7,91z M77.1,68C77.1,68,77.1,68,77.1,68c-0.3,0.7-6.6,15.5-24.5,15.5
	c-0.1,0-0.2,0-0.3,0c-0.1,0-0.2,0-0.3,0c-17.9,0-24.1-13.7-24.3-14.2c0,0,0-0.1,0-0.1c0.2-3.4,1-7.7,2.9-12.7c0.7-2,1.8-3.7,2.9-5.2
	c2.6,1.6,10,5.5,19.4,5.5c5.6,0,12-1.4,18.5-5.5c1.1,1.5,2.2,3.2,2.9,5.2C75.9,60.9,76.7,64.8,77.1,68z M69.4,49
	c-15.8,9.6-29.9,2.5-34,0c1.4-1.5,2.7-2.6,3.6-3.3c2,1.2,7.2,3.9,13.7,3.9c4,0,8.5-1,13.1-3.9C66.6,46.3,68,47.4,69.4,49z M79,32
	c-1.7-3.4-2.2-5.8-2.3-6.8c0-0.5-0.1-0.9-0.1-0.9c-0.1-0.8-0.7-1.4-1.5-1.3c-0.8,0-1.4,0.6-1.5,1.4c0,0.1,0,0.5,0.1,1.1
	c0.1,2,0,7-2.2,10.7c-2.8,4.7-6.2,6.4-6.2,6.4c0,0,0,0-0.1,0c0,0-0.1,0-0.1,0.1c-13.1,8.7-24.8,0.4-25.3,0c-0.1-0.1-0.1-0.1-0.2-0.1
	c0,0,0,0,0,0c0,0-3.4-1.7-6.2-6.4c-2.2-3.7-2.3-8.7-2.2-10.7c0.1-0.6,0.1-1,0.1-1.1c0-0.8-0.7-1.4-1.5-1.4c-0.8,0-1.5,0.6-1.5,1.3
	c0,0.1,0,0.4-0.1,0.9c-0.1,1.1-0.6,3.4-2.3,6.8c-2.2,4.6-5.6,7.1-6.1,7.4c-1.5,0.8-3.6,1.6-5.1,0.9c-1.5-0.8-2-2.9-2.1-3.4
	c0-1.2,0.6-10.6,6.9-20.6C24.3,8.5,30.7,4.9,33.7,3.6c0.5,2.9,2,8.5,5.7,12.2C44.9,21.4,52,21,52.4,21c0.4,0,7.5,0.4,13.1-5.2
	c3.7-3.7,5.1-9.3,5.7-12.2c3,1.3,9.3,4.9,14.3,12.7c6,9.5,6.8,18.5,6.9,20.4c0,0,0,0.1,0,0.1c0,0-0.4,2.6-2.1,3.5
	c-1.4,0.7-3.4,0-4.9-0.8c0,0,0,0-0.1-0.1C85.1,39.4,81.4,36.9,79,32z M94.4,78.4c-1.7,0-7.5-1.1-9.3-14.9
	c-1.3-9.7-0.3-17.3,0.2-20.6c1.2,0.5,2.3,0.7,3.3,0.7c1,0,1.9-0.2,2.7-0.6c1.4-0.7,2.2-1.8,2.8-2.9c2.6,3.6,7.5,11.9,7.5,22.7
	C101.8,78.4,97.3,78.4,94.4,78.4z"/>
</svg>
